%TF.GenerationSoftware,KiCad,Pcbnew,10.0.3*%
%TF.CreationDate,2026-09-23T13:04:34+03:00*%
%TF.ProjectId,MCU Datalogger,4d435520-4461-4746-916c-6f676765722e,1*%
%TF.SameCoordinates,Original*%
%TF.FileFunction,Copper,L3,Inr*%
%TF.FilePolarity,Positive*%
%FSLAX46Y46*%
G04 Gerber Fmt 4.6, Leading zero omitted, Abs format (unit mm)*
G04 Created by KiCad (PCBNEW 10.0.3) date 2026-09-23 13:04:34*
%MOMM*%
%LPD*%
G01*
G04 APERTURE LIST*
%TA.AperFunction,ComponentPad*%
%ADD10R,1.700000X1.700000*%
%TD*%
%TA.AperFunction,ComponentPad*%
%ADD11C,1.700000*%
%TD*%
%TA.AperFunction,ViaPad*%
%ADD12C,0.600000*%
%TD*%
%TA.AperFunction,ViaPad*%
%ADD13C,0.900000*%
%TD*%
%TA.AperFunction,Conductor*%
%ADD14C,0.200000*%
%TD*%
G04 APERTURE END LIST*
D10*
%TO.N,/D2*%
%TO.C,J2*%
X39370000Y-82550000D03*
D11*
%TO.N,/D3*%
X41910000Y-82550000D03*
%TO.N,/D4*%
X44450000Y-82550000D03*
%TO.N,/D5*%
X46990000Y-82550000D03*
%TO.N,/D6*%
X49530000Y-82550000D03*
%TO.N,/D7*%
X52070000Y-82550000D03*
%TO.N,/D8*%
X54610000Y-82550000D03*
%TO.N,GND*%
X57150000Y-82550000D03*
%TO.N,/VCC*%
X59690000Y-82550000D03*
%TD*%
D10*
%TO.N,GND*%
%TO.C,J3*%
X66040000Y-82550000D03*
D11*
%TO.N,/VCC*%
X68580000Y-82550000D03*
%TO.N,/RX*%
X71120000Y-82550000D03*
%TO.N,/TX*%
X73660000Y-82550000D03*
%TD*%
D10*
%TO.N,/VCC*%
%TO.C,BT1*%
X36830000Y-62484000D03*
D11*
%TO.N,GND*%
X36830000Y-65024000D03*
%TD*%
D10*
%TO.N,GND*%
%TO.C,J1*%
X80010000Y-70612000D03*
D11*
%TO.N,/VCC*%
X80010000Y-73152000D03*
%TO.N,/SDA*%
X80010000Y-75692000D03*
%TO.N,/SCK*%
X80010000Y-78232000D03*
%TD*%
D10*
%TO.N,/MISO*%
%TO.C,J4*%
X77470000Y-61468000D03*
D11*
%TO.N,/VCC*%
X80010000Y-61468000D03*
%TO.N,/SCK*%
X77470000Y-64008000D03*
%TO.N,/MOSI*%
X80010000Y-64008000D03*
%TO.N,/RESET*%
X77470000Y-66548000D03*
%TO.N,GND*%
X80010000Y-66548000D03*
%TD*%
D12*
%TO.N,/MISO*%
X75403000Y-61518800D03*
X62509400Y-71501000D03*
%TO.N,/SDA*%
X51384200Y-63957200D03*
%TO.N,/SCK*%
X74498200Y-68148200D03*
X65862200Y-69697600D03*
X64058800Y-69621400D03*
D13*
%TO.N,/VCC*%
X67589400Y-60579000D03*
X56591200Y-68427600D03*
X70490164Y-69100600D03*
X71805800Y-67691000D03*
X60420786Y-68585814D03*
X59867800Y-60236200D03*
X47015400Y-58445400D03*
X38735000Y-59563000D03*
X46997431Y-65022178D03*
X43865800Y-66395600D03*
X46024800Y-72059800D03*
X50031800Y-76936600D03*
X39420800Y-79121000D03*
%TO.N,GND*%
X70739000Y-75539600D03*
X72898000Y-60731400D03*
X69088000Y-60756800D03*
X64643000Y-58699400D03*
X56692800Y-66116200D03*
X60375800Y-66167000D03*
X45059600Y-59766200D03*
X47574200Y-59817000D03*
X46888400Y-66167000D03*
X40894000Y-76174600D03*
X40005000Y-68961000D03*
D12*
%TO.N,/RESET*%
X57785000Y-65049400D03*
X72821800Y-64668400D03*
%TO.N,/D2*%
X54330600Y-61569600D03*
X40005000Y-80340200D03*
%TO.N,/SCK*%
X45415200Y-67157600D03*
X58661300Y-67957700D03*
%TO.N,Net-(U4-PB6)*%
X51892200Y-69342000D03*
%TO.N,/SCK*%
X74803000Y-65328800D03*
X76377800Y-72466200D03*
%TO.N,/SDA*%
X68275200Y-68300600D03*
X77216000Y-74295000D03*
%TO.N,Net-(U4-AREF)*%
X60401200Y-67437000D03*
X67183000Y-76047600D03*
%TO.N,Net-(U4-PB6)*%
X65776400Y-73634600D03*
X56007000Y-79070200D03*
%TO.N,Net-(U4-PB7)*%
X56946800Y-73761600D03*
X55575200Y-69596000D03*
X55575200Y-60299600D03*
%TO.N,/SDA*%
X59359800Y-65252600D03*
X67263000Y-64693800D03*
%TO.N,/MOSI*%
X59245500Y-69811900D03*
X65862200Y-72212200D03*
%TD*%
%TO.N,/MISO*%
D14*
X66837729Y-71501000D02*
X62509400Y-71501000D01*
X75311000Y-61610800D02*
X75311000Y-63027729D01*
X75311000Y-63027729D02*
X66837729Y-71501000D01*
X75403000Y-61518800D02*
X75311000Y-61610800D01*
%TO.N,/SDA*%
X51384200Y-63957200D02*
X58064400Y-63957200D01*
X58064400Y-63957200D02*
X59359800Y-65252600D01*
%TO.N,/SCK*%
X57861200Y-67157600D02*
X58661300Y-67957700D01*
X45415200Y-67157600D02*
X57861200Y-67157600D01*
%TD*%
%TA.AperFunction,Conductor*%
%TO.N,/VCC*%
G36*
X79544075Y-61660993D02*
G01*
X79609901Y-61775007D01*
X79702993Y-61868099D01*
X79817007Y-61933925D01*
X79880591Y-61950962D01*
X79251261Y-62580291D01*
X79304630Y-62619065D01*
X79316079Y-62624899D01*
X79366875Y-62672874D01*
X79383670Y-62740695D01*
X79366883Y-62789953D01*
X79396351Y-62804968D01*
X79302184Y-62852949D01*
X79149252Y-62964059D01*
X79149250Y-62964058D01*
X79130213Y-62977890D01*
X78979890Y-63128213D01*
X78854949Y-63300182D01*
X78850484Y-63308946D01*
X78802509Y-63359742D01*
X78734688Y-63376536D01*
X78668553Y-63353998D01*
X78629516Y-63308946D01*
X78625050Y-63300182D01*
X78500109Y-63128213D01*
X78386569Y-63014673D01*
X78353084Y-62953350D01*
X78358068Y-62883658D01*
X78399940Y-62827725D01*
X78430915Y-62810810D01*
X78562331Y-62761796D01*
X78677546Y-62675546D01*
X78763796Y-62560331D01*
X78814091Y-62425483D01*
X78820500Y-62365873D01*
X78820499Y-62331432D01*
X78825387Y-62338159D01*
X78840179Y-62287772D01*
X78860385Y-62270260D01*
X78857285Y-62267160D01*
X79527037Y-61597408D01*
X79544075Y-61660993D01*
G37*
%TD.AperFunction*%
%TA.AperFunction,Conductor*%
G36*
X46541735Y-57416185D02*
G01*
X46584858Y-57465951D01*
X46585454Y-57465951D01*
X46585015Y-57466132D01*
X46587490Y-57468989D01*
X46597434Y-57538147D01*
X46568409Y-57601703D01*
X46543586Y-57623603D01*
X46412723Y-57711041D01*
X46281042Y-57842722D01*
X46281036Y-57842730D01*
X46177575Y-57997570D01*
X46177573Y-57997574D01*
X46106308Y-58169625D01*
X46106305Y-58169637D01*
X46101180Y-58195399D01*
X46101181Y-58195400D01*
X47929619Y-58195400D01*
X47929619Y-58195399D01*
X47924494Y-58169637D01*
X47924491Y-58169625D01*
X47853226Y-57997574D01*
X47853224Y-57997570D01*
X47749763Y-57842730D01*
X47749757Y-57842722D01*
X47618076Y-57711041D01*
X47487214Y-57623603D01*
X47442408Y-57569990D01*
X47433701Y-57500666D01*
X47449488Y-57467667D01*
X47442712Y-57464861D01*
X47450835Y-57464850D01*
X47463855Y-57437638D01*
X47523298Y-57400918D01*
X47556104Y-57396500D01*
X77776663Y-57396500D01*
X77833400Y-57410242D01*
X81772350Y-59437304D01*
X81822950Y-59485481D01*
X81839608Y-59547799D01*
X81797171Y-81433217D01*
X81777356Y-81500219D01*
X81747478Y-81532247D01*
X77945736Y-84377995D01*
X77880271Y-84402409D01*
X77839336Y-84398500D01*
X77782731Y-84383333D01*
X77782734Y-84383320D01*
X77782638Y-84383308D01*
X77719200Y-84366258D01*
X77718834Y-84366210D01*
X77718825Y-84366210D01*
X77652680Y-84366210D01*
X37643830Y-84335539D01*
X37623541Y-84333852D01*
X37606704Y-84331046D01*
X37543812Y-84300609D01*
X37538372Y-84295366D01*
X35489426Y-82196446D01*
X34958075Y-81652135D01*
X38019500Y-81652135D01*
X38019500Y-83447870D01*
X38019501Y-83447876D01*
X38025908Y-83507483D01*
X38076202Y-83642328D01*
X38076206Y-83642335D01*
X38162452Y-83757544D01*
X38162455Y-83757547D01*
X38277664Y-83843793D01*
X38277671Y-83843797D01*
X38412517Y-83894091D01*
X38412516Y-83894091D01*
X38419444Y-83894835D01*
X38472127Y-83900500D01*
X40267872Y-83900499D01*
X40327483Y-83894091D01*
X40462331Y-83843796D01*
X40577546Y-83757546D01*
X40663796Y-83642331D01*
X40712810Y-83510916D01*
X40754681Y-83454984D01*
X40820145Y-83430566D01*
X40888418Y-83445417D01*
X40916673Y-83466569D01*
X41030213Y-83580109D01*
X41202179Y-83705048D01*
X41202181Y-83705049D01*
X41202184Y-83705051D01*
X41391588Y-83801557D01*
X41593757Y-83867246D01*
X41803713Y-83900500D01*
X41803714Y-83900500D01*
X42016286Y-83900500D01*
X42016287Y-83900500D01*
X42226243Y-83867246D01*
X42428412Y-83801557D01*
X42617816Y-83705051D01*
X42676671Y-83662291D01*
X42789786Y-83580109D01*
X42789788Y-83580106D01*
X42789792Y-83580104D01*
X42940104Y-83429792D01*
X42940106Y-83429788D01*
X42940109Y-83429786D01*
X43065048Y-83257820D01*
X43065047Y-83257820D01*
X43065051Y-83257816D01*
X43069514Y-83249054D01*
X43117488Y-83198259D01*
X43185308Y-83181463D01*
X43251444Y-83203999D01*
X43290486Y-83249056D01*
X43294951Y-83257820D01*
X43419890Y-83429786D01*
X43570213Y-83580109D01*
X43742179Y-83705048D01*
X43742181Y-83705049D01*
X43742184Y-83705051D01*
X43931588Y-83801557D01*
X44133757Y-83867246D01*
X44343713Y-83900500D01*
X44343714Y-83900500D01*
X44556286Y-83900500D01*
X44556287Y-83900500D01*
X44766243Y-83867246D01*
X44968412Y-83801557D01*
X45157816Y-83705051D01*
X45216671Y-83662291D01*
X45329786Y-83580109D01*
X45329788Y-83580106D01*
X45329792Y-83580104D01*
X45480104Y-83429792D01*
X45480106Y-83429788D01*
X45480109Y-83429786D01*
X45605048Y-83257820D01*
X45605047Y-83257820D01*
X45605051Y-83257816D01*
X45609514Y-83249054D01*
X45657488Y-83198259D01*
X45725308Y-83181463D01*
X45791444Y-83203999D01*
X45830486Y-83249056D01*
X45834951Y-83257820D01*
X45959890Y-83429786D01*
X46110213Y-83580109D01*
X46282179Y-83705048D01*
X46282181Y-83705049D01*
X46282184Y-83705051D01*
X46471588Y-83801557D01*
X46673757Y-83867246D01*
X46883713Y-83900500D01*
X46883714Y-83900500D01*
X47096286Y-83900500D01*
X47096287Y-83900500D01*
X47306243Y-83867246D01*
X47508412Y-83801557D01*
X47697816Y-83705051D01*
X47756671Y-83662291D01*
X47869786Y-83580109D01*
X47869788Y-83580106D01*
X47869792Y-83580104D01*
X48020104Y-83429792D01*
X48020106Y-83429788D01*
X48020109Y-83429786D01*
X48145048Y-83257820D01*
X48145047Y-83257820D01*
X48145051Y-83257816D01*
X48149514Y-83249054D01*
X48197488Y-83198259D01*
X48265308Y-83181463D01*
X48331444Y-83203999D01*
X48370486Y-83249056D01*
X48374951Y-83257820D01*
X48499890Y-83429786D01*
X48650213Y-83580109D01*
X48822179Y-83705048D01*
X48822181Y-83705049D01*
X48822184Y-83705051D01*
X49011588Y-83801557D01*
X49213757Y-83867246D01*
X49423713Y-83900500D01*
X49423714Y-83900500D01*
X49636286Y-83900500D01*
X49636287Y-83900500D01*
X49846243Y-83867246D01*
X50048412Y-83801557D01*
X50237816Y-83705051D01*
X50296671Y-83662291D01*
X50409786Y-83580109D01*
X50409788Y-83580106D01*
X50409792Y-83580104D01*
X50560104Y-83429792D01*
X50560106Y-83429788D01*
X50560109Y-83429786D01*
X50685048Y-83257820D01*
X50685047Y-83257820D01*
X50685051Y-83257816D01*
X50689514Y-83249054D01*
X50737488Y-83198259D01*
X50805308Y-83181463D01*
X50871444Y-83203999D01*
X50910486Y-83249056D01*
X50914951Y-83257820D01*
X51039890Y-83429786D01*
X51190213Y-83580109D01*
X51362179Y-83705048D01*
X51362181Y-83705049D01*
X51362184Y-83705051D01*
X51551588Y-83801557D01*
X51753757Y-83867246D01*
X51963713Y-83900500D01*
X51963714Y-83900500D01*
X52176286Y-83900500D01*
X52176287Y-83900500D01*
X52386243Y-83867246D01*
X52588412Y-83801557D01*
X52777816Y-83705051D01*
X52836671Y-83662291D01*
X52949786Y-83580109D01*
X52949788Y-83580106D01*
X52949792Y-83580104D01*
X53100104Y-83429792D01*
X53100106Y-83429788D01*
X53100109Y-83429786D01*
X53225048Y-83257820D01*
X53225047Y-83257820D01*
X53225051Y-83257816D01*
X53229514Y-83249054D01*
X53277488Y-83198259D01*
X53345308Y-83181463D01*
X53411444Y-83203999D01*
X53450486Y-83249056D01*
X53454951Y-83257820D01*
X53579890Y-83429786D01*
X53730213Y-83580109D01*
X53902179Y-83705048D01*
X53902181Y-83705049D01*
X53902184Y-83705051D01*
X54091588Y-83801557D01*
X54293757Y-83867246D01*
X54503713Y-83900500D01*
X54503714Y-83900500D01*
X54716286Y-83900500D01*
X54716287Y-83900500D01*
X54926243Y-83867246D01*
X55128412Y-83801557D01*
X55317816Y-83705051D01*
X55376671Y-83662291D01*
X55489786Y-83580109D01*
X55489788Y-83580106D01*
X55489792Y-83580104D01*
X55640104Y-83429792D01*
X55640106Y-83429788D01*
X55640109Y-83429786D01*
X55765048Y-83257820D01*
X55765047Y-83257820D01*
X55765051Y-83257816D01*
X55769514Y-83249054D01*
X55817488Y-83198259D01*
X55885308Y-83181463D01*
X55951444Y-83203999D01*
X55990486Y-83249056D01*
X55994951Y-83257820D01*
X56119890Y-83429786D01*
X56270213Y-83580109D01*
X56442179Y-83705048D01*
X56442181Y-83705049D01*
X56442184Y-83705051D01*
X56631588Y-83801557D01*
X56833757Y-83867246D01*
X57043713Y-83900500D01*
X57043714Y-83900500D01*
X57256286Y-83900500D01*
X57256287Y-83900500D01*
X57466243Y-83867246D01*
X57668412Y-83801557D01*
X57857816Y-83705051D01*
X57916671Y-83662291D01*
X58029786Y-83580109D01*
X58029788Y-83580106D01*
X58029792Y-83580104D01*
X58180104Y-83429792D01*
X58180106Y-83429788D01*
X58180109Y-83429786D01*
X58193940Y-83410748D01*
X58305051Y-83257816D01*
X58353031Y-83163649D01*
X58367159Y-83191377D01*
X58427925Y-83176329D01*
X58494060Y-83198866D01*
X58533101Y-83243920D01*
X58538937Y-83255374D01*
X58577706Y-83308737D01*
X58577707Y-83308737D01*
X59207037Y-82679408D01*
X59224075Y-82742993D01*
X59289901Y-82857007D01*
X59382993Y-82950099D01*
X59497007Y-83015925D01*
X59560591Y-83032962D01*
X58931261Y-83662291D01*
X58984630Y-83701065D01*
X59173379Y-83797238D01*
X59374845Y-83862698D01*
X59584081Y-83895838D01*
X59795919Y-83895838D01*
X60005152Y-83862698D01*
X60005155Y-83862698D01*
X60206620Y-83797238D01*
X60395373Y-83701063D01*
X60448737Y-83662291D01*
X60448738Y-83662291D01*
X60143134Y-83356687D01*
X62624000Y-83356687D01*
X63691500Y-83357506D01*
X63691500Y-82624000D01*
X62624000Y-82624000D01*
X62624000Y-83356687D01*
X60143134Y-83356687D01*
X59819408Y-83032962D01*
X59882993Y-83015925D01*
X59997007Y-82950099D01*
X60090099Y-82857007D01*
X60155925Y-82742993D01*
X60172962Y-82679408D01*
X60802291Y-83308738D01*
X60802291Y-83308737D01*
X60841063Y-83255373D01*
X60937238Y-83066620D01*
X61002698Y-82865155D01*
X61002698Y-82865152D01*
X61035838Y-82655919D01*
X61035838Y-82444080D01*
X61002698Y-82234847D01*
X61002698Y-82234844D01*
X60937238Y-82033379D01*
X60841065Y-81844630D01*
X60802291Y-81791261D01*
X60172962Y-82420590D01*
X60155925Y-82357007D01*
X60090099Y-82242993D01*
X59997007Y-82149901D01*
X59882993Y-82084075D01*
X59819409Y-82067037D01*
X60234310Y-81652135D01*
X64689500Y-81652135D01*
X64689500Y-83447870D01*
X64689501Y-83447876D01*
X64695908Y-83507483D01*
X64746202Y-83642328D01*
X64746206Y-83642335D01*
X64832452Y-83757544D01*
X64832455Y-83757547D01*
X64947664Y-83843793D01*
X64947671Y-83843797D01*
X65082517Y-83894091D01*
X65082516Y-83894091D01*
X65089444Y-83894835D01*
X65142127Y-83900500D01*
X66937872Y-83900499D01*
X66997483Y-83894091D01*
X67132331Y-83843796D01*
X67247546Y-83757546D01*
X67333796Y-83642331D01*
X67384091Y-83507483D01*
X67390500Y-83447873D01*
X67390499Y-83413432D01*
X67395387Y-83420159D01*
X67410179Y-83369772D01*
X67430385Y-83352260D01*
X67427285Y-83349160D01*
X68097037Y-82679408D01*
X68114075Y-82742993D01*
X68179901Y-82857007D01*
X68272993Y-82950099D01*
X68387007Y-83015925D01*
X68450591Y-83032962D01*
X67821261Y-83662291D01*
X67874630Y-83701065D01*
X68063379Y-83797238D01*
X68264845Y-83862698D01*
X68474081Y-83895838D01*
X68685919Y-83895838D01*
X68895152Y-83862698D01*
X68895155Y-83862698D01*
X69096620Y-83797238D01*
X69285373Y-83701063D01*
X69338737Y-83662291D01*
X69338738Y-83662291D01*
X68709408Y-83032962D01*
X68772993Y-83015925D01*
X68887007Y-82950099D01*
X68980099Y-82857007D01*
X69045925Y-82742993D01*
X69062962Y-82679408D01*
X69692291Y-83308738D01*
X69692291Y-83308737D01*
X69731064Y-83255371D01*
X69736898Y-83243923D01*
X69784871Y-83193126D01*
X69852692Y-83176329D01*
X69901954Y-83193115D01*
X69916968Y-83163648D01*
X69964949Y-83257816D01*
X70076058Y-83410746D01*
X70076058Y-83410748D01*
X70089890Y-83429786D01*
X70240213Y-83580109D01*
X70412179Y-83705048D01*
X70412181Y-83705049D01*
X70412184Y-83705051D01*
X70601588Y-83801557D01*
X70803757Y-83867246D01*
X71013713Y-83900500D01*
X71013714Y-83900500D01*
X71226286Y-83900500D01*
X71226287Y-83900500D01*
X71436243Y-83867246D01*
X71638412Y-83801557D01*
X71827816Y-83705051D01*
X71886671Y-83662291D01*
X71999786Y-83580109D01*
X71999788Y-83580106D01*
X71999792Y-83580104D01*
X72150104Y-83429792D01*
X72150106Y-83429788D01*
X72150109Y-83429786D01*
X72275048Y-83257820D01*
X72275047Y-83257820D01*
X72275051Y-83257816D01*
X72279514Y-83249054D01*
X72327488Y-83198259D01*
X72395308Y-83181463D01*
X72461444Y-83203999D01*
X72500486Y-83249056D01*
X72504951Y-83257820D01*
X72629890Y-83429786D01*
X72780213Y-83580109D01*
X72952179Y-83705048D01*
X72952181Y-83705049D01*
X72952184Y-83705051D01*
X73141588Y-83801557D01*
X73343757Y-83867246D01*
X73553713Y-83900500D01*
X73553714Y-83900500D01*
X73766286Y-83900500D01*
X73766287Y-83900500D01*
X73976243Y-83867246D01*
X74178412Y-83801557D01*
X74367816Y-83705051D01*
X74426671Y-83662291D01*
X74539786Y-83580109D01*
X74539788Y-83580106D01*
X74539792Y-83580104D01*
X74690104Y-83429792D01*
X74690106Y-83429788D01*
X74690109Y-83429786D01*
X74734863Y-83368187D01*
X77624000Y-83368187D01*
X77629356Y-83368191D01*
X78623549Y-82624000D01*
X77624000Y-82624000D01*
X77624000Y-83368187D01*
X74734863Y-83368187D01*
X74735844Y-83366837D01*
X75863951Y-83366837D01*
X76626000Y-83367421D01*
X76626000Y-82624000D01*
X76008500Y-82624000D01*
X76008500Y-82675897D01*
X76008404Y-82680769D01*
X76007246Y-82710221D01*
X76006959Y-82715086D01*
X76003881Y-82754165D01*
X76003404Y-82759003D01*
X75999944Y-82788236D01*
X75999277Y-82793059D01*
X75959892Y-83041728D01*
X75959036Y-83046523D01*
X75953287Y-83075423D01*
X75952242Y-83080183D01*
X75943089Y-83118300D01*
X75941862Y-83123005D01*
X75933869Y-83151347D01*
X75932455Y-83156007D01*
X75863951Y-83366837D01*
X74735844Y-83366837D01*
X74815048Y-83257820D01*
X74815047Y-83257820D01*
X74815051Y-83257816D01*
X74911557Y-83068412D01*
X74977246Y-82866243D01*
X75010500Y-82656287D01*
X75010500Y-82443713D01*
X74977246Y-82233757D01*
X74911557Y-82031588D01*
X74815051Y-81842184D01*
X74815049Y-81842181D01*
X74815048Y-81842179D01*
X74690109Y-81670213D01*
X74539786Y-81519890D01*
X74367820Y-81394951D01*
X74178414Y-81298444D01*
X74178413Y-81298443D01*
X74178412Y-81298443D01*
X73976243Y-81232754D01*
X73976241Y-81232753D01*
X73976240Y-81232753D01*
X73809125Y-81206285D01*
X73766287Y-81199500D01*
X73553713Y-81199500D01*
X73510875Y-81206285D01*
X73343760Y-81232753D01*
X73141585Y-81298444D01*
X72952179Y-81394951D01*
X72780213Y-81519890D01*
X72629890Y-81670213D01*
X72504949Y-81842182D01*
X72500484Y-81850946D01*
X72452509Y-81901742D01*
X72384688Y-81918536D01*
X72318553Y-81895998D01*
X72279516Y-81850946D01*
X72275050Y-81842182D01*
X72150109Y-81670213D01*
X71999786Y-81519890D01*
X71827820Y-81394951D01*
X71638414Y-81298444D01*
X71638413Y-81298443D01*
X71638412Y-81298443D01*
X71436243Y-81232754D01*
X71436241Y-81232753D01*
X71436240Y-81232753D01*
X71269125Y-81206285D01*
X71226287Y-81199500D01*
X71013713Y-81199500D01*
X70970875Y-81206285D01*
X70803760Y-81232753D01*
X70601585Y-81298444D01*
X70412179Y-81394951D01*
X70240213Y-81519890D01*
X70089890Y-81670213D01*
X70076058Y-81689250D01*
X70076059Y-81689252D01*
X69964949Y-81842184D01*
X69916968Y-81936350D01*
X69902840Y-81908622D01*
X69842072Y-81923670D01*
X69775937Y-81901132D01*
X69736899Y-81856079D01*
X69731065Y-81844630D01*
X69692291Y-81791261D01*
X69062962Y-82420590D01*
X69045925Y-82357007D01*
X68980099Y-82242993D01*
X68887007Y-82149901D01*
X68772993Y-82084075D01*
X68709409Y-82067037D01*
X69338737Y-81437707D01*
X69338737Y-81437706D01*
X69285374Y-81398937D01*
X69096620Y-81302761D01*
X68895154Y-81237301D01*
X68685919Y-81204162D01*
X68474081Y-81204162D01*
X68264847Y-81237301D01*
X68264844Y-81237301D01*
X68063379Y-81302761D01*
X67874623Y-81398938D01*
X67821261Y-81437706D01*
X67821261Y-81437707D01*
X68450591Y-82067037D01*
X68387007Y-82084075D01*
X68272993Y-82149901D01*
X68179901Y-82242993D01*
X68114075Y-82357007D01*
X68097037Y-82420591D01*
X67427285Y-81750839D01*
X67430584Y-81747539D01*
X67405997Y-81723222D01*
X67394951Y-81680440D01*
X67390499Y-81686567D01*
X67390499Y-81652128D01*
X67384091Y-81592517D01*
X67333796Y-81457669D01*
X67266180Y-81367346D01*
X67247547Y-81342455D01*
X67247544Y-81342452D01*
X67132335Y-81256206D01*
X67132328Y-81256202D01*
X66997482Y-81205908D01*
X66997483Y-81205908D01*
X66937883Y-81199501D01*
X66937881Y-81199500D01*
X66937873Y-81199500D01*
X66937864Y-81199500D01*
X65142129Y-81199500D01*
X65142123Y-81199501D01*
X65082516Y-81205908D01*
X64947671Y-81256202D01*
X64947664Y-81256206D01*
X64832455Y-81342452D01*
X64832452Y-81342455D01*
X64746206Y-81457664D01*
X64746202Y-81457671D01*
X64695908Y-81592517D01*
X64689501Y-81652116D01*
X64689500Y-81652135D01*
X60234310Y-81652135D01*
X60260445Y-81626000D01*
X62624000Y-81626000D01*
X63691798Y-81626000D01*
X63692084Y-81615327D01*
X63692217Y-81612007D01*
X63693649Y-81585320D01*
X63693871Y-81582011D01*
X63695481Y-81562018D01*
X63695792Y-81558715D01*
X63706962Y-81454825D01*
X63708029Y-81447157D01*
X63715936Y-81400971D01*
X63717481Y-81393381D01*
X63731826Y-81332670D01*
X63733842Y-81325191D01*
X63747450Y-81280328D01*
X63749929Y-81272988D01*
X63823587Y-81075498D01*
X63826975Y-81067318D01*
X63849233Y-81018581D01*
X63853195Y-81010667D01*
X63887372Y-80948077D01*
X63891890Y-80940463D01*
X63920854Y-80895396D01*
X63925902Y-80888126D01*
X64054886Y-80715827D01*
X64058977Y-80710750D01*
X75124000Y-80710750D01*
X75142270Y-80724025D01*
X75146157Y-80726968D01*
X75169316Y-80745227D01*
X75173081Y-80748317D01*
X75202888Y-80773778D01*
X75206527Y-80777012D01*
X75228132Y-80796986D01*
X75231636Y-80800356D01*
X75409644Y-80978364D01*
X75413014Y-80981868D01*
X75432988Y-81003473D01*
X75436222Y-81007112D01*
X75461683Y-81036919D01*
X75464773Y-81040684D01*
X75483032Y-81063843D01*
X75485975Y-81067731D01*
X75633974Y-81271435D01*
X75636760Y-81275432D01*
X75653126Y-81299927D01*
X75655750Y-81304027D01*
X75676231Y-81337450D01*
X75678693Y-81341650D01*
X75693083Y-81367346D01*
X75695378Y-81371639D01*
X75809686Y-81595981D01*
X75811811Y-81600364D01*
X75823629Y-81626000D01*
X76626000Y-81626000D01*
X77624000Y-81626000D01*
X79126000Y-81626000D01*
X79126000Y-80580500D01*
X80124000Y-80580500D01*
X80124000Y-81500854D01*
X80800018Y-80994830D01*
X80801085Y-80444318D01*
X80616007Y-80504455D01*
X80611347Y-80505869D01*
X80583005Y-80513862D01*
X80578300Y-80515089D01*
X80540183Y-80524242D01*
X80535423Y-80525287D01*
X80506523Y-80531036D01*
X80501728Y-80531892D01*
X80253059Y-80571277D01*
X80248236Y-80571944D01*
X80219003Y-80575404D01*
X80214165Y-80575881D01*
X80175086Y-80578959D01*
X80170221Y-80579246D01*
X80140769Y-80580404D01*
X80135897Y-80580500D01*
X80124000Y-80580500D01*
X79126000Y-80580500D01*
X79126000Y-80412351D01*
X79091608Y-80398109D01*
X79087139Y-80396154D01*
X79060364Y-80383811D01*
X79055981Y-80381686D01*
X78831639Y-80267378D01*
X78827346Y-80265083D01*
X78801650Y-80250693D01*
X78797450Y-80248231D01*
X78764027Y-80227750D01*
X78759927Y-80225126D01*
X78735432Y-80208760D01*
X78731435Y-80205974D01*
X78618607Y-80124000D01*
X77624000Y-80124000D01*
X77624000Y-81626000D01*
X76626000Y-81626000D01*
X76626000Y-80124000D01*
X75124000Y-80124000D01*
X75124000Y-80710750D01*
X64058977Y-80710750D01*
X64060439Y-80708936D01*
X64095519Y-80668451D01*
X64101551Y-80661972D01*
X64126000Y-80637523D01*
X64126000Y-80442085D01*
X72624000Y-80442085D01*
X72705981Y-80400314D01*
X72710364Y-80398189D01*
X72737139Y-80385846D01*
X72741608Y-80383891D01*
X72777825Y-80368893D01*
X72782353Y-80367121D01*
X72809963Y-80356936D01*
X72814560Y-80355342D01*
X73053993Y-80277545D01*
X73058653Y-80276131D01*
X73086995Y-80268138D01*
X73091700Y-80266911D01*
X73129817Y-80257758D01*
X73134577Y-80256713D01*
X73163477Y-80250964D01*
X73168272Y-80250108D01*
X73416941Y-80210723D01*
X73421764Y-80210056D01*
X73450997Y-80206596D01*
X73455835Y-80206119D01*
X73494914Y-80203041D01*
X73499779Y-80202754D01*
X73529231Y-80201596D01*
X73534103Y-80201500D01*
X73785897Y-80201500D01*
X73790769Y-80201596D01*
X73820221Y-80202754D01*
X73825086Y-80203041D01*
X73864165Y-80206119D01*
X73869003Y-80206596D01*
X73898236Y-80210056D01*
X73903059Y-80210723D01*
X74126000Y-80246033D01*
X74126000Y-80124000D01*
X72624000Y-80124000D01*
X72624000Y-80442085D01*
X64126000Y-80442085D01*
X64126000Y-80421704D01*
X70124000Y-80421704D01*
X70165981Y-80400314D01*
X70170364Y-80398189D01*
X70197139Y-80385846D01*
X70201608Y-80383891D01*
X70237825Y-80368893D01*
X70242353Y-80367121D01*
X70269963Y-80356936D01*
X70274560Y-80355342D01*
X70513993Y-80277545D01*
X70518653Y-80276131D01*
X70546995Y-80268138D01*
X70551700Y-80266911D01*
X70589817Y-80257758D01*
X70594577Y-80256713D01*
X70623477Y-80250964D01*
X70628272Y-80250108D01*
X70876941Y-80210723D01*
X70881764Y-80210056D01*
X70910997Y-80206596D01*
X70915835Y-80206119D01*
X70954914Y-80203041D01*
X70959779Y-80202754D01*
X70989231Y-80201596D01*
X70994103Y-80201500D01*
X71245897Y-80201500D01*
X71250769Y-80201596D01*
X71280221Y-80202754D01*
X71285086Y-80203041D01*
X71324165Y-80206119D01*
X71329003Y-80206596D01*
X71358236Y-80210056D01*
X71363059Y-80210723D01*
X71611728Y-80250108D01*
X71616523Y-80250964D01*
X71626000Y-80252849D01*
X71626000Y-80124000D01*
X70124000Y-80124000D01*
X70124000Y-80421704D01*
X64126000Y-80421704D01*
X64126000Y-80387585D01*
X67624000Y-80387585D01*
X67641923Y-80397372D01*
X67642523Y-80397728D01*
X67658874Y-80390190D01*
X67663336Y-80388238D01*
X67699552Y-80373236D01*
X67704086Y-80371461D01*
X67731730Y-80361262D01*
X67736333Y-80359666D01*
X67975104Y-80282085D01*
X67979768Y-80280670D01*
X68008145Y-80272668D01*
X68012862Y-80271438D01*
X68050980Y-80262290D01*
X68055727Y-80261248D01*
X68084591Y-80255507D01*
X68089383Y-80254652D01*
X68337308Y-80215385D01*
X68342127Y-80214718D01*
X68371360Y-80211257D01*
X68376206Y-80210780D01*
X68415285Y-80207703D01*
X68420146Y-80207416D01*
X68449598Y-80206258D01*
X68454470Y-80206162D01*
X68705530Y-80206162D01*
X68710402Y-80206258D01*
X68739854Y-80207416D01*
X68744715Y-80207703D01*
X68783794Y-80210780D01*
X68788640Y-80211257D01*
X68817873Y-80214718D01*
X68822692Y-80215385D01*
X69070617Y-80254652D01*
X69075409Y-80255507D01*
X69104273Y-80261248D01*
X69109020Y-80262290D01*
X69126000Y-80266365D01*
X69126000Y-80124000D01*
X67624000Y-80124000D01*
X67624000Y-80387585D01*
X64126000Y-80387585D01*
X64126000Y-80201584D01*
X65124000Y-80201584D01*
X65125464Y-80201545D01*
X65128778Y-80201501D01*
X66626000Y-80201500D01*
X66626000Y-80124000D01*
X65124000Y-80124000D01*
X65124000Y-80201584D01*
X64126000Y-80201584D01*
X64126000Y-80124000D01*
X62624000Y-80124000D01*
X62624000Y-81626000D01*
X60260445Y-81626000D01*
X60448737Y-81437707D01*
X60448737Y-81437706D01*
X60395374Y-81398937D01*
X60206620Y-81302761D01*
X60005154Y-81237301D01*
X59795919Y-81204162D01*
X59584081Y-81204162D01*
X59374847Y-81237301D01*
X59374844Y-81237301D01*
X59173379Y-81302761D01*
X58984623Y-81398938D01*
X58931261Y-81437706D01*
X58931261Y-81437707D01*
X59560591Y-82067037D01*
X59497007Y-82084075D01*
X59382993Y-82149901D01*
X59289901Y-82242993D01*
X59224075Y-82357007D01*
X59207037Y-82420591D01*
X58577707Y-81791261D01*
X58577706Y-81791261D01*
X58538936Y-81844626D01*
X58533099Y-81856082D01*
X58485123Y-81906877D01*
X58417302Y-81923670D01*
X58368046Y-81906883D01*
X58353031Y-81936350D01*
X58305051Y-81842184D01*
X58193939Y-81689250D01*
X58193940Y-81689250D01*
X58180109Y-81670213D01*
X58029786Y-81519890D01*
X57857820Y-81394951D01*
X57668414Y-81298444D01*
X57668413Y-81298443D01*
X57668412Y-81298443D01*
X57466243Y-81232754D01*
X57466241Y-81232753D01*
X57466240Y-81232753D01*
X57299125Y-81206285D01*
X57256287Y-81199500D01*
X57043713Y-81199500D01*
X57000875Y-81206285D01*
X56833760Y-81232753D01*
X56631585Y-81298444D01*
X56442179Y-81394951D01*
X56270213Y-81519890D01*
X56119890Y-81670213D01*
X55994949Y-81842182D01*
X55990484Y-81850946D01*
X55942509Y-81901742D01*
X55874688Y-81918536D01*
X55808553Y-81895998D01*
X55769516Y-81850946D01*
X55765050Y-81842182D01*
X55640109Y-81670213D01*
X55489786Y-81519890D01*
X55317820Y-81394951D01*
X55128414Y-81298444D01*
X55128413Y-81298443D01*
X55128412Y-81298443D01*
X54926243Y-81232754D01*
X54926241Y-81232753D01*
X54926240Y-81232753D01*
X54759125Y-81206285D01*
X54716287Y-81199500D01*
X54503713Y-81199500D01*
X54460875Y-81206285D01*
X54293760Y-81232753D01*
X54091585Y-81298444D01*
X53902179Y-81394951D01*
X53730213Y-81519890D01*
X53579890Y-81670213D01*
X53454949Y-81842182D01*
X53450484Y-81850946D01*
X53402509Y-81901742D01*
X53334688Y-81918536D01*
X53268553Y-81895998D01*
X53229516Y-81850946D01*
X53225050Y-81842182D01*
X53100109Y-81670213D01*
X52949786Y-81519890D01*
X52777820Y-81394951D01*
X52588414Y-81298444D01*
X52588413Y-81298443D01*
X52588412Y-81298443D01*
X52386243Y-81232754D01*
X52386241Y-81232753D01*
X52386240Y-81232753D01*
X52219125Y-81206285D01*
X52176287Y-81199500D01*
X51963713Y-81199500D01*
X51920875Y-81206285D01*
X51753760Y-81232753D01*
X51551585Y-81298444D01*
X51362179Y-81394951D01*
X51190213Y-81519890D01*
X51039890Y-81670213D01*
X50914949Y-81842182D01*
X50910484Y-81850946D01*
X50862509Y-81901742D01*
X50794688Y-81918536D01*
X50728553Y-81895998D01*
X50689516Y-81850946D01*
X50685050Y-81842182D01*
X50560109Y-81670213D01*
X50409786Y-81519890D01*
X50237820Y-81394951D01*
X50048414Y-81298444D01*
X50048413Y-81298443D01*
X50048412Y-81298443D01*
X49846243Y-81232754D01*
X49846241Y-81232753D01*
X49846240Y-81232753D01*
X49679125Y-81206285D01*
X49636287Y-81199500D01*
X49423713Y-81199500D01*
X49380875Y-81206285D01*
X49213760Y-81232753D01*
X49011585Y-81298444D01*
X48822179Y-81394951D01*
X48650213Y-81519890D01*
X48499890Y-81670213D01*
X48374949Y-81842182D01*
X48370484Y-81850946D01*
X48322509Y-81901742D01*
X48254688Y-81918536D01*
X48188553Y-81895998D01*
X48149516Y-81850946D01*
X48145050Y-81842182D01*
X48020109Y-81670213D01*
X47869786Y-81519890D01*
X47697820Y-81394951D01*
X47508414Y-81298444D01*
X47508413Y-81298443D01*
X47508412Y-81298443D01*
X47306243Y-81232754D01*
X47306241Y-81232753D01*
X47306240Y-81232753D01*
X47139125Y-81206285D01*
X47096287Y-81199500D01*
X46883713Y-81199500D01*
X46840875Y-81206285D01*
X46673760Y-81232753D01*
X46471585Y-81298444D01*
X46282179Y-81394951D01*
X46110213Y-81519890D01*
X45959890Y-81670213D01*
X45834949Y-81842182D01*
X45830484Y-81850946D01*
X45782509Y-81901742D01*
X45714688Y-81918536D01*
X45648553Y-81895998D01*
X45609516Y-81850946D01*
X45605050Y-81842182D01*
X45480109Y-81670213D01*
X45329786Y-81519890D01*
X45157820Y-81394951D01*
X44968414Y-81298444D01*
X44968413Y-81298443D01*
X44968412Y-81298443D01*
X44766243Y-81232754D01*
X44766241Y-81232753D01*
X44766240Y-81232753D01*
X44599125Y-81206285D01*
X44556287Y-81199500D01*
X44343713Y-81199500D01*
X44300875Y-81206285D01*
X44133760Y-81232753D01*
X43931585Y-81298444D01*
X43742179Y-81394951D01*
X43570213Y-81519890D01*
X43419890Y-81670213D01*
X43294949Y-81842182D01*
X43290484Y-81850946D01*
X43242509Y-81901742D01*
X43174688Y-81918536D01*
X43108553Y-81895998D01*
X43069516Y-81850946D01*
X43065050Y-81842182D01*
X42940109Y-81670213D01*
X42789786Y-81519890D01*
X42617820Y-81394951D01*
X42428414Y-81298444D01*
X42428413Y-81298443D01*
X42428412Y-81298443D01*
X42226243Y-81232754D01*
X42226241Y-81232753D01*
X42226240Y-81232753D01*
X42059125Y-81206285D01*
X42016287Y-81199500D01*
X41803713Y-81199500D01*
X41760875Y-81206285D01*
X41593760Y-81232753D01*
X41391585Y-81298444D01*
X41202179Y-81394951D01*
X41030215Y-81519889D01*
X40916673Y-81633431D01*
X40855350Y-81666915D01*
X40785658Y-81661931D01*
X40729725Y-81620059D01*
X40712810Y-81589082D01*
X40663797Y-81457671D01*
X40663793Y-81457664D01*
X40577547Y-81342455D01*
X40577544Y-81342452D01*
X40462335Y-81256206D01*
X40462326Y-81256201D01*
X40440752Y-81248155D01*
X40384818Y-81206285D01*
X40360400Y-81140820D01*
X40375251Y-81072547D01*
X40415194Y-81028871D01*
X40499712Y-80972397D01*
X40515289Y-80961989D01*
X40626789Y-80850489D01*
X40714394Y-80719379D01*
X40774737Y-80573697D01*
X40805500Y-80419042D01*
X40805500Y-80312634D01*
X42624000Y-80312634D01*
X42755440Y-80355342D01*
X42760037Y-80356936D01*
X42787647Y-80367121D01*
X42792175Y-80368893D01*
X42828392Y-80383891D01*
X42832861Y-80385846D01*
X42859636Y-80398189D01*
X42864019Y-80400314D01*
X43088361Y-80514622D01*
X43092654Y-80516917D01*
X43118350Y-80531307D01*
X43122550Y-80533769D01*
X43155973Y-80554250D01*
X43160073Y-80556874D01*
X43180000Y-80570187D01*
X43199927Y-80556874D01*
X43204027Y-80554250D01*
X43237450Y-80533769D01*
X43241650Y-80531307D01*
X43267346Y-80516917D01*
X43271639Y-80514622D01*
X43495981Y-80400314D01*
X43500364Y-80398189D01*
X43527139Y-80385846D01*
X43531608Y-80383891D01*
X43567825Y-80368893D01*
X43572353Y-80367121D01*
X43599963Y-80356936D01*
X43604560Y-80355342D01*
X43776001Y-80299637D01*
X45124000Y-80299637D01*
X45295440Y-80355342D01*
X45300037Y-80356936D01*
X45327647Y-80367121D01*
X45332175Y-80368893D01*
X45368392Y-80383891D01*
X45372861Y-80385846D01*
X45399636Y-80398189D01*
X45404019Y-80400314D01*
X45628361Y-80514622D01*
X45632654Y-80516917D01*
X45658350Y-80531307D01*
X45662550Y-80533769D01*
X45695973Y-80554250D01*
X45700073Y-80556874D01*
X45720000Y-80570187D01*
X45739927Y-80556874D01*
X45744027Y-80554250D01*
X45777450Y-80533769D01*
X45781650Y-80531307D01*
X45807346Y-80516917D01*
X45811639Y-80514622D01*
X46035981Y-80400314D01*
X46040364Y-80398189D01*
X46067139Y-80385846D01*
X46071608Y-80383891D01*
X46107825Y-80368893D01*
X46112353Y-80367121D01*
X46139963Y-80356936D01*
X46144560Y-80355342D01*
X46356002Y-80286640D01*
X47624000Y-80286640D01*
X47835440Y-80355342D01*
X47840037Y-80356936D01*
X47867647Y-80367121D01*
X47872175Y-80368893D01*
X47908392Y-80383891D01*
X47912861Y-80385846D01*
X47939636Y-80398189D01*
X47944019Y-80400314D01*
X48168361Y-80514622D01*
X48172654Y-80516917D01*
X48198350Y-80531307D01*
X48202550Y-80533769D01*
X48235973Y-80554250D01*
X48240073Y-80556874D01*
X48260000Y-80570187D01*
X48279927Y-80556874D01*
X48284027Y-80554250D01*
X48317450Y-80533769D01*
X48321650Y-80531307D01*
X48347346Y-80516917D01*
X48351639Y-80514622D01*
X48575981Y-80400314D01*
X48580364Y-80398189D01*
X48607139Y-80385846D01*
X48611608Y-80383891D01*
X48647825Y-80368893D01*
X48652353Y-80367121D01*
X48679963Y-80356936D01*
X48684560Y-80355342D01*
X48923993Y-80277545D01*
X48928653Y-80276131D01*
X48936000Y-80274059D01*
X50124000Y-80274059D01*
X50131347Y-80276131D01*
X50136007Y-80277545D01*
X50375440Y-80355342D01*
X50380037Y-80356936D01*
X50407647Y-80367121D01*
X50412175Y-80368893D01*
X50448392Y-80383891D01*
X50452861Y-80385846D01*
X50479636Y-80398189D01*
X50484019Y-80400314D01*
X50708361Y-80514622D01*
X50712654Y-80516917D01*
X50738350Y-80531307D01*
X50742550Y-80533769D01*
X50775973Y-80554250D01*
X50780073Y-80556874D01*
X50800000Y-80570187D01*
X50819927Y-80556874D01*
X50824027Y-80554250D01*
X50857450Y-80533769D01*
X50861650Y-80531307D01*
X50887346Y-80516917D01*
X50891639Y-80514622D01*
X51115981Y-80400314D01*
X51120364Y-80398189D01*
X51147139Y-80385846D01*
X51151608Y-80383891D01*
X51187825Y-80368893D01*
X51192353Y-80367121D01*
X51219963Y-80356936D01*
X51224560Y-80355342D01*
X51463993Y-80277545D01*
X51468653Y-80276131D01*
X51496995Y-80268138D01*
X51501700Y-80266911D01*
X51516001Y-80263477D01*
X52624000Y-80263477D01*
X52638300Y-80266911D01*
X52643005Y-80268138D01*
X52671347Y-80276131D01*
X52676007Y-80277545D01*
X52915440Y-80355342D01*
X52920037Y-80356936D01*
X52947647Y-80367121D01*
X52952175Y-80368893D01*
X52988392Y-80383891D01*
X52992861Y-80385846D01*
X53019636Y-80398189D01*
X53024019Y-80400314D01*
X53248361Y-80514622D01*
X53252654Y-80516917D01*
X53278350Y-80531307D01*
X53282550Y-80533769D01*
X53315973Y-80554250D01*
X53320073Y-80556874D01*
X53340000Y-80570187D01*
X53359927Y-80556874D01*
X53364027Y-80554250D01*
X53397450Y-80533769D01*
X53401650Y-80531307D01*
X53427346Y-80516917D01*
X53431639Y-80514622D01*
X53655981Y-80400314D01*
X53660364Y-80398189D01*
X53687139Y-80385846D01*
X53691608Y-80383891D01*
X53727825Y-80368893D01*
X53732353Y-80367121D01*
X53759963Y-80356936D01*
X53764560Y-80355342D01*
X54003993Y-80277545D01*
X54008653Y-80276131D01*
X54036995Y-80268138D01*
X54041700Y-80266911D01*
X54079817Y-80257758D01*
X54084577Y-80256713D01*
X54113477Y-80250964D01*
X54118271Y-80250108D01*
X54126000Y-80248883D01*
X54126000Y-80247299D01*
X57624000Y-80247299D01*
X57641729Y-80250108D01*
X57646523Y-80250964D01*
X57675423Y-80256713D01*
X57680183Y-80257758D01*
X57718300Y-80266911D01*
X57723005Y-80268138D01*
X57751347Y-80276131D01*
X57756007Y-80277545D01*
X57995440Y-80355342D01*
X58000037Y-80356936D01*
X58027647Y-80367121D01*
X58032175Y-80368893D01*
X58068392Y-80383891D01*
X58072861Y-80385846D01*
X58099636Y-80398189D01*
X58104019Y-80400314D01*
X58328361Y-80514622D01*
X58332654Y-80516917D01*
X58358350Y-80531307D01*
X58362550Y-80533769D01*
X58395973Y-80554250D01*
X58400073Y-80556874D01*
X58424205Y-80572997D01*
X58442390Y-80560848D01*
X58446495Y-80558221D01*
X58479915Y-80537744D01*
X58484108Y-80535286D01*
X58509792Y-80520902D01*
X58514087Y-80518606D01*
X58737752Y-80404643D01*
X58742130Y-80402520D01*
X58768874Y-80390190D01*
X58773336Y-80388238D01*
X58809552Y-80373236D01*
X58814086Y-80371461D01*
X58841730Y-80361262D01*
X58846333Y-80359666D01*
X59085104Y-80282085D01*
X59089768Y-80280670D01*
X59118145Y-80272668D01*
X59122862Y-80271438D01*
X59126000Y-80270684D01*
X59126000Y-80245684D01*
X60124000Y-80245684D01*
X60180617Y-80254652D01*
X60185409Y-80255507D01*
X60214273Y-80261248D01*
X60219020Y-80262290D01*
X60257138Y-80271438D01*
X60261855Y-80272668D01*
X60290232Y-80280670D01*
X60294896Y-80282085D01*
X60533667Y-80359666D01*
X60538270Y-80361262D01*
X60565914Y-80371461D01*
X60570448Y-80373236D01*
X60606664Y-80388238D01*
X60611126Y-80390190D01*
X60637870Y-80402520D01*
X60642248Y-80404643D01*
X60865918Y-80518609D01*
X60870212Y-80520905D01*
X60895907Y-80535295D01*
X60900107Y-80537756D01*
X60933528Y-80558236D01*
X60937627Y-80560860D01*
X60962119Y-80577224D01*
X60966115Y-80580009D01*
X61214715Y-80760622D01*
X61250020Y-80800351D01*
X61318095Y-80921904D01*
X61439644Y-80989977D01*
X61479373Y-81025281D01*
X61626000Y-81227099D01*
X61626000Y-80124000D01*
X60124000Y-80124000D01*
X60124000Y-80245684D01*
X59126000Y-80245684D01*
X59126000Y-80124000D01*
X57624000Y-80124000D01*
X57624000Y-80247299D01*
X54126000Y-80247299D01*
X54126000Y-80124000D01*
X52624000Y-80124000D01*
X52624000Y-80263477D01*
X51516001Y-80263477D01*
X51539817Y-80257758D01*
X51544577Y-80256713D01*
X51573477Y-80250964D01*
X51578272Y-80250108D01*
X51626000Y-80242548D01*
X51626000Y-80124000D01*
X50124000Y-80124000D01*
X50124000Y-80274059D01*
X48936000Y-80274059D01*
X48956995Y-80268138D01*
X48961700Y-80266911D01*
X48999817Y-80257758D01*
X49004577Y-80256713D01*
X49033477Y-80250964D01*
X49038272Y-80250108D01*
X49126000Y-80236213D01*
X49126000Y-80124000D01*
X47624000Y-80124000D01*
X47624000Y-80286640D01*
X46356002Y-80286640D01*
X46383993Y-80277545D01*
X46388653Y-80276131D01*
X46416995Y-80268138D01*
X46421700Y-80266911D01*
X46459817Y-80257758D01*
X46464577Y-80256713D01*
X46493477Y-80250964D01*
X46498272Y-80250108D01*
X46626000Y-80229877D01*
X46626000Y-80124000D01*
X45124000Y-80124000D01*
X45124000Y-80299637D01*
X43776001Y-80299637D01*
X43843993Y-80277545D01*
X43848653Y-80276131D01*
X43876995Y-80268138D01*
X43881700Y-80266911D01*
X43919817Y-80257758D01*
X43924577Y-80256713D01*
X43953477Y-80250964D01*
X43958272Y-80250108D01*
X44126000Y-80223542D01*
X44126000Y-80124000D01*
X42624000Y-80124000D01*
X42624000Y-80312634D01*
X40805500Y-80312634D01*
X40805500Y-80261358D01*
X40805500Y-80261355D01*
X40805499Y-80261353D01*
X40795295Y-80210056D01*
X40774737Y-80106703D01*
X40759971Y-80071055D01*
X40714397Y-79961027D01*
X40714390Y-79961014D01*
X40626789Y-79829911D01*
X40626786Y-79829907D01*
X40574458Y-79777579D01*
X40574457Y-79777579D01*
X40515289Y-79718411D01*
X40384179Y-79630806D01*
X40369375Y-79624674D01*
X40369417Y-79624597D01*
X40315255Y-79580948D01*
X40293191Y-79514654D01*
X40302551Y-79462776D01*
X40329893Y-79396766D01*
X40329894Y-79396762D01*
X40335019Y-79371000D01*
X38506580Y-79371000D01*
X38511705Y-79396762D01*
X38511708Y-79396774D01*
X38582973Y-79568825D01*
X38582975Y-79568829D01*
X38686436Y-79723669D01*
X38686442Y-79723677D01*
X38818122Y-79855357D01*
X38818130Y-79855363D01*
X38972970Y-79958824D01*
X38972974Y-79958826D01*
X39148454Y-80031511D01*
X39202858Y-80075351D01*
X39224923Y-80141645D01*
X39222619Y-80170263D01*
X39222295Y-80171891D01*
X39222296Y-80171891D01*
X39204500Y-80261358D01*
X39204500Y-80419042D01*
X39206600Y-80429602D01*
X39206599Y-80429602D01*
X39235261Y-80573689D01*
X39235264Y-80573701D01*
X39295602Y-80719372D01*
X39295609Y-80719385D01*
X39383210Y-80850488D01*
X39383213Y-80850492D01*
X39494708Y-80961987D01*
X39510288Y-80972397D01*
X39555093Y-81026009D01*
X39563801Y-81095334D01*
X39533647Y-81158362D01*
X39474204Y-81195081D01*
X39441398Y-81199500D01*
X38472129Y-81199500D01*
X38472123Y-81199501D01*
X38412516Y-81205908D01*
X38277671Y-81256202D01*
X38277664Y-81256206D01*
X38162455Y-81342452D01*
X38162452Y-81342455D01*
X38076206Y-81457664D01*
X38076202Y-81457671D01*
X38025908Y-81592517D01*
X38019501Y-81652116D01*
X38019500Y-81652135D01*
X34958075Y-81652135D01*
X34804450Y-81494763D01*
X34771706Y-81433040D01*
X34771154Y-81386114D01*
X34775298Y-81363161D01*
X34777543Y-81353133D01*
X34787878Y-81314585D01*
X34787878Y-81304584D01*
X34789852Y-81282569D01*
X34791629Y-81272731D01*
X34790251Y-81256202D01*
X34788317Y-81232991D01*
X34787888Y-81222690D01*
X34787907Y-81071456D01*
X35785906Y-81071456D01*
X36327246Y-81626000D01*
X36626000Y-81626000D01*
X36626000Y-80124000D01*
X35786024Y-80124000D01*
X35785906Y-81071456D01*
X34787907Y-81071456D01*
X34788149Y-79126000D01*
X35786147Y-79126000D01*
X36626000Y-79126000D01*
X36626000Y-78870999D01*
X38506580Y-78870999D01*
X38506581Y-78871000D01*
X39170800Y-78871000D01*
X39670800Y-78871000D01*
X40335019Y-78871000D01*
X40335019Y-78870999D01*
X40329894Y-78845237D01*
X40329891Y-78845225D01*
X40258626Y-78673174D01*
X40258624Y-78673170D01*
X40155163Y-78518330D01*
X40155157Y-78518322D01*
X40023477Y-78386642D01*
X40023469Y-78386636D01*
X39868629Y-78283175D01*
X39868625Y-78283173D01*
X39696574Y-78211908D01*
X39696562Y-78211905D01*
X39670800Y-78206780D01*
X39670800Y-78871000D01*
X39170800Y-78871000D01*
X39170800Y-78206781D01*
X39170799Y-78206780D01*
X39145037Y-78211905D01*
X39145025Y-78211908D01*
X38972974Y-78283173D01*
X38972970Y-78283175D01*
X38818130Y-78386636D01*
X38818122Y-78386642D01*
X38686442Y-78518322D01*
X38686436Y-78518330D01*
X38582975Y-78673170D01*
X38582973Y-78673174D01*
X38511708Y-78845225D01*
X38511705Y-78845237D01*
X38506580Y-78870999D01*
X36626000Y-78870999D01*
X36626000Y-78380442D01*
X37624000Y-78380442D01*
X37670320Y-78268616D01*
X37672786Y-78263052D01*
X37688533Y-78229758D01*
X37691271Y-78224320D01*
X37714373Y-78181101D01*
X37717373Y-78175805D01*
X37736301Y-78144227D01*
X37739556Y-78139088D01*
X37753617Y-78118044D01*
X41087983Y-78118044D01*
X41102044Y-78139088D01*
X41105299Y-78144227D01*
X41124227Y-78175805D01*
X41127227Y-78181101D01*
X41150329Y-78224320D01*
X41153067Y-78229758D01*
X41168814Y-78263052D01*
X41171280Y-78268616D01*
X41261301Y-78485947D01*
X41263492Y-78491626D01*
X41275894Y-78526288D01*
X41277802Y-78532063D01*
X41292029Y-78578958D01*
X41293653Y-78584828D01*
X41302602Y-78620555D01*
X41303935Y-78626492D01*
X41358141Y-78899000D01*
X41356808Y-78953322D01*
X41317702Y-79109439D01*
X41334263Y-79126000D01*
X41626000Y-79126000D01*
X42624000Y-79126000D01*
X44126000Y-79126000D01*
X45124000Y-79126000D01*
X46626000Y-79126000D01*
X47624000Y-79126000D01*
X49126000Y-79126000D01*
X49126000Y-78853702D01*
X50124000Y-78853702D01*
X50124000Y-79126000D01*
X51626000Y-79126000D01*
X52624000Y-79126000D01*
X54126000Y-79126000D01*
X54126000Y-78991353D01*
X55206500Y-78991353D01*
X55206500Y-79149046D01*
X55237261Y-79303689D01*
X55237264Y-79303701D01*
X55297602Y-79449372D01*
X55297609Y-79449385D01*
X55385210Y-79580488D01*
X55385213Y-79580492D01*
X55496707Y-79691986D01*
X55496711Y-79691989D01*
X55627814Y-79779590D01*
X55627827Y-79779597D01*
X55694101Y-79807048D01*
X55773503Y-79839937D01*
X55928153Y-79870699D01*
X55928156Y-79870700D01*
X55928158Y-79870700D01*
X56085844Y-79870700D01*
X56085845Y-79870699D01*
X56240497Y-79839937D01*
X56386179Y-79779594D01*
X56517289Y-79691989D01*
X56628789Y-79580489D01*
X56716394Y-79449379D01*
X56776737Y-79303697D01*
X56807500Y-79149042D01*
X56807500Y-78991358D01*
X56807500Y-78991355D01*
X56807499Y-78991353D01*
X56797248Y-78939820D01*
X56776737Y-78836703D01*
X56764782Y-78807840D01*
X56716397Y-78691027D01*
X56716390Y-78691014D01*
X56628789Y-78559911D01*
X56628786Y-78559907D01*
X56517292Y-78448413D01*
X56517288Y-78448410D01*
X56386185Y-78360809D01*
X56386172Y-78360802D01*
X56240501Y-78300464D01*
X56240489Y-78300461D01*
X56114697Y-78275439D01*
X57624000Y-78275439D01*
X57626587Y-78280909D01*
X57629052Y-78286472D01*
X57708145Y-78477422D01*
X57710335Y-78483099D01*
X57722737Y-78517760D01*
X57724646Y-78523538D01*
X57738872Y-78570433D01*
X57740495Y-78576297D01*
X57749445Y-78612023D01*
X57750779Y-78617965D01*
X57791104Y-78820692D01*
X57792145Y-78826689D01*
X57797549Y-78863120D01*
X57798294Y-78869161D01*
X57803097Y-78917933D01*
X57803545Y-78924003D01*
X57805351Y-78960775D01*
X57805500Y-78966858D01*
X57805500Y-79126000D01*
X59126000Y-79126000D01*
X60124000Y-79126000D01*
X61626000Y-79126000D01*
X62624000Y-79126000D01*
X64126000Y-79126000D01*
X65124000Y-79126000D01*
X66626000Y-79126000D01*
X66626000Y-77793613D01*
X67624000Y-77793613D01*
X67624000Y-79126000D01*
X69126000Y-79126000D01*
X70124000Y-79126000D01*
X71626000Y-79126000D01*
X72624000Y-79126000D01*
X74126000Y-79126000D01*
X75124000Y-79126000D01*
X76626000Y-79126000D01*
X77624000Y-79126000D01*
X77833790Y-79126000D01*
X77828893Y-79114175D01*
X77827121Y-79109647D01*
X77816936Y-79082037D01*
X77815342Y-79077440D01*
X77737545Y-78838007D01*
X77736131Y-78833347D01*
X77728138Y-78805005D01*
X77726911Y-78800300D01*
X77717758Y-78762183D01*
X77716713Y-78757423D01*
X77710964Y-78728523D01*
X77710108Y-78723728D01*
X77670723Y-78475059D01*
X77670056Y-78470236D01*
X77666596Y-78441003D01*
X77666119Y-78436165D01*
X77663041Y-78397086D01*
X77662754Y-78392221D01*
X77661596Y-78362769D01*
X77661500Y-78357897D01*
X77661500Y-78106103D01*
X77661596Y-78101231D01*
X77662754Y-78071779D01*
X77663041Y-78066914D01*
X77666119Y-78027835D01*
X77666596Y-78022997D01*
X77670056Y-77993764D01*
X77670723Y-77988941D01*
X77710108Y-77740272D01*
X77710964Y-77735477D01*
X77716713Y-77706577D01*
X77717758Y-77701817D01*
X77726911Y-77663700D01*
X77728138Y-77658995D01*
X77736131Y-77630653D01*
X77737545Y-77625993D01*
X77738193Y-77624000D01*
X77624000Y-77624000D01*
X77624000Y-79126000D01*
X76626000Y-79126000D01*
X76626000Y-77624000D01*
X75124000Y-77624000D01*
X75124000Y-79126000D01*
X74126000Y-79126000D01*
X74126000Y-77624000D01*
X72624000Y-77624000D01*
X72624000Y-79126000D01*
X71626000Y-79126000D01*
X71626000Y-77624000D01*
X70124000Y-77624000D01*
X70124000Y-79126000D01*
X69126000Y-79126000D01*
X69126000Y-77624000D01*
X68057070Y-77624000D01*
X68054230Y-77625608D01*
X68011009Y-77648709D01*
X68005574Y-77651445D01*
X67972292Y-77667186D01*
X67966728Y-77669652D01*
X67775778Y-77748745D01*
X67770101Y-77750935D01*
X67735440Y-77763337D01*
X67729662Y-77765246D01*
X67682767Y-77779472D01*
X67676903Y-77781095D01*
X67641177Y-77790045D01*
X67635235Y-77791379D01*
X67624000Y-77793613D01*
X66626000Y-77793613D01*
X66626000Y-77761705D01*
X66595899Y-77750935D01*
X66590222Y-77748745D01*
X66399272Y-77669652D01*
X66393708Y-77667186D01*
X66360426Y-77651445D01*
X66354991Y-77648709D01*
X66311770Y-77625608D01*
X66308930Y-77624000D01*
X65124000Y-77624000D01*
X65124000Y-79126000D01*
X64126000Y-79126000D01*
X64126000Y-77624000D01*
X62624000Y-77624000D01*
X62624000Y-79126000D01*
X61626000Y-79126000D01*
X61626000Y-77624000D01*
X60124000Y-77624000D01*
X60124000Y-79126000D01*
X59126000Y-79126000D01*
X59126000Y-77624000D01*
X57624000Y-77624000D01*
X57624000Y-78275439D01*
X56114697Y-78275439D01*
X56085845Y-78269700D01*
X56085842Y-78269700D01*
X55928158Y-78269700D01*
X55928155Y-78269700D01*
X55773510Y-78300461D01*
X55773498Y-78300464D01*
X55627827Y-78360802D01*
X55627814Y-78360809D01*
X55496711Y-78448410D01*
X55496707Y-78448413D01*
X55385213Y-78559907D01*
X55385210Y-78559911D01*
X55297609Y-78691014D01*
X55297602Y-78691027D01*
X55237264Y-78836698D01*
X55237261Y-78836710D01*
X55206500Y-78991353D01*
X54126000Y-78991353D01*
X54126000Y-77624000D01*
X52624000Y-77624000D01*
X52624000Y-79126000D01*
X51626000Y-79126000D01*
X51626000Y-78048783D01*
X51582355Y-78114103D01*
X51578853Y-78119077D01*
X51556920Y-78148652D01*
X51553173Y-78153453D01*
X51522083Y-78191336D01*
X51518109Y-78195943D01*
X51493378Y-78223230D01*
X51489180Y-78227639D01*
X51322839Y-78393980D01*
X51318430Y-78398178D01*
X51291143Y-78422909D01*
X51286536Y-78426883D01*
X51248653Y-78457973D01*
X51243852Y-78461720D01*
X51214277Y-78483653D01*
X51209303Y-78487155D01*
X51013712Y-78617844D01*
X51008573Y-78621099D01*
X50976995Y-78640027D01*
X50971698Y-78643028D01*
X50928480Y-78666129D01*
X50923044Y-78668865D01*
X50889751Y-78684612D01*
X50884185Y-78687079D01*
X50666844Y-78777104D01*
X50661164Y-78779295D01*
X50626484Y-78791703D01*
X50620705Y-78793612D01*
X50573799Y-78807840D01*
X50567932Y-78809464D01*
X50532205Y-78818412D01*
X50526265Y-78819745D01*
X50253760Y-78873937D01*
X50199440Y-78872602D01*
X50124000Y-78853702D01*
X49126000Y-78853702D01*
X49126000Y-78661254D01*
X49091902Y-78643028D01*
X49086605Y-78640027D01*
X49055027Y-78621099D01*
X49049888Y-78617844D01*
X48854297Y-78487155D01*
X48849323Y-78483653D01*
X48819748Y-78461720D01*
X48814947Y-78457973D01*
X48777064Y-78426883D01*
X48772457Y-78422909D01*
X48745170Y-78398178D01*
X48740761Y-78393980D01*
X48574420Y-78227639D01*
X48570222Y-78223230D01*
X48545491Y-78195943D01*
X48541517Y-78191336D01*
X48510427Y-78153453D01*
X48506680Y-78148652D01*
X48484747Y-78119077D01*
X48481245Y-78114103D01*
X48350556Y-77918512D01*
X48347301Y-77913373D01*
X48328373Y-77881795D01*
X48325373Y-77876499D01*
X48302271Y-77833280D01*
X48299533Y-77827842D01*
X48283786Y-77794548D01*
X48281320Y-77788984D01*
X48212982Y-77624000D01*
X47624000Y-77624000D01*
X47624000Y-79126000D01*
X46626000Y-79126000D01*
X46626000Y-77624000D01*
X45124000Y-77624000D01*
X45124000Y-79126000D01*
X44126000Y-79126000D01*
X44126000Y-77624000D01*
X42624000Y-77624000D01*
X42624000Y-79126000D01*
X41626000Y-79126000D01*
X41626000Y-77980437D01*
X41530535Y-78019980D01*
X41524859Y-78022170D01*
X41490197Y-78034573D01*
X41484418Y-78036482D01*
X41437522Y-78050709D01*
X41431652Y-78052333D01*
X41395924Y-78061282D01*
X41389987Y-78062615D01*
X41158281Y-78108704D01*
X41152286Y-78109745D01*
X41115858Y-78115149D01*
X41109815Y-78115894D01*
X41087983Y-78118044D01*
X37753617Y-78118044D01*
X37870245Y-77943497D01*
X37873747Y-77938523D01*
X37895680Y-77908948D01*
X37899427Y-77904147D01*
X37930517Y-77866264D01*
X37934491Y-77861657D01*
X37959222Y-77834370D01*
X37963420Y-77829961D01*
X38129761Y-77663620D01*
X38134170Y-77659422D01*
X38161457Y-77634691D01*
X38166064Y-77630717D01*
X38174249Y-77624000D01*
X37624000Y-77624000D01*
X37624000Y-78380442D01*
X36626000Y-78380442D01*
X36626000Y-77624000D01*
X35786335Y-77624000D01*
X35786147Y-79126000D01*
X34788149Y-79126000D01*
X34788389Y-77186600D01*
X49117580Y-77186600D01*
X49122705Y-77212362D01*
X49122708Y-77212374D01*
X49193973Y-77384425D01*
X49193975Y-77384429D01*
X49297436Y-77539269D01*
X49297442Y-77539277D01*
X49429122Y-77670957D01*
X49429130Y-77670963D01*
X49583970Y-77774424D01*
X49756026Y-77845691D01*
X49756036Y-77845694D01*
X49781799Y-77850818D01*
X50281800Y-77850818D01*
X50307563Y-77845694D01*
X50307573Y-77845691D01*
X50479629Y-77774424D01*
X50634469Y-77670963D01*
X50634477Y-77670957D01*
X50766157Y-77539277D01*
X50766163Y-77539269D01*
X50869624Y-77384429D01*
X50869626Y-77384425D01*
X50940891Y-77212374D01*
X50940894Y-77212362D01*
X50946019Y-77186600D01*
X50281800Y-77186600D01*
X50281800Y-77850818D01*
X49781799Y-77850818D01*
X49781800Y-77850817D01*
X49781800Y-77186600D01*
X49117580Y-77186600D01*
X34788389Y-77186600D01*
X34788459Y-76626000D01*
X35786458Y-76626000D01*
X36626000Y-76626000D01*
X37624000Y-76626000D01*
X38997116Y-76626000D01*
X38959896Y-76438881D01*
X38958855Y-76432886D01*
X38953451Y-76396458D01*
X38952706Y-76390415D01*
X38947903Y-76341646D01*
X38947455Y-76335575D01*
X38945649Y-76298800D01*
X38945500Y-76292718D01*
X38945500Y-76080979D01*
X39943500Y-76080979D01*
X39943500Y-76268220D01*
X39980025Y-76451843D01*
X39980027Y-76451851D01*
X40051676Y-76624828D01*
X40051681Y-76624837D01*
X40155697Y-76780507D01*
X40155700Y-76780511D01*
X40288088Y-76912899D01*
X40288092Y-76912902D01*
X40443762Y-77016918D01*
X40443768Y-77016921D01*
X40443769Y-77016922D01*
X40616749Y-77088573D01*
X40800379Y-77125099D01*
X40800383Y-77125100D01*
X40800384Y-77125100D01*
X40987617Y-77125100D01*
X40987618Y-77125099D01*
X41171251Y-77088573D01*
X41344231Y-77016922D01*
X41499908Y-76912902D01*
X41632302Y-76780508D01*
X41695050Y-76686599D01*
X49117580Y-76686599D01*
X49117581Y-76686600D01*
X49781800Y-76686600D01*
X50281800Y-76686600D01*
X50946019Y-76686600D01*
X50946019Y-76686599D01*
X50940894Y-76660837D01*
X50940891Y-76660825D01*
X50926466Y-76626000D01*
X52624000Y-76626000D01*
X54126000Y-76626000D01*
X55124000Y-76626000D01*
X56626000Y-76626000D01*
X56626000Y-75531523D01*
X56494565Y-75505379D01*
X56488623Y-75504045D01*
X56452897Y-75495095D01*
X56447033Y-75493472D01*
X56400138Y-75479246D01*
X56394360Y-75477337D01*
X56359699Y-75464935D01*
X56354022Y-75462745D01*
X56269598Y-75427776D01*
X57624000Y-75427776D01*
X57624000Y-76626000D01*
X59126000Y-76626000D01*
X60124000Y-76626000D01*
X61626000Y-76626000D01*
X62624000Y-76626000D01*
X64126000Y-76626000D01*
X65124000Y-76626000D01*
X65476552Y-76626000D01*
X65467263Y-76600040D01*
X65465354Y-76594262D01*
X65451128Y-76547367D01*
X65449505Y-76541503D01*
X65440555Y-76505777D01*
X65439221Y-76499835D01*
X65398896Y-76297108D01*
X65397855Y-76291111D01*
X65392451Y-76254680D01*
X65391706Y-76248639D01*
X65386903Y-76199867D01*
X65386455Y-76193797D01*
X65384649Y-76157025D01*
X65384500Y-76150942D01*
X65384500Y-75968753D01*
X66382500Y-75968753D01*
X66382500Y-76126446D01*
X66413261Y-76281089D01*
X66413264Y-76281101D01*
X66473602Y-76426772D01*
X66473609Y-76426785D01*
X66561210Y-76557888D01*
X66561213Y-76557892D01*
X66672707Y-76669386D01*
X66672711Y-76669389D01*
X66803814Y-76756990D01*
X66803827Y-76756997D01*
X66860596Y-76780511D01*
X66949503Y-76817337D01*
X67098869Y-76847048D01*
X67104153Y-76848099D01*
X67104156Y-76848100D01*
X67104158Y-76848100D01*
X67261844Y-76848100D01*
X67261845Y-76848099D01*
X67416497Y-76817337D01*
X67562179Y-76756994D01*
X67693289Y-76669389D01*
X67804789Y-76557889D01*
X67892394Y-76426779D01*
X67952737Y-76281097D01*
X67983500Y-76126442D01*
X67983500Y-75968758D01*
X67983500Y-75968755D01*
X67983499Y-75968753D01*
X67952737Y-75814103D01*
X67946186Y-75798287D01*
X67892397Y-75668427D01*
X67892390Y-75668414D01*
X67804789Y-75537311D01*
X67804786Y-75537307D01*
X67713458Y-75445979D01*
X69788500Y-75445979D01*
X69788500Y-75633220D01*
X69825025Y-75816843D01*
X69825027Y-75816851D01*
X69896676Y-75989828D01*
X69896681Y-75989837D01*
X70000697Y-76145507D01*
X70000700Y-76145511D01*
X70133088Y-76277899D01*
X70133092Y-76277902D01*
X70288762Y-76381918D01*
X70288768Y-76381921D01*
X70288769Y-76381922D01*
X70461749Y-76453573D01*
X70638698Y-76488770D01*
X70645379Y-76490099D01*
X70645383Y-76490100D01*
X70645384Y-76490100D01*
X70832617Y-76490100D01*
X70832618Y-76490099D01*
X71016251Y-76453573D01*
X71189231Y-76381922D01*
X71344908Y-76277902D01*
X71477302Y-76145508D01*
X71542294Y-76048240D01*
X72624000Y-76048240D01*
X72624000Y-76626000D01*
X74126000Y-76626000D01*
X75124000Y-76626000D01*
X76626000Y-76626000D01*
X76626000Y-75997216D01*
X76623222Y-75996145D01*
X76432272Y-75917052D01*
X76426708Y-75914586D01*
X76393426Y-75898845D01*
X76387991Y-75896109D01*
X76344770Y-75873008D01*
X76339475Y-75870009D01*
X76307882Y-75851074D01*
X76302737Y-75847816D01*
X76130878Y-75732983D01*
X76125902Y-75729478D01*
X76096329Y-75707545D01*
X76091531Y-75703801D01*
X76053649Y-75672712D01*
X76049042Y-75668738D01*
X76021755Y-75644007D01*
X76017346Y-75639809D01*
X75871191Y-75493654D01*
X75866993Y-75489245D01*
X75842262Y-75461958D01*
X75838288Y-75457351D01*
X75807199Y-75419469D01*
X75803455Y-75414671D01*
X75781522Y-75385098D01*
X75778017Y-75380122D01*
X75663184Y-75208263D01*
X75659926Y-75203118D01*
X75640991Y-75171525D01*
X75637992Y-75166230D01*
X75615421Y-75124000D01*
X75124000Y-75124000D01*
X75124000Y-76626000D01*
X74126000Y-76626000D01*
X74126000Y-75124000D01*
X72643005Y-75124000D01*
X72673104Y-75275319D01*
X72674145Y-75281314D01*
X72679549Y-75317742D01*
X72680294Y-75323785D01*
X72685097Y-75372554D01*
X72685545Y-75378625D01*
X72687351Y-75415400D01*
X72687500Y-75421482D01*
X72687500Y-75657718D01*
X72687351Y-75663800D01*
X72685545Y-75700575D01*
X72685097Y-75706646D01*
X72680294Y-75755415D01*
X72679549Y-75761458D01*
X72674145Y-75797886D01*
X72673104Y-75803881D01*
X72627015Y-76035587D01*
X72625682Y-76041526D01*
X72624000Y-76048240D01*
X71542294Y-76048240D01*
X71581322Y-75989831D01*
X71652973Y-75816851D01*
X71689500Y-75633216D01*
X71689500Y-75445984D01*
X71652973Y-75262349D01*
X71581322Y-75089369D01*
X71581321Y-75089368D01*
X71581318Y-75089362D01*
X71477302Y-74933692D01*
X71477299Y-74933688D01*
X71344911Y-74801300D01*
X71344907Y-74801297D01*
X71189237Y-74697281D01*
X71189228Y-74697276D01*
X71016251Y-74625627D01*
X71016243Y-74625625D01*
X70832620Y-74589100D01*
X70832616Y-74589100D01*
X70645384Y-74589100D01*
X70645379Y-74589100D01*
X70461756Y-74625625D01*
X70461748Y-74625627D01*
X70288771Y-74697276D01*
X70288762Y-74697281D01*
X70133092Y-74801297D01*
X70133088Y-74801300D01*
X70000700Y-74933688D01*
X70000697Y-74933692D01*
X69896681Y-75089362D01*
X69896676Y-75089371D01*
X69825027Y-75262348D01*
X69825025Y-75262356D01*
X69788500Y-75445979D01*
X67713458Y-75445979D01*
X67693292Y-75425813D01*
X67693288Y-75425810D01*
X67562185Y-75338209D01*
X67562172Y-75338202D01*
X67416501Y-75277864D01*
X67416489Y-75277861D01*
X67261845Y-75247100D01*
X67261842Y-75247100D01*
X67104158Y-75247100D01*
X67104155Y-75247100D01*
X66949510Y-75277861D01*
X66949498Y-75277864D01*
X66803827Y-75338202D01*
X66803814Y-75338209D01*
X66672711Y-75425810D01*
X66672707Y-75425813D01*
X66561213Y-75537307D01*
X66561210Y-75537311D01*
X66473609Y-75668414D01*
X66473602Y-75668427D01*
X66413264Y-75814098D01*
X66413261Y-75814110D01*
X66382500Y-75968753D01*
X65384500Y-75968753D01*
X65384500Y-75944258D01*
X65384649Y-75938175D01*
X65386455Y-75901403D01*
X65386903Y-75895333D01*
X65391706Y-75846561D01*
X65392451Y-75840520D01*
X65397855Y-75804089D01*
X65398896Y-75798092D01*
X65439221Y-75595365D01*
X65440555Y-75589423D01*
X65449505Y-75553697D01*
X65451128Y-75547833D01*
X65465354Y-75500938D01*
X65467263Y-75495160D01*
X65479665Y-75460499D01*
X65481855Y-75454822D01*
X65499104Y-75413176D01*
X65324165Y-75378379D01*
X65318223Y-75377045D01*
X65282497Y-75368095D01*
X65276633Y-75366472D01*
X65229738Y-75352246D01*
X65223960Y-75350337D01*
X65189299Y-75337935D01*
X65183622Y-75335745D01*
X65124000Y-75311049D01*
X65124000Y-76626000D01*
X64126000Y-76626000D01*
X64126000Y-75124000D01*
X62624000Y-75124000D01*
X62624000Y-76626000D01*
X61626000Y-76626000D01*
X61626000Y-75124000D01*
X60124000Y-75124000D01*
X60124000Y-76626000D01*
X59126000Y-76626000D01*
X59126000Y-75124000D01*
X58126268Y-75124000D01*
X58113758Y-75135338D01*
X58109151Y-75139312D01*
X58071269Y-75170401D01*
X58066471Y-75174145D01*
X58036898Y-75196078D01*
X58031922Y-75199583D01*
X57860063Y-75314416D01*
X57854918Y-75317674D01*
X57823325Y-75336609D01*
X57818030Y-75339608D01*
X57774809Y-75362709D01*
X57769374Y-75365445D01*
X57736092Y-75381186D01*
X57730528Y-75383652D01*
X57624000Y-75427776D01*
X56269598Y-75427776D01*
X56163072Y-75383652D01*
X56157508Y-75381186D01*
X56124226Y-75365445D01*
X56118791Y-75362709D01*
X56075570Y-75339608D01*
X56070275Y-75336609D01*
X56038682Y-75317674D01*
X56033537Y-75314416D01*
X55861678Y-75199583D01*
X55856702Y-75196078D01*
X55827129Y-75174145D01*
X55822331Y-75170401D01*
X55784449Y-75139312D01*
X55779842Y-75135338D01*
X55767332Y-75124000D01*
X55124000Y-75124000D01*
X55124000Y-76626000D01*
X54126000Y-76626000D01*
X54126000Y-75124000D01*
X52624000Y-75124000D01*
X52624000Y-76626000D01*
X50926466Y-76626000D01*
X50869626Y-76488774D01*
X50869624Y-76488770D01*
X50766163Y-76333930D01*
X50766157Y-76333922D01*
X50634477Y-76202242D01*
X50634469Y-76202236D01*
X50479629Y-76098775D01*
X50479625Y-76098773D01*
X50307574Y-76027508D01*
X50307562Y-76027505D01*
X50281800Y-76022380D01*
X50281800Y-76686600D01*
X49781800Y-76686600D01*
X49781800Y-76022381D01*
X49781799Y-76022380D01*
X49756037Y-76027505D01*
X49756025Y-76027508D01*
X49583974Y-76098773D01*
X49583970Y-76098775D01*
X49429130Y-76202236D01*
X49429122Y-76202242D01*
X49297442Y-76333922D01*
X49297436Y-76333930D01*
X49193975Y-76488770D01*
X49193973Y-76488774D01*
X49122708Y-76660825D01*
X49122705Y-76660837D01*
X49117580Y-76686599D01*
X41695050Y-76686599D01*
X41736322Y-76624831D01*
X41807973Y-76451851D01*
X41844500Y-76268216D01*
X41844500Y-76080984D01*
X41807973Y-75897349D01*
X41736322Y-75724369D01*
X41736321Y-75724368D01*
X41736318Y-75724362D01*
X41632302Y-75568692D01*
X41632299Y-75568688D01*
X41499911Y-75436300D01*
X41499907Y-75436297D01*
X41344237Y-75332281D01*
X41344228Y-75332276D01*
X41189012Y-75267984D01*
X42624000Y-75267984D01*
X42628038Y-75275539D01*
X42630773Y-75280974D01*
X42646513Y-75314254D01*
X42648979Y-75319817D01*
X42739380Y-75538065D01*
X42741570Y-75543741D01*
X42753973Y-75578403D01*
X42755882Y-75584182D01*
X42770109Y-75631078D01*
X42771733Y-75636948D01*
X42780682Y-75672676D01*
X42782015Y-75678613D01*
X42828104Y-75910319D01*
X42829145Y-75916314D01*
X42834549Y-75952742D01*
X42835294Y-75958785D01*
X42840097Y-76007554D01*
X42840545Y-76013625D01*
X42842351Y-76050400D01*
X42842500Y-76056482D01*
X42842500Y-76292718D01*
X42842351Y-76298800D01*
X42840545Y-76335575D01*
X42840097Y-76341646D01*
X42835294Y-76390415D01*
X42834549Y-76396458D01*
X42829145Y-76432886D01*
X42828104Y-76438881D01*
X42790884Y-76626000D01*
X44126000Y-76626000D01*
X45124000Y-76626000D01*
X46626000Y-76626000D01*
X47624000Y-76626000D01*
X48112083Y-76626000D01*
X48148665Y-76442092D01*
X48149998Y-76436155D01*
X48158947Y-76400428D01*
X48160571Y-76394558D01*
X48174798Y-76347663D01*
X48176706Y-76341888D01*
X48189108Y-76307226D01*
X48191299Y-76301547D01*
X48281320Y-76084216D01*
X48283786Y-76078652D01*
X48299533Y-76045358D01*
X48302271Y-76039920D01*
X48325373Y-75996701D01*
X48328373Y-75991405D01*
X48347301Y-75959827D01*
X48350556Y-75954688D01*
X48481245Y-75759097D01*
X48484747Y-75754123D01*
X48506680Y-75724548D01*
X48510427Y-75719747D01*
X48541517Y-75681864D01*
X48545491Y-75677257D01*
X48570222Y-75649970D01*
X48574420Y-75645561D01*
X48740761Y-75479220D01*
X48745170Y-75475022D01*
X48772457Y-75450291D01*
X48777064Y-75446317D01*
X48814947Y-75415227D01*
X48819748Y-75411480D01*
X48849323Y-75389547D01*
X48854297Y-75386045D01*
X49049888Y-75255356D01*
X49055027Y-75252101D01*
X49086605Y-75233173D01*
X49091901Y-75230173D01*
X49126000Y-75211945D01*
X49126000Y-75124000D01*
X50734212Y-75124000D01*
X50884184Y-75186120D01*
X50889748Y-75188586D01*
X50923042Y-75204333D01*
X50928480Y-75207071D01*
X50971699Y-75230173D01*
X50976995Y-75233173D01*
X51008573Y-75252101D01*
X51013712Y-75255356D01*
X51209303Y-75386045D01*
X51214277Y-75389547D01*
X51243852Y-75411480D01*
X51248653Y-75415227D01*
X51286536Y-75446317D01*
X51291143Y-75450291D01*
X51318430Y-75475022D01*
X51322839Y-75479220D01*
X51489180Y-75645561D01*
X51493378Y-75649970D01*
X51518109Y-75677257D01*
X51522083Y-75681864D01*
X51553173Y-75719747D01*
X51556920Y-75724548D01*
X51578853Y-75754123D01*
X51582355Y-75759097D01*
X51626000Y-75824416D01*
X51626000Y-75124000D01*
X50734212Y-75124000D01*
X49126000Y-75124000D01*
X47624000Y-75124000D01*
X47624000Y-76626000D01*
X46626000Y-76626000D01*
X46626000Y-75124000D01*
X45124000Y-75124000D01*
X45124000Y-76626000D01*
X44126000Y-76626000D01*
X44126000Y-75124000D01*
X42624000Y-75124000D01*
X42624000Y-75267984D01*
X41189012Y-75267984D01*
X41171251Y-75260627D01*
X41171243Y-75260625D01*
X40987620Y-75224100D01*
X40987616Y-75224100D01*
X40800384Y-75224100D01*
X40800379Y-75224100D01*
X40616756Y-75260625D01*
X40616748Y-75260627D01*
X40443771Y-75332276D01*
X40443762Y-75332281D01*
X40288092Y-75436297D01*
X40288088Y-75436300D01*
X40155700Y-75568688D01*
X40155697Y-75568692D01*
X40051681Y-75724362D01*
X40051676Y-75724371D01*
X39980027Y-75897348D01*
X39980025Y-75897356D01*
X39943500Y-76080979D01*
X38945500Y-76080979D01*
X38945500Y-76056482D01*
X38945649Y-76050400D01*
X38947455Y-76013625D01*
X38947903Y-76007554D01*
X38952706Y-75958785D01*
X38953451Y-75952742D01*
X38958855Y-75916314D01*
X38959896Y-75910319D01*
X39005985Y-75678613D01*
X39007318Y-75672676D01*
X39016267Y-75636948D01*
X39017891Y-75631078D01*
X39032118Y-75584182D01*
X39034027Y-75578403D01*
X39046430Y-75543741D01*
X39048620Y-75538066D01*
X39126000Y-75351252D01*
X39126000Y-75124000D01*
X37624000Y-75124000D01*
X37624000Y-76626000D01*
X36626000Y-76626000D01*
X36626000Y-75124000D01*
X35786645Y-75124000D01*
X35786458Y-76626000D01*
X34788459Y-76626000D01*
X34788769Y-74126000D01*
X35786768Y-74126000D01*
X36626000Y-74126000D01*
X37624000Y-74126000D01*
X39126000Y-74126000D01*
X40124000Y-74126000D01*
X41626000Y-74126000D01*
X42624000Y-74126000D01*
X44126000Y-74126000D01*
X45124000Y-74126000D01*
X46626000Y-74126000D01*
X46626000Y-73912571D01*
X46619484Y-73914903D01*
X46613705Y-73916812D01*
X46566799Y-73931040D01*
X46560932Y-73932664D01*
X46525205Y-73941612D01*
X46519265Y-73942945D01*
X46246760Y-73997137D01*
X46192440Y-73995802D01*
X46024800Y-73953804D01*
X45857160Y-73995802D01*
X45802840Y-73997137D01*
X45530335Y-73942945D01*
X45524395Y-73941612D01*
X45488668Y-73932664D01*
X45482801Y-73931040D01*
X45435895Y-73916812D01*
X45430116Y-73914903D01*
X45395436Y-73902495D01*
X45389756Y-73900304D01*
X45172415Y-73810279D01*
X45166849Y-73807812D01*
X45133556Y-73792065D01*
X45128120Y-73789329D01*
X45124000Y-73787126D01*
X45124000Y-74126000D01*
X44126000Y-74126000D01*
X44126000Y-73164500D01*
X47624000Y-73164500D01*
X47624000Y-74126000D01*
X49126000Y-74126000D01*
X50124000Y-74126000D01*
X51626000Y-74126000D01*
X52624000Y-74126000D01*
X54126000Y-74126000D01*
X55124000Y-74126000D01*
X55185549Y-74126000D01*
X55162696Y-74011108D01*
X55161655Y-74005111D01*
X55156251Y-73968680D01*
X55155506Y-73962639D01*
X55150703Y-73913867D01*
X55150255Y-73907797D01*
X55148449Y-73871025D01*
X55148300Y-73864942D01*
X55148300Y-73682753D01*
X56146300Y-73682753D01*
X56146300Y-73840446D01*
X56177061Y-73995089D01*
X56177064Y-73995101D01*
X56237402Y-74140772D01*
X56237409Y-74140785D01*
X56325010Y-74271888D01*
X56325013Y-74271892D01*
X56436507Y-74383386D01*
X56436511Y-74383389D01*
X56567614Y-74470990D01*
X56567627Y-74470997D01*
X56706456Y-74528501D01*
X56713303Y-74531337D01*
X56867953Y-74562099D01*
X56867956Y-74562100D01*
X56867958Y-74562100D01*
X57025644Y-74562100D01*
X57025645Y-74562099D01*
X57180297Y-74531337D01*
X57325979Y-74470994D01*
X57457089Y-74383389D01*
X57568589Y-74271889D01*
X57656194Y-74140779D01*
X57716537Y-73995097D01*
X57747300Y-73840442D01*
X57747300Y-73682758D01*
X57747300Y-73682755D01*
X57747299Y-73682753D01*
X57744488Y-73668620D01*
X57716537Y-73528103D01*
X57691292Y-73467155D01*
X57656197Y-73382427D01*
X57656190Y-73382414D01*
X57568589Y-73251311D01*
X57568586Y-73251307D01*
X57457092Y-73139813D01*
X57457088Y-73139810D01*
X57325985Y-73052209D01*
X57325972Y-73052202D01*
X57180301Y-72991864D01*
X57180289Y-72991861D01*
X57025645Y-72961100D01*
X57025642Y-72961100D01*
X56867958Y-72961100D01*
X56867955Y-72961100D01*
X56713310Y-72991861D01*
X56713298Y-72991864D01*
X56567627Y-73052202D01*
X56567614Y-73052209D01*
X56436511Y-73139810D01*
X56436507Y-73139813D01*
X56325013Y-73251307D01*
X56325010Y-73251311D01*
X56237409Y-73382414D01*
X56237402Y-73382427D01*
X56177064Y-73528098D01*
X56177061Y-73528110D01*
X56146300Y-73682753D01*
X55148300Y-73682753D01*
X55148300Y-73658258D01*
X55148449Y-73652175D01*
X55150255Y-73615403D01*
X55150703Y-73609333D01*
X55155506Y-73560561D01*
X55156251Y-73554520D01*
X55161655Y-73518089D01*
X55162696Y-73512092D01*
X55203021Y-73309365D01*
X55204355Y-73303423D01*
X55213305Y-73267697D01*
X55214928Y-73261833D01*
X55229154Y-73214938D01*
X55231063Y-73209160D01*
X55243465Y-73174499D01*
X55245655Y-73168822D01*
X55324748Y-72977872D01*
X55327214Y-72972308D01*
X55342955Y-72939026D01*
X55345691Y-72933591D01*
X55368792Y-72890370D01*
X55371791Y-72885075D01*
X55390726Y-72853482D01*
X55393984Y-72848337D01*
X55508817Y-72676478D01*
X55512322Y-72671502D01*
X55534255Y-72641929D01*
X55537999Y-72637131D01*
X55548775Y-72624000D01*
X58344825Y-72624000D01*
X58355601Y-72637131D01*
X58359345Y-72641929D01*
X58381278Y-72671502D01*
X58384783Y-72676478D01*
X58499616Y-72848337D01*
X58502874Y-72853482D01*
X58521809Y-72885075D01*
X58524808Y-72890370D01*
X58547909Y-72933591D01*
X58550645Y-72939026D01*
X58566386Y-72972308D01*
X58568852Y-72977872D01*
X58647945Y-73168822D01*
X58650135Y-73174499D01*
X58662537Y-73209160D01*
X58664446Y-73214938D01*
X58678672Y-73261833D01*
X58680295Y-73267697D01*
X58689245Y-73303423D01*
X58690579Y-73309365D01*
X58730904Y-73512092D01*
X58731945Y-73518089D01*
X58737349Y-73554520D01*
X58738094Y-73560561D01*
X58742897Y-73609333D01*
X58743345Y-73615403D01*
X58745151Y-73652175D01*
X58745300Y-73658258D01*
X58745300Y-73864942D01*
X58745151Y-73871025D01*
X58743345Y-73907797D01*
X58742897Y-73913867D01*
X58738094Y-73962639D01*
X58737349Y-73968680D01*
X58731945Y-74005111D01*
X58730904Y-74011108D01*
X58708051Y-74126000D01*
X59126000Y-74126000D01*
X60124000Y-74126000D01*
X61626000Y-74126000D01*
X61626000Y-73299096D01*
X62624000Y-73299096D01*
X62624000Y-74126000D01*
X64042278Y-74126000D01*
X64033955Y-74092777D01*
X64032621Y-74086835D01*
X63992296Y-73884108D01*
X63991255Y-73878111D01*
X63985851Y-73841680D01*
X63985106Y-73835639D01*
X63980303Y-73786867D01*
X63979855Y-73780797D01*
X63978049Y-73744025D01*
X63977900Y-73737942D01*
X63977900Y-73531258D01*
X63978049Y-73525175D01*
X63979855Y-73488403D01*
X63980303Y-73482333D01*
X63985106Y-73433561D01*
X63985851Y-73427520D01*
X63991255Y-73391089D01*
X63992296Y-73385092D01*
X64032621Y-73182365D01*
X64033955Y-73176423D01*
X64042905Y-73140697D01*
X64044528Y-73134833D01*
X64055247Y-73099500D01*
X63342290Y-73099500D01*
X63337409Y-73102109D01*
X63331974Y-73104845D01*
X63298692Y-73120586D01*
X63293128Y-73123052D01*
X63102178Y-73202145D01*
X63096501Y-73204335D01*
X63061840Y-73216737D01*
X63056062Y-73218646D01*
X63009167Y-73232872D01*
X63003303Y-73234495D01*
X62967577Y-73243445D01*
X62961635Y-73244779D01*
X62758908Y-73285104D01*
X62752911Y-73286145D01*
X62716480Y-73291549D01*
X62710439Y-73292294D01*
X62661667Y-73297097D01*
X62655597Y-73297545D01*
X62624000Y-73299096D01*
X61626000Y-73299096D01*
X61626000Y-73071888D01*
X61601282Y-73057074D01*
X61596137Y-73053816D01*
X61424278Y-72938983D01*
X61419302Y-72935478D01*
X61389729Y-72913545D01*
X61384931Y-72909801D01*
X61347049Y-72878712D01*
X61342442Y-72874738D01*
X61315155Y-72850007D01*
X61310746Y-72845809D01*
X61164591Y-72699654D01*
X61160393Y-72695245D01*
X61135662Y-72667958D01*
X61131688Y-72663351D01*
X61100599Y-72625469D01*
X61099453Y-72624000D01*
X60124000Y-72624000D01*
X60124000Y-74126000D01*
X59126000Y-74126000D01*
X59126000Y-72624000D01*
X58344825Y-72624000D01*
X55548775Y-72624000D01*
X55124000Y-72624000D01*
X55124000Y-74126000D01*
X54126000Y-74126000D01*
X54126000Y-72624000D01*
X52624000Y-72624000D01*
X52624000Y-74126000D01*
X51626000Y-74126000D01*
X51626000Y-72624000D01*
X50124000Y-72624000D01*
X50124000Y-74126000D01*
X49126000Y-74126000D01*
X49126000Y-72624000D01*
X47889307Y-72624000D01*
X47881802Y-72648737D01*
X47879894Y-72654512D01*
X47867492Y-72689174D01*
X47865301Y-72694853D01*
X47775280Y-72912184D01*
X47772814Y-72917748D01*
X47757067Y-72951042D01*
X47754329Y-72956480D01*
X47731227Y-72999699D01*
X47728227Y-73004995D01*
X47709299Y-73036573D01*
X47706044Y-73041713D01*
X47624000Y-73164500D01*
X44126000Y-73164500D01*
X44126000Y-72624000D01*
X42624000Y-72624000D01*
X42624000Y-74126000D01*
X41626000Y-74126000D01*
X41626000Y-72624000D01*
X40124000Y-72624000D01*
X40124000Y-74126000D01*
X39126000Y-74126000D01*
X39126000Y-72624000D01*
X37624000Y-72624000D01*
X37624000Y-74126000D01*
X36626000Y-74126000D01*
X36626000Y-72624000D01*
X35786956Y-72624000D01*
X35786768Y-74126000D01*
X34788769Y-74126000D01*
X34788995Y-72309800D01*
X45110580Y-72309800D01*
X45115705Y-72335562D01*
X45115708Y-72335574D01*
X45186973Y-72507625D01*
X45186975Y-72507629D01*
X45290436Y-72662469D01*
X45290442Y-72662477D01*
X45422122Y-72794157D01*
X45422130Y-72794163D01*
X45576970Y-72897624D01*
X45749026Y-72968891D01*
X45749036Y-72968894D01*
X45774799Y-72974018D01*
X46274800Y-72974018D01*
X46300563Y-72968894D01*
X46300573Y-72968891D01*
X46472629Y-72897624D01*
X46627469Y-72794163D01*
X46627477Y-72794157D01*
X46759157Y-72662477D01*
X46759163Y-72662469D01*
X46862624Y-72507629D01*
X46862626Y-72507625D01*
X46933891Y-72335574D01*
X46933894Y-72335562D01*
X46939019Y-72309800D01*
X46274800Y-72309800D01*
X46274800Y-72974018D01*
X45774799Y-72974018D01*
X45774800Y-72974017D01*
X45774800Y-72309800D01*
X45110580Y-72309800D01*
X34788995Y-72309800D01*
X34789057Y-71809799D01*
X45110580Y-71809799D01*
X45110581Y-71809800D01*
X45774800Y-71809800D01*
X46274800Y-71809800D01*
X46939019Y-71809800D01*
X46939019Y-71809799D01*
X46933894Y-71784037D01*
X46933891Y-71784025D01*
X46862626Y-71611974D01*
X46862624Y-71611970D01*
X46759163Y-71457130D01*
X46759157Y-71457122D01*
X46627477Y-71325442D01*
X46627469Y-71325436D01*
X46472629Y-71221975D01*
X46472625Y-71221973D01*
X46300574Y-71150708D01*
X46300562Y-71150705D01*
X46274800Y-71145580D01*
X46274800Y-71809800D01*
X45774800Y-71809800D01*
X45774800Y-71145581D01*
X45774799Y-71145580D01*
X45749037Y-71150705D01*
X45749025Y-71150708D01*
X45576974Y-71221973D01*
X45576970Y-71221975D01*
X45422130Y-71325436D01*
X45422122Y-71325442D01*
X45290442Y-71457122D01*
X45290436Y-71457130D01*
X45186975Y-71611970D01*
X45186973Y-71611974D01*
X45115708Y-71784025D01*
X45115705Y-71784037D01*
X45110580Y-71809799D01*
X34789057Y-71809799D01*
X34789080Y-71626000D01*
X35787079Y-71626000D01*
X36626000Y-71626000D01*
X37624000Y-71626000D01*
X39126000Y-71626000D01*
X39126000Y-70909478D01*
X40124000Y-70909478D01*
X40124000Y-71626000D01*
X41626000Y-71626000D01*
X42624000Y-71626000D01*
X44126000Y-71626000D01*
X44126000Y-70955097D01*
X47624000Y-70955097D01*
X47706045Y-71077888D01*
X47709299Y-71083027D01*
X47728227Y-71114605D01*
X47731227Y-71119901D01*
X47754329Y-71163120D01*
X47757067Y-71168558D01*
X47772814Y-71201852D01*
X47775280Y-71207416D01*
X47865301Y-71424747D01*
X47867492Y-71430426D01*
X47879894Y-71465088D01*
X47881802Y-71470863D01*
X47896029Y-71517758D01*
X47897653Y-71523628D01*
X47906602Y-71559355D01*
X47907935Y-71565293D01*
X47920011Y-71626000D01*
X49126000Y-71626000D01*
X50124000Y-71626000D01*
X51626000Y-71626000D01*
X51626000Y-71122783D01*
X51439965Y-71085779D01*
X51434023Y-71084445D01*
X51398297Y-71075495D01*
X51392433Y-71073872D01*
X51345538Y-71059646D01*
X51339760Y-71057737D01*
X51305099Y-71045335D01*
X51299422Y-71043145D01*
X51160400Y-70985561D01*
X52624000Y-70985561D01*
X52624000Y-71626000D01*
X54126000Y-71626000D01*
X54126000Y-71339984D01*
X55124000Y-71339984D01*
X55124000Y-71626000D01*
X56626000Y-71626000D01*
X57624000Y-71626000D01*
X59126000Y-71626000D01*
X59126000Y-71609756D01*
X59099303Y-71608445D01*
X59093233Y-71607997D01*
X59044461Y-71603194D01*
X59038420Y-71602449D01*
X59001989Y-71597045D01*
X58995992Y-71596004D01*
X58793265Y-71555679D01*
X58787323Y-71554345D01*
X58751597Y-71545395D01*
X58745733Y-71543772D01*
X58698838Y-71529546D01*
X58693060Y-71527637D01*
X58658399Y-71515235D01*
X58652722Y-71513045D01*
X58461772Y-71433952D01*
X58456208Y-71431486D01*
X58422926Y-71415745D01*
X58417491Y-71413009D01*
X58374270Y-71389908D01*
X58368975Y-71386909D01*
X58366999Y-71385725D01*
X60124000Y-71385725D01*
X60124000Y-71626000D01*
X60711814Y-71626000D01*
X60711049Y-71610425D01*
X60710900Y-71604342D01*
X60710900Y-71422153D01*
X61708900Y-71422153D01*
X61708900Y-71579846D01*
X61739661Y-71734489D01*
X61739664Y-71734501D01*
X61800002Y-71880172D01*
X61800009Y-71880185D01*
X61887610Y-72011288D01*
X61887613Y-72011292D01*
X61999107Y-72122786D01*
X61999111Y-72122789D01*
X62130214Y-72210390D01*
X62130227Y-72210397D01*
X62275898Y-72270735D01*
X62275903Y-72270737D01*
X62378003Y-72291046D01*
X62430553Y-72301499D01*
X62430556Y-72301500D01*
X62430558Y-72301500D01*
X62588244Y-72301500D01*
X62588245Y-72301499D01*
X62742897Y-72270737D01*
X62888579Y-72210394D01*
X62966301Y-72158462D01*
X63020275Y-72122398D01*
X63086953Y-72101520D01*
X63089166Y-72101500D01*
X64937700Y-72101500D01*
X65004739Y-72121185D01*
X65050494Y-72173989D01*
X65061700Y-72225500D01*
X65061700Y-72291046D01*
X65092461Y-72445689D01*
X65092464Y-72445701D01*
X65152802Y-72591372D01*
X65152809Y-72591385D01*
X65240410Y-72722488D01*
X65240413Y-72722492D01*
X65317899Y-72799978D01*
X65351384Y-72861301D01*
X65346400Y-72930993D01*
X65304528Y-72986926D01*
X65299111Y-72990760D01*
X65266109Y-73012811D01*
X65154613Y-73124307D01*
X65154610Y-73124311D01*
X65067009Y-73255414D01*
X65067002Y-73255427D01*
X65006664Y-73401098D01*
X65006661Y-73401110D01*
X64975900Y-73555753D01*
X64975900Y-73713446D01*
X65006661Y-73868089D01*
X65006664Y-73868101D01*
X65067002Y-74013772D01*
X65067009Y-74013785D01*
X65154610Y-74144888D01*
X65154613Y-74144892D01*
X65266107Y-74256386D01*
X65266111Y-74256389D01*
X65397214Y-74343990D01*
X65397227Y-74343997D01*
X65542898Y-74404335D01*
X65542903Y-74404337D01*
X65697553Y-74435099D01*
X65697556Y-74435100D01*
X65697558Y-74435100D01*
X65855244Y-74435100D01*
X65855245Y-74435099D01*
X66009897Y-74404337D01*
X66124484Y-74356874D01*
X66155572Y-74343997D01*
X66155572Y-74343996D01*
X66155579Y-74343994D01*
X66286689Y-74256389D01*
X66326925Y-74216153D01*
X76415500Y-74216153D01*
X76415500Y-74373846D01*
X76446261Y-74528489D01*
X76446264Y-74528501D01*
X76506602Y-74674172D01*
X76506609Y-74674185D01*
X76594210Y-74805288D01*
X76594213Y-74805292D01*
X76705707Y-74916786D01*
X76705711Y-74916789D01*
X76836814Y-75004390D01*
X76836827Y-75004397D01*
X76982498Y-75064735D01*
X76982503Y-75064737D01*
X77106336Y-75089369D01*
X77137153Y-75095499D01*
X77137156Y-75095500D01*
X77137158Y-75095500D01*
X77294844Y-75095500D01*
X77294845Y-75095499D01*
X77449497Y-75064737D01*
X77595179Y-75004394D01*
X77726289Y-74916789D01*
X77837789Y-74805289D01*
X77925394Y-74674179D01*
X77985737Y-74528497D01*
X78016500Y-74373842D01*
X78016500Y-74216158D01*
X78016500Y-74216155D01*
X78016499Y-74216153D01*
X78002324Y-74144892D01*
X77985737Y-74061503D01*
X77965969Y-74013779D01*
X77925397Y-73915827D01*
X77925390Y-73915814D01*
X77837789Y-73784711D01*
X77837786Y-73784707D01*
X77726292Y-73673213D01*
X77726288Y-73673210D01*
X77595185Y-73585609D01*
X77595172Y-73585602D01*
X77449501Y-73525264D01*
X77449489Y-73525261D01*
X77294845Y-73494500D01*
X77294842Y-73494500D01*
X77137158Y-73494500D01*
X77137155Y-73494500D01*
X76982510Y-73525261D01*
X76982498Y-73525264D01*
X76836827Y-73585602D01*
X76836814Y-73585609D01*
X76705711Y-73673210D01*
X76705707Y-73673213D01*
X76594213Y-73784707D01*
X76594210Y-73784711D01*
X76506609Y-73915814D01*
X76506602Y-73915827D01*
X76446264Y-74061498D01*
X76446261Y-74061510D01*
X76415500Y-74216153D01*
X66326925Y-74216153D01*
X66398189Y-74144889D01*
X66485794Y-74013779D01*
X66546137Y-73868097D01*
X66576900Y-73713442D01*
X66576900Y-73555758D01*
X66576900Y-73555755D01*
X66576899Y-73555753D01*
X66562295Y-73482333D01*
X66546137Y-73401103D01*
X66522896Y-73344993D01*
X66485797Y-73255427D01*
X66485790Y-73255414D01*
X66398189Y-73124311D01*
X66398186Y-73124307D01*
X66320700Y-73046821D01*
X66287215Y-72985498D01*
X66292199Y-72915806D01*
X66309396Y-72892834D01*
X67624000Y-72892834D01*
X67624000Y-74126000D01*
X69126000Y-74126000D01*
X72624000Y-74126000D01*
X74126000Y-74126000D01*
X74126000Y-72624000D01*
X72624000Y-72624000D01*
X72624000Y-74126000D01*
X69126000Y-74126000D01*
X69126000Y-73686355D01*
X70124000Y-73686355D01*
X70142803Y-73679627D01*
X70148582Y-73677718D01*
X70195478Y-73663491D01*
X70201348Y-73661867D01*
X70237076Y-73652918D01*
X70243013Y-73651585D01*
X70474719Y-73605496D01*
X70480714Y-73604455D01*
X70517142Y-73599051D01*
X70523185Y-73598306D01*
X70571954Y-73593503D01*
X70578025Y-73593055D01*
X70614800Y-73591249D01*
X70620882Y-73591100D01*
X70857118Y-73591100D01*
X70863200Y-73591249D01*
X70899975Y-73593055D01*
X70906046Y-73593503D01*
X70954815Y-73598306D01*
X70960858Y-73599051D01*
X70997286Y-73604455D01*
X71003281Y-73605496D01*
X71234987Y-73651585D01*
X71240924Y-73652918D01*
X71276652Y-73661867D01*
X71282522Y-73663491D01*
X71329418Y-73677718D01*
X71335197Y-73679627D01*
X71369859Y-73692030D01*
X71375535Y-73694220D01*
X71593783Y-73784621D01*
X71599346Y-73787087D01*
X71626000Y-73799693D01*
X71626000Y-72624000D01*
X70124000Y-72624000D01*
X70124000Y-73686355D01*
X69126000Y-73686355D01*
X69126000Y-72624000D01*
X68009867Y-72624000D01*
X67987524Y-72674508D01*
X67954852Y-72701814D01*
X67733786Y-72829447D01*
X67733736Y-72829480D01*
X67657557Y-72873458D01*
X67657558Y-72873459D01*
X67624000Y-72892834D01*
X66309396Y-72892834D01*
X66334071Y-72859873D01*
X66339476Y-72856047D01*
X66372489Y-72833989D01*
X66483989Y-72722489D01*
X66571594Y-72591379D01*
X66631937Y-72445697D01*
X66643542Y-72387353D01*
X75577300Y-72387353D01*
X75577300Y-72545046D01*
X75608061Y-72699689D01*
X75608064Y-72699701D01*
X75668402Y-72845372D01*
X75668409Y-72845385D01*
X75756010Y-72976488D01*
X75756013Y-72976492D01*
X75867507Y-73087986D01*
X75867511Y-73087989D01*
X75998614Y-73175590D01*
X75998627Y-73175597D01*
X76144298Y-73235935D01*
X76144303Y-73235937D01*
X76274490Y-73261833D01*
X76298953Y-73266699D01*
X76298956Y-73266700D01*
X76298958Y-73266700D01*
X76456644Y-73266700D01*
X76456645Y-73266699D01*
X76611297Y-73235937D01*
X76756979Y-73175594D01*
X76888089Y-73087989D01*
X76999589Y-72976489D01*
X77087194Y-72845379D01*
X77147537Y-72699697D01*
X77178300Y-72545042D01*
X77178300Y-72387358D01*
X77178300Y-72387355D01*
X77178299Y-72387353D01*
X77167997Y-72335562D01*
X77147537Y-72232703D01*
X77144554Y-72225501D01*
X77087197Y-72087027D01*
X77087190Y-72087014D01*
X76999589Y-71955911D01*
X76999586Y-71955907D01*
X76888092Y-71844413D01*
X76888088Y-71844410D01*
X76756985Y-71756809D01*
X76756972Y-71756802D01*
X76611301Y-71696464D01*
X76611289Y-71696461D01*
X76456645Y-71665700D01*
X76456642Y-71665700D01*
X76298958Y-71665700D01*
X76298955Y-71665700D01*
X76144310Y-71696461D01*
X76144298Y-71696464D01*
X75998627Y-71756802D01*
X75998614Y-71756809D01*
X75867511Y-71844410D01*
X75867507Y-71844413D01*
X75756013Y-71955907D01*
X75756010Y-71955911D01*
X75668409Y-72087014D01*
X75668402Y-72087027D01*
X75608064Y-72232698D01*
X75608061Y-72232710D01*
X75577300Y-72387353D01*
X66643542Y-72387353D01*
X66662700Y-72291042D01*
X66662700Y-72225500D01*
X66682385Y-72158462D01*
X66735189Y-72112707D01*
X66786700Y-72101501D01*
X66916783Y-72101501D01*
X66916786Y-72101501D01*
X67069514Y-72060577D01*
X67135541Y-72022456D01*
X67206445Y-71981520D01*
X67318249Y-71869716D01*
X67318249Y-71869714D01*
X67328453Y-71859511D01*
X67328457Y-71859506D01*
X68178704Y-71009259D01*
X70124000Y-71009259D01*
X70124000Y-71626000D01*
X71626000Y-71626000D01*
X72624000Y-71626000D01*
X74126000Y-71626000D01*
X74126000Y-71176537D01*
X75124000Y-71176537D01*
X75179146Y-71121391D01*
X75183555Y-71117193D01*
X75210842Y-71092462D01*
X75215449Y-71088488D01*
X75253331Y-71057399D01*
X75258129Y-71053655D01*
X75287702Y-71031722D01*
X75292678Y-71028217D01*
X75464537Y-70913384D01*
X75469682Y-70910126D01*
X75501275Y-70891191D01*
X75506570Y-70888192D01*
X75549791Y-70865091D01*
X75555226Y-70862355D01*
X75588508Y-70846614D01*
X75594072Y-70844148D01*
X75785022Y-70765055D01*
X75790699Y-70762865D01*
X75825360Y-70750463D01*
X75831138Y-70748554D01*
X75878033Y-70734328D01*
X75883897Y-70732705D01*
X75919623Y-70723755D01*
X75925565Y-70722421D01*
X76128292Y-70682096D01*
X76134289Y-70681055D01*
X76170720Y-70675651D01*
X76176761Y-70674906D01*
X76225533Y-70670103D01*
X76231603Y-70669655D01*
X76268375Y-70667849D01*
X76274458Y-70667700D01*
X76481142Y-70667700D01*
X76487225Y-70667849D01*
X76523997Y-70669655D01*
X76530067Y-70670103D01*
X76578839Y-70674906D01*
X76584880Y-70675651D01*
X76621311Y-70681055D01*
X76626000Y-70681868D01*
X76626000Y-70124000D01*
X75124000Y-70124000D01*
X75124000Y-71176537D01*
X74126000Y-71176537D01*
X74126000Y-70124000D01*
X72624000Y-70124000D01*
X72624000Y-71626000D01*
X71626000Y-71626000D01*
X71626000Y-70678995D01*
X71472076Y-70781844D01*
X71466937Y-70785099D01*
X71435359Y-70804027D01*
X71430062Y-70807028D01*
X71386844Y-70830129D01*
X71381408Y-70832865D01*
X71348115Y-70848612D01*
X71342549Y-70851079D01*
X71125208Y-70941104D01*
X71119528Y-70943295D01*
X71084848Y-70955703D01*
X71079069Y-70957612D01*
X71032163Y-70971840D01*
X71026296Y-70973464D01*
X70990569Y-70982412D01*
X70984629Y-70983745D01*
X70712124Y-71037937D01*
X70657804Y-71036602D01*
X70490164Y-70994604D01*
X70322524Y-71036602D01*
X70268204Y-71037937D01*
X70124000Y-71009259D01*
X68178704Y-71009259D01*
X69557812Y-69630150D01*
X69561687Y-69635950D01*
X69601693Y-69614106D01*
X69671385Y-69619090D01*
X69727318Y-69660962D01*
X69731154Y-69666382D01*
X69755805Y-69703276D01*
X69887486Y-69834957D01*
X69887494Y-69834963D01*
X70042334Y-69938424D01*
X70214390Y-70009691D01*
X70214400Y-70009694D01*
X70240163Y-70014818D01*
X70740164Y-70014818D01*
X70765927Y-70009694D01*
X70765937Y-70009691D01*
X70937993Y-69938424D01*
X71092833Y-69834963D01*
X71092841Y-69834957D01*
X71213663Y-69714135D01*
X78659500Y-69714135D01*
X78659500Y-71509870D01*
X78659501Y-71509876D01*
X78665908Y-71569483D01*
X78716202Y-71704328D01*
X78716206Y-71704335D01*
X78802452Y-71819544D01*
X78802454Y-71819546D01*
X78855840Y-71859511D01*
X78859108Y-71861957D01*
X78917669Y-71905796D01*
X79052517Y-71956091D01*
X79112127Y-71962500D01*
X79146565Y-71962499D01*
X79139839Y-71967387D01*
X79190226Y-71982179D01*
X79207738Y-72002385D01*
X79210839Y-71999285D01*
X79880591Y-72669037D01*
X79817007Y-72686075D01*
X79702993Y-72751901D01*
X79609901Y-72844993D01*
X79544075Y-72959007D01*
X79527037Y-73022591D01*
X78897707Y-72393261D01*
X78897706Y-72393261D01*
X78858938Y-72446623D01*
X78762761Y-72635379D01*
X78697301Y-72836844D01*
X78697301Y-72836847D01*
X78664162Y-73046080D01*
X78664162Y-73257919D01*
X78697301Y-73467152D01*
X78697301Y-73467155D01*
X78762761Y-73668620D01*
X78858937Y-73857374D01*
X78897706Y-73910737D01*
X78897707Y-73910737D01*
X79527037Y-73281408D01*
X79544075Y-73344993D01*
X79609901Y-73459007D01*
X79702993Y-73552099D01*
X79817007Y-73617925D01*
X79880591Y-73634962D01*
X79251261Y-74264291D01*
X79304630Y-74303065D01*
X79316079Y-74308899D01*
X79366875Y-74356874D01*
X79383670Y-74424695D01*
X79366883Y-74473953D01*
X79396351Y-74488968D01*
X79302184Y-74536949D01*
X79149252Y-74648059D01*
X79149250Y-74648058D01*
X79130213Y-74661890D01*
X78979890Y-74812213D01*
X78854951Y-74984179D01*
X78758444Y-75173585D01*
X78692753Y-75375760D01*
X78662196Y-75568692D01*
X78659500Y-75585713D01*
X78659500Y-75798287D01*
X78666189Y-75840520D01*
X78689838Y-75989837D01*
X78692754Y-76008243D01*
X78755788Y-76202242D01*
X78758444Y-76210414D01*
X78854951Y-76399820D01*
X78979890Y-76571786D01*
X79130213Y-76722109D01*
X79302182Y-76847050D01*
X79310946Y-76851516D01*
X79361742Y-76899491D01*
X79378536Y-76967312D01*
X79355998Y-77033447D01*
X79310946Y-77072484D01*
X79302182Y-77076949D01*
X79130213Y-77201890D01*
X78979890Y-77352213D01*
X78854951Y-77524179D01*
X78758444Y-77713585D01*
X78758443Y-77713587D01*
X78758443Y-77713588D01*
X78733167Y-77791379D01*
X78692753Y-77915760D01*
X78659500Y-78125713D01*
X78659500Y-78338286D01*
X78689276Y-78526288D01*
X78692754Y-78548243D01*
X78739143Y-78691014D01*
X78758444Y-78750414D01*
X78854951Y-78939820D01*
X78979890Y-79111786D01*
X79130213Y-79262109D01*
X79302179Y-79387048D01*
X79302181Y-79387049D01*
X79302184Y-79387051D01*
X79491588Y-79483557D01*
X79693757Y-79549246D01*
X79903713Y-79582500D01*
X79903714Y-79582500D01*
X80116286Y-79582500D01*
X80116287Y-79582500D01*
X80326243Y-79549246D01*
X80528412Y-79483557D01*
X80717816Y-79387051D01*
X80739908Y-79371000D01*
X80889786Y-79262109D01*
X80889788Y-79262106D01*
X80889792Y-79262104D01*
X81040104Y-79111792D01*
X81040106Y-79111788D01*
X81040109Y-79111786D01*
X81149086Y-78961789D01*
X81165051Y-78939816D01*
X81261557Y-78750412D01*
X81327246Y-78548243D01*
X81360500Y-78338287D01*
X81360500Y-78125713D01*
X81327246Y-77915757D01*
X81261557Y-77713588D01*
X81165051Y-77524184D01*
X81165049Y-77524181D01*
X81165048Y-77524179D01*
X81040109Y-77352213D01*
X80889786Y-77201890D01*
X80717820Y-77076951D01*
X80717115Y-77076591D01*
X80709054Y-77072485D01*
X80658259Y-77024512D01*
X80641463Y-76956692D01*
X80663999Y-76890556D01*
X80709054Y-76851515D01*
X80717816Y-76847051D01*
X80758717Y-76817335D01*
X80889786Y-76722109D01*
X80889788Y-76722106D01*
X80889792Y-76722104D01*
X81040104Y-76571792D01*
X81040106Y-76571788D01*
X81040109Y-76571786D01*
X81165048Y-76399820D01*
X81165047Y-76399820D01*
X81165051Y-76399816D01*
X81261557Y-76210412D01*
X81327246Y-76008243D01*
X81360500Y-75798287D01*
X81360500Y-75585713D01*
X81327246Y-75375757D01*
X81261557Y-75173588D01*
X81165051Y-74984184D01*
X81165049Y-74984181D01*
X81165048Y-74984179D01*
X81040109Y-74812213D01*
X80889786Y-74661890D01*
X80870748Y-74648058D01*
X80870746Y-74648058D01*
X80717816Y-74536949D01*
X80623648Y-74488968D01*
X80651377Y-74474840D01*
X80636329Y-74414075D01*
X80658866Y-74347940D01*
X80703923Y-74308898D01*
X80715371Y-74303064D01*
X80768737Y-74264291D01*
X80768738Y-74264291D01*
X80139408Y-73634962D01*
X80202993Y-73617925D01*
X80317007Y-73552099D01*
X80410099Y-73459007D01*
X80475925Y-73344993D01*
X80492962Y-73281408D01*
X81122291Y-73910738D01*
X81122291Y-73910737D01*
X81161063Y-73857373D01*
X81257238Y-73668620D01*
X81322698Y-73467155D01*
X81322698Y-73467152D01*
X81355838Y-73257919D01*
X81355838Y-73046080D01*
X81322698Y-72836847D01*
X81322698Y-72836844D01*
X81257238Y-72635379D01*
X81161065Y-72446630D01*
X81122291Y-72393261D01*
X80492962Y-73022590D01*
X80475925Y-72959007D01*
X80410099Y-72844993D01*
X80317007Y-72751901D01*
X80202993Y-72686075D01*
X80139409Y-72669037D01*
X80809160Y-71999285D01*
X80812458Y-72002583D01*
X80836545Y-71978125D01*
X80879579Y-71966965D01*
X80873432Y-71962499D01*
X80907872Y-71962499D01*
X80967483Y-71956091D01*
X81102331Y-71905796D01*
X81217546Y-71819546D01*
X81303796Y-71704331D01*
X81354091Y-71569483D01*
X81360500Y-71509873D01*
X81360499Y-69714128D01*
X81354091Y-69654517D01*
X81338327Y-69612252D01*
X81303797Y-69519671D01*
X81303793Y-69519664D01*
X81217547Y-69404455D01*
X81217544Y-69404452D01*
X81102335Y-69318206D01*
X81102328Y-69318202D01*
X80967482Y-69267908D01*
X80967483Y-69267908D01*
X80907883Y-69261501D01*
X80907881Y-69261500D01*
X80907873Y-69261500D01*
X80907864Y-69261500D01*
X79112129Y-69261500D01*
X79112123Y-69261501D01*
X79052516Y-69267908D01*
X78917671Y-69318202D01*
X78917664Y-69318206D01*
X78802455Y-69404452D01*
X78802452Y-69404455D01*
X78716206Y-69519664D01*
X78716202Y-69519671D01*
X78665908Y-69654517D01*
X78659501Y-69714116D01*
X78659501Y-69714123D01*
X78659500Y-69714135D01*
X71213663Y-69714135D01*
X71224521Y-69703277D01*
X71224527Y-69703269D01*
X71327988Y-69548429D01*
X71327990Y-69548425D01*
X71399255Y-69376374D01*
X71399258Y-69376362D01*
X71404383Y-69350600D01*
X70740164Y-69350600D01*
X70740164Y-70014818D01*
X70240163Y-70014818D01*
X70240164Y-70014817D01*
X70240164Y-69126000D01*
X76007894Y-69126000D01*
X76626000Y-69126000D01*
X76626000Y-68743125D01*
X76624561Y-68742658D01*
X76619963Y-68741064D01*
X76592353Y-68730879D01*
X76587825Y-68729107D01*
X76551608Y-68714109D01*
X76547139Y-68712154D01*
X76520364Y-68699811D01*
X76515981Y-68697686D01*
X76291639Y-68583378D01*
X76287346Y-68581083D01*
X76261650Y-68566693D01*
X76257450Y-68564231D01*
X76250078Y-68559714D01*
X76241979Y-68600435D01*
X76240645Y-68606377D01*
X76231695Y-68642103D01*
X76230072Y-68647967D01*
X76215846Y-68694862D01*
X76213937Y-68700640D01*
X76201535Y-68735301D01*
X76199345Y-68740978D01*
X76120252Y-68931928D01*
X76117786Y-68937492D01*
X76102045Y-68970774D01*
X76099309Y-68976209D01*
X76076208Y-69019430D01*
X76073209Y-69024725D01*
X76054274Y-69056318D01*
X76051016Y-69061463D01*
X76007894Y-69126000D01*
X70240164Y-69126000D01*
X70240164Y-68999161D01*
X70259849Y-68932122D01*
X70276483Y-68911480D01*
X70528483Y-68659480D01*
X70589806Y-68625995D01*
X70659498Y-68630979D01*
X70715431Y-68672851D01*
X70739848Y-68738315D01*
X70740164Y-68747161D01*
X70740164Y-68850600D01*
X70934965Y-68850600D01*
X70934965Y-68850599D01*
X70869083Y-68802734D01*
X70854287Y-68790097D01*
X70713757Y-68649567D01*
X70689541Y-68605218D01*
X72055800Y-68605218D01*
X72081563Y-68600094D01*
X72081573Y-68600091D01*
X72253629Y-68528824D01*
X72408469Y-68425363D01*
X72408477Y-68425357D01*
X72540157Y-68293677D01*
X72540163Y-68293669D01*
X72643624Y-68138829D01*
X72643626Y-68138825D01*
X72672402Y-68069353D01*
X73697700Y-68069353D01*
X73697700Y-68227046D01*
X73728461Y-68381689D01*
X73728464Y-68381701D01*
X73788802Y-68527372D01*
X73788809Y-68527385D01*
X73876410Y-68658488D01*
X73876413Y-68658492D01*
X73987907Y-68769986D01*
X73987911Y-68769989D01*
X74119014Y-68857590D01*
X74119027Y-68857597D01*
X74250384Y-68912006D01*
X74264703Y-68917937D01*
X74416588Y-68948149D01*
X74419353Y-68948699D01*
X74419356Y-68948700D01*
X74419358Y-68948700D01*
X74577044Y-68948700D01*
X74577045Y-68948699D01*
X74731697Y-68917937D01*
X74877379Y-68857594D01*
X75008489Y-68769989D01*
X75119989Y-68658489D01*
X75207594Y-68527379D01*
X75210354Y-68520717D01*
X75235897Y-68459049D01*
X75267937Y-68381697D01*
X75298700Y-68227042D01*
X75298700Y-68069358D01*
X75298700Y-68069355D01*
X75298699Y-68069353D01*
X75294258Y-68047025D01*
X75267937Y-67914703D01*
X75265651Y-67909184D01*
X75207597Y-67769027D01*
X75207590Y-67769014D01*
X75119989Y-67637911D01*
X75119986Y-67637907D01*
X75008492Y-67526413D01*
X75008488Y-67526410D01*
X74877385Y-67438809D01*
X74877372Y-67438802D01*
X74731701Y-67378464D01*
X74731689Y-67378461D01*
X74577045Y-67347700D01*
X74577042Y-67347700D01*
X74419358Y-67347700D01*
X74419355Y-67347700D01*
X74264710Y-67378461D01*
X74264698Y-67378464D01*
X74119027Y-67438802D01*
X74119014Y-67438809D01*
X73987911Y-67526410D01*
X73987907Y-67526413D01*
X73876413Y-67637907D01*
X73876410Y-67637911D01*
X73788809Y-67769014D01*
X73788802Y-67769027D01*
X73728464Y-67914698D01*
X73728461Y-67914710D01*
X73697700Y-68069353D01*
X72672402Y-68069353D01*
X72714891Y-67966774D01*
X72714894Y-67966762D01*
X72720019Y-67941000D01*
X72055800Y-67941000D01*
X72055800Y-68605218D01*
X70689541Y-68605218D01*
X70680272Y-68588244D01*
X70685256Y-68518552D01*
X70713755Y-68474207D01*
X71220065Y-67967897D01*
X71281386Y-67934414D01*
X71351078Y-67939398D01*
X71380629Y-67955262D01*
X71426880Y-67988865D01*
X71441676Y-68001502D01*
X71555799Y-68115626D01*
X71555800Y-68115625D01*
X71555800Y-67941000D01*
X71546325Y-67941000D01*
X71479286Y-67921315D01*
X71433531Y-67868511D01*
X71423587Y-67799353D01*
X71452612Y-67735797D01*
X71458644Y-67729319D01*
X71710644Y-67477319D01*
X71771967Y-67443834D01*
X71798325Y-67441000D01*
X72720019Y-67441000D01*
X72720019Y-67440999D01*
X72714894Y-67415237D01*
X72714891Y-67415225D01*
X72643626Y-67243174D01*
X72643624Y-67243170D01*
X72540163Y-67088330D01*
X72540157Y-67088322D01*
X72407579Y-66955744D01*
X72374094Y-66894421D01*
X72379078Y-66824729D01*
X72395652Y-66798939D01*
X72391678Y-66796284D01*
X73801600Y-65386362D01*
X73862921Y-65352879D01*
X73932613Y-65357863D01*
X73988546Y-65399735D01*
X74010896Y-65449854D01*
X74033261Y-65562289D01*
X74033264Y-65562301D01*
X74093602Y-65707972D01*
X74093609Y-65707985D01*
X74181210Y-65839088D01*
X74181213Y-65839092D01*
X74292707Y-65950586D01*
X74292711Y-65950589D01*
X74423814Y-66038190D01*
X74423827Y-66038197D01*
X74569498Y-66098535D01*
X74569503Y-66098537D01*
X74676585Y-66119837D01*
X74724153Y-66129299D01*
X74724156Y-66129300D01*
X74724158Y-66129300D01*
X74881844Y-66129300D01*
X74881845Y-66129299D01*
X75036497Y-66098537D01*
X75182179Y-66038194D01*
X75313289Y-65950589D01*
X75424789Y-65839089D01*
X75512394Y-65707979D01*
X75572737Y-65562297D01*
X75603500Y-65407642D01*
X75603500Y-65249958D01*
X75603500Y-65249955D01*
X75603499Y-65249953D01*
X75592283Y-65193567D01*
X75572737Y-65095303D01*
X75563487Y-65072972D01*
X75512397Y-64949627D01*
X75512390Y-64949614D01*
X75424789Y-64818511D01*
X75424786Y-64818507D01*
X75313292Y-64707013D01*
X75313288Y-64707010D01*
X75182185Y-64619409D01*
X75182172Y-64619402D01*
X75036501Y-64559064D01*
X75036491Y-64559061D01*
X74924054Y-64536696D01*
X74862143Y-64504311D01*
X74827569Y-64443595D01*
X74831309Y-64373826D01*
X74860565Y-64327398D01*
X74900149Y-64287814D01*
X75791520Y-63396445D01*
X75870577Y-63259513D01*
X75911501Y-63106786D01*
X75911501Y-62948671D01*
X75911501Y-62941076D01*
X75911500Y-62941058D01*
X75911500Y-62537917D01*
X75931185Y-62470878D01*
X75983989Y-62425123D01*
X76053147Y-62415179D01*
X76116703Y-62444204D01*
X76151682Y-62494585D01*
X76176201Y-62560326D01*
X76176206Y-62560335D01*
X76262452Y-62675544D01*
X76262455Y-62675547D01*
X76377664Y-62761793D01*
X76377671Y-62761797D01*
X76509082Y-62810810D01*
X76565016Y-62852681D01*
X76589433Y-62918145D01*
X76574582Y-62986418D01*
X76553431Y-63014673D01*
X76439889Y-63128215D01*
X76314951Y-63300179D01*
X76218444Y-63489585D01*
X76152753Y-63691760D01*
X76124855Y-63867900D01*
X76119500Y-63901713D01*
X76119500Y-64114287D01*
X76126441Y-64158111D01*
X76151477Y-64316184D01*
X76152754Y-64324243D01*
X76204293Y-64482864D01*
X76218444Y-64526414D01*
X76314951Y-64715820D01*
X76439890Y-64887786D01*
X76590213Y-65038109D01*
X76762182Y-65163050D01*
X76770946Y-65167516D01*
X76821742Y-65215491D01*
X76838536Y-65283312D01*
X76815998Y-65349447D01*
X76770946Y-65388484D01*
X76762182Y-65392949D01*
X76590213Y-65517890D01*
X76439890Y-65668213D01*
X76314951Y-65840179D01*
X76218444Y-66029585D01*
X76152753Y-66231760D01*
X76126479Y-66397650D01*
X76119500Y-66441713D01*
X76119500Y-66654287D01*
X76122206Y-66671374D01*
X76149456Y-66843425D01*
X76152754Y-66864243D01*
X76201533Y-67014370D01*
X76218444Y-67066414D01*
X76314951Y-67255820D01*
X76439890Y-67427786D01*
X76590213Y-67578109D01*
X76762179Y-67703048D01*
X76762181Y-67703049D01*
X76762184Y-67703051D01*
X76951588Y-67799557D01*
X77153757Y-67865246D01*
X77363713Y-67898500D01*
X77363714Y-67898500D01*
X77576286Y-67898500D01*
X77576287Y-67898500D01*
X77786243Y-67865246D01*
X77988412Y-67799557D01*
X78177816Y-67703051D01*
X78262532Y-67641502D01*
X78349786Y-67578109D01*
X78349788Y-67578106D01*
X78349792Y-67578104D01*
X78500104Y-67427792D01*
X78500106Y-67427788D01*
X78500109Y-67427786D01*
X78622146Y-67259814D01*
X78625051Y-67255816D01*
X78629514Y-67247054D01*
X78677488Y-67196259D01*
X78745308Y-67179463D01*
X78811444Y-67201999D01*
X78850484Y-67247054D01*
X78851124Y-67248309D01*
X78854951Y-67255820D01*
X78979890Y-67427786D01*
X79130213Y-67578109D01*
X79302179Y-67703048D01*
X79302181Y-67703049D01*
X79302184Y-67703051D01*
X79491588Y-67799557D01*
X79693757Y-67865246D01*
X79903713Y-67898500D01*
X79903714Y-67898500D01*
X80116286Y-67898500D01*
X80116287Y-67898500D01*
X80326243Y-67865246D01*
X80528412Y-67799557D01*
X80717816Y-67703051D01*
X80802532Y-67641502D01*
X80889786Y-67578109D01*
X80889788Y-67578106D01*
X80889792Y-67578104D01*
X81040104Y-67427792D01*
X81040106Y-67427788D01*
X81040109Y-67427786D01*
X81162146Y-67259814D01*
X81165051Y-67255816D01*
X81261557Y-67066412D01*
X81327246Y-66864243D01*
X81360500Y-66654287D01*
X81360500Y-66441713D01*
X81327246Y-66231757D01*
X81261557Y-66029588D01*
X81165051Y-65840184D01*
X81165049Y-65840181D01*
X81165048Y-65840179D01*
X81040109Y-65668213D01*
X80889786Y-65517890D01*
X80717820Y-65392951D01*
X80717115Y-65392591D01*
X80709054Y-65388485D01*
X80658259Y-65340512D01*
X80641463Y-65272692D01*
X80663999Y-65206556D01*
X80709054Y-65167515D01*
X80717816Y-65163051D01*
X80762912Y-65130287D01*
X80889786Y-65038109D01*
X80889788Y-65038106D01*
X80889792Y-65038104D01*
X81040104Y-64887792D01*
X81040106Y-64887788D01*
X81040109Y-64887786D01*
X81165048Y-64715820D01*
X81165047Y-64715820D01*
X81165051Y-64715816D01*
X81261557Y-64526412D01*
X81327246Y-64324243D01*
X81360500Y-64114287D01*
X81360500Y-63901713D01*
X81327246Y-63691757D01*
X81261557Y-63489588D01*
X81165051Y-63300184D01*
X81165049Y-63300181D01*
X81165048Y-63300179D01*
X81040109Y-63128213D01*
X80889786Y-62977890D01*
X80870748Y-62964058D01*
X80870746Y-62964058D01*
X80717816Y-62852949D01*
X80623648Y-62804968D01*
X80651377Y-62790840D01*
X80636329Y-62730075D01*
X80658866Y-62663940D01*
X80703923Y-62624898D01*
X80715371Y-62619064D01*
X80768737Y-62580291D01*
X80768738Y-62580291D01*
X80139408Y-61950962D01*
X80202993Y-61933925D01*
X80317007Y-61868099D01*
X80410099Y-61775007D01*
X80475925Y-61660993D01*
X80492962Y-61597408D01*
X81122291Y-62226738D01*
X81122291Y-62226737D01*
X81161063Y-62173373D01*
X81257238Y-61984620D01*
X81322698Y-61783155D01*
X81322698Y-61783152D01*
X81355838Y-61573919D01*
X81355838Y-61362080D01*
X81322698Y-61152847D01*
X81322698Y-61152844D01*
X81257238Y-60951379D01*
X81161065Y-60762630D01*
X81122291Y-60709261D01*
X80492962Y-61338590D01*
X80475925Y-61275007D01*
X80410099Y-61160993D01*
X80317007Y-61067901D01*
X80202993Y-61002075D01*
X80139409Y-60985037D01*
X80768737Y-60355707D01*
X80768737Y-60355706D01*
X80715374Y-60316937D01*
X80526620Y-60220761D01*
X80325154Y-60155301D01*
X80115919Y-60122162D01*
X79904081Y-60122162D01*
X79694847Y-60155301D01*
X79694844Y-60155301D01*
X79493379Y-60220761D01*
X79304623Y-60316938D01*
X79251261Y-60355706D01*
X79251261Y-60355707D01*
X79880591Y-60985037D01*
X79817007Y-61002075D01*
X79702993Y-61067901D01*
X79609901Y-61160993D01*
X79544075Y-61275007D01*
X79527037Y-61338591D01*
X78857285Y-60668839D01*
X78860584Y-60665539D01*
X78835997Y-60641222D01*
X78824951Y-60598440D01*
X78820499Y-60604567D01*
X78820499Y-60570128D01*
X78814091Y-60510517D01*
X78763796Y-60375669D01*
X78686986Y-60273064D01*
X78677547Y-60260455D01*
X78677544Y-60260452D01*
X78562335Y-60174206D01*
X78562328Y-60174202D01*
X78427482Y-60123908D01*
X78427483Y-60123908D01*
X78367883Y-60117501D01*
X78367881Y-60117500D01*
X78367873Y-60117500D01*
X78367864Y-60117500D01*
X76572129Y-60117500D01*
X76572123Y-60117501D01*
X76512516Y-60123908D01*
X76377671Y-60174202D01*
X76377664Y-60174206D01*
X76262455Y-60260452D01*
X76262452Y-60260455D01*
X76176206Y-60375664D01*
X76176202Y-60375671D01*
X76125908Y-60510517D01*
X76119501Y-60570116D01*
X76119500Y-60570135D01*
X76119500Y-60804067D01*
X76099815Y-60871106D01*
X76047011Y-60916861D01*
X75977853Y-60926805D01*
X75916840Y-60899924D01*
X75913292Y-60897013D01*
X75782185Y-60809409D01*
X75782172Y-60809402D01*
X75636501Y-60749064D01*
X75636489Y-60749061D01*
X75481845Y-60718300D01*
X75481842Y-60718300D01*
X75324158Y-60718300D01*
X75324155Y-60718300D01*
X75169510Y-60749061D01*
X75169498Y-60749064D01*
X75023827Y-60809402D01*
X75023814Y-60809409D01*
X74892711Y-60897010D01*
X74892707Y-60897013D01*
X74781213Y-61008507D01*
X74781210Y-61008511D01*
X74693609Y-61139614D01*
X74693602Y-61139627D01*
X74633264Y-61285298D01*
X74633261Y-61285310D01*
X74602500Y-61439953D01*
X74602500Y-61597646D01*
X74633261Y-61752289D01*
X74633264Y-61752301D01*
X74693604Y-61897977D01*
X74695857Y-61902191D01*
X74710500Y-61960646D01*
X74710500Y-62727630D01*
X74690815Y-62794669D01*
X74674181Y-62815311D01*
X73470462Y-64019029D01*
X73409139Y-64052514D01*
X73339447Y-64047530D01*
X73313890Y-64034450D01*
X73200985Y-63959009D01*
X73200972Y-63959002D01*
X73055301Y-63898664D01*
X73055289Y-63898661D01*
X72900645Y-63867900D01*
X72900642Y-63867900D01*
X72742958Y-63867900D01*
X72742955Y-63867900D01*
X72588310Y-63898661D01*
X72588298Y-63898664D01*
X72442627Y-63959002D01*
X72442614Y-63959009D01*
X72311511Y-64046610D01*
X72311507Y-64046613D01*
X72200013Y-64158107D01*
X72200010Y-64158111D01*
X72112409Y-64289214D01*
X72112402Y-64289227D01*
X72052064Y-64434898D01*
X72052061Y-64434910D01*
X72021300Y-64589553D01*
X72021300Y-64747246D01*
X72052061Y-64901889D01*
X72052064Y-64901901D01*
X72112402Y-65047572D01*
X72112409Y-65047585D01*
X72187850Y-65160490D01*
X72208728Y-65227168D01*
X72190243Y-65294548D01*
X72172429Y-65317062D01*
X69271600Y-68217892D01*
X69210277Y-68251377D01*
X69140585Y-68246393D01*
X69084652Y-68204521D01*
X69062302Y-68154402D01*
X69056479Y-68125129D01*
X69044937Y-68067103D01*
X69041493Y-68058789D01*
X68984597Y-67921427D01*
X68984590Y-67921414D01*
X68896989Y-67790311D01*
X68896986Y-67790307D01*
X68785492Y-67678813D01*
X68785488Y-67678810D01*
X68654385Y-67591209D01*
X68654372Y-67591202D01*
X68508701Y-67530864D01*
X68508689Y-67530861D01*
X68354045Y-67500100D01*
X68354042Y-67500100D01*
X68196358Y-67500100D01*
X68196355Y-67500100D01*
X68041710Y-67530861D01*
X68041698Y-67530864D01*
X67896027Y-67591202D01*
X67896014Y-67591209D01*
X67764911Y-67678810D01*
X67764907Y-67678813D01*
X67653413Y-67790307D01*
X67653410Y-67790311D01*
X67565809Y-67921414D01*
X67565802Y-67921427D01*
X67505464Y-68067098D01*
X67505461Y-68067110D01*
X67474700Y-68221753D01*
X67474700Y-68379446D01*
X67505461Y-68534089D01*
X67505464Y-68534101D01*
X67565802Y-68679772D01*
X67565809Y-68679785D01*
X67653410Y-68810888D01*
X67653413Y-68810892D01*
X67764907Y-68922386D01*
X67764911Y-68922389D01*
X67896014Y-69009990D01*
X67896027Y-69009997D01*
X68020279Y-69061463D01*
X68041703Y-69070337D01*
X68116424Y-69085200D01*
X68129002Y-69087702D01*
X68190913Y-69120086D01*
X68225487Y-69180802D01*
X68221748Y-69250572D01*
X68192492Y-69297000D01*
X66625313Y-70864181D01*
X66563990Y-70897666D01*
X66537632Y-70900500D01*
X63089166Y-70900500D01*
X63022127Y-70880815D01*
X63020275Y-70879602D01*
X62888585Y-70791609D01*
X62888572Y-70791602D01*
X62742901Y-70731264D01*
X62742889Y-70731261D01*
X62588245Y-70700500D01*
X62588242Y-70700500D01*
X62430558Y-70700500D01*
X62430555Y-70700500D01*
X62275910Y-70731261D01*
X62275898Y-70731264D01*
X62130227Y-70791602D01*
X62130214Y-70791609D01*
X61999111Y-70879210D01*
X61999107Y-70879213D01*
X61887613Y-70990707D01*
X61887610Y-70990711D01*
X61800009Y-71121814D01*
X61800002Y-71121827D01*
X61739664Y-71267498D01*
X61739661Y-71267510D01*
X61708900Y-71422153D01*
X60710900Y-71422153D01*
X60710900Y-71397658D01*
X60711049Y-71391575D01*
X60712855Y-71354803D01*
X60713303Y-71348733D01*
X60718106Y-71299961D01*
X60718851Y-71293920D01*
X60724255Y-71257489D01*
X60725296Y-71251492D01*
X60765621Y-71048765D01*
X60766955Y-71042823D01*
X60775905Y-71007097D01*
X60777528Y-71001233D01*
X60791754Y-70954338D01*
X60793663Y-70948560D01*
X60806065Y-70913899D01*
X60808255Y-70908222D01*
X60887348Y-70717272D01*
X60889814Y-70711708D01*
X60905555Y-70678426D01*
X60908291Y-70672991D01*
X60931392Y-70629770D01*
X60934391Y-70624475D01*
X60953326Y-70592882D01*
X60956584Y-70587737D01*
X61067736Y-70421386D01*
X61055830Y-70426318D01*
X61050150Y-70428509D01*
X61015470Y-70440917D01*
X61009691Y-70442826D01*
X60962785Y-70457054D01*
X60956918Y-70458678D01*
X60921191Y-70467626D01*
X60920507Y-70467779D01*
X60867552Y-70595628D01*
X60865086Y-70601192D01*
X60849345Y-70634474D01*
X60846609Y-70639909D01*
X60823508Y-70683130D01*
X60820509Y-70688425D01*
X60801574Y-70720018D01*
X60798316Y-70725163D01*
X60683483Y-70897022D01*
X60679978Y-70901998D01*
X60658045Y-70931571D01*
X60654301Y-70936369D01*
X60623212Y-70974251D01*
X60619238Y-70978858D01*
X60594507Y-71006145D01*
X60590309Y-71010554D01*
X60444154Y-71156709D01*
X60439745Y-71160907D01*
X60412458Y-71185638D01*
X60407851Y-71189612D01*
X60369969Y-71220701D01*
X60365171Y-71224445D01*
X60335598Y-71246378D01*
X60330622Y-71249883D01*
X60158763Y-71364716D01*
X60153618Y-71367974D01*
X60124000Y-71385725D01*
X58366999Y-71385725D01*
X58337382Y-71367974D01*
X58332237Y-71364716D01*
X58160378Y-71249883D01*
X58155402Y-71246378D01*
X58125829Y-71224445D01*
X58121031Y-71220701D01*
X58083149Y-71189612D01*
X58078542Y-71185638D01*
X58051255Y-71160907D01*
X58046846Y-71156709D01*
X57900691Y-71010554D01*
X57896493Y-71006145D01*
X57871762Y-70978858D01*
X57867788Y-70974251D01*
X57836699Y-70936369D01*
X57832955Y-70931571D01*
X57811022Y-70901998D01*
X57807517Y-70897022D01*
X57692684Y-70725163D01*
X57689426Y-70720018D01*
X57670491Y-70688425D01*
X57667492Y-70683130D01*
X57644391Y-70639909D01*
X57641655Y-70634474D01*
X57625914Y-70601192D01*
X57624000Y-70596873D01*
X57624000Y-71626000D01*
X56626000Y-71626000D01*
X56626000Y-71056916D01*
X56488463Y-71148816D01*
X56483318Y-71152074D01*
X56451725Y-71171009D01*
X56446430Y-71174008D01*
X56403209Y-71197109D01*
X56397774Y-71199845D01*
X56364492Y-71215586D01*
X56358928Y-71218052D01*
X56167978Y-71297145D01*
X56162301Y-71299335D01*
X56127640Y-71311737D01*
X56121862Y-71313646D01*
X56074967Y-71327872D01*
X56069103Y-71329495D01*
X56033377Y-71338445D01*
X56027435Y-71339779D01*
X55824708Y-71380104D01*
X55818711Y-71381145D01*
X55782280Y-71386549D01*
X55776239Y-71387294D01*
X55727467Y-71392097D01*
X55721397Y-71392545D01*
X55684625Y-71394351D01*
X55678542Y-71394500D01*
X55471858Y-71394500D01*
X55465775Y-71394351D01*
X55429003Y-71392545D01*
X55422933Y-71392097D01*
X55374161Y-71387294D01*
X55368120Y-71386549D01*
X55331689Y-71381145D01*
X55325692Y-71380104D01*
X55124000Y-71339984D01*
X54126000Y-71339984D01*
X54126000Y-70664334D01*
X54022384Y-70509263D01*
X54019126Y-70504118D01*
X54000191Y-70472525D01*
X53997192Y-70467230D01*
X53974091Y-70424009D01*
X53971355Y-70418574D01*
X53955614Y-70385292D01*
X53953148Y-70379728D01*
X53874055Y-70188778D01*
X53871865Y-70183101D01*
X53859463Y-70148440D01*
X53857554Y-70142662D01*
X53851893Y-70124000D01*
X53514968Y-70124000D01*
X53514252Y-70125729D01*
X53511786Y-70131292D01*
X53496045Y-70164574D01*
X53493309Y-70170009D01*
X53470208Y-70213230D01*
X53467209Y-70218525D01*
X53448274Y-70250118D01*
X53445016Y-70255263D01*
X53330183Y-70427122D01*
X53326678Y-70432098D01*
X53304745Y-70461671D01*
X53301001Y-70466469D01*
X53269912Y-70504351D01*
X53265938Y-70508958D01*
X53241207Y-70536245D01*
X53237009Y-70540654D01*
X53090854Y-70686809D01*
X53086445Y-70691007D01*
X53059158Y-70715738D01*
X53054551Y-70719712D01*
X53016669Y-70750801D01*
X53011871Y-70754545D01*
X52982298Y-70776478D01*
X52977322Y-70779983D01*
X52805463Y-70894816D01*
X52800318Y-70898074D01*
X52768725Y-70917009D01*
X52763430Y-70920008D01*
X52720209Y-70943109D01*
X52714774Y-70945845D01*
X52681492Y-70961586D01*
X52675928Y-70964053D01*
X52624000Y-70985561D01*
X51160400Y-70985561D01*
X51108472Y-70964052D01*
X51102908Y-70961586D01*
X51069626Y-70945845D01*
X51064191Y-70943109D01*
X51020970Y-70920008D01*
X51015675Y-70917009D01*
X50984082Y-70898074D01*
X50978937Y-70894816D01*
X50807078Y-70779983D01*
X50802102Y-70776478D01*
X50772529Y-70754545D01*
X50767731Y-70750801D01*
X50729849Y-70719712D01*
X50725242Y-70715738D01*
X50697955Y-70691007D01*
X50693546Y-70686809D01*
X50547391Y-70540654D01*
X50543193Y-70536245D01*
X50518462Y-70508958D01*
X50514488Y-70504351D01*
X50483399Y-70466469D01*
X50479655Y-70461671D01*
X50457722Y-70432098D01*
X50454217Y-70427122D01*
X50339384Y-70255263D01*
X50336126Y-70250118D01*
X50317191Y-70218525D01*
X50314192Y-70213230D01*
X50291091Y-70170009D01*
X50288355Y-70164574D01*
X50272614Y-70131292D01*
X50270148Y-70125729D01*
X50269432Y-70124000D01*
X50124000Y-70124000D01*
X50124000Y-71626000D01*
X49126000Y-71626000D01*
X49126000Y-70124000D01*
X47624000Y-70124000D01*
X47624000Y-70955097D01*
X44126000Y-70955097D01*
X44126000Y-70332473D01*
X45124000Y-70332473D01*
X45128120Y-70330271D01*
X45133558Y-70327533D01*
X45166852Y-70311786D01*
X45172416Y-70309320D01*
X45389747Y-70219299D01*
X45395426Y-70217108D01*
X45430088Y-70204706D01*
X45435863Y-70202798D01*
X45482758Y-70188571D01*
X45488628Y-70186947D01*
X45524355Y-70177998D01*
X45530292Y-70176665D01*
X45795053Y-70124000D01*
X45857951Y-70124000D01*
X46024800Y-70165793D01*
X46191649Y-70124000D01*
X46254547Y-70124000D01*
X46519308Y-70176665D01*
X46525245Y-70177998D01*
X46560972Y-70186947D01*
X46566842Y-70188571D01*
X46613737Y-70202798D01*
X46619512Y-70204706D01*
X46626000Y-70207027D01*
X46626000Y-70124000D01*
X46254547Y-70124000D01*
X46191649Y-70124000D01*
X45857951Y-70124000D01*
X45795053Y-70124000D01*
X45124000Y-70124000D01*
X45124000Y-70332473D01*
X44126000Y-70332473D01*
X44126000Y-70124000D01*
X42624000Y-70124000D01*
X42624000Y-71626000D01*
X41626000Y-71626000D01*
X41626000Y-70124000D01*
X41571349Y-70124000D01*
X41559496Y-70141740D01*
X41555993Y-70146714D01*
X41534060Y-70176288D01*
X41530314Y-70181088D01*
X41499225Y-70218970D01*
X41495251Y-70223577D01*
X41470520Y-70250864D01*
X41466322Y-70255273D01*
X41299273Y-70422322D01*
X41294864Y-70426520D01*
X41267577Y-70451251D01*
X41262970Y-70455225D01*
X41225088Y-70486314D01*
X41220288Y-70490060D01*
X41190714Y-70511993D01*
X41185740Y-70515496D01*
X40989314Y-70646744D01*
X40984170Y-70650001D01*
X40952578Y-70668936D01*
X40947282Y-70671936D01*
X40904061Y-70695037D01*
X40898626Y-70697773D01*
X40865346Y-70713513D01*
X40859783Y-70715979D01*
X40641535Y-70806380D01*
X40635859Y-70808570D01*
X40601197Y-70820973D01*
X40595418Y-70822882D01*
X40548522Y-70837109D01*
X40542652Y-70838733D01*
X40506924Y-70847682D01*
X40500987Y-70849015D01*
X40269281Y-70895104D01*
X40263286Y-70896145D01*
X40226858Y-70901549D01*
X40220815Y-70902294D01*
X40172046Y-70907097D01*
X40165975Y-70907545D01*
X40129200Y-70909351D01*
X40124000Y-70909478D01*
X39126000Y-70909478D01*
X39126000Y-70704690D01*
X39111374Y-70697773D01*
X39105939Y-70695037D01*
X39062718Y-70671936D01*
X39057422Y-70668936D01*
X39025830Y-70650001D01*
X39020686Y-70646744D01*
X38824260Y-70515496D01*
X38819286Y-70511993D01*
X38789712Y-70490060D01*
X38784912Y-70486314D01*
X38747030Y-70455225D01*
X38742423Y-70451251D01*
X38715136Y-70426520D01*
X38710727Y-70422322D01*
X38543678Y-70255273D01*
X38539480Y-70250864D01*
X38514749Y-70223577D01*
X38510775Y-70218970D01*
X38479686Y-70181088D01*
X38475940Y-70176288D01*
X38454007Y-70146714D01*
X38450504Y-70141740D01*
X38438651Y-70124000D01*
X37624000Y-70124000D01*
X37624000Y-71626000D01*
X36626000Y-71626000D01*
X36626000Y-70124000D01*
X35787266Y-70124000D01*
X35787079Y-71626000D01*
X34789080Y-71626000D01*
X34789390Y-69126000D01*
X35787389Y-69126000D01*
X36626000Y-69126000D01*
X37624000Y-69126000D01*
X38058752Y-69126000D01*
X38058455Y-69121975D01*
X38056649Y-69085200D01*
X38056500Y-69079118D01*
X38056500Y-68867379D01*
X39054500Y-68867379D01*
X39054500Y-69054620D01*
X39091025Y-69238243D01*
X39091027Y-69238251D01*
X39162676Y-69411228D01*
X39162681Y-69411237D01*
X39266697Y-69566907D01*
X39266700Y-69566911D01*
X39399088Y-69699299D01*
X39399092Y-69699302D01*
X39554762Y-69803318D01*
X39554768Y-69803321D01*
X39554769Y-69803322D01*
X39727749Y-69874973D01*
X39911379Y-69911499D01*
X39911383Y-69911500D01*
X39911384Y-69911500D01*
X40098617Y-69911500D01*
X40098618Y-69911499D01*
X40282251Y-69874973D01*
X40455231Y-69803322D01*
X40610908Y-69699302D01*
X40743302Y-69566908D01*
X40847322Y-69411231D01*
X40908658Y-69263153D01*
X51091700Y-69263153D01*
X51091700Y-69420846D01*
X51122461Y-69575489D01*
X51122464Y-69575501D01*
X51182802Y-69721172D01*
X51182809Y-69721185D01*
X51270410Y-69852288D01*
X51270413Y-69852292D01*
X51381907Y-69963786D01*
X51381911Y-69963789D01*
X51513014Y-70051390D01*
X51513027Y-70051397D01*
X51658698Y-70111735D01*
X51658703Y-70111737D01*
X51809537Y-70141740D01*
X51813353Y-70142499D01*
X51813356Y-70142500D01*
X51813358Y-70142500D01*
X51971044Y-70142500D01*
X51971045Y-70142499D01*
X52125697Y-70111737D01*
X52271379Y-70051394D01*
X52402489Y-69963789D01*
X52513989Y-69852289D01*
X52601594Y-69721179D01*
X52602121Y-69719908D01*
X52624291Y-69666382D01*
X52661937Y-69575497D01*
X52673542Y-69517153D01*
X54774700Y-69517153D01*
X54774700Y-69674846D01*
X54805461Y-69829489D01*
X54805464Y-69829501D01*
X54865802Y-69975172D01*
X54865809Y-69975185D01*
X54953410Y-70106288D01*
X54953413Y-70106292D01*
X55064907Y-70217786D01*
X55064911Y-70217789D01*
X55196014Y-70305390D01*
X55196027Y-70305397D01*
X55341698Y-70365735D01*
X55341703Y-70365737D01*
X55469387Y-70391135D01*
X55496353Y-70396499D01*
X55496356Y-70396500D01*
X55496358Y-70396500D01*
X55654044Y-70396500D01*
X55654045Y-70396499D01*
X55808697Y-70365737D01*
X55954379Y-70305394D01*
X56085489Y-70217789D01*
X56196989Y-70106289D01*
X56284594Y-69975179D01*
X56344937Y-69829497D01*
X56375700Y-69674842D01*
X56375700Y-69517158D01*
X56349991Y-69387910D01*
X56343749Y-69356528D01*
X56344832Y-69356312D01*
X56341200Y-69331789D01*
X56341200Y-68677600D01*
X55676981Y-68677600D01*
X55667175Y-68689548D01*
X55664727Y-68716901D01*
X55621864Y-68772078D01*
X55582152Y-68786086D01*
X55586051Y-68795500D01*
X55496358Y-68795500D01*
X55341703Y-68826263D01*
X55328297Y-68831815D01*
X55328297Y-68831814D01*
X55196027Y-68886602D01*
X55196014Y-68886609D01*
X55064911Y-68974210D01*
X55064907Y-68974213D01*
X54953413Y-69085707D01*
X54953410Y-69085711D01*
X54865809Y-69216814D01*
X54865802Y-69216827D01*
X54805464Y-69362498D01*
X54805461Y-69362510D01*
X54774700Y-69517153D01*
X52673542Y-69517153D01*
X52692700Y-69420842D01*
X52692700Y-69263158D01*
X52692700Y-69263155D01*
X52692699Y-69263153D01*
X52690196Y-69250572D01*
X52661937Y-69108503D01*
X52656269Y-69094819D01*
X52601597Y-68962827D01*
X52601590Y-68962814D01*
X52513989Y-68831711D01*
X52513986Y-68831707D01*
X52402492Y-68720213D01*
X52402488Y-68720210D01*
X52271385Y-68632609D01*
X52271372Y-68632602D01*
X52125701Y-68572264D01*
X52125689Y-68572261D01*
X51971045Y-68541500D01*
X51971042Y-68541500D01*
X51813358Y-68541500D01*
X51813355Y-68541500D01*
X51658710Y-68572261D01*
X51658698Y-68572264D01*
X51513027Y-68632602D01*
X51513014Y-68632609D01*
X51381911Y-68720210D01*
X51381907Y-68720213D01*
X51270413Y-68831707D01*
X51270410Y-68831711D01*
X51182809Y-68962814D01*
X51182802Y-68962827D01*
X51122464Y-69108498D01*
X51122461Y-69108510D01*
X51091700Y-69263153D01*
X40908658Y-69263153D01*
X40918973Y-69238251D01*
X40941301Y-69126000D01*
X42624000Y-69126000D01*
X44126000Y-69126000D01*
X44126000Y-68933410D01*
X45124000Y-68933410D01*
X45124000Y-69126000D01*
X46626000Y-69126000D01*
X47624000Y-69126000D01*
X49126000Y-69126000D01*
X49126000Y-68756100D01*
X47624000Y-68756100D01*
X47624000Y-69126000D01*
X46626000Y-69126000D01*
X46626000Y-68756100D01*
X46248090Y-68756100D01*
X46243209Y-68758709D01*
X46237774Y-68761445D01*
X46204492Y-68777186D01*
X46198928Y-68779652D01*
X46007978Y-68858745D01*
X46002301Y-68860935D01*
X45967640Y-68873337D01*
X45961862Y-68875246D01*
X45914967Y-68889472D01*
X45909103Y-68891095D01*
X45873377Y-68900045D01*
X45867435Y-68901379D01*
X45664708Y-68941704D01*
X45658711Y-68942745D01*
X45622280Y-68948149D01*
X45616239Y-68948894D01*
X45567467Y-68953697D01*
X45561397Y-68954145D01*
X45524625Y-68955951D01*
X45518542Y-68956100D01*
X45311858Y-68956100D01*
X45305775Y-68955951D01*
X45269003Y-68954145D01*
X45262933Y-68953697D01*
X45214161Y-68948894D01*
X45208120Y-68948149D01*
X45171689Y-68942745D01*
X45165691Y-68941704D01*
X45124000Y-68933410D01*
X44126000Y-68933410D01*
X44126000Y-68411863D01*
X44070391Y-68356254D01*
X44066193Y-68351845D01*
X44048174Y-68331964D01*
X44033440Y-68331602D01*
X43865800Y-68289604D01*
X43698160Y-68331602D01*
X43643840Y-68332937D01*
X43371335Y-68278745D01*
X43365395Y-68277412D01*
X43329668Y-68268464D01*
X43323801Y-68266840D01*
X43276895Y-68252612D01*
X43271116Y-68250703D01*
X43236436Y-68238295D01*
X43230756Y-68236104D01*
X43013415Y-68146079D01*
X43007849Y-68143612D01*
X42974556Y-68127865D01*
X42969120Y-68125129D01*
X42925902Y-68102028D01*
X42920605Y-68099027D01*
X42889027Y-68080099D01*
X42883888Y-68076844D01*
X42688297Y-67946155D01*
X42683323Y-67942653D01*
X42653748Y-67920720D01*
X42648947Y-67916973D01*
X42624000Y-67896499D01*
X42624000Y-69126000D01*
X40941301Y-69126000D01*
X40955500Y-69054616D01*
X40955500Y-68867384D01*
X40918973Y-68683749D01*
X40860051Y-68541500D01*
X40847323Y-68510771D01*
X40847318Y-68510762D01*
X40743302Y-68355092D01*
X40743299Y-68355088D01*
X40610911Y-68222700D01*
X40610907Y-68222697D01*
X40455237Y-68118681D01*
X40455228Y-68118676D01*
X40282251Y-68047027D01*
X40282243Y-68047025D01*
X40098620Y-68010500D01*
X40098616Y-68010500D01*
X39911384Y-68010500D01*
X39911379Y-68010500D01*
X39727756Y-68047025D01*
X39727748Y-68047027D01*
X39554771Y-68118676D01*
X39554762Y-68118681D01*
X39399092Y-68222697D01*
X39399088Y-68222700D01*
X39266700Y-68355088D01*
X39266697Y-68355092D01*
X39162681Y-68510762D01*
X39162676Y-68510771D01*
X39091027Y-68683748D01*
X39091025Y-68683756D01*
X39054500Y-68867379D01*
X38056500Y-68867379D01*
X38056500Y-68842882D01*
X38056649Y-68836800D01*
X38058455Y-68800025D01*
X38058903Y-68793954D01*
X38063706Y-68745185D01*
X38064451Y-68739142D01*
X38069855Y-68702714D01*
X38070896Y-68696719D01*
X38116985Y-68465013D01*
X38118318Y-68459076D01*
X38127267Y-68423348D01*
X38128891Y-68417478D01*
X38143118Y-68370582D01*
X38145027Y-68364803D01*
X38157430Y-68330141D01*
X38159620Y-68324465D01*
X38250021Y-68106217D01*
X38252487Y-68100654D01*
X38268227Y-68067374D01*
X38270963Y-68061939D01*
X38294064Y-68018718D01*
X38297064Y-68013422D01*
X38315999Y-67981830D01*
X38319256Y-67976686D01*
X38450504Y-67780260D01*
X38454007Y-67775286D01*
X38475940Y-67745712D01*
X38479686Y-67740912D01*
X38510775Y-67703030D01*
X38514749Y-67698423D01*
X38539480Y-67671136D01*
X38543678Y-67666727D01*
X38586405Y-67624000D01*
X37624000Y-67624000D01*
X37624000Y-69126000D01*
X36626000Y-69126000D01*
X36626000Y-67624000D01*
X35787576Y-67624000D01*
X35787389Y-69126000D01*
X34789390Y-69126000D01*
X34789699Y-66645600D01*
X42951580Y-66645600D01*
X42956705Y-66671362D01*
X42956708Y-66671374D01*
X43027973Y-66843425D01*
X43027975Y-66843429D01*
X43131436Y-66998269D01*
X43131442Y-66998277D01*
X43263122Y-67129957D01*
X43263130Y-67129963D01*
X43417970Y-67233424D01*
X43590026Y-67304691D01*
X43590036Y-67304694D01*
X43615799Y-67309818D01*
X43615800Y-67309817D01*
X43615800Y-66645600D01*
X42951580Y-66645600D01*
X34789699Y-66645600D01*
X34789701Y-66626000D01*
X38549280Y-66626000D01*
X39126000Y-66626000D01*
X40124000Y-66626000D01*
X41626000Y-66626000D01*
X41626000Y-66145599D01*
X42951580Y-66145599D01*
X42951581Y-66145600D01*
X43615800Y-66145600D01*
X43615800Y-65481381D01*
X43615799Y-65481380D01*
X44115800Y-65481380D01*
X44115800Y-67309818D01*
X44141563Y-67304694D01*
X44141573Y-67304691D01*
X44313626Y-67233425D01*
X44424545Y-67159312D01*
X44491223Y-67138434D01*
X44558603Y-67156919D01*
X44586178Y-67187618D01*
X44614700Y-67159096D01*
X44614700Y-67236442D01*
X44645463Y-67391097D01*
X44670001Y-67450338D01*
X44670000Y-67450339D01*
X44705802Y-67536772D01*
X44705809Y-67536785D01*
X44793410Y-67667888D01*
X44793413Y-67667892D01*
X44904907Y-67779386D01*
X44904911Y-67779389D01*
X45036014Y-67866990D01*
X45036027Y-67866997D01*
X45167420Y-67921421D01*
X45181703Y-67927337D01*
X45300614Y-67950990D01*
X45336353Y-67958099D01*
X45336356Y-67958100D01*
X45336358Y-67958100D01*
X45494044Y-67958100D01*
X45494045Y-67958099D01*
X45648697Y-67927337D01*
X45794379Y-67866994D01*
X45849586Y-67830106D01*
X45926075Y-67778998D01*
X45992753Y-67758120D01*
X45994966Y-67758100D01*
X55752358Y-67758100D01*
X55738045Y-67779519D01*
X55782298Y-67830589D01*
X55792242Y-67899747D01*
X55772607Y-67950990D01*
X55753373Y-67979776D01*
X55682108Y-68151825D01*
X55682105Y-68151837D01*
X55676980Y-68177599D01*
X55676981Y-68177600D01*
X56467200Y-68177600D01*
X56534239Y-68197285D01*
X56579994Y-68250089D01*
X56591200Y-68301600D01*
X56591200Y-68427600D01*
X56717200Y-68427600D01*
X56784239Y-68447285D01*
X56829994Y-68500089D01*
X56841200Y-68551600D01*
X56841200Y-69341818D01*
X56866963Y-69336694D01*
X56866973Y-69336691D01*
X57039029Y-69265424D01*
X57193869Y-69161963D01*
X57193877Y-69161957D01*
X57325557Y-69030277D01*
X57325563Y-69030269D01*
X57429024Y-68875429D01*
X57429026Y-68875425D01*
X57500291Y-68703374D01*
X57500294Y-68703362D01*
X57536624Y-68520720D01*
X57536625Y-68520717D01*
X57536625Y-68334483D01*
X57536624Y-68334479D01*
X57500294Y-68151837D01*
X57500291Y-68151825D01*
X57429026Y-67979776D01*
X57409793Y-67950990D01*
X57388916Y-67884312D01*
X57407401Y-67816932D01*
X57446116Y-67782156D01*
X57430042Y-67758100D01*
X57612465Y-67758100D01*
X57842718Y-67988353D01*
X57853387Y-68021188D01*
X57860210Y-68033683D01*
X57860661Y-68035849D01*
X57864623Y-68055770D01*
X57864627Y-68055783D01*
X57891563Y-68191197D01*
X57899209Y-68209657D01*
X57899210Y-68209661D01*
X57951902Y-68336872D01*
X57951909Y-68336885D01*
X58039510Y-68467988D01*
X58039513Y-68467992D01*
X58151007Y-68579486D01*
X58151011Y-68579489D01*
X58282114Y-68667090D01*
X58282127Y-68667097D01*
X58427798Y-68727435D01*
X58427803Y-68727437D01*
X58517028Y-68745185D01*
X58582453Y-68758199D01*
X58582456Y-68758200D01*
X58582458Y-68758200D01*
X58740144Y-68758200D01*
X58740145Y-68758199D01*
X58894797Y-68727437D01*
X59009871Y-68679772D01*
X59040472Y-68667097D01*
X59040472Y-68667096D01*
X59040479Y-68667094D01*
X59171589Y-68579489D01*
X59283089Y-68467989D01*
X59370694Y-68336879D01*
X59388454Y-68293999D01*
X59356202Y-68456145D01*
X59394695Y-68458898D01*
X59450628Y-68500770D01*
X59475045Y-68566234D01*
X59475361Y-68575080D01*
X59475361Y-68678934D01*
X59511692Y-68861585D01*
X59512035Y-68862714D01*
X59512040Y-68863333D01*
X59512881Y-68867559D01*
X59512079Y-68867718D01*
X59512654Y-68932581D01*
X59475401Y-68991692D01*
X59438510Y-69008935D01*
X59449874Y-69036370D01*
X59324342Y-69011400D01*
X59166658Y-69011400D01*
X59164938Y-69011742D01*
X59164938Y-69011741D01*
X59012010Y-69042161D01*
X59011998Y-69042164D01*
X58866327Y-69102502D01*
X58866314Y-69102509D01*
X58735211Y-69190110D01*
X58735207Y-69190113D01*
X58623713Y-69301607D01*
X58623710Y-69301611D01*
X58536109Y-69432714D01*
X58536102Y-69432727D01*
X58475764Y-69578398D01*
X58475761Y-69578410D01*
X58445000Y-69733053D01*
X58445000Y-69890746D01*
X58475761Y-70045389D01*
X58475764Y-70045401D01*
X58536102Y-70191072D01*
X58536109Y-70191085D01*
X58623710Y-70322188D01*
X58623713Y-70322192D01*
X58735207Y-70433686D01*
X58735211Y-70433689D01*
X58866314Y-70521290D01*
X58866327Y-70521297D01*
X59011998Y-70581635D01*
X59012003Y-70581637D01*
X59166653Y-70612399D01*
X59166656Y-70612400D01*
X59166658Y-70612400D01*
X59324344Y-70612400D01*
X59324345Y-70612399D01*
X59478997Y-70581637D01*
X59624679Y-70521294D01*
X59755789Y-70433689D01*
X59867289Y-70322189D01*
X59954894Y-70191079D01*
X60015237Y-70045397D01*
X60046000Y-69890742D01*
X60046000Y-69733058D01*
X60015237Y-69578403D01*
X60013719Y-69574738D01*
X60034464Y-69583331D01*
X60035030Y-69577010D01*
X60061797Y-69542553D01*
X63258300Y-69542553D01*
X63258300Y-69700246D01*
X63289061Y-69854889D01*
X63289064Y-69854901D01*
X63349402Y-70000572D01*
X63349409Y-70000585D01*
X63437010Y-70131688D01*
X63437013Y-70131692D01*
X63548507Y-70243186D01*
X63548511Y-70243189D01*
X63679614Y-70330790D01*
X63679627Y-70330797D01*
X63797759Y-70379728D01*
X63825303Y-70391137D01*
X63963237Y-70418574D01*
X63979953Y-70421899D01*
X63979956Y-70421900D01*
X63979958Y-70421900D01*
X64137644Y-70421900D01*
X64137645Y-70421899D01*
X64292297Y-70391137D01*
X64437979Y-70330794D01*
X64569089Y-70243189D01*
X64680589Y-70131689D01*
X64768194Y-70000579D01*
X64828537Y-69854897D01*
X64831303Y-69840987D01*
X64863687Y-69779077D01*
X64924402Y-69744502D01*
X64994172Y-69748241D01*
X65050845Y-69789106D01*
X65074538Y-69840986D01*
X65092461Y-69931091D01*
X65092464Y-69931101D01*
X65152802Y-70076772D01*
X65152809Y-70076785D01*
X65240410Y-70207888D01*
X65240413Y-70207892D01*
X65351907Y-70319386D01*
X65351911Y-70319389D01*
X65483014Y-70406990D01*
X65483027Y-70406997D01*
X65603877Y-70457054D01*
X65628703Y-70467337D01*
X65783353Y-70498099D01*
X65783356Y-70498100D01*
X65783358Y-70498100D01*
X65941044Y-70498100D01*
X65941045Y-70498099D01*
X66095697Y-70467337D01*
X66241379Y-70406994D01*
X66372489Y-70319389D01*
X66483989Y-70207889D01*
X66571594Y-70076779D01*
X66582108Y-70051397D01*
X66599381Y-70009694D01*
X66631937Y-69931097D01*
X66662700Y-69776442D01*
X66662700Y-69618758D01*
X66662700Y-69618755D01*
X66662699Y-69618753D01*
X66654396Y-69577010D01*
X66631937Y-69464103D01*
X66618938Y-69432721D01*
X66571597Y-69318427D01*
X66571590Y-69318414D01*
X66483989Y-69187311D01*
X66483986Y-69187307D01*
X66372492Y-69075813D01*
X66372488Y-69075810D01*
X66241385Y-68988209D01*
X66241372Y-68988202D01*
X66095701Y-68927864D01*
X66095689Y-68927861D01*
X65941045Y-68897100D01*
X65941042Y-68897100D01*
X65783358Y-68897100D01*
X65783355Y-68897100D01*
X65628710Y-68927861D01*
X65628698Y-68927864D01*
X65483027Y-68988202D01*
X65483014Y-68988209D01*
X65351911Y-69075810D01*
X65351907Y-69075813D01*
X65240413Y-69187307D01*
X65240410Y-69187311D01*
X65152809Y-69318414D01*
X65152802Y-69318427D01*
X65092464Y-69464098D01*
X65092460Y-69464112D01*
X65089694Y-69478017D01*
X65057307Y-69539927D01*
X64996590Y-69574499D01*
X64926820Y-69570756D01*
X64870150Y-69529887D01*
X64846461Y-69478012D01*
X64837452Y-69432721D01*
X64828537Y-69387903D01*
X64807326Y-69336694D01*
X64768197Y-69242227D01*
X64768190Y-69242214D01*
X64680589Y-69111111D01*
X64680586Y-69111107D01*
X64569092Y-68999613D01*
X64569088Y-68999610D01*
X64437985Y-68912009D01*
X64437972Y-68912002D01*
X64292301Y-68851664D01*
X64292289Y-68851661D01*
X64137645Y-68820900D01*
X64137642Y-68820900D01*
X63979958Y-68820900D01*
X63979955Y-68820900D01*
X63825310Y-68851661D01*
X63825298Y-68851664D01*
X63679627Y-68912002D01*
X63679614Y-68912009D01*
X63548511Y-68999610D01*
X63548507Y-68999613D01*
X63437013Y-69111107D01*
X63437010Y-69111111D01*
X63349409Y-69242214D01*
X63349402Y-69242227D01*
X63289064Y-69387898D01*
X63289061Y-69387910D01*
X63258300Y-69542553D01*
X60061797Y-69542553D01*
X60077893Y-69521833D01*
X60143783Y-69498588D01*
X60170240Y-69500479D01*
X60170785Y-69500032D01*
X60670786Y-69500032D01*
X60696549Y-69494908D01*
X60696559Y-69494905D01*
X60868615Y-69423638D01*
X61023455Y-69320177D01*
X61023463Y-69320171D01*
X61155143Y-69188491D01*
X61155149Y-69188483D01*
X61258610Y-69033643D01*
X61258612Y-69033639D01*
X61329877Y-68861588D01*
X61329880Y-68861576D01*
X61335005Y-68835814D01*
X60670786Y-68835814D01*
X60670786Y-69500032D01*
X60170785Y-69500032D01*
X60170786Y-69500031D01*
X60170786Y-68709814D01*
X60190471Y-68642775D01*
X60243275Y-68597020D01*
X60294786Y-68585814D01*
X60420786Y-68585814D01*
X60420786Y-68531759D01*
X62624000Y-68531759D01*
X62624322Y-68531302D01*
X62646255Y-68501729D01*
X62649999Y-68496931D01*
X62681088Y-68459049D01*
X62685062Y-68454442D01*
X62709793Y-68427155D01*
X62713991Y-68422746D01*
X62860146Y-68276591D01*
X62864555Y-68272393D01*
X62891842Y-68247662D01*
X62896449Y-68243688D01*
X62934331Y-68212599D01*
X62939129Y-68208855D01*
X62968702Y-68186922D01*
X62973678Y-68183417D01*
X63145537Y-68068584D01*
X63150682Y-68065326D01*
X63165093Y-68056689D01*
X65124000Y-68056689D01*
X65269422Y-67996455D01*
X65275099Y-67994265D01*
X65309760Y-67981863D01*
X65315538Y-67979954D01*
X65362433Y-67965728D01*
X65368297Y-67964105D01*
X65404023Y-67955155D01*
X65409965Y-67953821D01*
X65612692Y-67913496D01*
X65618689Y-67912455D01*
X65655120Y-67907051D01*
X65661161Y-67906306D01*
X65709933Y-67901503D01*
X65716003Y-67901055D01*
X65752775Y-67899249D01*
X65758858Y-67899100D01*
X65965542Y-67899100D01*
X65971625Y-67899249D01*
X66008397Y-67901055D01*
X66014467Y-67901503D01*
X66063239Y-67906306D01*
X66069280Y-67907051D01*
X66105711Y-67912455D01*
X66111708Y-67913496D01*
X66314435Y-67953821D01*
X66320377Y-67955155D01*
X66356103Y-67964105D01*
X66361967Y-67965728D01*
X66408862Y-67979954D01*
X66414640Y-67981863D01*
X66449301Y-67994265D01*
X66454978Y-67996455D01*
X66498387Y-68014435D01*
X66531421Y-67848365D01*
X66532755Y-67842423D01*
X66541705Y-67806697D01*
X66543328Y-67800833D01*
X66557554Y-67753938D01*
X66559463Y-67748160D01*
X66571865Y-67713499D01*
X66574055Y-67707822D01*
X66608775Y-67624000D01*
X65124000Y-67624000D01*
X65124000Y-68056689D01*
X63165093Y-68056689D01*
X63182275Y-68046391D01*
X63187570Y-68043392D01*
X63230791Y-68020291D01*
X63236226Y-68017555D01*
X63269508Y-68001814D01*
X63275072Y-67999348D01*
X63466022Y-67920255D01*
X63471699Y-67918065D01*
X63506360Y-67905663D01*
X63512138Y-67903754D01*
X63559033Y-67889528D01*
X63564897Y-67887905D01*
X63600623Y-67878955D01*
X63606565Y-67877621D01*
X63809292Y-67837296D01*
X63815289Y-67836255D01*
X63851720Y-67830851D01*
X63857761Y-67830106D01*
X63906533Y-67825303D01*
X63912603Y-67824855D01*
X63949375Y-67823049D01*
X63955458Y-67822900D01*
X64126000Y-67822900D01*
X64126000Y-67624000D01*
X62624000Y-67624000D01*
X62624000Y-68531759D01*
X60420786Y-68531759D01*
X60420786Y-68459814D01*
X60440471Y-68392775D01*
X60493275Y-68347020D01*
X60544786Y-68335814D01*
X61335005Y-68335814D01*
X61335005Y-68335813D01*
X61329880Y-68310051D01*
X61329877Y-68310039D01*
X61258612Y-68137988D01*
X61258610Y-68137984D01*
X61155149Y-67983144D01*
X61155148Y-67983142D01*
X61132985Y-67960980D01*
X61099499Y-67899657D01*
X61104482Y-67829966D01*
X61109354Y-67819172D01*
X61114292Y-67807250D01*
X61170937Y-67670497D01*
X61201700Y-67515842D01*
X61201700Y-67514154D01*
X61201700Y-67358155D01*
X61201699Y-67358153D01*
X61197275Y-67335910D01*
X61170937Y-67203503D01*
X61168967Y-67198746D01*
X61110597Y-67057827D01*
X61110595Y-67057823D01*
X61110594Y-67057821D01*
X61054415Y-66973744D01*
X61033538Y-66907068D01*
X61052022Y-66839688D01*
X61069838Y-66817172D01*
X61114099Y-66772911D01*
X61114102Y-66772908D01*
X61212263Y-66626000D01*
X62624000Y-66626000D01*
X64126000Y-66626000D01*
X65124000Y-66626000D01*
X66626000Y-66626000D01*
X66626000Y-66455726D01*
X67624000Y-66455726D01*
X67624000Y-66623653D01*
X67682422Y-66599455D01*
X67688099Y-66597265D01*
X67722760Y-66584863D01*
X67728538Y-66582954D01*
X67775433Y-66568728D01*
X67781297Y-66567105D01*
X67817023Y-66558155D01*
X67822965Y-66556821D01*
X68025692Y-66516496D01*
X68031689Y-66515455D01*
X68068120Y-66510051D01*
X68074161Y-66509306D01*
X68122933Y-66504503D01*
X68129003Y-66504055D01*
X68165775Y-66502249D01*
X68171858Y-66502100D01*
X68378542Y-66502100D01*
X68384625Y-66502249D01*
X68421397Y-66504055D01*
X68427467Y-66504503D01*
X68476239Y-66509306D01*
X68482280Y-66510051D01*
X68518711Y-66515455D01*
X68524708Y-66516496D01*
X68727435Y-66556821D01*
X68733377Y-66558155D01*
X68769103Y-66567105D01*
X68774967Y-66568728D01*
X68821862Y-66582954D01*
X68827640Y-66584863D01*
X68862301Y-66597265D01*
X68867978Y-66599455D01*
X68932064Y-66626000D01*
X69126000Y-66626000D01*
X69126000Y-65954106D01*
X70124000Y-65954106D01*
X70954107Y-65124000D01*
X70124000Y-65124000D01*
X70124000Y-65954106D01*
X69126000Y-65954106D01*
X69126000Y-65124000D01*
X69011162Y-65124000D01*
X69006779Y-65146035D01*
X69005445Y-65151977D01*
X68996495Y-65187703D01*
X68994872Y-65193567D01*
X68980646Y-65240462D01*
X68978737Y-65246240D01*
X68966335Y-65280901D01*
X68964145Y-65286578D01*
X68885052Y-65477528D01*
X68882586Y-65483092D01*
X68866845Y-65516374D01*
X68864109Y-65521809D01*
X68841008Y-65565030D01*
X68838009Y-65570325D01*
X68819074Y-65601918D01*
X68815816Y-65607063D01*
X68700983Y-65778922D01*
X68697478Y-65783898D01*
X68675545Y-65813471D01*
X68671801Y-65818269D01*
X68640712Y-65856151D01*
X68636738Y-65860758D01*
X68612007Y-65888045D01*
X68607809Y-65892454D01*
X68461654Y-66038609D01*
X68457245Y-66042807D01*
X68429958Y-66067538D01*
X68425351Y-66071512D01*
X68387469Y-66102601D01*
X68382671Y-66106345D01*
X68353098Y-66128278D01*
X68348122Y-66131783D01*
X68176263Y-66246616D01*
X68171118Y-66249874D01*
X68139525Y-66268809D01*
X68134230Y-66271808D01*
X68091009Y-66294909D01*
X68085574Y-66297645D01*
X68052292Y-66313386D01*
X68046728Y-66315852D01*
X67855778Y-66394945D01*
X67850101Y-66397135D01*
X67815440Y-66409537D01*
X67809662Y-66411446D01*
X67762767Y-66425672D01*
X67756903Y-66427295D01*
X67721177Y-66436245D01*
X67715235Y-66437579D01*
X67624000Y-66455726D01*
X66626000Y-66455726D01*
X66626000Y-66376627D01*
X66479272Y-66315852D01*
X66473708Y-66313386D01*
X66440426Y-66297645D01*
X66434991Y-66294909D01*
X66391770Y-66271808D01*
X66386475Y-66268809D01*
X66354882Y-66249874D01*
X66349737Y-66246616D01*
X66177878Y-66131783D01*
X66172902Y-66128278D01*
X66143329Y-66106345D01*
X66138531Y-66102601D01*
X66100649Y-66071512D01*
X66096042Y-66067538D01*
X66068755Y-66042807D01*
X66064346Y-66038609D01*
X65918191Y-65892454D01*
X65913993Y-65888045D01*
X65889262Y-65860758D01*
X65885288Y-65856151D01*
X65854199Y-65818269D01*
X65850455Y-65813471D01*
X65828522Y-65783898D01*
X65825017Y-65778922D01*
X65710184Y-65607063D01*
X65706926Y-65601918D01*
X65687991Y-65570325D01*
X65684992Y-65565030D01*
X65661891Y-65521809D01*
X65659155Y-65516374D01*
X65643414Y-65483092D01*
X65640948Y-65477528D01*
X65561855Y-65286578D01*
X65559665Y-65280901D01*
X65547263Y-65246240D01*
X65545354Y-65240462D01*
X65531128Y-65193567D01*
X65529505Y-65187703D01*
X65520555Y-65151977D01*
X65519221Y-65146035D01*
X65514838Y-65124000D01*
X65124000Y-65124000D01*
X65124000Y-66626000D01*
X64126000Y-66626000D01*
X64126000Y-65124000D01*
X62624000Y-65124000D01*
X62624000Y-66626000D01*
X61212263Y-66626000D01*
X61218122Y-66617231D01*
X61289773Y-66444251D01*
X61326300Y-66260616D01*
X61326300Y-66073384D01*
X61289773Y-65889749D01*
X61218122Y-65716769D01*
X61218121Y-65716768D01*
X61218118Y-65716762D01*
X61114102Y-65561092D01*
X61114099Y-65561088D01*
X60981711Y-65428700D01*
X60981707Y-65428697D01*
X60826037Y-65324681D01*
X60826028Y-65324676D01*
X60653051Y-65253027D01*
X60653043Y-65253025D01*
X60469420Y-65216500D01*
X60469416Y-65216500D01*
X60282184Y-65216500D01*
X60276092Y-65216500D01*
X60276092Y-65215163D01*
X60214163Y-65203409D01*
X60163460Y-65155336D01*
X60149055Y-65117224D01*
X60135200Y-65047572D01*
X60129537Y-65019103D01*
X60109427Y-64970553D01*
X60069197Y-64873427D01*
X60069190Y-64873414D01*
X59981589Y-64742311D01*
X59981586Y-64742307D01*
X59870092Y-64630813D01*
X59870088Y-64630810D01*
X59846357Y-64614953D01*
X66462500Y-64614953D01*
X66462500Y-64772646D01*
X66493261Y-64927289D01*
X66493264Y-64927301D01*
X66553602Y-65072972D01*
X66553609Y-65072985D01*
X66641210Y-65204088D01*
X66641213Y-65204092D01*
X66752707Y-65315586D01*
X66752711Y-65315589D01*
X66883814Y-65403190D01*
X66883827Y-65403197D01*
X66945398Y-65428700D01*
X67029503Y-65463537D01*
X67184153Y-65494299D01*
X67184156Y-65494300D01*
X67184158Y-65494300D01*
X67341844Y-65494300D01*
X67341845Y-65494299D01*
X67496497Y-65463537D01*
X67631436Y-65407644D01*
X67642172Y-65403197D01*
X67642172Y-65403196D01*
X67642179Y-65403194D01*
X67773289Y-65315589D01*
X67884789Y-65204089D01*
X67972394Y-65072979D01*
X68032737Y-64927297D01*
X68063500Y-64772642D01*
X68063500Y-64614958D01*
X68063500Y-64614955D01*
X68063499Y-64614953D01*
X68052381Y-64559061D01*
X68032737Y-64460303D01*
X68022214Y-64434898D01*
X67972397Y-64314627D01*
X67972390Y-64314614D01*
X67884789Y-64183511D01*
X67884786Y-64183507D01*
X67773292Y-64072013D01*
X67773288Y-64072010D01*
X67642185Y-63984409D01*
X67642172Y-63984402D01*
X67496501Y-63924064D01*
X67496489Y-63924061D01*
X67341845Y-63893300D01*
X67341842Y-63893300D01*
X67184158Y-63893300D01*
X67184155Y-63893300D01*
X67029510Y-63924061D01*
X67029498Y-63924064D01*
X66883827Y-63984402D01*
X66883814Y-63984409D01*
X66752711Y-64072010D01*
X66752707Y-64072013D01*
X66641213Y-64183507D01*
X66641210Y-64183511D01*
X66553609Y-64314614D01*
X66553602Y-64314627D01*
X66493264Y-64460298D01*
X66493261Y-64460310D01*
X66462500Y-64614953D01*
X59846357Y-64614953D01*
X59738985Y-64543209D01*
X59738972Y-64543202D01*
X59593301Y-64482864D01*
X59593291Y-64482861D01*
X59437949Y-64451961D01*
X59376038Y-64419576D01*
X59374460Y-64418025D01*
X58578893Y-63622458D01*
X60124000Y-63622458D01*
X60143529Y-63630548D01*
X60149092Y-63633014D01*
X60182374Y-63648755D01*
X60187809Y-63651491D01*
X60231030Y-63674592D01*
X60236325Y-63677591D01*
X60267918Y-63696526D01*
X60273063Y-63699784D01*
X60444922Y-63814617D01*
X60449898Y-63818122D01*
X60479471Y-63840055D01*
X60484269Y-63843799D01*
X60522151Y-63874888D01*
X60526758Y-63878862D01*
X60554045Y-63903593D01*
X60558454Y-63907791D01*
X60704609Y-64053946D01*
X60708807Y-64058355D01*
X60733538Y-64085642D01*
X60737512Y-64090249D01*
X60766852Y-64126000D01*
X61626000Y-64126000D01*
X62624000Y-64126000D01*
X64126000Y-64126000D01*
X65124000Y-64126000D01*
X65552759Y-64126000D01*
X65559665Y-64106699D01*
X65561855Y-64101022D01*
X65640948Y-63910072D01*
X65643414Y-63904508D01*
X65659155Y-63871226D01*
X65661891Y-63865791D01*
X65684992Y-63822570D01*
X65687991Y-63817275D01*
X65706926Y-63785682D01*
X65710184Y-63780537D01*
X65825017Y-63608678D01*
X65828522Y-63603702D01*
X65850455Y-63574129D01*
X65854199Y-63569331D01*
X65885288Y-63531449D01*
X65889262Y-63526842D01*
X65913993Y-63499555D01*
X65918191Y-63495146D01*
X66064346Y-63348991D01*
X66068755Y-63344793D01*
X66096042Y-63320062D01*
X66100649Y-63316088D01*
X66138531Y-63284999D01*
X66143329Y-63281255D01*
X66172902Y-63259322D01*
X66177878Y-63255817D01*
X66349737Y-63140984D01*
X66354882Y-63137726D01*
X66386475Y-63118791D01*
X66391770Y-63115792D01*
X66434991Y-63092691D01*
X66440426Y-63089955D01*
X66473708Y-63074214D01*
X66479272Y-63071748D01*
X66626000Y-63010972D01*
X66626000Y-62931872D01*
X67624000Y-62931872D01*
X67715236Y-62950021D01*
X67721177Y-62951355D01*
X67756903Y-62960305D01*
X67762767Y-62961928D01*
X67809662Y-62976154D01*
X67815440Y-62978063D01*
X67850101Y-62990465D01*
X67855778Y-62992655D01*
X68046728Y-63071748D01*
X68052292Y-63074214D01*
X68085574Y-63089955D01*
X68091009Y-63092691D01*
X68134230Y-63115792D01*
X68139525Y-63118791D01*
X68171118Y-63137726D01*
X68176263Y-63140984D01*
X68348122Y-63255817D01*
X68353098Y-63259322D01*
X68382671Y-63281255D01*
X68387469Y-63284999D01*
X68425351Y-63316088D01*
X68429958Y-63320062D01*
X68457245Y-63344793D01*
X68461654Y-63348991D01*
X68607809Y-63495146D01*
X68612007Y-63499555D01*
X68636738Y-63526842D01*
X68640712Y-63531449D01*
X68671801Y-63569331D01*
X68675545Y-63574129D01*
X68697478Y-63603702D01*
X68700983Y-63608678D01*
X68815816Y-63780537D01*
X68819074Y-63785682D01*
X68838009Y-63817275D01*
X68841008Y-63822570D01*
X68864109Y-63865791D01*
X68866845Y-63871226D01*
X68882586Y-63904508D01*
X68885052Y-63910072D01*
X68964145Y-64101022D01*
X68966335Y-64106699D01*
X68973241Y-64126000D01*
X69126000Y-64126000D01*
X70124000Y-64126000D01*
X71102861Y-64126000D01*
X71104154Y-64121738D01*
X71106063Y-64115960D01*
X71118465Y-64081299D01*
X71120655Y-64075622D01*
X71199748Y-63884672D01*
X71202214Y-63879108D01*
X71217955Y-63845826D01*
X71220691Y-63840391D01*
X71243792Y-63797170D01*
X71246791Y-63791875D01*
X71265726Y-63760282D01*
X71268984Y-63755137D01*
X71383817Y-63583278D01*
X71387322Y-63578302D01*
X71409255Y-63548729D01*
X71412999Y-63543931D01*
X71444088Y-63506049D01*
X71448062Y-63501442D01*
X71472793Y-63474155D01*
X71476991Y-63469746D01*
X71623146Y-63323591D01*
X71626000Y-63320873D01*
X71626000Y-62663570D01*
X72624000Y-62663570D01*
X72624000Y-62876787D01*
X72669533Y-62872303D01*
X72675603Y-62871855D01*
X72712375Y-62870049D01*
X72718458Y-62869900D01*
X72925142Y-62869900D01*
X72931225Y-62870049D01*
X72967997Y-62871855D01*
X72974067Y-62872303D01*
X73022839Y-62877106D01*
X73028880Y-62877851D01*
X73065311Y-62883255D01*
X73071308Y-62884296D01*
X73173486Y-62904620D01*
X73454107Y-62624000D01*
X73370937Y-62624000D01*
X73162281Y-62665504D01*
X73156286Y-62666545D01*
X73119858Y-62671949D01*
X73113815Y-62672694D01*
X73065046Y-62677497D01*
X73058975Y-62677945D01*
X73022200Y-62679751D01*
X73016118Y-62679900D01*
X72779882Y-62679900D01*
X72773800Y-62679751D01*
X72737025Y-62677945D01*
X72730954Y-62677497D01*
X72682185Y-62672694D01*
X72676142Y-62671949D01*
X72639714Y-62666545D01*
X72633718Y-62665504D01*
X72624000Y-62663570D01*
X71626000Y-62663570D01*
X71626000Y-62624000D01*
X70124000Y-62624000D01*
X70124000Y-64126000D01*
X69126000Y-64126000D01*
X69126000Y-62705300D01*
X68969882Y-62705300D01*
X68963800Y-62705151D01*
X68927025Y-62703345D01*
X68920954Y-62702897D01*
X68872185Y-62698094D01*
X68866142Y-62697349D01*
X68829714Y-62691945D01*
X68823719Y-62690904D01*
X68592013Y-62644815D01*
X68586076Y-62643482D01*
X68550348Y-62634533D01*
X68544478Y-62632909D01*
X68515112Y-62624000D01*
X67624000Y-62624000D01*
X67624000Y-62931872D01*
X66626000Y-62931872D01*
X66626000Y-62624000D01*
X65124000Y-62624000D01*
X65124000Y-64126000D01*
X64126000Y-64126000D01*
X64126000Y-62624000D01*
X62624000Y-62624000D01*
X62624000Y-64126000D01*
X61626000Y-64126000D01*
X61626000Y-62624000D01*
X60124000Y-62624000D01*
X60124000Y-63622458D01*
X58578893Y-63622458D01*
X58551990Y-63595555D01*
X58551988Y-63595552D01*
X58433117Y-63476681D01*
X58433116Y-63476680D01*
X58346304Y-63426560D01*
X58346304Y-63426559D01*
X58346300Y-63426558D01*
X58296185Y-63397623D01*
X58143457Y-63356699D01*
X57985343Y-63356699D01*
X57977747Y-63356699D01*
X57977731Y-63356700D01*
X51963966Y-63356700D01*
X51896927Y-63337015D01*
X51895075Y-63335802D01*
X51763385Y-63247809D01*
X51763372Y-63247802D01*
X51617701Y-63187464D01*
X51617689Y-63187461D01*
X51463045Y-63156700D01*
X51463042Y-63156700D01*
X51305358Y-63156700D01*
X51305355Y-63156700D01*
X51150710Y-63187461D01*
X51150698Y-63187464D01*
X51005027Y-63247802D01*
X51005014Y-63247809D01*
X50873911Y-63335410D01*
X50873907Y-63335413D01*
X50762413Y-63446907D01*
X50762410Y-63446911D01*
X50674809Y-63578014D01*
X50674802Y-63578027D01*
X50614464Y-63723698D01*
X50614461Y-63723710D01*
X50583700Y-63878353D01*
X50583700Y-64036046D01*
X50614461Y-64190689D01*
X50614464Y-64190701D01*
X50674802Y-64336372D01*
X50674809Y-64336385D01*
X50762410Y-64467488D01*
X50762413Y-64467492D01*
X50873907Y-64578986D01*
X50873911Y-64578989D01*
X51005014Y-64666590D01*
X51005027Y-64666597D01*
X51104398Y-64707757D01*
X51150703Y-64726937D01*
X51252803Y-64747246D01*
X51305353Y-64757699D01*
X51305356Y-64757700D01*
X51305358Y-64757700D01*
X51463044Y-64757700D01*
X51463045Y-64757699D01*
X51617697Y-64726937D01*
X51763379Y-64666594D01*
X51770256Y-64661999D01*
X51895075Y-64578598D01*
X51961753Y-64557720D01*
X51963966Y-64557700D01*
X56936635Y-64557700D01*
X57003674Y-64577385D01*
X57049429Y-64630189D01*
X57059373Y-64699347D01*
X57051196Y-64729151D01*
X57039372Y-64757699D01*
X57015263Y-64815902D01*
X57015261Y-64815910D01*
X56984500Y-64970553D01*
X56984500Y-65054006D01*
X56964815Y-65121045D01*
X56912011Y-65166800D01*
X56842853Y-65176744D01*
X56836311Y-65175624D01*
X56786416Y-65165700D01*
X56599184Y-65165700D01*
X56599179Y-65165700D01*
X56415556Y-65202225D01*
X56415548Y-65202227D01*
X56242571Y-65273876D01*
X56242562Y-65273881D01*
X56086892Y-65377897D01*
X56086888Y-65377900D01*
X55954500Y-65510288D01*
X55954498Y-65510291D01*
X55850481Y-65665962D01*
X55850476Y-65665971D01*
X55778827Y-65838948D01*
X55778825Y-65838956D01*
X55742300Y-66022579D01*
X55742300Y-66209820D01*
X55778826Y-66393449D01*
X55779934Y-66397101D01*
X55779951Y-66399109D01*
X55780015Y-66399426D01*
X55779954Y-66399437D01*
X55780560Y-66466967D01*
X55743314Y-66526082D01*
X55680021Y-66555675D01*
X55661275Y-66557100D01*
X47931020Y-66557100D01*
X47863981Y-66537415D01*
X47818226Y-66484611D01*
X47808282Y-66415453D01*
X47809403Y-66408909D01*
X47827913Y-66315852D01*
X47838900Y-66260616D01*
X47838900Y-66073384D01*
X47802373Y-65889749D01*
X47732992Y-65722249D01*
X47725523Y-65652779D01*
X47744451Y-65605906D01*
X47835255Y-65470006D01*
X47835257Y-65470003D01*
X47906522Y-65297952D01*
X47906525Y-65297940D01*
X47911650Y-65272178D01*
X47236550Y-65272178D01*
X47189098Y-65262739D01*
X47165651Y-65253027D01*
X47165643Y-65253025D01*
X46997434Y-65219565D01*
X46997434Y-65219566D01*
X46982018Y-65216500D01*
X46982016Y-65216500D01*
X46794784Y-65216500D01*
X46794779Y-65216500D01*
X46611156Y-65253025D01*
X46611148Y-65253027D01*
X46597607Y-65258635D01*
X46587701Y-65262739D01*
X46540250Y-65272178D01*
X46083211Y-65272178D01*
X46088336Y-65297940D01*
X46088339Y-65297952D01*
X46153894Y-65456216D01*
X46161363Y-65525685D01*
X46142435Y-65572559D01*
X46110715Y-65620030D01*
X46110715Y-65620031D01*
X46046078Y-65716769D01*
X45979620Y-65877210D01*
X45979620Y-65877209D01*
X45974427Y-65889748D01*
X45974425Y-65889756D01*
X45937900Y-66073379D01*
X45937900Y-66260619D01*
X45946192Y-66302305D01*
X45939965Y-66371896D01*
X45897102Y-66427074D01*
X45831212Y-66450318D01*
X45777123Y-66441058D01*
X45739977Y-66425672D01*
X45648697Y-66387863D01*
X45648692Y-66387862D01*
X45648689Y-66387861D01*
X45494045Y-66357100D01*
X45494042Y-66357100D01*
X45336358Y-66357100D01*
X45336355Y-66357100D01*
X45191800Y-66385853D01*
X45191800Y-66385854D01*
X45181703Y-66387863D01*
X45036021Y-66448206D01*
X44931869Y-66517797D01*
X44934031Y-66506932D01*
X44935225Y-66494808D01*
X44935225Y-66489794D01*
X44870057Y-66471916D01*
X44823367Y-66419936D01*
X44811225Y-66366421D01*
X44811225Y-66302483D01*
X44811224Y-66302479D01*
X44774894Y-66119837D01*
X44774891Y-66119825D01*
X44703626Y-65947774D01*
X44703624Y-65947770D01*
X44600163Y-65792930D01*
X44600157Y-65792922D01*
X44468477Y-65661242D01*
X44468469Y-65661236D01*
X44313629Y-65557775D01*
X44313625Y-65557773D01*
X44141574Y-65486508D01*
X44141562Y-65486505D01*
X44115800Y-65481380D01*
X43615799Y-65481380D01*
X43590037Y-65486505D01*
X43590025Y-65486508D01*
X43417974Y-65557773D01*
X43417970Y-65557775D01*
X43263130Y-65661236D01*
X43263122Y-65661242D01*
X43131442Y-65792922D01*
X43131436Y-65792930D01*
X43027975Y-65947770D01*
X43027973Y-65947774D01*
X42956708Y-66119825D01*
X42956705Y-66119837D01*
X42951580Y-66145599D01*
X41626000Y-66145599D01*
X41626000Y-65124000D01*
X40124000Y-65124000D01*
X40124000Y-66626000D01*
X39126000Y-66626000D01*
X39126000Y-65535784D01*
X39123287Y-65549423D01*
X39122242Y-65554183D01*
X39113089Y-65592300D01*
X39111862Y-65597005D01*
X39103869Y-65625347D01*
X39102455Y-65630007D01*
X39024658Y-65869440D01*
X39023064Y-65874037D01*
X39012879Y-65901647D01*
X39011107Y-65906175D01*
X38996109Y-65942392D01*
X38994154Y-65946861D01*
X38981811Y-65973636D01*
X38979686Y-65978019D01*
X38865378Y-66202361D01*
X38863083Y-66206654D01*
X38848693Y-66232350D01*
X38846231Y-66236550D01*
X38825750Y-66269973D01*
X38823126Y-66274073D01*
X38806760Y-66298568D01*
X38803974Y-66302565D01*
X38655975Y-66506269D01*
X38653032Y-66510157D01*
X38634773Y-66533316D01*
X38631683Y-66537081D01*
X38606222Y-66566888D01*
X38602988Y-66570527D01*
X38583014Y-66592132D01*
X38579644Y-66595636D01*
X38549280Y-66626000D01*
X34789701Y-66626000D01*
X34789913Y-64917713D01*
X35479500Y-64917713D01*
X35479500Y-65130286D01*
X35510288Y-65324678D01*
X35512754Y-65340243D01*
X35576289Y-65535784D01*
X35578444Y-65542414D01*
X35674951Y-65731820D01*
X35799890Y-65903786D01*
X35950213Y-66054109D01*
X36122179Y-66179048D01*
X36122181Y-66179049D01*
X36122184Y-66179051D01*
X36311588Y-66275557D01*
X36513757Y-66341246D01*
X36723713Y-66374500D01*
X36723714Y-66374500D01*
X36936286Y-66374500D01*
X36936287Y-66374500D01*
X37146243Y-66341246D01*
X37348412Y-66275557D01*
X37537816Y-66179051D01*
X37583859Y-66145599D01*
X37709786Y-66054109D01*
X37709788Y-66054106D01*
X37709792Y-66054104D01*
X37860104Y-65903792D01*
X37860106Y-65903788D01*
X37860109Y-65903786D01*
X37985048Y-65731820D01*
X37985047Y-65731820D01*
X37985051Y-65731816D01*
X38081557Y-65542412D01*
X38147246Y-65340243D01*
X38180500Y-65130287D01*
X38180500Y-64917713D01*
X38157449Y-64772177D01*
X46083211Y-64772177D01*
X46083212Y-64772178D01*
X46747431Y-64772178D01*
X47247431Y-64772178D01*
X47911650Y-64772178D01*
X47911650Y-64772177D01*
X47906525Y-64746415D01*
X47906522Y-64746403D01*
X47835257Y-64574352D01*
X47835255Y-64574348D01*
X47731794Y-64419508D01*
X47731788Y-64419500D01*
X47600108Y-64287820D01*
X47600100Y-64287814D01*
X47445260Y-64184353D01*
X47445256Y-64184351D01*
X47273205Y-64113086D01*
X47273193Y-64113083D01*
X47247431Y-64107958D01*
X47247431Y-64772178D01*
X46747431Y-64772178D01*
X46747431Y-64107959D01*
X46747430Y-64107958D01*
X46721668Y-64113083D01*
X46721656Y-64113086D01*
X46549605Y-64184351D01*
X46549601Y-64184353D01*
X46394761Y-64287814D01*
X46394753Y-64287820D01*
X46263073Y-64419500D01*
X46263067Y-64419508D01*
X46159606Y-64574348D01*
X46159604Y-64574352D01*
X46088339Y-64746403D01*
X46088336Y-64746415D01*
X46083211Y-64772177D01*
X38157449Y-64772177D01*
X38147246Y-64707757D01*
X38081557Y-64505588D01*
X37985051Y-64316184D01*
X37985049Y-64316181D01*
X37985048Y-64316179D01*
X37889825Y-64185115D01*
X37889824Y-64185115D01*
X37860104Y-64144208D01*
X37841896Y-64126000D01*
X40124000Y-64126000D01*
X41626000Y-64126000D01*
X42624000Y-64126000D01*
X44126000Y-64126000D01*
X45124000Y-64126000D01*
X45267649Y-64126000D01*
X45267902Y-64125498D01*
X45291004Y-64082279D01*
X45294004Y-64076983D01*
X45312932Y-64045405D01*
X45316187Y-64040266D01*
X45446876Y-63844675D01*
X45450378Y-63839701D01*
X45472311Y-63810126D01*
X45476058Y-63805325D01*
X45507148Y-63767442D01*
X45511122Y-63762835D01*
X45535853Y-63735548D01*
X45540051Y-63731139D01*
X45706392Y-63564798D01*
X45710801Y-63560600D01*
X45738088Y-63535869D01*
X45742695Y-63531895D01*
X45780578Y-63500805D01*
X45785379Y-63497058D01*
X45814954Y-63475125D01*
X45819928Y-63471623D01*
X46015519Y-63340934D01*
X46020658Y-63337679D01*
X46052236Y-63318751D01*
X46057532Y-63315751D01*
X46100751Y-63292649D01*
X46106189Y-63289911D01*
X46139483Y-63274164D01*
X46145047Y-63271698D01*
X46362378Y-63181677D01*
X46368057Y-63179486D01*
X46370863Y-63178482D01*
X47624000Y-63178482D01*
X47626805Y-63179486D01*
X47632484Y-63181677D01*
X47849815Y-63271698D01*
X47855379Y-63274164D01*
X47888673Y-63289911D01*
X47894111Y-63292649D01*
X47937330Y-63315751D01*
X47942626Y-63318751D01*
X47974204Y-63337679D01*
X47979343Y-63340934D01*
X48174934Y-63471623D01*
X48179908Y-63475125D01*
X48209483Y-63497058D01*
X48214284Y-63500805D01*
X48252167Y-63531895D01*
X48256774Y-63535869D01*
X48284061Y-63560600D01*
X48288470Y-63564798D01*
X48454811Y-63731139D01*
X48459009Y-63735548D01*
X48483740Y-63762835D01*
X48487714Y-63767442D01*
X48518804Y-63805325D01*
X48522551Y-63810126D01*
X48544484Y-63839701D01*
X48547986Y-63844675D01*
X48678675Y-64040266D01*
X48681930Y-64045405D01*
X48700858Y-64076983D01*
X48703858Y-64082279D01*
X48726960Y-64125498D01*
X48727213Y-64126000D01*
X49126000Y-64126000D01*
X49126000Y-62624000D01*
X47624000Y-62624000D01*
X47624000Y-63178482D01*
X46370863Y-63178482D01*
X46402719Y-63167084D01*
X46408494Y-63165176D01*
X46455389Y-63150949D01*
X46461259Y-63149325D01*
X46496986Y-63140376D01*
X46502923Y-63139043D01*
X46626000Y-63114560D01*
X46626000Y-62624000D01*
X45124000Y-62624000D01*
X45124000Y-64126000D01*
X44126000Y-64126000D01*
X44126000Y-62624000D01*
X42624000Y-62624000D01*
X42624000Y-64126000D01*
X41626000Y-64126000D01*
X41626000Y-62624000D01*
X40124000Y-62624000D01*
X40124000Y-64126000D01*
X37841896Y-64126000D01*
X37709792Y-63993896D01*
X37660385Y-63958000D01*
X37713480Y-63958000D01*
X37717680Y-63899270D01*
X37759552Y-63843337D01*
X37790529Y-63826422D01*
X37922086Y-63777354D01*
X37922093Y-63777350D01*
X38037187Y-63691190D01*
X38037190Y-63691187D01*
X38123350Y-63576093D01*
X38123354Y-63576086D01*
X38173596Y-63441379D01*
X38173598Y-63441372D01*
X38179999Y-63381844D01*
X38180000Y-63381827D01*
X38180000Y-62734000D01*
X37263012Y-62734000D01*
X37295925Y-62676993D01*
X37330000Y-62549826D01*
X37330000Y-62418174D01*
X37295925Y-62291007D01*
X37263012Y-62234000D01*
X38180000Y-62234000D01*
X38180000Y-61586172D01*
X38179999Y-61586155D01*
X38173598Y-61526627D01*
X38173596Y-61526620D01*
X38123354Y-61391913D01*
X38123350Y-61391906D01*
X38037190Y-61276812D01*
X38037187Y-61276809D01*
X37922093Y-61190649D01*
X37922086Y-61190645D01*
X37787379Y-61140403D01*
X37787372Y-61140401D01*
X37727844Y-61134000D01*
X37080000Y-61134000D01*
X37080000Y-62050988D01*
X37022993Y-62018075D01*
X36895826Y-61984000D01*
X36764174Y-61984000D01*
X36637007Y-62018075D01*
X36580000Y-62050988D01*
X36580000Y-61134000D01*
X35932155Y-61134000D01*
X35872627Y-61140401D01*
X35872620Y-61140403D01*
X35737913Y-61190645D01*
X35737906Y-61190649D01*
X35622812Y-61276809D01*
X35622809Y-61276812D01*
X35536649Y-61391906D01*
X35536645Y-61391913D01*
X35486403Y-61526620D01*
X35486401Y-61526627D01*
X35480000Y-61586155D01*
X35480000Y-62234000D01*
X36396988Y-62234000D01*
X36364075Y-62291007D01*
X36330000Y-62418174D01*
X36330000Y-62549826D01*
X36364075Y-62676993D01*
X36396988Y-62734000D01*
X35480000Y-62734000D01*
X35480000Y-63381844D01*
X35486401Y-63441372D01*
X35486403Y-63441379D01*
X35536645Y-63576086D01*
X35536649Y-63576093D01*
X35622809Y-63691187D01*
X35622812Y-63691190D01*
X35737906Y-63777350D01*
X35737913Y-63777354D01*
X35869470Y-63826422D01*
X35925404Y-63868293D01*
X35949821Y-63933758D01*
X35944547Y-63958000D01*
X35999615Y-63958000D01*
X35950208Y-63993896D01*
X35799896Y-64144208D01*
X35770175Y-64185115D01*
X35770173Y-64185115D01*
X35674951Y-64316179D01*
X35578444Y-64505585D01*
X35512753Y-64707760D01*
X35479500Y-64917713D01*
X34789913Y-64917713D01*
X34790409Y-60922419D01*
X40124000Y-60922419D01*
X40124000Y-61626000D01*
X41626000Y-61626000D01*
X42624000Y-61626000D01*
X44126000Y-61626000D01*
X45656280Y-61626000D01*
X46626000Y-61626000D01*
X48298564Y-61626000D01*
X49126000Y-61626000D01*
X50124000Y-61626000D01*
X51626000Y-61626000D01*
X51626000Y-61490753D01*
X53530100Y-61490753D01*
X53530100Y-61648446D01*
X53560861Y-61803089D01*
X53560864Y-61803101D01*
X53621202Y-61948772D01*
X53621209Y-61948785D01*
X53708810Y-62079888D01*
X53708813Y-62079892D01*
X53820307Y-62191386D01*
X53820311Y-62191389D01*
X53951414Y-62278990D01*
X53951427Y-62278997D01*
X54094259Y-62338159D01*
X54097103Y-62339337D01*
X54230503Y-62365872D01*
X54251753Y-62370099D01*
X54251756Y-62370100D01*
X54251758Y-62370100D01*
X54409444Y-62370100D01*
X54409445Y-62370099D01*
X54564097Y-62339337D01*
X54709779Y-62278994D01*
X54840889Y-62191389D01*
X54952389Y-62079889D01*
X55039994Y-61948779D01*
X55100337Y-61803097D01*
X55131100Y-61648442D01*
X55131100Y-61626000D01*
X57624000Y-61626000D01*
X58509181Y-61626000D01*
X61226419Y-61626000D01*
X61626000Y-61626000D01*
X62624000Y-61626000D01*
X64126000Y-61626000D01*
X64126000Y-60590396D01*
X65124000Y-60590396D01*
X65124000Y-61626000D01*
X65951646Y-61626000D01*
X65908156Y-61560912D01*
X65904901Y-61555773D01*
X65885973Y-61524195D01*
X65882973Y-61518899D01*
X65859871Y-61475680D01*
X65857133Y-61470242D01*
X65841386Y-61436948D01*
X65838920Y-61431384D01*
X65748899Y-61214053D01*
X65746708Y-61208374D01*
X65734306Y-61173712D01*
X65732398Y-61167937D01*
X65718171Y-61121042D01*
X65716547Y-61115172D01*
X65707598Y-61079445D01*
X65706265Y-61073508D01*
X65657629Y-60829000D01*
X66675180Y-60829000D01*
X66680305Y-60854762D01*
X66680308Y-60854774D01*
X66751573Y-61026825D01*
X66751575Y-61026829D01*
X66855036Y-61181669D01*
X66855042Y-61181677D01*
X66986722Y-61313357D01*
X66986730Y-61313363D01*
X67141570Y-61416824D01*
X67313626Y-61488091D01*
X67313636Y-61488094D01*
X67339399Y-61493218D01*
X67839400Y-61493218D01*
X67865163Y-61488094D01*
X67865173Y-61488091D01*
X68037226Y-61416825D01*
X68175147Y-61324670D01*
X68241825Y-61303792D01*
X68309205Y-61322277D01*
X68334303Y-61346493D01*
X68337036Y-61343759D01*
X68349698Y-61362708D01*
X68482092Y-61495102D01*
X68521927Y-61521718D01*
X68521927Y-61521719D01*
X68637762Y-61599118D01*
X68637768Y-61599121D01*
X68637769Y-61599122D01*
X68810749Y-61670773D01*
X68994379Y-61707299D01*
X68994383Y-61707300D01*
X68994384Y-61707300D01*
X69181617Y-61707300D01*
X69181618Y-61707299D01*
X69365251Y-61670773D01*
X69473342Y-61626000D01*
X70836325Y-61626000D01*
X71161717Y-61626000D01*
X71161227Y-61625026D01*
X71145487Y-61591746D01*
X71143021Y-61586183D01*
X71052620Y-61367935D01*
X71050430Y-61362259D01*
X71038027Y-61327597D01*
X71036118Y-61321818D01*
X71021891Y-61274922D01*
X71020267Y-61269052D01*
X71011318Y-61233324D01*
X71009985Y-61227387D01*
X70995526Y-61154697D01*
X70976015Y-61252787D01*
X70974682Y-61258724D01*
X70965733Y-61294452D01*
X70964109Y-61300322D01*
X70949882Y-61347218D01*
X70947973Y-61352997D01*
X70935570Y-61387659D01*
X70933380Y-61393335D01*
X70842979Y-61611583D01*
X70840513Y-61617146D01*
X70836325Y-61626000D01*
X69473342Y-61626000D01*
X69538231Y-61599122D01*
X69693908Y-61495102D01*
X69826302Y-61362708D01*
X69930322Y-61207031D01*
X70001973Y-61034051D01*
X70038500Y-60850416D01*
X70038500Y-60663184D01*
X70033447Y-60637779D01*
X71947500Y-60637779D01*
X71947500Y-60825020D01*
X71984025Y-61008643D01*
X71984027Y-61008651D01*
X72055676Y-61181628D01*
X72055681Y-61181637D01*
X72159697Y-61337307D01*
X72159700Y-61337311D01*
X72292088Y-61469699D01*
X72292092Y-61469702D01*
X72447762Y-61573718D01*
X72447771Y-61573723D01*
X72460009Y-61578792D01*
X72620749Y-61645373D01*
X72804379Y-61681899D01*
X72804383Y-61681900D01*
X72804384Y-61681900D01*
X72991617Y-61681900D01*
X72991618Y-61681899D01*
X73175251Y-61645373D01*
X73348231Y-61573722D01*
X73503908Y-61469702D01*
X73636302Y-61337308D01*
X73740322Y-61181631D01*
X73811973Y-61008651D01*
X73848500Y-60825016D01*
X73848500Y-60637784D01*
X73811973Y-60454149D01*
X73756554Y-60320356D01*
X73740323Y-60281171D01*
X73740318Y-60281162D01*
X73636302Y-60125492D01*
X73636299Y-60125488D01*
X73503911Y-59993100D01*
X73503907Y-59993097D01*
X73348237Y-59889081D01*
X73348228Y-59889076D01*
X73175251Y-59817427D01*
X73175243Y-59817425D01*
X72991620Y-59780900D01*
X72991616Y-59780900D01*
X72804384Y-59780900D01*
X72804379Y-59780900D01*
X72620756Y-59817425D01*
X72620748Y-59817427D01*
X72447771Y-59889076D01*
X72447762Y-59889081D01*
X72292092Y-59993097D01*
X72292088Y-59993100D01*
X72159700Y-60125488D01*
X72159697Y-60125492D01*
X72055681Y-60281162D01*
X72055676Y-60281171D01*
X71984027Y-60454148D01*
X71984025Y-60454156D01*
X71947500Y-60637779D01*
X70033447Y-60637779D01*
X70001973Y-60479549D01*
X69936815Y-60322245D01*
X69930323Y-60306571D01*
X69930318Y-60306562D01*
X69826302Y-60150892D01*
X69826299Y-60150888D01*
X69799411Y-60124000D01*
X70934821Y-60124000D01*
X70935570Y-60125941D01*
X70947973Y-60160603D01*
X70949882Y-60166382D01*
X70964109Y-60213278D01*
X70965733Y-60219148D01*
X70974682Y-60254876D01*
X70976015Y-60260813D01*
X70990473Y-60333502D01*
X71009985Y-60235413D01*
X71011318Y-60229476D01*
X71020267Y-60193748D01*
X71021891Y-60187878D01*
X71036118Y-60140982D01*
X71038027Y-60135203D01*
X71042036Y-60124000D01*
X70934821Y-60124000D01*
X69799411Y-60124000D01*
X69693911Y-60018500D01*
X69693907Y-60018497D01*
X69538237Y-59914481D01*
X69538228Y-59914476D01*
X69365251Y-59842827D01*
X69365243Y-59842825D01*
X69181620Y-59806300D01*
X69181616Y-59806300D01*
X68994384Y-59806300D01*
X68994379Y-59806300D01*
X68810756Y-59842825D01*
X68810748Y-59842827D01*
X68720672Y-59880137D01*
X68637769Y-59914478D01*
X68495213Y-60009730D01*
X68495212Y-60009729D01*
X68495212Y-60009730D01*
X68428535Y-60030607D01*
X68361155Y-60012122D01*
X68328334Y-59980450D01*
X68327624Y-59981034D01*
X68323757Y-59976322D01*
X68192077Y-59844642D01*
X68192069Y-59844636D01*
X68037229Y-59741175D01*
X68037225Y-59741173D01*
X67865174Y-59669908D01*
X67865162Y-59669905D01*
X67839400Y-59664780D01*
X67839400Y-61493218D01*
X67339399Y-61493218D01*
X67339400Y-61493217D01*
X67339400Y-60829000D01*
X66675180Y-60829000D01*
X65657629Y-60829000D01*
X65652059Y-60801000D01*
X65653392Y-60746679D01*
X65695393Y-60579000D01*
X65653392Y-60411321D01*
X65652339Y-60368422D01*
X65627314Y-60385144D01*
X65622170Y-60388401D01*
X65590578Y-60407336D01*
X65585282Y-60410336D01*
X65542061Y-60433437D01*
X65536626Y-60436173D01*
X65503346Y-60451913D01*
X65497783Y-60454379D01*
X65279535Y-60544780D01*
X65273859Y-60546970D01*
X65239197Y-60559373D01*
X65233418Y-60561282D01*
X65186522Y-60575509D01*
X65180652Y-60577133D01*
X65144924Y-60586082D01*
X65138987Y-60587415D01*
X65124000Y-60590396D01*
X64126000Y-60590396D01*
X64126000Y-60582305D01*
X64105348Y-60577133D01*
X64099478Y-60575509D01*
X64052582Y-60561282D01*
X64046803Y-60559373D01*
X64012141Y-60546970D01*
X64006465Y-60544780D01*
X63788217Y-60454379D01*
X63782654Y-60451913D01*
X63749374Y-60436173D01*
X63743939Y-60433437D01*
X63700718Y-60410336D01*
X63695422Y-60407336D01*
X63663830Y-60388401D01*
X63658686Y-60385144D01*
X63574659Y-60328999D01*
X66675180Y-60328999D01*
X66675181Y-60329000D01*
X67339400Y-60329000D01*
X67339400Y-59664781D01*
X67339399Y-59664780D01*
X67313637Y-59669905D01*
X67313625Y-59669908D01*
X67141574Y-59741173D01*
X67141570Y-59741175D01*
X66986730Y-59844636D01*
X66986722Y-59844642D01*
X66855042Y-59976322D01*
X66855036Y-59976330D01*
X66751575Y-60131170D01*
X66751573Y-60131174D01*
X66680308Y-60303225D01*
X66680305Y-60303237D01*
X66675180Y-60328999D01*
X63574659Y-60328999D01*
X63462260Y-60253896D01*
X63457286Y-60250393D01*
X63427712Y-60228460D01*
X63422912Y-60224714D01*
X63385030Y-60193625D01*
X63380423Y-60189651D01*
X63353136Y-60164920D01*
X63348727Y-60160722D01*
X63312005Y-60124000D01*
X62624000Y-60124000D01*
X62624000Y-61626000D01*
X61626000Y-61626000D01*
X61626000Y-61069946D01*
X61618280Y-61088584D01*
X61615814Y-61094148D01*
X61600067Y-61127442D01*
X61597329Y-61132880D01*
X61574227Y-61176099D01*
X61571227Y-61181395D01*
X61552299Y-61212973D01*
X61549044Y-61218112D01*
X61418355Y-61413703D01*
X61414853Y-61418677D01*
X61392920Y-61448252D01*
X61389173Y-61453053D01*
X61358083Y-61490936D01*
X61354109Y-61495543D01*
X61329378Y-61522830D01*
X61325180Y-61527239D01*
X61226419Y-61626000D01*
X58509181Y-61626000D01*
X58410420Y-61527239D01*
X58406222Y-61522830D01*
X58381491Y-61495543D01*
X58377517Y-61490936D01*
X58346427Y-61453053D01*
X58342680Y-61448252D01*
X58320747Y-61418677D01*
X58317245Y-61413703D01*
X58186556Y-61218112D01*
X58183301Y-61212973D01*
X58164373Y-61181395D01*
X58161373Y-61176099D01*
X58138271Y-61132880D01*
X58135533Y-61127442D01*
X58119786Y-61094148D01*
X58117320Y-61088584D01*
X58027299Y-60871253D01*
X58025108Y-60865574D01*
X58012706Y-60830912D01*
X58010798Y-60825137D01*
X57996571Y-60778242D01*
X57994947Y-60772372D01*
X57985998Y-60736645D01*
X57984665Y-60730708D01*
X57936029Y-60486200D01*
X58953580Y-60486200D01*
X58958705Y-60511962D01*
X58958708Y-60511974D01*
X59029973Y-60684025D01*
X59029975Y-60684029D01*
X59133436Y-60838869D01*
X59133442Y-60838877D01*
X59265122Y-60970557D01*
X59265130Y-60970563D01*
X59419970Y-61074024D01*
X59592026Y-61145291D01*
X59592036Y-61145294D01*
X59617799Y-61150418D01*
X60117800Y-61150418D01*
X60143563Y-61145294D01*
X60143573Y-61145291D01*
X60315629Y-61074024D01*
X60470469Y-60970563D01*
X60470477Y-60970557D01*
X60602157Y-60838877D01*
X60602163Y-60838869D01*
X60705624Y-60684029D01*
X60705626Y-60684025D01*
X60776891Y-60511974D01*
X60776894Y-60511962D01*
X60782019Y-60486200D01*
X60117800Y-60486200D01*
X60117800Y-61150418D01*
X59617799Y-61150418D01*
X59617800Y-61150417D01*
X59617800Y-60486200D01*
X58953580Y-60486200D01*
X57936029Y-60486200D01*
X57930459Y-60458200D01*
X57931792Y-60403879D01*
X57973793Y-60236200D01*
X57945689Y-60124000D01*
X57624000Y-60124000D01*
X57624000Y-61626000D01*
X55131100Y-61626000D01*
X55131100Y-61490758D01*
X55131100Y-61490755D01*
X55131099Y-61490753D01*
X55116394Y-61416825D01*
X55100337Y-61336103D01*
X55090918Y-61313363D01*
X55039997Y-61190427D01*
X55039992Y-61190418D01*
X55039767Y-61190081D01*
X55039703Y-61189877D01*
X55037121Y-61185046D01*
X55038036Y-61184556D01*
X55018885Y-61123405D01*
X55037366Y-61056024D01*
X55089342Y-61009330D01*
X55158311Y-60998150D01*
X55189779Y-61008140D01*
X55190392Y-61006663D01*
X55317488Y-61059307D01*
X55341703Y-61069337D01*
X55496353Y-61100099D01*
X55496356Y-61100100D01*
X55496358Y-61100100D01*
X55654044Y-61100100D01*
X55654045Y-61100099D01*
X55808697Y-61069337D01*
X55954379Y-61008994D01*
X56085489Y-60921389D01*
X56196989Y-60809889D01*
X56284594Y-60678779D01*
X56344937Y-60533097D01*
X56375700Y-60378442D01*
X56375700Y-60220758D01*
X56375700Y-60220755D01*
X56375699Y-60220753D01*
X56364884Y-60166382D01*
X56344937Y-60066103D01*
X56330234Y-60030607D01*
X56311840Y-59986199D01*
X58953580Y-59986199D01*
X58953581Y-59986200D01*
X59617800Y-59986200D01*
X60117800Y-59986200D01*
X60782019Y-59986200D01*
X60782019Y-59986199D01*
X60776894Y-59960437D01*
X60776891Y-59960425D01*
X60705626Y-59788374D01*
X60705624Y-59788370D01*
X60602163Y-59633530D01*
X60602157Y-59633522D01*
X60470477Y-59501842D01*
X60470469Y-59501836D01*
X60315629Y-59398375D01*
X60315625Y-59398373D01*
X60143574Y-59327108D01*
X60143562Y-59327105D01*
X60117800Y-59321980D01*
X60117800Y-59986200D01*
X59617800Y-59986200D01*
X59617800Y-59321981D01*
X59617799Y-59321980D01*
X59592037Y-59327105D01*
X59592025Y-59327108D01*
X59419974Y-59398373D01*
X59419970Y-59398375D01*
X59265130Y-59501836D01*
X59265122Y-59501842D01*
X59133442Y-59633522D01*
X59133436Y-59633530D01*
X59029975Y-59788370D01*
X59029973Y-59788374D01*
X58958708Y-59960425D01*
X58958705Y-59960437D01*
X58953580Y-59986199D01*
X56311840Y-59986199D01*
X56284597Y-59920427D01*
X56284590Y-59920414D01*
X56196989Y-59789311D01*
X56196986Y-59789307D01*
X56085492Y-59677813D01*
X56085488Y-59677810D01*
X55954385Y-59590209D01*
X55954372Y-59590202D01*
X55808701Y-59529864D01*
X55808689Y-59529861D01*
X55654045Y-59499100D01*
X55654042Y-59499100D01*
X55496358Y-59499100D01*
X55496355Y-59499100D01*
X55341710Y-59529861D01*
X55341698Y-59529864D01*
X55196027Y-59590202D01*
X55196014Y-59590209D01*
X55064911Y-59677810D01*
X55064907Y-59677813D01*
X54953413Y-59789307D01*
X54953410Y-59789311D01*
X54865809Y-59920414D01*
X54865802Y-59920427D01*
X54805464Y-60066098D01*
X54805461Y-60066110D01*
X54774700Y-60220753D01*
X54774700Y-60378446D01*
X54805461Y-60533089D01*
X54805464Y-60533101D01*
X54865802Y-60678772D01*
X54865807Y-60678781D01*
X54866035Y-60679122D01*
X54866099Y-60679327D01*
X54868679Y-60684154D01*
X54867763Y-60684643D01*
X54886914Y-60745799D01*
X54868431Y-60813180D01*
X54816453Y-60859871D01*
X54747483Y-60871049D01*
X54715988Y-60861134D01*
X54715408Y-60862537D01*
X54564101Y-60799864D01*
X54564089Y-60799861D01*
X54409445Y-60769100D01*
X54409442Y-60769100D01*
X54251758Y-60769100D01*
X54251755Y-60769100D01*
X54097110Y-60799861D01*
X54097098Y-60799864D01*
X53951427Y-60860202D01*
X53951414Y-60860209D01*
X53820311Y-60947810D01*
X53820307Y-60947813D01*
X53708813Y-61059307D01*
X53708810Y-61059311D01*
X53621209Y-61190414D01*
X53621202Y-61190427D01*
X53560864Y-61336098D01*
X53560861Y-61336110D01*
X53530100Y-61490753D01*
X51626000Y-61490753D01*
X51626000Y-60991623D01*
X52624000Y-60991623D01*
X52627265Y-60982499D01*
X52629455Y-60976822D01*
X52708548Y-60785872D01*
X52711014Y-60780308D01*
X52726755Y-60747026D01*
X52729491Y-60741591D01*
X52752592Y-60698370D01*
X52755591Y-60693075D01*
X52774526Y-60661482D01*
X52777784Y-60656337D01*
X52892617Y-60484478D01*
X52896122Y-60479502D01*
X52918055Y-60449929D01*
X52921799Y-60445131D01*
X52952888Y-60407249D01*
X52956862Y-60402642D01*
X52981593Y-60375355D01*
X52985791Y-60370946D01*
X53131946Y-60224791D01*
X53136355Y-60220593D01*
X53163642Y-60195862D01*
X53168249Y-60191888D01*
X53206131Y-60160799D01*
X53210929Y-60157055D01*
X53240502Y-60135122D01*
X53245478Y-60131617D01*
X53256878Y-60124000D01*
X52624000Y-60124000D01*
X52624000Y-60991623D01*
X51626000Y-60991623D01*
X51626000Y-60124000D01*
X50124000Y-60124000D01*
X50124000Y-61626000D01*
X49126000Y-61626000D01*
X49126000Y-61001568D01*
X49125193Y-61002714D01*
X49103260Y-61032288D01*
X49099514Y-61037088D01*
X49068425Y-61074970D01*
X49064451Y-61079577D01*
X49039720Y-61106864D01*
X49035522Y-61111273D01*
X48868473Y-61278322D01*
X48864064Y-61282520D01*
X48836777Y-61307251D01*
X48832170Y-61311225D01*
X48794288Y-61342314D01*
X48789488Y-61346060D01*
X48759914Y-61367993D01*
X48754940Y-61371496D01*
X48558514Y-61502744D01*
X48553370Y-61506001D01*
X48521778Y-61524936D01*
X48516482Y-61527936D01*
X48473261Y-61551037D01*
X48467826Y-61553773D01*
X48434546Y-61569513D01*
X48428983Y-61571979D01*
X48298564Y-61626000D01*
X46626000Y-61626000D01*
X46626000Y-61524563D01*
X46595030Y-61506001D01*
X46589886Y-61502744D01*
X46393460Y-61371496D01*
X46388486Y-61367993D01*
X46358912Y-61346060D01*
X46354112Y-61342314D01*
X46316230Y-61311225D01*
X46311623Y-61307251D01*
X46287335Y-61285238D01*
X46279688Y-61291514D01*
X46274888Y-61295260D01*
X46245314Y-61317193D01*
X46240340Y-61320696D01*
X46043914Y-61451944D01*
X46038770Y-61455201D01*
X46007178Y-61474136D01*
X46001882Y-61477136D01*
X45958661Y-61500237D01*
X45953226Y-61502973D01*
X45919946Y-61518713D01*
X45914383Y-61521179D01*
X45696135Y-61611580D01*
X45690459Y-61613770D01*
X45656280Y-61626000D01*
X44126000Y-61626000D01*
X44126000Y-61481776D01*
X44117318Y-61477136D01*
X44112022Y-61474136D01*
X44080430Y-61455201D01*
X44075286Y-61451944D01*
X43878860Y-61320696D01*
X43873886Y-61317193D01*
X43844312Y-61295260D01*
X43839512Y-61291514D01*
X43801630Y-61260425D01*
X43797023Y-61256451D01*
X43769736Y-61231720D01*
X43765327Y-61227522D01*
X43598278Y-61060473D01*
X43594080Y-61056064D01*
X43569349Y-61028777D01*
X43565375Y-61024170D01*
X43534286Y-60986288D01*
X43530540Y-60981488D01*
X43508607Y-60951914D01*
X43505104Y-60946940D01*
X43373856Y-60750514D01*
X43370599Y-60745370D01*
X43351664Y-60713778D01*
X43348664Y-60708482D01*
X43325563Y-60665261D01*
X43322827Y-60659826D01*
X43307087Y-60626546D01*
X43304621Y-60620983D01*
X43214220Y-60402735D01*
X43212030Y-60397059D01*
X43199627Y-60362397D01*
X43197718Y-60356618D01*
X43183491Y-60309722D01*
X43181867Y-60303852D01*
X43172918Y-60268124D01*
X43171585Y-60262187D01*
X43144098Y-60124000D01*
X42624000Y-60124000D01*
X42624000Y-61626000D01*
X41626000Y-61626000D01*
X41626000Y-60124000D01*
X40600478Y-60124000D01*
X40592002Y-60151937D01*
X40590094Y-60157712D01*
X40577692Y-60192374D01*
X40575501Y-60198053D01*
X40485480Y-60415384D01*
X40483014Y-60420948D01*
X40467267Y-60454242D01*
X40464529Y-60459680D01*
X40441427Y-60502899D01*
X40438427Y-60508195D01*
X40419499Y-60539773D01*
X40416244Y-60544912D01*
X40285555Y-60740503D01*
X40282053Y-60745477D01*
X40260120Y-60775052D01*
X40256373Y-60779853D01*
X40225283Y-60817736D01*
X40221309Y-60822343D01*
X40196578Y-60849630D01*
X40192380Y-60854039D01*
X40124000Y-60922419D01*
X34790409Y-60922419D01*
X34790464Y-60480083D01*
X34810156Y-60413050D01*
X34825001Y-60394240D01*
X35382991Y-59813000D01*
X37820780Y-59813000D01*
X37825905Y-59838762D01*
X37825908Y-59838774D01*
X37897173Y-60010825D01*
X37897175Y-60010829D01*
X38000636Y-60165669D01*
X38000642Y-60165677D01*
X38132322Y-60297357D01*
X38132330Y-60297363D01*
X38287170Y-60400824D01*
X38459226Y-60472091D01*
X38459236Y-60472094D01*
X38484999Y-60477218D01*
X38985000Y-60477218D01*
X39010763Y-60472094D01*
X39010773Y-60472091D01*
X39182829Y-60400824D01*
X39337669Y-60297363D01*
X39337677Y-60297357D01*
X39469357Y-60165677D01*
X39469363Y-60165669D01*
X39572824Y-60010829D01*
X39572826Y-60010825D01*
X39644091Y-59838774D01*
X39644094Y-59838762D01*
X39649219Y-59813000D01*
X38985000Y-59813000D01*
X38985000Y-60477218D01*
X38484999Y-60477218D01*
X38485000Y-60477217D01*
X38485000Y-59813000D01*
X37820780Y-59813000D01*
X35382991Y-59813000D01*
X35517795Y-59672579D01*
X44109100Y-59672579D01*
X44109100Y-59859820D01*
X44145625Y-60043443D01*
X44145627Y-60043451D01*
X44217276Y-60216428D01*
X44217281Y-60216437D01*
X44321297Y-60372107D01*
X44321300Y-60372111D01*
X44453688Y-60504499D01*
X44453692Y-60504502D01*
X44609362Y-60608518D01*
X44609368Y-60608521D01*
X44609369Y-60608522D01*
X44782349Y-60680173D01*
X44951294Y-60713778D01*
X44965979Y-60716699D01*
X44965983Y-60716700D01*
X44965984Y-60716700D01*
X45153217Y-60716700D01*
X45153218Y-60716699D01*
X45336851Y-60680173D01*
X45509831Y-60608522D01*
X45665508Y-60504502D01*
X45797902Y-60372108D01*
X45901922Y-60216431D01*
X45973573Y-60043451D01*
X46010100Y-59859816D01*
X46010100Y-59672584D01*
X45973573Y-59488949D01*
X45901922Y-59315969D01*
X45901921Y-59315968D01*
X45901918Y-59315962D01*
X45797902Y-59160292D01*
X45797899Y-59160288D01*
X45665511Y-59027900D01*
X45665507Y-59027897D01*
X45509837Y-58923881D01*
X45509828Y-58923876D01*
X45336851Y-58852227D01*
X45336843Y-58852225D01*
X45153220Y-58815700D01*
X45153216Y-58815700D01*
X44965984Y-58815700D01*
X44965979Y-58815700D01*
X44782356Y-58852225D01*
X44782348Y-58852227D01*
X44609371Y-58923876D01*
X44609362Y-58923881D01*
X44453692Y-59027897D01*
X44453688Y-59027900D01*
X44321300Y-59160288D01*
X44321297Y-59160292D01*
X44217281Y-59315962D01*
X44217276Y-59315971D01*
X44145627Y-59488948D01*
X44145625Y-59488956D01*
X44109100Y-59672579D01*
X35517795Y-59672579D01*
X35862992Y-59312999D01*
X37820780Y-59312999D01*
X37820781Y-59313000D01*
X38485000Y-59313000D01*
X38985000Y-59313000D01*
X39649219Y-59313000D01*
X39649219Y-59312999D01*
X39644094Y-59287237D01*
X39644091Y-59287225D01*
X39572826Y-59115174D01*
X39572824Y-59115170D01*
X39469363Y-58960330D01*
X39469357Y-58960322D01*
X39337677Y-58828642D01*
X39337669Y-58828636D01*
X39182829Y-58725175D01*
X39182825Y-58725173D01*
X39010774Y-58653908D01*
X39010762Y-58653905D01*
X38985000Y-58648780D01*
X38985000Y-59313000D01*
X38485000Y-59313000D01*
X38485000Y-58648781D01*
X38484999Y-58648780D01*
X38459237Y-58653905D01*
X38459225Y-58653908D01*
X38287174Y-58725173D01*
X38287170Y-58725175D01*
X38132330Y-58828636D01*
X38132322Y-58828642D01*
X38000642Y-58960322D01*
X38000636Y-58960330D01*
X37897175Y-59115170D01*
X37897173Y-59115174D01*
X37825908Y-59287225D01*
X37825905Y-59287237D01*
X37820780Y-59312999D01*
X35862992Y-59312999D01*
X36744751Y-58394500D01*
X40291571Y-58394500D01*
X40416244Y-58581088D01*
X40419499Y-58586227D01*
X40438427Y-58617805D01*
X40441427Y-58623101D01*
X40464529Y-58666320D01*
X40467267Y-58671758D01*
X40483014Y-58705052D01*
X40485480Y-58710616D01*
X40575501Y-58927947D01*
X40577692Y-58933626D01*
X40590094Y-58968288D01*
X40592002Y-58974063D01*
X40606229Y-59020958D01*
X40607853Y-59026828D01*
X40616802Y-59062555D01*
X40618135Y-59068492D01*
X40629574Y-59126000D01*
X41626000Y-59126000D01*
X42624000Y-59126000D01*
X43215738Y-59126000D01*
X43304621Y-58911417D01*
X43307087Y-58905854D01*
X43322827Y-58872574D01*
X43325563Y-58867139D01*
X43348664Y-58823918D01*
X43351664Y-58818622D01*
X43370599Y-58787030D01*
X43373856Y-58781886D01*
X43431644Y-58695400D01*
X46101180Y-58695400D01*
X46106305Y-58721162D01*
X46106308Y-58721174D01*
X46177573Y-58893225D01*
X46177575Y-58893229D01*
X46281036Y-59048069D01*
X46281042Y-59048077D01*
X46412722Y-59179757D01*
X46412730Y-59179763D01*
X46567570Y-59283224D01*
X46567573Y-59283225D01*
X46622791Y-59306097D01*
X46677195Y-59349937D01*
X46699260Y-59416231D01*
X46689900Y-59468110D01*
X46660227Y-59539749D01*
X46625758Y-59713035D01*
X46625757Y-59713035D01*
X46623700Y-59723379D01*
X46623700Y-59910620D01*
X46660225Y-60094243D01*
X46660227Y-60094251D01*
X46731876Y-60267228D01*
X46731881Y-60267237D01*
X46835897Y-60422907D01*
X46835900Y-60422911D01*
X46968288Y-60555299D01*
X46968292Y-60555302D01*
X47123962Y-60659318D01*
X47123971Y-60659323D01*
X47146945Y-60668839D01*
X47296949Y-60730973D01*
X47456101Y-60762630D01*
X47480579Y-60767499D01*
X47480583Y-60767500D01*
X47480584Y-60767500D01*
X47667817Y-60767500D01*
X47667818Y-60767499D01*
X47851451Y-60730973D01*
X48024431Y-60659322D01*
X48180108Y-60555302D01*
X48312502Y-60422908D01*
X48416522Y-60267231D01*
X48488173Y-60094251D01*
X48524700Y-59910616D01*
X48524700Y-59723384D01*
X48488173Y-59539749D01*
X48416522Y-59366769D01*
X48416521Y-59366768D01*
X48416518Y-59366762D01*
X48312502Y-59211092D01*
X48312499Y-59211088D01*
X48227411Y-59126000D01*
X50124000Y-59126000D01*
X51626000Y-59126000D01*
X52624000Y-59126000D01*
X54126000Y-59126000D01*
X57624000Y-59126000D01*
X58272274Y-59126000D01*
X58317244Y-59058697D01*
X58320747Y-59053723D01*
X58342680Y-59024148D01*
X58346427Y-59019347D01*
X58377517Y-58981464D01*
X58381491Y-58976857D01*
X58406222Y-58949570D01*
X58410420Y-58945161D01*
X58576761Y-58778820D01*
X58581170Y-58774622D01*
X58608457Y-58749891D01*
X58613064Y-58745917D01*
X58650947Y-58714827D01*
X58655748Y-58711080D01*
X58685323Y-58689147D01*
X58690297Y-58685645D01*
X58885888Y-58554956D01*
X58891027Y-58551701D01*
X58922605Y-58532773D01*
X58927901Y-58529773D01*
X58971120Y-58506671D01*
X58976558Y-58503933D01*
X59009852Y-58488186D01*
X59015416Y-58485720D01*
X59126000Y-58439914D01*
X59126000Y-58394500D01*
X60499745Y-58394500D01*
X60502853Y-58395699D01*
X60720184Y-58485720D01*
X60725748Y-58488186D01*
X60759042Y-58503933D01*
X60764480Y-58506671D01*
X60807699Y-58529773D01*
X60812995Y-58532773D01*
X60844573Y-58551701D01*
X60849712Y-58554956D01*
X61045303Y-58685645D01*
X61050277Y-58689147D01*
X61079852Y-58711080D01*
X61084653Y-58714827D01*
X61122536Y-58745917D01*
X61127143Y-58749891D01*
X61154430Y-58774622D01*
X61158839Y-58778820D01*
X61325180Y-58945161D01*
X61329378Y-58949570D01*
X61354109Y-58976857D01*
X61358083Y-58981464D01*
X61389173Y-59019347D01*
X61392920Y-59024148D01*
X61414853Y-59053723D01*
X61418356Y-59058697D01*
X61463326Y-59126000D01*
X61626000Y-59126000D01*
X61626000Y-58605779D01*
X63692500Y-58605779D01*
X63692500Y-58793020D01*
X63729025Y-58976643D01*
X63729027Y-58976651D01*
X63800676Y-59149628D01*
X63800681Y-59149637D01*
X63904697Y-59305307D01*
X63904700Y-59305311D01*
X64037088Y-59437699D01*
X64037092Y-59437702D01*
X64192762Y-59541718D01*
X64192768Y-59541721D01*
X64192769Y-59541722D01*
X64365749Y-59613373D01*
X64549379Y-59649899D01*
X64549383Y-59649900D01*
X64549384Y-59649900D01*
X64736617Y-59649900D01*
X64736618Y-59649899D01*
X64920251Y-59613373D01*
X65093231Y-59541722D01*
X65248908Y-59437702D01*
X65381302Y-59305308D01*
X65485322Y-59149631D01*
X65503564Y-59105591D01*
X70124000Y-59105591D01*
X70154543Y-59126000D01*
X71626000Y-59126000D01*
X71626000Y-58799229D01*
X72624000Y-58799229D01*
X72633719Y-58797296D01*
X72639714Y-58796255D01*
X72676142Y-58790851D01*
X72682185Y-58790106D01*
X72730954Y-58785303D01*
X72737025Y-58784855D01*
X72773800Y-58783049D01*
X72779882Y-58782900D01*
X73016118Y-58782900D01*
X73022200Y-58783049D01*
X73058975Y-58784855D01*
X73065046Y-58785303D01*
X73113815Y-58790106D01*
X73119858Y-58790851D01*
X73156286Y-58796255D01*
X73162281Y-58797296D01*
X73393987Y-58843385D01*
X73399924Y-58844718D01*
X73435652Y-58853667D01*
X73441522Y-58855291D01*
X73488418Y-58869518D01*
X73494197Y-58871427D01*
X73528859Y-58883830D01*
X73534535Y-58886020D01*
X73752783Y-58976421D01*
X73758346Y-58978887D01*
X73791626Y-58994627D01*
X73797061Y-58997363D01*
X73840282Y-59020464D01*
X73845578Y-59023464D01*
X73877170Y-59042399D01*
X73882314Y-59045656D01*
X74002557Y-59126000D01*
X74126000Y-59126000D01*
X75124000Y-59126000D01*
X76458177Y-59126000D01*
X76478755Y-59123788D01*
X76482064Y-59123477D01*
X76502101Y-59121865D01*
X76505413Y-59121643D01*
X76532095Y-59120214D01*
X76535413Y-59120081D01*
X76555464Y-59119545D01*
X76558777Y-59119501D01*
X76626000Y-59119500D01*
X77624000Y-59119500D01*
X78381248Y-59119500D01*
X78384572Y-59119545D01*
X78404673Y-59120084D01*
X78407993Y-59120217D01*
X78434680Y-59121649D01*
X78437989Y-59121871D01*
X78457982Y-59123481D01*
X78461285Y-59123792D01*
X78481821Y-59126000D01*
X78986408Y-59126000D01*
X77624000Y-58424878D01*
X77624000Y-59119500D01*
X76626000Y-59119500D01*
X76626000Y-58394500D01*
X75124000Y-58394500D01*
X75124000Y-59126000D01*
X74126000Y-59126000D01*
X74126000Y-58394500D01*
X72624000Y-58394500D01*
X72624000Y-58799229D01*
X71626000Y-58799229D01*
X71626000Y-58394500D01*
X70124000Y-58394500D01*
X70124000Y-59105591D01*
X65503564Y-59105591D01*
X65556973Y-58976651D01*
X65593500Y-58793016D01*
X65593500Y-58676326D01*
X67624000Y-58676326D01*
X67757079Y-58642992D01*
X67811400Y-58641659D01*
X68083908Y-58695865D01*
X68089845Y-58697198D01*
X68125572Y-58706147D01*
X68131442Y-58707771D01*
X68178337Y-58721998D01*
X68184112Y-58723906D01*
X68218774Y-58736308D01*
X68224453Y-58738499D01*
X68441784Y-58828520D01*
X68447348Y-58830986D01*
X68480642Y-58846733D01*
X68486080Y-58849471D01*
X68529299Y-58872573D01*
X68534595Y-58875573D01*
X68543585Y-58880961D01*
X68544478Y-58880691D01*
X68550348Y-58879067D01*
X68586076Y-58870118D01*
X68592013Y-58868785D01*
X68823719Y-58822696D01*
X68829714Y-58821655D01*
X68866142Y-58816251D01*
X68872185Y-58815506D01*
X68920954Y-58810703D01*
X68927025Y-58810255D01*
X68963800Y-58808449D01*
X68969882Y-58808300D01*
X69126000Y-58808300D01*
X69126000Y-58394500D01*
X67624000Y-58394500D01*
X67624000Y-58676326D01*
X65593500Y-58676326D01*
X65593500Y-58605784D01*
X65556973Y-58422149D01*
X65501554Y-58288356D01*
X65485323Y-58249171D01*
X65485318Y-58249162D01*
X65381302Y-58093492D01*
X65381299Y-58093488D01*
X65248911Y-57961100D01*
X65248907Y-57961097D01*
X65093237Y-57857081D01*
X65093228Y-57857076D01*
X64920251Y-57785427D01*
X64920243Y-57785425D01*
X64736620Y-57748900D01*
X64736616Y-57748900D01*
X64549384Y-57748900D01*
X64549379Y-57748900D01*
X64365756Y-57785425D01*
X64365748Y-57785427D01*
X64192771Y-57857076D01*
X64192762Y-57857081D01*
X64037092Y-57961097D01*
X64037088Y-57961100D01*
X63904700Y-58093488D01*
X63904697Y-58093492D01*
X63800681Y-58249162D01*
X63800676Y-58249171D01*
X63729027Y-58422148D01*
X63729025Y-58422156D01*
X63692500Y-58605779D01*
X61626000Y-58605779D01*
X61626000Y-58394500D01*
X60499745Y-58394500D01*
X59126000Y-58394500D01*
X57624000Y-58394500D01*
X57624000Y-59126000D01*
X54126000Y-59126000D01*
X54126000Y-58555615D01*
X55124000Y-58555615D01*
X55325692Y-58515496D01*
X55331689Y-58514455D01*
X55368120Y-58509051D01*
X55374161Y-58508306D01*
X55422933Y-58503503D01*
X55429003Y-58503055D01*
X55465775Y-58501249D01*
X55471858Y-58501100D01*
X55678542Y-58501100D01*
X55684625Y-58501249D01*
X55721397Y-58503055D01*
X55727467Y-58503503D01*
X55776239Y-58508306D01*
X55782280Y-58509051D01*
X55818711Y-58514455D01*
X55824708Y-58515496D01*
X56027435Y-58555821D01*
X56033377Y-58557155D01*
X56069103Y-58566105D01*
X56074967Y-58567728D01*
X56121862Y-58581954D01*
X56127640Y-58583863D01*
X56162301Y-58596265D01*
X56167978Y-58598455D01*
X56358928Y-58677548D01*
X56364492Y-58680014D01*
X56397774Y-58695755D01*
X56403209Y-58698491D01*
X56446430Y-58721592D01*
X56451725Y-58724591D01*
X56483318Y-58743526D01*
X56488463Y-58746784D01*
X56626000Y-58838683D01*
X56626000Y-58394500D01*
X55124000Y-58394500D01*
X55124000Y-58555615D01*
X54126000Y-58555615D01*
X54126000Y-58394500D01*
X52624000Y-58394500D01*
X52624000Y-59126000D01*
X51626000Y-59126000D01*
X51626000Y-58394500D01*
X50124000Y-58394500D01*
X50124000Y-59126000D01*
X48227411Y-59126000D01*
X48180647Y-59079236D01*
X48180646Y-59079236D01*
X48180108Y-59078698D01*
X48024431Y-58974678D01*
X47963729Y-58949534D01*
X47963778Y-58949444D01*
X47909657Y-58905829D01*
X47887593Y-58839535D01*
X47896953Y-58787657D01*
X47924492Y-58721170D01*
X47924494Y-58721162D01*
X47929619Y-58695400D01*
X46101180Y-58695400D01*
X43431644Y-58695400D01*
X43505104Y-58585460D01*
X43508607Y-58580486D01*
X43530540Y-58550912D01*
X43534286Y-58546112D01*
X43565375Y-58508230D01*
X43569349Y-58503623D01*
X43594080Y-58476336D01*
X43598278Y-58471927D01*
X43675705Y-58394500D01*
X42624000Y-58394500D01*
X42624000Y-59126000D01*
X41626000Y-59126000D01*
X41626000Y-58394500D01*
X40291571Y-58394500D01*
X36744751Y-58394500D01*
X37666231Y-57434625D01*
X37726858Y-57399897D01*
X37755683Y-57396500D01*
X46474696Y-57396500D01*
X46541735Y-57416185D01*
G37*
%TD.AperFunction*%
%TD*%
M02*
