%TF.GenerationSoftware,KiCad,Pcbnew,10.0.3*%
%TF.CreationDate,2026-09-23T13:04:34+03:00*%
%TF.ProjectId,MCU Datalogger,4d435520-4461-4746-916c-6f676765722e,1*%
%TF.SameCoordinates,Original*%
%TF.FileFunction,Copper,L2,Inr*%
%TF.FilePolarity,Positive*%
%FSLAX46Y46*%
G04 Gerber Fmt 4.6, Leading zero omitted, Abs format (unit mm)*
G04 Created by KiCad (PCBNEW 10.0.3) date 2026-09-23 13:04:34*
%MOMM*%
%LPD*%
G01*
G04 APERTURE LIST*
%TA.AperFunction,ComponentPad*%
%ADD10R,1.700000X1.700000*%
%TD*%
%TA.AperFunction,ComponentPad*%
%ADD11C,1.700000*%
%TD*%
%TA.AperFunction,ViaPad*%
%ADD12C,0.600000*%
%TD*%
%TA.AperFunction,ViaPad*%
%ADD13C,0.900000*%
%TD*%
%TA.AperFunction,Conductor*%
%ADD14C,0.250000*%
%TD*%
%TA.AperFunction,Conductor*%
%ADD15C,0.200000*%
%TD*%
G04 APERTURE END LIST*
D10*
%TO.N,/D2*%
%TO.C,J2*%
X39370000Y-82550000D03*
D11*
%TO.N,/D3*%
X41910000Y-82550000D03*
%TO.N,/D4*%
X44450000Y-82550000D03*
%TO.N,/D5*%
X46990000Y-82550000D03*
%TO.N,/D6*%
X49530000Y-82550000D03*
%TO.N,/D7*%
X52070000Y-82550000D03*
%TO.N,/D8*%
X54610000Y-82550000D03*
%TO.N,GND*%
X57150000Y-82550000D03*
%TO.N,/VCC*%
X59690000Y-82550000D03*
%TD*%
D10*
%TO.N,GND*%
%TO.C,J3*%
X66040000Y-82550000D03*
D11*
%TO.N,/VCC*%
X68580000Y-82550000D03*
%TO.N,/RX*%
X71120000Y-82550000D03*
%TO.N,/TX*%
X73660000Y-82550000D03*
%TD*%
D10*
%TO.N,/VCC*%
%TO.C,BT1*%
X36830000Y-62484000D03*
D11*
%TO.N,GND*%
X36830000Y-65024000D03*
%TD*%
D10*
%TO.N,GND*%
%TO.C,J1*%
X80010000Y-70612000D03*
D11*
%TO.N,/VCC*%
X80010000Y-73152000D03*
%TO.N,/SDA*%
X80010000Y-75692000D03*
%TO.N,/SCK*%
X80010000Y-78232000D03*
%TD*%
D10*
%TO.N,/MISO*%
%TO.C,J4*%
X77470000Y-61468000D03*
D11*
%TO.N,/VCC*%
X80010000Y-61468000D03*
%TO.N,/SCK*%
X77470000Y-64008000D03*
%TO.N,/MOSI*%
X80010000Y-64008000D03*
%TO.N,/RESET*%
X77470000Y-66548000D03*
%TO.N,GND*%
X80010000Y-66548000D03*
%TD*%
D12*
%TO.N,/MISO*%
X75403000Y-61518800D03*
X62509400Y-71501000D03*
%TO.N,/SDA*%
X51384200Y-63957200D03*
%TO.N,/SCK*%
X74498200Y-68148200D03*
X65862200Y-69697600D03*
X64058800Y-69621400D03*
D13*
%TO.N,/VCC*%
X67589400Y-60579000D03*
X56591200Y-68427600D03*
X70490164Y-69100600D03*
X71805800Y-67691000D03*
X60420786Y-68585814D03*
X59867800Y-60236200D03*
X47015400Y-58445400D03*
X38735000Y-59563000D03*
X46997431Y-65022178D03*
X43865800Y-66395600D03*
X46024800Y-72059800D03*
X50031800Y-76936600D03*
X39420800Y-79121000D03*
%TO.N,GND*%
X70739000Y-75539600D03*
X72898000Y-60731400D03*
X69088000Y-60756800D03*
X64643000Y-58699400D03*
X56692800Y-66116200D03*
X60375800Y-66167000D03*
X45059600Y-59766200D03*
X47574200Y-59817000D03*
X46888400Y-66167000D03*
X40894000Y-76174600D03*
X40005000Y-68961000D03*
D12*
%TO.N,/RESET*%
X57785000Y-65049400D03*
X72821800Y-64668400D03*
%TO.N,/D2*%
X54330600Y-61569600D03*
X40005000Y-80340200D03*
%TO.N,/SCK*%
X45415200Y-67157600D03*
X58661300Y-67957700D03*
%TO.N,Net-(U4-PB6)*%
X51892200Y-69342000D03*
%TO.N,/SCK*%
X74803000Y-65328800D03*
X76377800Y-72466200D03*
%TO.N,/SDA*%
X68275200Y-68300600D03*
X77216000Y-74295000D03*
%TO.N,Net-(U4-AREF)*%
X60401200Y-67437000D03*
X67183000Y-76047600D03*
%TO.N,Net-(U4-PB6)*%
X65776400Y-73634600D03*
X56007000Y-79070200D03*
%TO.N,Net-(U4-PB7)*%
X56946800Y-73761600D03*
X55575200Y-69596000D03*
X55575200Y-60299600D03*
%TO.N,/SDA*%
X59359800Y-65252600D03*
X67263000Y-64693800D03*
%TO.N,/MOSI*%
X59245500Y-69811900D03*
X65862200Y-72212200D03*
%TD*%
%TO.N,/VCC*%
D14*
X60373900Y-68632700D02*
X60420786Y-68585814D01*
X56591200Y-68427600D02*
X56796300Y-68632700D01*
X56796300Y-68632700D02*
X60373900Y-68632700D01*
%TO.N,/MOSI*%
D15*
X65049400Y-73025000D02*
X65862200Y-72212200D01*
X59258200Y-73025000D02*
X65049400Y-73025000D01*
X59258200Y-69799200D02*
X59258200Y-73025000D01*
X59245500Y-69811900D02*
X59258200Y-69799200D01*
%TO.N,/SCK*%
X75158600Y-67487800D02*
X75463400Y-67487800D01*
X74498200Y-68148200D02*
X75158600Y-67487800D01*
X75463400Y-67487800D02*
X75463400Y-66014600D01*
%TO.N,/SDA*%
X76936600Y-74295000D02*
X70942200Y-68300600D01*
X77216000Y-74295000D02*
X76936600Y-74295000D01*
X70942200Y-68300600D02*
X68275200Y-68300600D01*
%TO.N,/SCK*%
X74777600Y-65328800D02*
X74803000Y-65328800D01*
X75463400Y-66014600D02*
X74777600Y-65328800D01*
X76377800Y-72034400D02*
X75463400Y-71120000D01*
X76377800Y-72466200D02*
X76377800Y-72034400D01*
X75463400Y-71120000D02*
X75463400Y-67487800D01*
X65786000Y-69621400D02*
X65862200Y-69697600D01*
X64058800Y-69621400D02*
X65786000Y-69621400D01*
%TO.N,/RESET*%
X58750200Y-64084200D02*
X57785000Y-65049400D01*
X72237600Y-64084200D02*
X58750200Y-64084200D01*
X72821800Y-64668400D02*
X72237600Y-64084200D01*
%TO.N,/SDA*%
X67212200Y-64643000D02*
X67263000Y-64693800D01*
X59359800Y-65252600D02*
X59969400Y-64643000D01*
X59969400Y-64643000D02*
X67212200Y-64643000D01*
%TO.N,/D2*%
X40005000Y-80340200D02*
X52298600Y-68046600D01*
X52298600Y-68046600D02*
X52298600Y-61671200D01*
X52298600Y-61671200D02*
X54229000Y-61671200D01*
X54229000Y-61671200D02*
X54330600Y-61569600D01*
%TO.N,Net-(U4-PB6)*%
X51892200Y-73964800D02*
X56997600Y-79070200D01*
X51892200Y-69342000D02*
X51892200Y-73964800D01*
X56007000Y-79070200D02*
X56997600Y-79070200D01*
%TO.N,/SDA*%
X67614800Y-64693800D02*
X67263000Y-64693800D01*
%TO.N,Net-(U4-AREF)*%
X60655200Y-67183000D02*
X60401200Y-67437000D01*
X66243200Y-67183000D02*
X60655200Y-67183000D01*
X67132200Y-68072000D02*
X66243200Y-67183000D01*
X67132200Y-68173600D02*
X67132200Y-68072000D01*
X67132200Y-68173600D02*
X67132200Y-75996800D01*
X67132200Y-75996800D02*
X67183000Y-76047600D01*
%TO.N,Net-(U4-PB6)*%
X65532000Y-77317600D02*
X65532000Y-73879000D01*
X65532000Y-73879000D02*
X65776400Y-73634600D01*
X63779400Y-79070200D02*
X65532000Y-77317600D01*
X56997600Y-79070200D02*
X63779400Y-79070200D01*
%TO.N,Net-(U4-PB7)*%
X56642000Y-73456800D02*
X56946800Y-73761600D01*
X56642000Y-70662800D02*
X56642000Y-73456800D01*
X55575200Y-69596000D02*
X55575200Y-60299600D01*
X55575200Y-69596000D02*
X56642000Y-70662800D01*
%TD*%
M02*
