%TF.GenerationSoftware,KiCad,Pcbnew,10.0.3*%
%TF.CreationDate,2026-09-21T13:20:34+03:00*%
%TF.ProjectId,MCU Datalogger,4d435520-4461-4746-916c-6f676765722e,1*%
%TF.SameCoordinates,Original*%
%TF.FileFunction,Copper,L2,Bot*%
%TF.FilePolarity,Positive*%
%FSLAX46Y46*%
G04 Gerber Fmt 4.6, Leading zero omitted, Abs format (unit mm)*
G04 Created by KiCad (PCBNEW 10.0.3) date 2026-09-21 13:20:34*
%MOMM*%
%LPD*%
G01*
G04 APERTURE LIST*
%TA.AperFunction,ComponentPad*%
%ADD10R,1.700000X1.700000*%
%TD*%
%TA.AperFunction,ComponentPad*%
%ADD11C,1.700000*%
%TD*%
%TA.AperFunction,ViaPad*%
%ADD12C,0.900000*%
%TD*%
%TA.AperFunction,ViaPad*%
%ADD13C,0.600000*%
%TD*%
%TA.AperFunction,Conductor*%
%ADD14C,0.250000*%
%TD*%
%TA.AperFunction,Conductor*%
%ADD15C,0.200000*%
%TD*%
G04 APERTURE END LIST*
D10*
%TO.P,J2,1,Pin_1_1*%
%TO.N,/D2*%
X39370000Y-82550000D03*
D11*
%TO.P,J2,2,Pin_2_2*%
%TO.N,/D3*%
X41910000Y-82550000D03*
%TO.P,J2,3,Pin_3_3*%
%TO.N,/D4*%
X44450000Y-82550000D03*
%TO.P,J2,4,Pin_4_4*%
%TO.N,/D5*%
X46990000Y-82550000D03*
%TO.P,J2,5,Pin_5_5*%
%TO.N,/D6*%
X49530000Y-82550000D03*
%TO.P,J2,6,Pin_6_6*%
%TO.N,/D7*%
X52070000Y-82550000D03*
%TO.P,J2,7,Pin_7_7*%
%TO.N,/D8*%
X54610000Y-82550000D03*
%TO.P,J2,8,Pin_8_8*%
%TO.N,GND*%
X57150000Y-82550000D03*
%TO.P,J2,9,Pin_9_9*%
%TO.N,/VCC*%
X59690000Y-82550000D03*
%TD*%
D10*
%TO.P,J3,1,Pin_1_1*%
%TO.N,GND*%
X66040000Y-82550000D03*
D11*
%TO.P,J3,2,Pin_2_2*%
%TO.N,/VCC*%
X68580000Y-82550000D03*
%TO.P,J3,3,Pin_3_3*%
%TO.N,/RX*%
X71120000Y-82550000D03*
%TO.P,J3,4,Pin_4_4*%
%TO.N,/TX*%
X73660000Y-82550000D03*
%TD*%
D10*
%TO.P,BT1,1,+_1*%
%TO.N,/VCC*%
X36830000Y-62484000D03*
D11*
%TO.P,BT1,2,-_2*%
%TO.N,GND*%
X36830000Y-65024000D03*
%TD*%
D10*
%TO.P,J1,1,Pin_1_1*%
%TO.N,GND*%
X80010000Y-70612000D03*
D11*
%TO.P,J1,2,Pin_2_2*%
%TO.N,/VCC*%
X80010000Y-73152000D03*
%TO.P,J1,3,Pin_3_3*%
%TO.N,/SDA*%
X80010000Y-75692000D03*
%TO.P,J1,4,Pin_4_4*%
%TO.N,/SCK*%
X80010000Y-78232000D03*
%TD*%
D10*
%TO.P,J4,1,Pin_1_1*%
%TO.N,/MISO*%
X77470000Y-61468000D03*
D11*
%TO.P,J4,2,Pin_2_2*%
%TO.N,/VCC*%
X80010000Y-61468000D03*
%TO.P,J4,3,Pin_3_3*%
%TO.N,/SCK*%
X77470000Y-64008000D03*
%TO.P,J4,4,Pin_4_4*%
%TO.N,/MOSI*%
X80010000Y-64008000D03*
%TO.P,J4,5,Pin_5_5*%
%TO.N,/RESET*%
X77470000Y-66548000D03*
%TO.P,J4,6,Pin_6_6*%
%TO.N,GND*%
X80010000Y-66548000D03*
%TD*%
D12*
%TO.N,/VCC*%
X76352400Y-58699400D03*
X37617400Y-59817000D03*
X64262000Y-68757800D03*
X72205314Y-68903314D03*
X60458886Y-68637686D03*
X55537200Y-66675000D03*
X61391800Y-60274200D03*
X69850000Y-59690000D03*
%TO.N,GND*%
X52508000Y-66248630D03*
X65278000Y-66548000D03*
X72898000Y-60706000D03*
X69088000Y-60706000D03*
X45720000Y-75692000D03*
X46952000Y-66764000D03*
X70866000Y-77470000D03*
X57023000Y-60776000D03*
X65335686Y-61664314D03*
X59944000Y-60922000D03*
X63500000Y-60198000D03*
D13*
%TO.N,/SDA*%
X67564000Y-68072000D03*
X76708000Y-74676000D03*
X47844000Y-68536735D03*
X47868765Y-62367235D03*
%TO.N,/SCK*%
X72644000Y-71915000D03*
X74930000Y-67310000D03*
X74676000Y-73914000D03*
%TO.N,/D2*%
X55372000Y-64516000D03*
%TO.N,/D5*%
X53432000Y-71628000D03*
%TO.N,/D6*%
X56134000Y-73314000D03*
%TO.N,/D7*%
X56934003Y-73314000D03*
%TO.N,/D8*%
X57734006Y-73314000D03*
%TO.N,Net-(U4-PB7)*%
X55278500Y-69562500D03*
X58928000Y-61122000D03*
%TO.N,/RESET*%
X62230000Y-63500000D03*
X57766000Y-64770000D03*
X65244504Y-63533496D03*
X67818000Y-63500000D03*
%TO.N,Net-(U4-AREF)*%
X59334400Y-68757800D03*
X65278000Y-77470000D03*
%TO.N,/MISO*%
X64516000Y-71628000D03*
%TO.N,/RX*%
X56997600Y-67894200D03*
%TO.N,/TX*%
X57785000Y-68656200D03*
%TD*%
%TO.N,/VCC*%
D14*
X63754000Y-66007437D02*
X63754000Y-63246000D01*
X64262000Y-66515437D02*
X63754000Y-66007437D01*
X64262000Y-68757800D02*
X64262000Y-66515437D01*
X75565000Y-57912000D02*
X76352400Y-58699400D01*
X58420000Y-57912000D02*
X75565000Y-57912000D01*
X39497000Y-59817000D02*
X37617400Y-59817000D01*
X41402000Y-57912000D02*
X39497000Y-59817000D01*
X60458886Y-67824886D02*
X60458886Y-68637686D01*
X55537200Y-66675000D02*
X59309000Y-66675000D01*
X59309000Y-66675000D02*
X60458886Y-67824886D01*
%TO.N,/TX*%
D15*
X63646000Y-76854000D02*
X66294000Y-79502000D01*
X63646000Y-75584000D02*
X63646000Y-76854000D01*
X57810400Y-68681600D02*
X57810400Y-69748400D01*
X66294000Y-79502000D02*
X70612000Y-79502000D01*
X70612000Y-79502000D02*
X73660000Y-82550000D01*
X57785000Y-68656200D02*
X57810400Y-68681600D01*
X57810400Y-69748400D02*
X63646000Y-75584000D01*
%TO.N,/RX*%
X68580000Y-80010000D02*
X71120000Y-82550000D01*
X63246000Y-75946000D02*
X63246000Y-77216000D01*
X63246000Y-77216000D02*
X66040000Y-80010000D01*
X56997600Y-67894200D02*
X56997600Y-69697600D01*
X56997600Y-69697600D02*
X63246000Y-75946000D01*
X66040000Y-80010000D02*
X68580000Y-80010000D01*
%TO.N,Net-(U4-AREF)*%
X64046000Y-75418315D02*
X64046000Y-76492000D01*
X65024000Y-77470000D02*
X65278000Y-77470000D01*
X60172600Y-71544915D02*
X64046000Y-75418315D01*
X64046000Y-76492000D02*
X65024000Y-77470000D01*
X59334400Y-68757800D02*
X60172600Y-69596000D01*
X60172600Y-69596000D02*
X60172600Y-71544915D01*
%TO.N,/VCC*%
D14*
X63754000Y-61341000D02*
X63754000Y-63246000D01*
X65405000Y-59690000D02*
X63754000Y-61341000D01*
X69850000Y-59690000D02*
X65405000Y-59690000D01*
X58420000Y-57912000D02*
X41402000Y-57912000D01*
X61391800Y-60274200D02*
X60782200Y-60274200D01*
X60782200Y-60274200D02*
X58420000Y-57912000D01*
X61391800Y-60883800D02*
X61391800Y-60274200D01*
X63754000Y-63246000D02*
X61391800Y-60883800D01*
%TO.N,GND*%
X59448600Y-60426600D02*
X59944000Y-60922000D01*
X57372400Y-60426600D02*
X59448600Y-60426600D01*
X57023000Y-60776000D02*
X57372400Y-60426600D01*
X64516000Y-62484000D02*
X65335686Y-61664314D01*
X64516000Y-65532000D02*
X64516000Y-62484000D01*
X65278000Y-66294000D02*
X64516000Y-65532000D01*
X65278000Y-66548000D02*
X65278000Y-66294000D01*
%TO.N,/MISO*%
D15*
X71590000Y-61506000D02*
X77432000Y-61506000D01*
X65532000Y-70612000D02*
X65532000Y-67564000D01*
X77432000Y-61506000D02*
X77470000Y-61468000D01*
X64516000Y-71628000D02*
X65532000Y-70612000D01*
X65532000Y-67564000D02*
X71590000Y-61506000D01*
%TO.N,/VCC*%
D14*
X81621985Y-81787428D02*
X81635577Y-74777577D01*
X81635577Y-74777577D02*
X80010000Y-73152000D01*
X72205314Y-68903314D02*
X73533000Y-70231000D01*
X76454000Y-73152000D02*
X73533000Y-70231000D01*
X80010000Y-73152000D02*
X76454000Y-73152000D01*
X68580000Y-84184754D02*
X77717184Y-84184754D01*
X68580000Y-82550000D02*
X68580000Y-84184754D01*
X77717184Y-84184754D02*
X77724000Y-84191570D01*
X77724000Y-84191570D02*
X77724000Y-83820000D01*
X79756572Y-81787428D02*
X81621985Y-81787428D01*
X77724000Y-83820000D02*
X79756572Y-81787428D01*
%TO.N,GND*%
X46952000Y-66764000D02*
X51992630Y-66764000D01*
X51992630Y-66764000D02*
X52508000Y-66248630D01*
%TO.N,/SDA*%
D15*
X47868765Y-62000765D02*
X47844000Y-61976000D01*
X47844000Y-61976000D02*
X45720000Y-61976000D01*
X47868765Y-62367235D02*
X47868765Y-62000765D01*
X45212000Y-62484000D02*
X45212000Y-68072000D01*
X76708000Y-74676000D02*
X70104000Y-68072000D01*
X45720000Y-61976000D02*
X45212000Y-62484000D01*
X45212000Y-68072000D02*
X47379265Y-68072000D01*
X47379265Y-68072000D02*
X47844000Y-68536735D01*
X70104000Y-68072000D02*
X67564000Y-68072000D01*
%TO.N,/SCK*%
X74930000Y-67310000D02*
X75565000Y-66675000D01*
X75565000Y-66675000D02*
X75565000Y-65913000D01*
X74676000Y-73914000D02*
X72677000Y-71915000D01*
X75565000Y-65913000D02*
X77470000Y-64008000D01*
X72677000Y-71915000D02*
X72644000Y-71915000D01*
%TO.N,/D2*%
X55372000Y-64516000D02*
X39370000Y-80518000D01*
X39370000Y-80518000D02*
X39370000Y-82550000D01*
%TO.N,/D5*%
X51054000Y-78486000D02*
X51054000Y-71628000D01*
X51054000Y-71628000D02*
X53432000Y-71628000D01*
X46990000Y-82550000D02*
X51054000Y-78486000D01*
%TO.N,/D6*%
X49530000Y-82550000D02*
X51562000Y-80518000D01*
X56134000Y-73406000D02*
X56134000Y-73314000D01*
X51562000Y-80518000D02*
X51562000Y-73406000D01*
X51562000Y-73406000D02*
X56134000Y-73406000D01*
%TO.N,/D7*%
X52070000Y-73914000D02*
X56382529Y-73914000D01*
X56382529Y-73914000D02*
X56934003Y-73362526D01*
X56934003Y-73362526D02*
X56934003Y-73314000D01*
X52070000Y-82550000D02*
X52070000Y-73914000D01*
%TO.N,/D8*%
X56674532Y-74422000D02*
X57734006Y-73362526D01*
X52616001Y-80556001D02*
X52615999Y-80263998D01*
X52616000Y-74422000D02*
X56674532Y-74422000D01*
X54610000Y-82550000D02*
X52616001Y-80556001D01*
X57734006Y-73362526D02*
X57734006Y-73314000D01*
X52615999Y-80263998D02*
X52616000Y-74422000D01*
%TO.N,Net-(U4-PB7)*%
X58928000Y-61122000D02*
X58928000Y-61976000D01*
X54356000Y-66548000D02*
X54356000Y-67945000D01*
X55278500Y-68867500D02*
X55278500Y-69562500D01*
X58928000Y-61976000D02*
X54356000Y-66548000D01*
X54356000Y-67945000D02*
X55278500Y-68867500D01*
%TO.N,/RESET*%
X57766000Y-65840000D02*
X57766000Y-64770000D01*
X60784265Y-66040000D02*
X57966000Y-66040000D01*
X57966000Y-66040000D02*
X57766000Y-65840000D01*
X65278000Y-63500000D02*
X65244504Y-63533496D01*
X67818000Y-63500000D02*
X65278000Y-63500000D01*
X62230000Y-63500000D02*
X62230000Y-64594265D01*
X62230000Y-64594265D02*
X60784265Y-66040000D01*
%TD*%
%TA.AperFunction,Conductor*%
%TO.N,GND*%
G36*
X40793086Y-57423685D02*
G01*
X40838841Y-57476489D01*
X40848785Y-57545647D01*
X40819760Y-57609203D01*
X40813728Y-57615681D01*
X39274229Y-59155181D01*
X39212906Y-59188666D01*
X39186548Y-59191500D01*
X38387472Y-59191500D01*
X38320433Y-59171815D01*
X38299795Y-59155185D01*
X38223308Y-59078698D01*
X38223307Y-59078697D01*
X38223306Y-59078696D01*
X38067637Y-58974681D01*
X38067628Y-58974676D01*
X37894651Y-58903027D01*
X37894643Y-58903025D01*
X37711020Y-58866500D01*
X37711016Y-58866500D01*
X37523784Y-58866500D01*
X37523779Y-58866500D01*
X37340156Y-58903025D01*
X37340148Y-58903027D01*
X37167171Y-58974676D01*
X37167162Y-58974681D01*
X37011492Y-59078697D01*
X37011488Y-59078700D01*
X36879100Y-59211088D01*
X36879097Y-59211092D01*
X36775081Y-59366762D01*
X36775076Y-59366771D01*
X36703427Y-59539748D01*
X36703425Y-59539756D01*
X36666900Y-59723379D01*
X36666900Y-59910620D01*
X36703425Y-60094243D01*
X36703427Y-60094251D01*
X36775076Y-60267228D01*
X36775081Y-60267237D01*
X36879097Y-60422907D01*
X36879100Y-60422911D01*
X37011488Y-60555299D01*
X37011492Y-60555302D01*
X37167162Y-60659318D01*
X37167171Y-60659323D01*
X37192479Y-60669806D01*
X37340149Y-60730973D01*
X37486979Y-60760179D01*
X37523779Y-60767499D01*
X37523783Y-60767500D01*
X37523784Y-60767500D01*
X37711017Y-60767500D01*
X37711018Y-60767499D01*
X37894651Y-60730973D01*
X38067631Y-60659322D01*
X38223308Y-60555302D01*
X38299792Y-60478817D01*
X38361113Y-60445334D01*
X38387472Y-60442500D01*
X39558608Y-60442500D01*
X39558608Y-60442499D01*
X39629986Y-60428302D01*
X39679452Y-60418463D01*
X39712792Y-60404652D01*
X39793286Y-60371312D01*
X39855878Y-60329488D01*
X39895733Y-60302858D01*
X39982858Y-60215733D01*
X39982859Y-60215731D01*
X39989925Y-60208665D01*
X39989927Y-60208661D01*
X41624771Y-58573819D01*
X41686094Y-58540334D01*
X41712452Y-58537500D01*
X58109548Y-58537500D01*
X58176587Y-58557185D01*
X58197229Y-58573819D01*
X60293216Y-60669806D01*
X60293245Y-60669837D01*
X60383463Y-60760055D01*
X60383467Y-60760058D01*
X60485907Y-60828507D01*
X60485913Y-60828510D01*
X60485914Y-60828511D01*
X60599748Y-60875663D01*
X60624402Y-60880566D01*
X60641160Y-60889332D01*
X60659639Y-60893352D01*
X60684671Y-60912091D01*
X60686313Y-60912950D01*
X60687893Y-60914503D01*
X60751495Y-60978105D01*
X60784980Y-61039428D01*
X60785421Y-61041542D01*
X60785668Y-61042784D01*
X60785743Y-61043158D01*
X60790337Y-61066251D01*
X60837488Y-61180086D01*
X60837489Y-61180088D01*
X60837490Y-61180089D01*
X60837491Y-61180092D01*
X60862998Y-61218264D01*
X60867299Y-61224700D01*
X60905942Y-61282533D01*
X60993067Y-61369658D01*
X60993070Y-61369660D01*
X61000563Y-61377153D01*
X62130374Y-62506964D01*
X62163859Y-62568287D01*
X62158875Y-62637979D01*
X62117003Y-62693912D01*
X62066885Y-62716262D01*
X61996509Y-62730261D01*
X61996498Y-62730264D01*
X61850827Y-62790602D01*
X61850814Y-62790609D01*
X61719711Y-62878210D01*
X61719707Y-62878213D01*
X61608213Y-62989707D01*
X61608210Y-62989711D01*
X61520609Y-63120814D01*
X61520602Y-63120827D01*
X61460264Y-63266498D01*
X61460261Y-63266510D01*
X61429500Y-63421153D01*
X61429500Y-63578846D01*
X61460261Y-63733489D01*
X61460264Y-63733501D01*
X61520602Y-63879172D01*
X61520609Y-63879185D01*
X61608602Y-64010874D01*
X61614252Y-64028920D01*
X61624477Y-64044830D01*
X61628928Y-64075789D01*
X61629480Y-64077551D01*
X61629500Y-64079765D01*
X61629500Y-64294168D01*
X61609815Y-64361207D01*
X61593181Y-64381849D01*
X60571849Y-65403181D01*
X60510526Y-65436666D01*
X60484168Y-65439500D01*
X58513396Y-65439500D01*
X58446357Y-65419815D01*
X58400602Y-65367011D01*
X58390658Y-65297853D01*
X58410294Y-65246609D01*
X58475390Y-65149185D01*
X58475390Y-65149184D01*
X58475394Y-65149179D01*
X58535737Y-65003497D01*
X58566500Y-64848842D01*
X58566500Y-64691158D01*
X58566500Y-64691155D01*
X58566499Y-64691153D01*
X58556217Y-64639463D01*
X58535737Y-64536503D01*
X58530558Y-64524000D01*
X58475397Y-64390827D01*
X58475390Y-64390814D01*
X58387789Y-64259711D01*
X58387786Y-64259707D01*
X58276292Y-64148213D01*
X58276288Y-64148210D01*
X58145185Y-64060609D01*
X58145172Y-64060602D01*
X57996630Y-63999075D01*
X57942226Y-63955234D01*
X57920161Y-63888940D01*
X57937440Y-63821241D01*
X57956397Y-63796836D01*
X59286506Y-62466727D01*
X59286511Y-62466724D01*
X59296714Y-62456520D01*
X59296716Y-62456520D01*
X59408520Y-62344716D01*
X59487577Y-62207784D01*
X59528500Y-62055057D01*
X59528500Y-61701765D01*
X59548185Y-61634726D01*
X59549398Y-61632874D01*
X59582863Y-61582791D01*
X59637394Y-61501179D01*
X59697737Y-61355497D01*
X59728500Y-61200842D01*
X59728500Y-61043158D01*
X59728500Y-61043156D01*
X59728500Y-61043155D01*
X59728499Y-61043153D01*
X59715560Y-60978105D01*
X59697737Y-60888503D01*
X59697397Y-60887681D01*
X59637397Y-60742827D01*
X59637390Y-60742814D01*
X59549789Y-60611711D01*
X59549786Y-60611707D01*
X59438292Y-60500213D01*
X59438288Y-60500210D01*
X59307185Y-60412609D01*
X59307172Y-60412602D01*
X59161501Y-60352264D01*
X59161489Y-60352261D01*
X59006845Y-60321500D01*
X59006842Y-60321500D01*
X58849158Y-60321500D01*
X58849155Y-60321500D01*
X58694510Y-60352261D01*
X58694498Y-60352264D01*
X58548827Y-60412602D01*
X58548814Y-60412609D01*
X58417711Y-60500210D01*
X58417707Y-60500213D01*
X58306213Y-60611707D01*
X58306210Y-60611711D01*
X58218609Y-60742814D01*
X58218602Y-60742827D01*
X58158264Y-60888498D01*
X58158261Y-60888510D01*
X58127500Y-61043153D01*
X58127500Y-61200846D01*
X58158261Y-61355489D01*
X58158264Y-61355501D01*
X58218602Y-61501172D01*
X58218609Y-61501185D01*
X58296242Y-61617371D01*
X58317120Y-61684049D01*
X58298635Y-61751429D01*
X58280821Y-61773943D01*
X56109102Y-63945661D01*
X56047779Y-63979146D01*
X55978087Y-63974162D01*
X55933740Y-63945661D01*
X55882292Y-63894213D01*
X55882288Y-63894210D01*
X55751185Y-63806609D01*
X55751172Y-63806602D01*
X55605501Y-63746264D01*
X55605489Y-63746261D01*
X55450845Y-63715500D01*
X55450842Y-63715500D01*
X55293158Y-63715500D01*
X55293155Y-63715500D01*
X55138510Y-63746261D01*
X55138498Y-63746264D01*
X54992827Y-63806602D01*
X54992814Y-63806609D01*
X54861711Y-63894210D01*
X54861707Y-63894213D01*
X54750213Y-64005707D01*
X54750210Y-64005711D01*
X54662609Y-64136814D01*
X54662602Y-64136827D01*
X54602264Y-64282498D01*
X54602261Y-64282508D01*
X54571361Y-64437850D01*
X54538976Y-64499761D01*
X54537425Y-64501339D01*
X38889481Y-80149282D01*
X38889479Y-80149285D01*
X38839361Y-80236094D01*
X38839359Y-80236096D01*
X38810425Y-80286209D01*
X38810424Y-80286210D01*
X38805233Y-80305583D01*
X38769499Y-80438943D01*
X38769499Y-80438945D01*
X38769499Y-80607046D01*
X38769500Y-80607059D01*
X38769500Y-81075500D01*
X38749815Y-81142539D01*
X38697011Y-81188294D01*
X38645501Y-81199500D01*
X38472130Y-81199500D01*
X38472123Y-81199501D01*
X38412516Y-81205908D01*
X38277671Y-81256202D01*
X38277664Y-81256206D01*
X38162455Y-81342452D01*
X38162452Y-81342455D01*
X38076206Y-81457664D01*
X38076202Y-81457671D01*
X38025908Y-81592517D01*
X38019501Y-81652116D01*
X38019500Y-81652135D01*
X38019500Y-83447870D01*
X38019501Y-83447876D01*
X38025908Y-83507483D01*
X38076202Y-83642328D01*
X38076206Y-83642335D01*
X38162452Y-83757544D01*
X38162455Y-83757547D01*
X38277664Y-83843793D01*
X38277671Y-83843797D01*
X38412517Y-83894091D01*
X38412516Y-83894091D01*
X38419444Y-83894835D01*
X38472127Y-83900500D01*
X40267872Y-83900499D01*
X40327483Y-83894091D01*
X40462331Y-83843796D01*
X40577546Y-83757546D01*
X40663796Y-83642331D01*
X40712810Y-83510916D01*
X40754681Y-83454984D01*
X40820145Y-83430566D01*
X40888418Y-83445417D01*
X40916673Y-83466569D01*
X41030213Y-83580109D01*
X41202179Y-83705048D01*
X41202181Y-83705049D01*
X41202184Y-83705051D01*
X41391588Y-83801557D01*
X41593757Y-83867246D01*
X41803713Y-83900500D01*
X41803714Y-83900500D01*
X42016286Y-83900500D01*
X42016287Y-83900500D01*
X42226243Y-83867246D01*
X42428412Y-83801557D01*
X42617816Y-83705051D01*
X42672572Y-83665269D01*
X42789786Y-83580109D01*
X42789788Y-83580106D01*
X42789792Y-83580104D01*
X42940104Y-83429792D01*
X42940106Y-83429788D01*
X42940109Y-83429786D01*
X43065048Y-83257820D01*
X43065049Y-83257819D01*
X43065051Y-83257816D01*
X43069514Y-83249054D01*
X43117488Y-83198259D01*
X43185308Y-83181463D01*
X43251444Y-83203999D01*
X43290486Y-83249056D01*
X43294951Y-83257820D01*
X43419890Y-83429786D01*
X43570213Y-83580109D01*
X43742179Y-83705048D01*
X43742181Y-83705049D01*
X43742184Y-83705051D01*
X43931588Y-83801557D01*
X44133757Y-83867246D01*
X44343713Y-83900500D01*
X44343714Y-83900500D01*
X44556286Y-83900500D01*
X44556287Y-83900500D01*
X44766243Y-83867246D01*
X44968412Y-83801557D01*
X45157816Y-83705051D01*
X45212572Y-83665269D01*
X45329786Y-83580109D01*
X45329788Y-83580106D01*
X45329792Y-83580104D01*
X45480104Y-83429792D01*
X45480106Y-83429788D01*
X45480109Y-83429786D01*
X45605048Y-83257820D01*
X45605049Y-83257819D01*
X45605051Y-83257816D01*
X45609514Y-83249054D01*
X45657488Y-83198259D01*
X45725308Y-83181463D01*
X45791444Y-83203999D01*
X45830486Y-83249056D01*
X45834951Y-83257820D01*
X45959890Y-83429786D01*
X46110213Y-83580109D01*
X46282179Y-83705048D01*
X46282181Y-83705049D01*
X46282184Y-83705051D01*
X46471588Y-83801557D01*
X46673757Y-83867246D01*
X46883713Y-83900500D01*
X46883714Y-83900500D01*
X47096286Y-83900500D01*
X47096287Y-83900500D01*
X47306243Y-83867246D01*
X47508412Y-83801557D01*
X47697816Y-83705051D01*
X47752572Y-83665269D01*
X47869786Y-83580109D01*
X47869788Y-83580106D01*
X47869792Y-83580104D01*
X48020104Y-83429792D01*
X48020106Y-83429788D01*
X48020109Y-83429786D01*
X48145048Y-83257820D01*
X48145049Y-83257819D01*
X48145051Y-83257816D01*
X48149514Y-83249054D01*
X48197488Y-83198259D01*
X48265308Y-83181463D01*
X48331444Y-83203999D01*
X48370486Y-83249056D01*
X48374951Y-83257820D01*
X48499890Y-83429786D01*
X48650213Y-83580109D01*
X48822179Y-83705048D01*
X48822181Y-83705049D01*
X48822184Y-83705051D01*
X49011588Y-83801557D01*
X49213757Y-83867246D01*
X49423713Y-83900500D01*
X49423714Y-83900500D01*
X49636286Y-83900500D01*
X49636287Y-83900500D01*
X49846243Y-83867246D01*
X50048412Y-83801557D01*
X50237816Y-83705051D01*
X50292572Y-83665269D01*
X50409786Y-83580109D01*
X50409788Y-83580106D01*
X50409792Y-83580104D01*
X50560104Y-83429792D01*
X50560106Y-83429788D01*
X50560109Y-83429786D01*
X50685048Y-83257820D01*
X50685049Y-83257819D01*
X50685051Y-83257816D01*
X50689514Y-83249054D01*
X50737488Y-83198259D01*
X50805308Y-83181463D01*
X50871444Y-83203999D01*
X50910486Y-83249056D01*
X50914951Y-83257820D01*
X51039890Y-83429786D01*
X51190213Y-83580109D01*
X51362179Y-83705048D01*
X51362181Y-83705049D01*
X51362184Y-83705051D01*
X51551588Y-83801557D01*
X51753757Y-83867246D01*
X51963713Y-83900500D01*
X51963714Y-83900500D01*
X52176286Y-83900500D01*
X52176287Y-83900500D01*
X52386243Y-83867246D01*
X52588412Y-83801557D01*
X52777816Y-83705051D01*
X52832572Y-83665269D01*
X52949786Y-83580109D01*
X52949788Y-83580106D01*
X52949792Y-83580104D01*
X53100104Y-83429792D01*
X53100106Y-83429788D01*
X53100109Y-83429786D01*
X53225048Y-83257820D01*
X53225049Y-83257819D01*
X53225051Y-83257816D01*
X53229514Y-83249054D01*
X53277488Y-83198259D01*
X53345308Y-83181463D01*
X53411444Y-83203999D01*
X53450486Y-83249056D01*
X53454951Y-83257820D01*
X53579890Y-83429786D01*
X53730213Y-83580109D01*
X53902179Y-83705048D01*
X53902181Y-83705049D01*
X53902184Y-83705051D01*
X54091588Y-83801557D01*
X54293757Y-83867246D01*
X54503713Y-83900500D01*
X54503714Y-83900500D01*
X54716286Y-83900500D01*
X54716287Y-83900500D01*
X54926243Y-83867246D01*
X55128412Y-83801557D01*
X55317816Y-83705051D01*
X55372572Y-83665269D01*
X55489786Y-83580109D01*
X55489788Y-83580106D01*
X55489792Y-83580104D01*
X55640104Y-83429792D01*
X55640106Y-83429788D01*
X55640109Y-83429786D01*
X55725890Y-83311717D01*
X55765051Y-83257816D01*
X55769793Y-83248508D01*
X55817763Y-83197711D01*
X55885583Y-83180911D01*
X55951719Y-83203445D01*
X55990763Y-83248500D01*
X55995373Y-83257547D01*
X56034728Y-83311716D01*
X56667037Y-82679408D01*
X56684075Y-82742993D01*
X56749901Y-82857007D01*
X56842993Y-82950099D01*
X56957007Y-83015925D01*
X57020590Y-83032962D01*
X56388282Y-83665269D01*
X56388282Y-83665270D01*
X56442449Y-83704624D01*
X56631782Y-83801095D01*
X56833870Y-83866757D01*
X57043754Y-83900000D01*
X57256246Y-83900000D01*
X57466127Y-83866757D01*
X57466130Y-83866757D01*
X57668217Y-83801095D01*
X57857554Y-83704622D01*
X57911716Y-83665270D01*
X57911717Y-83665270D01*
X57279408Y-83032962D01*
X57342993Y-83015925D01*
X57457007Y-82950099D01*
X57550099Y-82857007D01*
X57615925Y-82742993D01*
X57632962Y-82679408D01*
X58265270Y-83311717D01*
X58265270Y-83311716D01*
X58304622Y-83257555D01*
X58309232Y-83248507D01*
X58357205Y-83197709D01*
X58425025Y-83180912D01*
X58491161Y-83203447D01*
X58530204Y-83248504D01*
X58534949Y-83257817D01*
X58659890Y-83429786D01*
X58810213Y-83580109D01*
X58982179Y-83705048D01*
X58982181Y-83705049D01*
X58982184Y-83705051D01*
X59171588Y-83801557D01*
X59373757Y-83867246D01*
X59583713Y-83900500D01*
X59583714Y-83900500D01*
X59796286Y-83900500D01*
X59796287Y-83900500D01*
X60006243Y-83867246D01*
X60208412Y-83801557D01*
X60397816Y-83705051D01*
X60452572Y-83665269D01*
X60569786Y-83580109D01*
X60569788Y-83580106D01*
X60569792Y-83580104D01*
X60720104Y-83429792D01*
X60720106Y-83429788D01*
X60720109Y-83429786D01*
X60845048Y-83257820D01*
X60845049Y-83257819D01*
X60845051Y-83257816D01*
X60941557Y-83068412D01*
X61007246Y-82866243D01*
X61040500Y-82656287D01*
X61040500Y-82443713D01*
X61007246Y-82233757D01*
X60941557Y-82031588D01*
X60845051Y-81842184D01*
X60845049Y-81842181D01*
X60845048Y-81842179D01*
X60757542Y-81721736D01*
X60720109Y-81670214D01*
X60720105Y-81670209D01*
X60569786Y-81519890D01*
X60397820Y-81394951D01*
X60208414Y-81298444D01*
X60208413Y-81298443D01*
X60208412Y-81298443D01*
X60006243Y-81232754D01*
X60006241Y-81232753D01*
X60006240Y-81232753D01*
X59844957Y-81207208D01*
X59796287Y-81199500D01*
X59583713Y-81199500D01*
X59535042Y-81207208D01*
X59373760Y-81232753D01*
X59171585Y-81298444D01*
X58982179Y-81394951D01*
X58810213Y-81519890D01*
X58659890Y-81670213D01*
X58534949Y-81842182D01*
X58530202Y-81851499D01*
X58482227Y-81902293D01*
X58414405Y-81919087D01*
X58348271Y-81896548D01*
X58309234Y-81851495D01*
X58304626Y-81842452D01*
X58265270Y-81788282D01*
X58265269Y-81788282D01*
X57632962Y-82420590D01*
X57615925Y-82357007D01*
X57550099Y-82242993D01*
X57457007Y-82149901D01*
X57342993Y-82084075D01*
X57279409Y-82067037D01*
X57911716Y-81434728D01*
X57857550Y-81395375D01*
X57668217Y-81298904D01*
X57466129Y-81233242D01*
X57256246Y-81200000D01*
X57043754Y-81200000D01*
X56833872Y-81233242D01*
X56833869Y-81233242D01*
X56631782Y-81298904D01*
X56442439Y-81395380D01*
X56388282Y-81434727D01*
X56388282Y-81434728D01*
X57020591Y-82067037D01*
X56957007Y-82084075D01*
X56842993Y-82149901D01*
X56749901Y-82242993D01*
X56684075Y-82357007D01*
X56667037Y-82420591D01*
X56034728Y-81788282D01*
X56034727Y-81788282D01*
X55995380Y-81842440D01*
X55995376Y-81842446D01*
X55990760Y-81851505D01*
X55942781Y-81902297D01*
X55874959Y-81919087D01*
X55808826Y-81896543D01*
X55769794Y-81851493D01*
X55765051Y-81842184D01*
X55765049Y-81842181D01*
X55765048Y-81842179D01*
X55640109Y-81670213D01*
X55489786Y-81519890D01*
X55317820Y-81394951D01*
X55128414Y-81298444D01*
X55128413Y-81298443D01*
X55128412Y-81298443D01*
X54926243Y-81232754D01*
X54926241Y-81232753D01*
X54926240Y-81232753D01*
X54764957Y-81207208D01*
X54716287Y-81199500D01*
X54503713Y-81199500D01*
X54475006Y-81204046D01*
X54293757Y-81232753D01*
X54251473Y-81246492D01*
X54181632Y-81248486D01*
X54125476Y-81216241D01*
X53252818Y-80343583D01*
X53238114Y-80316655D01*
X53221522Y-80290837D01*
X53220630Y-80284636D01*
X53219333Y-80282260D01*
X53216499Y-80255902D01*
X53216499Y-80241784D01*
X53216500Y-75146500D01*
X53236185Y-75079461D01*
X53288989Y-75033706D01*
X53340500Y-75022500D01*
X56587863Y-75022500D01*
X56587879Y-75022501D01*
X56595475Y-75022501D01*
X56753586Y-75022501D01*
X56753589Y-75022501D01*
X56906317Y-74981577D01*
X56982149Y-74937795D01*
X56982153Y-74937793D01*
X57043241Y-74902524D01*
X57043240Y-74902524D01*
X57043248Y-74902520D01*
X57155052Y-74790716D01*
X57155052Y-74790714D01*
X57165256Y-74780511D01*
X57165260Y-74780506D01*
X57809244Y-74136521D01*
X57870565Y-74103038D01*
X57872582Y-74102617D01*
X57967503Y-74083737D01*
X58113185Y-74023394D01*
X58244295Y-73935789D01*
X58355795Y-73824289D01*
X58443400Y-73693179D01*
X58503743Y-73547497D01*
X58534506Y-73392842D01*
X58534506Y-73235158D01*
X58534506Y-73235155D01*
X58534505Y-73235153D01*
X58503744Y-73080510D01*
X58503743Y-73080503D01*
X58489333Y-73045713D01*
X58443403Y-72934827D01*
X58443396Y-72934814D01*
X58355795Y-72803711D01*
X58355792Y-72803707D01*
X58244298Y-72692213D01*
X58244294Y-72692210D01*
X58113191Y-72604609D01*
X58113178Y-72604602D01*
X57967507Y-72544264D01*
X57967495Y-72544261D01*
X57812851Y-72513500D01*
X57812848Y-72513500D01*
X57655164Y-72513500D01*
X57655161Y-72513500D01*
X57500516Y-72544261D01*
X57500504Y-72544264D01*
X57381456Y-72593575D01*
X57311986Y-72601044D01*
X57286552Y-72593575D01*
X57167504Y-72544264D01*
X57167492Y-72544261D01*
X57012848Y-72513500D01*
X57012845Y-72513500D01*
X56855161Y-72513500D01*
X56855158Y-72513500D01*
X56700513Y-72544261D01*
X56700501Y-72544264D01*
X56581453Y-72593575D01*
X56511983Y-72601044D01*
X56486549Y-72593575D01*
X56367501Y-72544264D01*
X56367489Y-72544261D01*
X56212845Y-72513500D01*
X56212842Y-72513500D01*
X56055158Y-72513500D01*
X56055155Y-72513500D01*
X55900510Y-72544261D01*
X55900498Y-72544264D01*
X55754827Y-72604602D01*
X55754814Y-72604609D01*
X55623711Y-72692210D01*
X55623707Y-72692213D01*
X55546740Y-72769181D01*
X55485417Y-72802666D01*
X55459059Y-72805500D01*
X51778500Y-72805500D01*
X51711461Y-72785815D01*
X51665706Y-72733011D01*
X51654500Y-72681500D01*
X51654500Y-72352500D01*
X51674185Y-72285461D01*
X51726989Y-72239706D01*
X51778500Y-72228500D01*
X52852234Y-72228500D01*
X52919273Y-72248185D01*
X52921125Y-72249398D01*
X53052814Y-72337390D01*
X53052827Y-72337397D01*
X53198498Y-72397735D01*
X53198503Y-72397737D01*
X53353153Y-72428499D01*
X53353156Y-72428500D01*
X53353158Y-72428500D01*
X53510844Y-72428500D01*
X53510845Y-72428499D01*
X53665497Y-72397737D01*
X53811179Y-72337394D01*
X53942289Y-72249789D01*
X54053789Y-72138289D01*
X54141394Y-72007179D01*
X54201737Y-71861497D01*
X54232500Y-71706842D01*
X54232500Y-71549158D01*
X54232500Y-71549155D01*
X54232499Y-71549153D01*
X54224680Y-71509844D01*
X54201737Y-71394503D01*
X54201735Y-71394498D01*
X54141397Y-71248827D01*
X54141390Y-71248814D01*
X54053789Y-71117711D01*
X54053786Y-71117707D01*
X53942292Y-71006213D01*
X53942288Y-71006210D01*
X53811185Y-70918609D01*
X53811172Y-70918602D01*
X53665501Y-70858264D01*
X53665489Y-70858261D01*
X53510845Y-70827500D01*
X53510842Y-70827500D01*
X53353158Y-70827500D01*
X53353155Y-70827500D01*
X53198510Y-70858261D01*
X53198498Y-70858264D01*
X53052827Y-70918602D01*
X53052814Y-70918609D01*
X52921125Y-71006602D01*
X52854447Y-71027480D01*
X52852234Y-71027500D01*
X50974943Y-71027500D01*
X50822216Y-71068423D01*
X50822209Y-71068426D01*
X50685290Y-71147475D01*
X50685282Y-71147481D01*
X50573481Y-71259282D01*
X50573475Y-71259290D01*
X50494426Y-71396209D01*
X50494423Y-71396216D01*
X50453500Y-71548943D01*
X50453500Y-78185902D01*
X50433815Y-78252941D01*
X50417181Y-78273583D01*
X47474522Y-81216241D01*
X47413199Y-81249726D01*
X47348523Y-81246491D01*
X47306245Y-81232754D01*
X47166272Y-81210584D01*
X47096287Y-81199500D01*
X46883713Y-81199500D01*
X46835042Y-81207208D01*
X46673760Y-81232753D01*
X46471585Y-81298444D01*
X46282179Y-81394951D01*
X46110213Y-81519890D01*
X45959890Y-81670213D01*
X45834949Y-81842182D01*
X45830484Y-81850946D01*
X45782509Y-81901742D01*
X45714688Y-81918536D01*
X45648553Y-81895998D01*
X45609516Y-81850946D01*
X45605050Y-81842182D01*
X45480109Y-81670213D01*
X45329786Y-81519890D01*
X45157820Y-81394951D01*
X44968414Y-81298444D01*
X44968413Y-81298443D01*
X44968412Y-81298443D01*
X44766243Y-81232754D01*
X44766241Y-81232753D01*
X44766240Y-81232753D01*
X44604957Y-81207208D01*
X44556287Y-81199500D01*
X44343713Y-81199500D01*
X44295042Y-81207208D01*
X44133760Y-81232753D01*
X43931585Y-81298444D01*
X43742179Y-81394951D01*
X43570213Y-81519890D01*
X43419890Y-81670213D01*
X43294949Y-81842182D01*
X43290484Y-81850946D01*
X43242509Y-81901742D01*
X43174688Y-81918536D01*
X43108553Y-81895998D01*
X43069516Y-81850946D01*
X43065050Y-81842182D01*
X42940109Y-81670213D01*
X42789786Y-81519890D01*
X42617820Y-81394951D01*
X42428414Y-81298444D01*
X42428413Y-81298443D01*
X42428412Y-81298443D01*
X42226243Y-81232754D01*
X42226241Y-81232753D01*
X42226240Y-81232753D01*
X42064957Y-81207208D01*
X42016287Y-81199500D01*
X41803713Y-81199500D01*
X41755042Y-81207208D01*
X41593760Y-81232753D01*
X41391585Y-81298444D01*
X41202179Y-81394951D01*
X41030215Y-81519889D01*
X40916673Y-81633431D01*
X40855350Y-81666915D01*
X40785658Y-81661931D01*
X40729725Y-81620059D01*
X40712810Y-81589082D01*
X40663797Y-81457671D01*
X40663793Y-81457664D01*
X40577547Y-81342455D01*
X40577544Y-81342452D01*
X40462335Y-81256206D01*
X40462328Y-81256202D01*
X40327482Y-81205908D01*
X40327483Y-81205908D01*
X40267883Y-81199501D01*
X40267881Y-81199500D01*
X40267873Y-81199500D01*
X40267865Y-81199500D01*
X40094500Y-81199500D01*
X40027461Y-81179815D01*
X39981706Y-81127011D01*
X39970500Y-81075500D01*
X39970500Y-80818097D01*
X39990185Y-80751058D01*
X40006819Y-80730416D01*
X53543819Y-67193416D01*
X53605142Y-67159931D01*
X53674834Y-67164915D01*
X53730767Y-67206787D01*
X53755184Y-67272251D01*
X53755500Y-67281097D01*
X53755500Y-67858330D01*
X53755499Y-67858348D01*
X53755499Y-68024054D01*
X53755498Y-68024054D01*
X53765395Y-68060990D01*
X53796423Y-68176785D01*
X53796424Y-68176786D01*
X53810449Y-68201080D01*
X53810450Y-68201081D01*
X53875475Y-68313709D01*
X53875481Y-68313717D01*
X53994349Y-68432585D01*
X53994355Y-68432590D01*
X54567635Y-69005870D01*
X54601120Y-69067193D01*
X54596136Y-69136885D01*
X54583058Y-69162439D01*
X54569110Y-69183314D01*
X54569102Y-69183328D01*
X54508764Y-69328998D01*
X54508761Y-69329010D01*
X54478000Y-69483653D01*
X54478000Y-69641346D01*
X54508761Y-69795989D01*
X54508764Y-69796001D01*
X54569102Y-69941672D01*
X54569109Y-69941685D01*
X54656710Y-70072788D01*
X54656713Y-70072792D01*
X54768207Y-70184286D01*
X54768211Y-70184289D01*
X54899314Y-70271890D01*
X54899327Y-70271897D01*
X55044998Y-70332235D01*
X55045003Y-70332237D01*
X55192127Y-70361502D01*
X55199653Y-70362999D01*
X55199656Y-70363000D01*
X55199658Y-70363000D01*
X55357344Y-70363000D01*
X55357345Y-70362999D01*
X55511997Y-70332237D01*
X55657679Y-70271894D01*
X55788789Y-70184289D01*
X55900289Y-70072789D01*
X55987894Y-69941679D01*
X56048237Y-69795997D01*
X56079000Y-69641342D01*
X56079000Y-69483658D01*
X56079000Y-69483655D01*
X56078999Y-69483653D01*
X56058299Y-69379589D01*
X56048237Y-69329003D01*
X56038905Y-69306473D01*
X55987897Y-69183327D01*
X55987890Y-69183314D01*
X55899898Y-69051625D01*
X55894247Y-69033578D01*
X55884023Y-69017669D01*
X55879571Y-68986707D01*
X55879020Y-68984947D01*
X55879000Y-68982734D01*
X55879000Y-68956559D01*
X55879001Y-68956546D01*
X55879001Y-68788445D01*
X55879001Y-68788443D01*
X55838077Y-68635715D01*
X55785529Y-68544700D01*
X55759020Y-68498784D01*
X55647216Y-68386980D01*
X55647213Y-68386978D01*
X54999572Y-67739337D01*
X54966087Y-67678014D01*
X54971071Y-67608322D01*
X55012943Y-67552389D01*
X55078407Y-67527972D01*
X55134704Y-67537094D01*
X55259949Y-67588973D01*
X55405768Y-67617978D01*
X55443579Y-67625499D01*
X55443583Y-67625500D01*
X55443584Y-67625500D01*
X55630817Y-67625500D01*
X55630818Y-67625499D01*
X55814451Y-67588973D01*
X55987431Y-67517322D01*
X56062107Y-67467424D01*
X56128784Y-67446547D01*
X56196164Y-67465031D01*
X56242855Y-67517010D01*
X56254031Y-67585980D01*
X56245560Y-67617978D01*
X56227863Y-67660703D01*
X56227861Y-67660710D01*
X56197100Y-67815353D01*
X56197100Y-67973046D01*
X56227861Y-68127689D01*
X56227864Y-68127701D01*
X56288202Y-68273372D01*
X56288209Y-68273385D01*
X56376202Y-68405074D01*
X56397080Y-68471751D01*
X56397100Y-68473965D01*
X56397100Y-69610930D01*
X56397099Y-69610948D01*
X56397099Y-69776654D01*
X56397098Y-69776654D01*
X56413163Y-69836608D01*
X56438023Y-69929385D01*
X56445121Y-69941679D01*
X56517077Y-70066312D01*
X56517081Y-70066317D01*
X56635949Y-70185185D01*
X56635955Y-70185190D01*
X62609181Y-76158416D01*
X62642666Y-76219739D01*
X62645500Y-76246097D01*
X62645500Y-77129330D01*
X62645499Y-77129348D01*
X62645499Y-77295054D01*
X62645498Y-77295054D01*
X62686423Y-77447785D01*
X62715358Y-77497900D01*
X62715359Y-77497904D01*
X62715360Y-77497904D01*
X62730532Y-77524184D01*
X62765479Y-77584714D01*
X62765481Y-77584717D01*
X62884349Y-77703585D01*
X62884354Y-77703589D01*
X65671284Y-80490520D01*
X65671286Y-80490521D01*
X65671290Y-80490524D01*
X65808209Y-80569573D01*
X65808216Y-80569577D01*
X65960943Y-80610501D01*
X65960945Y-80610501D01*
X66126654Y-80610501D01*
X66126670Y-80610500D01*
X68279903Y-80610500D01*
X68346942Y-80630185D01*
X68367584Y-80646819D01*
X68708584Y-80987819D01*
X68742069Y-81049142D01*
X68737085Y-81118834D01*
X68695213Y-81174767D01*
X68629749Y-81199184D01*
X68620903Y-81199500D01*
X68473713Y-81199500D01*
X68425042Y-81207208D01*
X68263760Y-81232753D01*
X68061585Y-81298444D01*
X67872179Y-81394951D01*
X67700215Y-81519889D01*
X67586285Y-81633819D01*
X67524962Y-81667303D01*
X67455270Y-81662319D01*
X67399337Y-81620447D01*
X67382422Y-81589470D01*
X67333354Y-81457913D01*
X67333350Y-81457906D01*
X67247190Y-81342812D01*
X67247187Y-81342809D01*
X67132093Y-81256649D01*
X67132086Y-81256645D01*
X66997379Y-81206403D01*
X66997372Y-81206401D01*
X66937844Y-81200000D01*
X66290000Y-81200000D01*
X66290000Y-82116988D01*
X66232993Y-82084075D01*
X66105826Y-82050000D01*
X65974174Y-82050000D01*
X65847007Y-82084075D01*
X65790000Y-82116988D01*
X65790000Y-81200000D01*
X65142155Y-81200000D01*
X65082627Y-81206401D01*
X65082620Y-81206403D01*
X64947913Y-81256645D01*
X64947906Y-81256649D01*
X64832812Y-81342809D01*
X64832809Y-81342812D01*
X64746649Y-81457906D01*
X64746645Y-81457913D01*
X64696403Y-81592620D01*
X64696401Y-81592627D01*
X64690000Y-81652155D01*
X64690000Y-82300000D01*
X65606988Y-82300000D01*
X65574075Y-82357007D01*
X65540000Y-82484174D01*
X65540000Y-82615826D01*
X65574075Y-82742993D01*
X65606988Y-82800000D01*
X64690000Y-82800000D01*
X64690000Y-83447844D01*
X64696401Y-83507372D01*
X64696403Y-83507379D01*
X64746645Y-83642086D01*
X64746649Y-83642093D01*
X64832809Y-83757187D01*
X64832812Y-83757190D01*
X64947906Y-83843350D01*
X64947913Y-83843354D01*
X65082620Y-83893596D01*
X65082627Y-83893598D01*
X65142155Y-83899999D01*
X65142172Y-83900000D01*
X65790000Y-83900000D01*
X65790000Y-82983012D01*
X65847007Y-83015925D01*
X65974174Y-83050000D01*
X66105826Y-83050000D01*
X66232993Y-83015925D01*
X66290000Y-82983012D01*
X66290000Y-83900000D01*
X66937828Y-83900000D01*
X66937844Y-83899999D01*
X66997372Y-83893598D01*
X66997379Y-83893596D01*
X67132086Y-83843354D01*
X67132093Y-83843350D01*
X67247187Y-83757190D01*
X67247190Y-83757187D01*
X67333350Y-83642093D01*
X67333354Y-83642086D01*
X67382422Y-83510529D01*
X67424293Y-83454595D01*
X67489757Y-83430178D01*
X67558030Y-83445030D01*
X67586285Y-83466181D01*
X67700213Y-83580109D01*
X67872181Y-83705050D01*
X67886792Y-83712494D01*
X67937589Y-83760467D01*
X67954500Y-83822980D01*
X67954500Y-84204000D01*
X67934815Y-84271039D01*
X67882011Y-84316794D01*
X67830500Y-84328000D01*
X37649032Y-84328000D01*
X37581993Y-84308315D01*
X37554884Y-84284698D01*
X34817766Y-81091393D01*
X34789083Y-81027682D01*
X34787914Y-81010694D01*
X34790327Y-61586135D01*
X35479500Y-61586135D01*
X35479500Y-63381870D01*
X35479501Y-63381876D01*
X35485908Y-63441483D01*
X35536202Y-63576328D01*
X35536206Y-63576335D01*
X35622452Y-63691544D01*
X35622455Y-63691547D01*
X35737664Y-63777793D01*
X35737671Y-63777797D01*
X35782618Y-63794561D01*
X35872517Y-63828091D01*
X35932127Y-63834500D01*
X35942685Y-63834499D01*
X36009723Y-63854179D01*
X36030372Y-63870818D01*
X36700591Y-64541037D01*
X36637007Y-64558075D01*
X36522993Y-64623901D01*
X36429901Y-64716993D01*
X36364075Y-64831007D01*
X36347037Y-64894591D01*
X35714728Y-64262282D01*
X35714727Y-64262282D01*
X35675380Y-64316439D01*
X35578904Y-64505782D01*
X35513242Y-64707869D01*
X35513242Y-64707872D01*
X35480000Y-64917753D01*
X35480000Y-65130246D01*
X35513242Y-65340127D01*
X35513242Y-65340130D01*
X35578904Y-65542217D01*
X35675375Y-65731550D01*
X35714728Y-65785716D01*
X36347037Y-65153408D01*
X36364075Y-65216993D01*
X36429901Y-65331007D01*
X36522993Y-65424099D01*
X36637007Y-65489925D01*
X36700590Y-65506962D01*
X36068282Y-66139269D01*
X36068282Y-66139270D01*
X36122449Y-66178624D01*
X36311782Y-66275095D01*
X36513870Y-66340757D01*
X36723754Y-66374000D01*
X36936246Y-66374000D01*
X37146127Y-66340757D01*
X37146130Y-66340757D01*
X37348217Y-66275095D01*
X37537554Y-66178622D01*
X37591716Y-66139270D01*
X37591717Y-66139270D01*
X36959408Y-65506962D01*
X37022993Y-65489925D01*
X37137007Y-65424099D01*
X37230099Y-65331007D01*
X37295925Y-65216993D01*
X37312962Y-65153408D01*
X37945270Y-65785717D01*
X37945270Y-65785716D01*
X37984622Y-65731554D01*
X38081095Y-65542217D01*
X38146757Y-65340130D01*
X38146757Y-65340127D01*
X38180000Y-65130246D01*
X38180000Y-64917753D01*
X38146757Y-64707872D01*
X38146757Y-64707869D01*
X38081095Y-64505782D01*
X37984624Y-64316449D01*
X37945270Y-64262282D01*
X37945269Y-64262282D01*
X37312962Y-64894590D01*
X37295925Y-64831007D01*
X37230099Y-64716993D01*
X37137007Y-64623901D01*
X37022993Y-64558075D01*
X36959409Y-64541037D01*
X37629627Y-63870818D01*
X37690950Y-63837333D01*
X37717307Y-63834499D01*
X37727872Y-63834499D01*
X37787483Y-63828091D01*
X37922331Y-63777796D01*
X38037546Y-63691546D01*
X38123796Y-63576331D01*
X38174091Y-63441483D01*
X38180500Y-63381873D01*
X38180499Y-62404943D01*
X44611499Y-62404943D01*
X44611499Y-62563057D01*
X44611500Y-62563060D01*
X44611500Y-67992943D01*
X44611500Y-68151057D01*
X44652276Y-68303233D01*
X44652423Y-68303783D01*
X44652426Y-68303790D01*
X44731475Y-68440709D01*
X44731479Y-68440714D01*
X44731480Y-68440716D01*
X44843284Y-68552520D01*
X44843286Y-68552521D01*
X44843290Y-68552524D01*
X44980209Y-68631573D01*
X44980216Y-68631577D01*
X45132943Y-68672500D01*
X46953059Y-68672500D01*
X47020098Y-68692185D01*
X47065853Y-68744989D01*
X47072153Y-68764499D01*
X47072493Y-68764397D01*
X47074263Y-68770233D01*
X47134602Y-68915907D01*
X47134609Y-68915920D01*
X47222210Y-69047023D01*
X47222213Y-69047027D01*
X47333707Y-69158521D01*
X47333711Y-69158524D01*
X47464814Y-69246125D01*
X47464827Y-69246132D01*
X47610498Y-69306470D01*
X47610503Y-69306472D01*
X47765153Y-69337234D01*
X47765156Y-69337235D01*
X47765158Y-69337235D01*
X47922844Y-69337235D01*
X47922845Y-69337234D01*
X48077497Y-69306472D01*
X48223179Y-69246129D01*
X48354289Y-69158524D01*
X48465789Y-69047024D01*
X48553394Y-68915914D01*
X48613737Y-68770232D01*
X48644500Y-68615577D01*
X48644500Y-68457893D01*
X48644500Y-68457890D01*
X48644499Y-68457888D01*
X48638061Y-68425521D01*
X48613737Y-68303238D01*
X48600489Y-68271254D01*
X48553397Y-68157562D01*
X48553390Y-68157549D01*
X48465789Y-68026446D01*
X48465786Y-68026442D01*
X48354292Y-67914948D01*
X48354288Y-67914945D01*
X48223185Y-67827344D01*
X48223172Y-67827337D01*
X48077501Y-67766999D01*
X48077491Y-67766996D01*
X47922151Y-67736097D01*
X47860241Y-67703712D01*
X47858662Y-67702161D01*
X47747982Y-67591481D01*
X47747977Y-67591477D01*
X47633672Y-67525484D01*
X47611050Y-67512423D01*
X47458322Y-67471499D01*
X47300208Y-67471499D01*
X47292612Y-67471499D01*
X47292596Y-67471500D01*
X45936500Y-67471500D01*
X45869461Y-67451815D01*
X45823706Y-67399011D01*
X45812500Y-67347500D01*
X45812500Y-62784097D01*
X45821144Y-62754656D01*
X45827668Y-62724670D01*
X45831422Y-62719654D01*
X45832185Y-62717058D01*
X45848819Y-62696416D01*
X45932416Y-62612819D01*
X45993739Y-62579334D01*
X46020097Y-62576500D01*
X47006137Y-62576500D01*
X47073176Y-62596185D01*
X47118931Y-62648989D01*
X47120675Y-62652993D01*
X47153705Y-62732735D01*
X47159372Y-62746416D01*
X47159374Y-62746420D01*
X47246975Y-62877523D01*
X47246978Y-62877527D01*
X47358472Y-62989021D01*
X47358476Y-62989024D01*
X47489579Y-63076625D01*
X47489592Y-63076632D01*
X47635263Y-63136970D01*
X47635268Y-63136972D01*
X47722467Y-63154317D01*
X47789918Y-63167734D01*
X47789921Y-63167735D01*
X47789923Y-63167735D01*
X47947609Y-63167735D01*
X47947610Y-63167734D01*
X48102262Y-63136972D01*
X48247944Y-63076629D01*
X48379054Y-62989024D01*
X48490554Y-62877524D01*
X48578159Y-62746414D01*
X48584849Y-62730264D01*
X48627408Y-62627516D01*
X48638502Y-62600732D01*
X48669265Y-62446077D01*
X48669265Y-62288393D01*
X48669265Y-62288390D01*
X48669264Y-62288388D01*
X48653231Y-62207784D01*
X48638502Y-62133738D01*
X48638500Y-62133733D01*
X48578162Y-61988062D01*
X48578155Y-61988049D01*
X48490554Y-61856946D01*
X48490551Y-61856942D01*
X48461263Y-61827654D01*
X48438974Y-61797267D01*
X48432688Y-61785203D01*
X48428342Y-61768980D01*
X48387630Y-61698465D01*
X48349285Y-61632049D01*
X48237481Y-61520245D01*
X48212716Y-61495480D01*
X48113349Y-61438111D01*
X48113348Y-61438110D01*
X48075783Y-61416422D01*
X48019881Y-61401443D01*
X47923057Y-61375499D01*
X47764943Y-61375499D01*
X47757347Y-61375499D01*
X47757331Y-61375500D01*
X45640940Y-61375500D01*
X45600019Y-61386464D01*
X45600019Y-61386465D01*
X45562751Y-61396451D01*
X45488214Y-61416423D01*
X45488209Y-61416426D01*
X45351290Y-61495475D01*
X45351282Y-61495481D01*
X44845308Y-62001455D01*
X44845297Y-62001466D01*
X44843286Y-62003478D01*
X44843284Y-62003480D01*
X44731480Y-62115284D01*
X44720826Y-62133738D01*
X44652423Y-62252215D01*
X44611499Y-62404943D01*
X38180499Y-62404943D01*
X38180499Y-61586128D01*
X38175299Y-61537757D01*
X38174091Y-61526516D01*
X38123797Y-61391671D01*
X38123793Y-61391664D01*
X38037547Y-61276455D01*
X38037544Y-61276452D01*
X37922335Y-61190206D01*
X37922328Y-61190202D01*
X37787482Y-61139908D01*
X37787483Y-61139908D01*
X37727883Y-61133501D01*
X37727881Y-61133500D01*
X37727873Y-61133500D01*
X37727864Y-61133500D01*
X35932129Y-61133500D01*
X35932123Y-61133501D01*
X35872516Y-61139908D01*
X35737671Y-61190202D01*
X35737664Y-61190206D01*
X35622455Y-61276452D01*
X35622452Y-61276455D01*
X35536206Y-61391664D01*
X35536202Y-61391671D01*
X35485908Y-61526517D01*
X35479684Y-61584413D01*
X35479501Y-61586123D01*
X35479500Y-61586135D01*
X34790327Y-61586135D01*
X34790490Y-60271038D01*
X34790495Y-60263909D01*
X34790500Y-60263892D01*
X34790500Y-60256776D01*
X34800734Y-60222010D01*
X34810185Y-60189823D01*
X34810223Y-60189775D01*
X34810231Y-60189750D01*
X34810273Y-60189713D01*
X34826819Y-60169181D01*
X37555681Y-57440319D01*
X37617004Y-57406834D01*
X37643362Y-57404000D01*
X40726047Y-57404000D01*
X40793086Y-57423685D01*
G37*
%TD.AperFunction*%
%TA.AperFunction,Conductor*%
G36*
X77749706Y-57423685D02*
G01*
X77757062Y-57428796D01*
X79648908Y-58847681D01*
X81738400Y-60414800D01*
X81780221Y-60470771D01*
X81788000Y-60514000D01*
X81788000Y-73746048D01*
X81768315Y-73813087D01*
X81715511Y-73858842D01*
X81646353Y-73868786D01*
X81582797Y-73839761D01*
X81576319Y-73833729D01*
X81352428Y-73609838D01*
X81318943Y-73548515D01*
X81322177Y-73483841D01*
X81327246Y-73468243D01*
X81360500Y-73258287D01*
X81360500Y-73045713D01*
X81327246Y-72835757D01*
X81261557Y-72633588D01*
X81165051Y-72444184D01*
X81165049Y-72444181D01*
X81165048Y-72444179D01*
X81040109Y-72272213D01*
X80926181Y-72158285D01*
X80892696Y-72096962D01*
X80897680Y-72027270D01*
X80939552Y-71971337D01*
X80970529Y-71954422D01*
X81102086Y-71905354D01*
X81102093Y-71905350D01*
X81217187Y-71819190D01*
X81217190Y-71819187D01*
X81303350Y-71704093D01*
X81303354Y-71704086D01*
X81353596Y-71569379D01*
X81353598Y-71569372D01*
X81359999Y-71509844D01*
X81360000Y-71509827D01*
X81360000Y-70862000D01*
X80443012Y-70862000D01*
X80475925Y-70804993D01*
X80510000Y-70677826D01*
X80510000Y-70546174D01*
X80475925Y-70419007D01*
X80443012Y-70362000D01*
X81360000Y-70362000D01*
X81360000Y-69714172D01*
X81359999Y-69714155D01*
X81353598Y-69654627D01*
X81353596Y-69654620D01*
X81303354Y-69519913D01*
X81303350Y-69519906D01*
X81217190Y-69404812D01*
X81217187Y-69404809D01*
X81102093Y-69318649D01*
X81102086Y-69318645D01*
X80967379Y-69268403D01*
X80967372Y-69268401D01*
X80907844Y-69262000D01*
X80260000Y-69262000D01*
X80260000Y-70178988D01*
X80202993Y-70146075D01*
X80075826Y-70112000D01*
X79944174Y-70112000D01*
X79817007Y-70146075D01*
X79760000Y-70178988D01*
X79760000Y-69262000D01*
X79112155Y-69262000D01*
X79052627Y-69268401D01*
X79052620Y-69268403D01*
X78917913Y-69318645D01*
X78917906Y-69318649D01*
X78802812Y-69404809D01*
X78802809Y-69404812D01*
X78716649Y-69519906D01*
X78716645Y-69519913D01*
X78666403Y-69654620D01*
X78666401Y-69654627D01*
X78660000Y-69714155D01*
X78660000Y-70362000D01*
X79576988Y-70362000D01*
X79544075Y-70419007D01*
X79510000Y-70546174D01*
X79510000Y-70677826D01*
X79544075Y-70804993D01*
X79576988Y-70862000D01*
X78660000Y-70862000D01*
X78660000Y-71509844D01*
X78666401Y-71569372D01*
X78666403Y-71569379D01*
X78716645Y-71704086D01*
X78716649Y-71704093D01*
X78802809Y-71819187D01*
X78802812Y-71819190D01*
X78917906Y-71905350D01*
X78917913Y-71905354D01*
X79049470Y-71954422D01*
X79105404Y-71996293D01*
X79129821Y-72061758D01*
X79114969Y-72130031D01*
X79093819Y-72158285D01*
X78979889Y-72272215D01*
X78854950Y-72444180D01*
X78847503Y-72458797D01*
X78799527Y-72509592D01*
X78737019Y-72526500D01*
X76764452Y-72526500D01*
X76697413Y-72506815D01*
X76676771Y-72490181D01*
X74023198Y-69836608D01*
X74018860Y-69832270D01*
X74018858Y-69832267D01*
X73985121Y-69798530D01*
X73985119Y-69798527D01*
X73192133Y-69005541D01*
X73158648Y-68944218D01*
X73155814Y-68917860D01*
X73155814Y-68809697D01*
X73155813Y-68809693D01*
X73119287Y-68626063D01*
X73055369Y-68471751D01*
X73047637Y-68453085D01*
X73047632Y-68453076D01*
X72943616Y-68297406D01*
X72943613Y-68297402D01*
X72811225Y-68165014D01*
X72811221Y-68165011D01*
X72655551Y-68060995D01*
X72655542Y-68060990D01*
X72482565Y-67989341D01*
X72482557Y-67989339D01*
X72298934Y-67952814D01*
X72298930Y-67952814D01*
X72111698Y-67952814D01*
X72111693Y-67952814D01*
X71928070Y-67989339D01*
X71928062Y-67989341D01*
X71755085Y-68060990D01*
X71755076Y-68060995D01*
X71599406Y-68165011D01*
X71599402Y-68165014D01*
X71467014Y-68297402D01*
X71467009Y-68297409D01*
X71435448Y-68344642D01*
X71381835Y-68389447D01*
X71312510Y-68398153D01*
X71249483Y-68367997D01*
X71244666Y-68363431D01*
X70591590Y-67710355D01*
X70591588Y-67710352D01*
X70472717Y-67591481D01*
X70472712Y-67591477D01*
X70358407Y-67525484D01*
X70335785Y-67512423D01*
X70183057Y-67471499D01*
X70024943Y-67471499D01*
X70017347Y-67471499D01*
X70017331Y-67471500D01*
X68143766Y-67471500D01*
X68076727Y-67451815D01*
X68074875Y-67450602D01*
X67943185Y-67362609D01*
X67943172Y-67362602D01*
X67797501Y-67302264D01*
X67797489Y-67302261D01*
X67642845Y-67271500D01*
X67642842Y-67271500D01*
X67485158Y-67271500D01*
X67485155Y-67271500D01*
X67330510Y-67302261D01*
X67330498Y-67302264D01*
X67184827Y-67362602D01*
X67184814Y-67362609D01*
X67053711Y-67450210D01*
X67053707Y-67450213D01*
X66942213Y-67561707D01*
X66942210Y-67561711D01*
X66854609Y-67692814D01*
X66854602Y-67692827D01*
X66794264Y-67838498D01*
X66794261Y-67838510D01*
X66763500Y-67993153D01*
X66763500Y-68150846D01*
X66794261Y-68305489D01*
X66794264Y-68305501D01*
X66854602Y-68451172D01*
X66854609Y-68451185D01*
X66942210Y-68582288D01*
X66942213Y-68582292D01*
X67053707Y-68693786D01*
X67053711Y-68693789D01*
X67184814Y-68781390D01*
X67184827Y-68781397D01*
X67253153Y-68809698D01*
X67330503Y-68841737D01*
X67485153Y-68872499D01*
X67485156Y-68872500D01*
X67485158Y-68872500D01*
X67642844Y-68872500D01*
X67642845Y-68872499D01*
X67797497Y-68841737D01*
X67943179Y-68781394D01*
X68018141Y-68731306D01*
X68074875Y-68693398D01*
X68141553Y-68672520D01*
X68143766Y-68672500D01*
X69803903Y-68672500D01*
X69870942Y-68692185D01*
X69891584Y-68708819D01*
X72232043Y-71049278D01*
X72265528Y-71110601D01*
X72260544Y-71180293D01*
X72218672Y-71236226D01*
X72213254Y-71240060D01*
X72133713Y-71293208D01*
X72133707Y-71293213D01*
X72022213Y-71404707D01*
X72022210Y-71404711D01*
X71934609Y-71535814D01*
X71934602Y-71535827D01*
X71874264Y-71681498D01*
X71874261Y-71681510D01*
X71843500Y-71836153D01*
X71843500Y-71993846D01*
X71874261Y-72148489D01*
X71874264Y-72148501D01*
X71934602Y-72294172D01*
X71934609Y-72294185D01*
X72022210Y-72425288D01*
X72022213Y-72425292D01*
X72133707Y-72536786D01*
X72133711Y-72536789D01*
X72264814Y-72624390D01*
X72264827Y-72624397D01*
X72402688Y-72681500D01*
X72410503Y-72684737D01*
X72565153Y-72715499D01*
X72565156Y-72715500D01*
X72565158Y-72715500D01*
X72576903Y-72715500D01*
X72643942Y-72735185D01*
X72664584Y-72751819D01*
X73841425Y-73928660D01*
X73874910Y-73989983D01*
X73875361Y-73992149D01*
X73906261Y-74147491D01*
X73906264Y-74147501D01*
X73966602Y-74293172D01*
X73966609Y-74293185D01*
X74054210Y-74424288D01*
X74054213Y-74424292D01*
X74165707Y-74535786D01*
X74165711Y-74535789D01*
X74296814Y-74623390D01*
X74296827Y-74623397D01*
X74442498Y-74683735D01*
X74442503Y-74683737D01*
X74597153Y-74714499D01*
X74597156Y-74714500D01*
X74597158Y-74714500D01*
X74754844Y-74714500D01*
X74754845Y-74714499D01*
X74909497Y-74683737D01*
X75055179Y-74623394D01*
X75186289Y-74535789D01*
X75297789Y-74424289D01*
X75312264Y-74402624D01*
X75337720Y-74364529D01*
X75391332Y-74319723D01*
X75460657Y-74311016D01*
X75523684Y-74341170D01*
X75528503Y-74345738D01*
X75873425Y-74690660D01*
X75906910Y-74751983D01*
X75907361Y-74754149D01*
X75938261Y-74909491D01*
X75938264Y-74909501D01*
X75998602Y-75055172D01*
X75998609Y-75055185D01*
X76086210Y-75186288D01*
X76086213Y-75186292D01*
X76197707Y-75297786D01*
X76197711Y-75297789D01*
X76328814Y-75385390D01*
X76328827Y-75385397D01*
X76474498Y-75445735D01*
X76474503Y-75445737D01*
X76629153Y-75476499D01*
X76629156Y-75476500D01*
X76629158Y-75476500D01*
X76786844Y-75476500D01*
X76786845Y-75476499D01*
X76941497Y-75445737D01*
X77087179Y-75385394D01*
X77218289Y-75297789D01*
X77329789Y-75186289D01*
X77417394Y-75055179D01*
X77419705Y-75049601D01*
X77447881Y-74981577D01*
X77477737Y-74909497D01*
X77508500Y-74754842D01*
X77508500Y-74597158D01*
X77508500Y-74597155D01*
X77508499Y-74597153D01*
X77477737Y-74442503D01*
X77470191Y-74424284D01*
X77417397Y-74296827D01*
X77417390Y-74296814D01*
X77329789Y-74165711D01*
X77329786Y-74165707D01*
X77218292Y-74054213D01*
X77218288Y-74054210D01*
X77144045Y-74004602D01*
X77099240Y-73950990D01*
X77090533Y-73881665D01*
X77120688Y-73818637D01*
X77180131Y-73781918D01*
X77212936Y-73777500D01*
X78737019Y-73777500D01*
X78804058Y-73797185D01*
X78847503Y-73845203D01*
X78854950Y-73859819D01*
X78979890Y-74031786D01*
X79130213Y-74182109D01*
X79302182Y-74307050D01*
X79310946Y-74311516D01*
X79361742Y-74359491D01*
X79378536Y-74427312D01*
X79355998Y-74493447D01*
X79310946Y-74532484D01*
X79302182Y-74536949D01*
X79130213Y-74661890D01*
X78979890Y-74812213D01*
X78854951Y-74984179D01*
X78758444Y-75173585D01*
X78692753Y-75375760D01*
X78673492Y-75497372D01*
X78659500Y-75585713D01*
X78659500Y-75798287D01*
X78692754Y-76008243D01*
X78753349Y-76194735D01*
X78758444Y-76210414D01*
X78854951Y-76399820D01*
X78979890Y-76571786D01*
X79130213Y-76722109D01*
X79302182Y-76847050D01*
X79310946Y-76851516D01*
X79361742Y-76899491D01*
X79378536Y-76967312D01*
X79355998Y-77033447D01*
X79310946Y-77072484D01*
X79302182Y-77076949D01*
X79130213Y-77201890D01*
X78979890Y-77352213D01*
X78854951Y-77524179D01*
X78758444Y-77713585D01*
X78692753Y-77915760D01*
X78659500Y-78125713D01*
X78659500Y-78338286D01*
X78692753Y-78548239D01*
X78758444Y-78750414D01*
X78854951Y-78939820D01*
X78979890Y-79111786D01*
X79130213Y-79262109D01*
X79302179Y-79387048D01*
X79302181Y-79387049D01*
X79302184Y-79387051D01*
X79491588Y-79483557D01*
X79693757Y-79549246D01*
X79903713Y-79582500D01*
X79903714Y-79582500D01*
X80116286Y-79582500D01*
X80116287Y-79582500D01*
X80326243Y-79549246D01*
X80528412Y-79483557D01*
X80717816Y-79387051D01*
X80804180Y-79324304D01*
X80869985Y-79300825D01*
X80938039Y-79316650D01*
X80986734Y-79366756D01*
X81001064Y-79424863D01*
X80997937Y-81038168D01*
X80978122Y-81105170D01*
X80925230Y-81150822D01*
X80873937Y-81161928D01*
X79694961Y-81161928D01*
X79644107Y-81172043D01*
X79644102Y-81172044D01*
X79634543Y-81173946D01*
X79574120Y-81185965D01*
X79526969Y-81205495D01*
X79460287Y-81233116D01*
X79460286Y-81233117D01*
X79437919Y-81248061D01*
X79437916Y-81248063D01*
X79357840Y-81301568D01*
X79316957Y-81342452D01*
X79270714Y-81388695D01*
X77238144Y-83421264D01*
X77238138Y-83421272D01*
X77203915Y-83472488D01*
X77203914Y-83472492D01*
X77182762Y-83504147D01*
X77129149Y-83548951D01*
X77079661Y-83559254D01*
X74839408Y-83559254D01*
X74772369Y-83539569D01*
X74726614Y-83486765D01*
X74716670Y-83417607D01*
X74739090Y-83362369D01*
X74793892Y-83286939D01*
X74815051Y-83257816D01*
X74911557Y-83068412D01*
X74977246Y-82866243D01*
X75010500Y-82656287D01*
X75010500Y-82443713D01*
X74977246Y-82233757D01*
X74911557Y-82031588D01*
X74815051Y-81842184D01*
X74815049Y-81842181D01*
X74815048Y-81842179D01*
X74690109Y-81670213D01*
X74539786Y-81519890D01*
X74367820Y-81394951D01*
X74178414Y-81298444D01*
X74178413Y-81298443D01*
X74178412Y-81298443D01*
X73976243Y-81232754D01*
X73976241Y-81232753D01*
X73976240Y-81232753D01*
X73814957Y-81207208D01*
X73766287Y-81199500D01*
X73553713Y-81199500D01*
X73525006Y-81204046D01*
X73343757Y-81232753D01*
X73301473Y-81246492D01*
X73231632Y-81248486D01*
X73175476Y-81216241D01*
X71099590Y-79140355D01*
X71099588Y-79140352D01*
X70980717Y-79021481D01*
X70980709Y-79021475D01*
X70885523Y-78966520D01*
X70885521Y-78966519D01*
X70843790Y-78942425D01*
X70843789Y-78942424D01*
X70831263Y-78939067D01*
X70691057Y-78901499D01*
X70532943Y-78901499D01*
X70525347Y-78901499D01*
X70525331Y-78901500D01*
X66594098Y-78901500D01*
X66527059Y-78881815D01*
X66506417Y-78865181D01*
X65848338Y-78207102D01*
X65814853Y-78145779D01*
X65819837Y-78076087D01*
X65848339Y-78031739D01*
X65899786Y-77980292D01*
X65899789Y-77980289D01*
X65987394Y-77849179D01*
X66047737Y-77703497D01*
X66078500Y-77548842D01*
X66078500Y-77391158D01*
X66078500Y-77391155D01*
X66078499Y-77391153D01*
X66070752Y-77352208D01*
X66047737Y-77236503D01*
X66047735Y-77236498D01*
X65987397Y-77090827D01*
X65987390Y-77090814D01*
X65899789Y-76959711D01*
X65899786Y-76959707D01*
X65788292Y-76848213D01*
X65788288Y-76848210D01*
X65657185Y-76760609D01*
X65657172Y-76760602D01*
X65511501Y-76700264D01*
X65511489Y-76700261D01*
X65356845Y-76669500D01*
X65356842Y-76669500D01*
X65199158Y-76669500D01*
X65199155Y-76669500D01*
X65158715Y-76677544D01*
X65089124Y-76671317D01*
X65046843Y-76643608D01*
X64682819Y-76279584D01*
X64649334Y-76218261D01*
X64646500Y-76191903D01*
X64646500Y-75507374D01*
X64646501Y-75507361D01*
X64646501Y-75339260D01*
X64646501Y-75339258D01*
X64605577Y-75186530D01*
X64557628Y-75103480D01*
X64526520Y-75049599D01*
X64414716Y-74937795D01*
X64414715Y-74937794D01*
X64410385Y-74933464D01*
X64410374Y-74933454D01*
X60809419Y-71332499D01*
X60775934Y-71271176D01*
X60773100Y-71244818D01*
X60773100Y-69685058D01*
X60773100Y-69675060D01*
X60773101Y-69675058D01*
X60773101Y-69619199D01*
X60792787Y-69552160D01*
X60845591Y-69506406D01*
X60845592Y-69506405D01*
X60849649Y-69504640D01*
X60861663Y-69499664D01*
X60909117Y-69480008D01*
X61064794Y-69375988D01*
X61197188Y-69243594D01*
X61301208Y-69087917D01*
X61372859Y-68914937D01*
X61409386Y-68731302D01*
X61409386Y-68544070D01*
X61372859Y-68360435D01*
X61301208Y-68187455D01*
X61301207Y-68187454D01*
X61301204Y-68187448D01*
X61197188Y-68031778D01*
X61197185Y-68031774D01*
X61120705Y-67955294D01*
X61087220Y-67893971D01*
X61084386Y-67867613D01*
X61084386Y-67763279D01*
X61084385Y-67763275D01*
X61079624Y-67739337D01*
X61060349Y-67642434D01*
X61013197Y-67528600D01*
X61013196Y-67528599D01*
X61013193Y-67528593D01*
X60944745Y-67426154D01*
X60902502Y-67383911D01*
X60857619Y-67339028D01*
X60857618Y-67339027D01*
X60370770Y-66852180D01*
X60360158Y-66832744D01*
X60345658Y-66816011D01*
X60343741Y-66802679D01*
X60337286Y-66790858D01*
X60338865Y-66768771D01*
X60335714Y-66746853D01*
X60341309Y-66734601D01*
X60342270Y-66721167D01*
X60355539Y-66703440D01*
X60364739Y-66683297D01*
X60376069Y-66676015D01*
X60384141Y-66665233D01*
X60404888Y-66657494D01*
X60423517Y-66645523D01*
X60445435Y-66642371D01*
X60449606Y-66640816D01*
X60458452Y-66640500D01*
X60697596Y-66640500D01*
X60697612Y-66640501D01*
X60705208Y-66640501D01*
X60863319Y-66640501D01*
X60863322Y-66640501D01*
X61016050Y-66599577D01*
X61081571Y-66561748D01*
X61152981Y-66520520D01*
X61264785Y-66408716D01*
X61264785Y-66408714D01*
X61274989Y-66398511D01*
X61274993Y-66398506D01*
X62588506Y-65084993D01*
X62588511Y-65084989D01*
X62598714Y-65074785D01*
X62598716Y-65074785D01*
X62710520Y-64962981D01*
X62784946Y-64834071D01*
X62784947Y-64834070D01*
X62786825Y-64830815D01*
X62789577Y-64826050D01*
X62830501Y-64673322D01*
X62830501Y-64515208D01*
X62830501Y-64507613D01*
X62830500Y-64507595D01*
X62830500Y-64079765D01*
X62835827Y-64061621D01*
X62836165Y-64042712D01*
X62849665Y-64014494D01*
X62850185Y-64012726D01*
X62851398Y-64010874D01*
X62854851Y-64005707D01*
X62901398Y-63936044D01*
X62955010Y-63891239D01*
X63024335Y-63882532D01*
X63087363Y-63912687D01*
X63124082Y-63972130D01*
X63128500Y-64004935D01*
X63128500Y-65945830D01*
X63128500Y-66069044D01*
X63128500Y-66069046D01*
X63128499Y-66069046D01*
X63137950Y-66116556D01*
X63137953Y-66116568D01*
X63138773Y-66120689D01*
X63152537Y-66189889D01*
X63164658Y-66219151D01*
X63169926Y-66231869D01*
X63199688Y-66303724D01*
X63210912Y-66320520D01*
X63210913Y-66320522D01*
X63268140Y-66406168D01*
X63268141Y-66406169D01*
X63268142Y-66406170D01*
X63355267Y-66493295D01*
X63355268Y-66493295D01*
X63362335Y-66500362D01*
X63362334Y-66500362D01*
X63362338Y-66500365D01*
X63600181Y-66738208D01*
X63633666Y-66799531D01*
X63636500Y-66825889D01*
X63636500Y-67987727D01*
X63616815Y-68054766D01*
X63600181Y-68075408D01*
X63523700Y-68151888D01*
X63523697Y-68151892D01*
X63419681Y-68307562D01*
X63419676Y-68307571D01*
X63348027Y-68480548D01*
X63348025Y-68480556D01*
X63311500Y-68664179D01*
X63311500Y-68851420D01*
X63348025Y-69035043D01*
X63348027Y-69035051D01*
X63419676Y-69208028D01*
X63419681Y-69208037D01*
X63523697Y-69363707D01*
X63523700Y-69363711D01*
X63656088Y-69496099D01*
X63656092Y-69496102D01*
X63811762Y-69600118D01*
X63811768Y-69600121D01*
X63811769Y-69600122D01*
X63984749Y-69671773D01*
X64168379Y-69708299D01*
X64168383Y-69708300D01*
X64168384Y-69708300D01*
X64355617Y-69708300D01*
X64355618Y-69708299D01*
X64539251Y-69671773D01*
X64712231Y-69600122D01*
X64738609Y-69582496D01*
X64805285Y-69561619D01*
X64872666Y-69580103D01*
X64919356Y-69632081D01*
X64931500Y-69685599D01*
X64931500Y-70311903D01*
X64911815Y-70378942D01*
X64895181Y-70399584D01*
X64501339Y-70793425D01*
X64440016Y-70826910D01*
X64437850Y-70827361D01*
X64282508Y-70858261D01*
X64282498Y-70858264D01*
X64136827Y-70918602D01*
X64136814Y-70918609D01*
X64005711Y-71006210D01*
X64005707Y-71006213D01*
X63894213Y-71117707D01*
X63894210Y-71117711D01*
X63806609Y-71248814D01*
X63806602Y-71248827D01*
X63746264Y-71394498D01*
X63746261Y-71394510D01*
X63715500Y-71549153D01*
X63715500Y-71706846D01*
X63746261Y-71861489D01*
X63746264Y-71861501D01*
X63806602Y-72007172D01*
X63806609Y-72007185D01*
X63894210Y-72138288D01*
X63894213Y-72138292D01*
X64005707Y-72249786D01*
X64005711Y-72249789D01*
X64136814Y-72337390D01*
X64136827Y-72337397D01*
X64282498Y-72397735D01*
X64282503Y-72397737D01*
X64437153Y-72428499D01*
X64437156Y-72428500D01*
X64437158Y-72428500D01*
X64594844Y-72428500D01*
X64594845Y-72428499D01*
X64749497Y-72397737D01*
X64895179Y-72337394D01*
X65026289Y-72249789D01*
X65137789Y-72138289D01*
X65225394Y-72007179D01*
X65285737Y-71861497D01*
X65305113Y-71764085D01*
X65316638Y-71706150D01*
X65349023Y-71644239D01*
X65350521Y-71642713D01*
X65890506Y-71102727D01*
X65890511Y-71102724D01*
X65900714Y-71092520D01*
X65900716Y-71092520D01*
X66012520Y-70980716D01*
X66084235Y-70856501D01*
X66091577Y-70843785D01*
X66132501Y-70691057D01*
X66132501Y-70532943D01*
X66132501Y-70525348D01*
X66132500Y-70525330D01*
X66132500Y-67864097D01*
X66152185Y-67797058D01*
X66168819Y-67776416D01*
X71802417Y-62142819D01*
X71863740Y-62109334D01*
X71890098Y-62106500D01*
X75995501Y-62106500D01*
X76062540Y-62126185D01*
X76108295Y-62178989D01*
X76119501Y-62230500D01*
X76119501Y-62365876D01*
X76125908Y-62425483D01*
X76176202Y-62560328D01*
X76176206Y-62560335D01*
X76262452Y-62675544D01*
X76262455Y-62675547D01*
X76377664Y-62761793D01*
X76377671Y-62761797D01*
X76509082Y-62810810D01*
X76565016Y-62852681D01*
X76589433Y-62918145D01*
X76574582Y-62986418D01*
X76553431Y-63014673D01*
X76439889Y-63128215D01*
X76314951Y-63300179D01*
X76218444Y-63489585D01*
X76152753Y-63691760D01*
X76129697Y-63837333D01*
X76119500Y-63901713D01*
X76119500Y-64114287D01*
X76134563Y-64209390D01*
X76152754Y-64324244D01*
X76152754Y-64324247D01*
X76166491Y-64366523D01*
X76168486Y-64436364D01*
X76136241Y-64492522D01*
X75196286Y-65432478D01*
X75084481Y-65544282D01*
X75084479Y-65544285D01*
X75034361Y-65631094D01*
X75034359Y-65631096D01*
X75005425Y-65681209D01*
X75005424Y-65681210D01*
X75000644Y-65699051D01*
X74964499Y-65833943D01*
X74964499Y-65833945D01*
X74964499Y-66002046D01*
X74964500Y-66002059D01*
X74964500Y-66374902D01*
X74955854Y-66404344D01*
X74949330Y-66434333D01*
X74945576Y-66439346D01*
X74944815Y-66441941D01*
X74928182Y-66462581D01*
X74915334Y-66475430D01*
X74854009Y-66508912D01*
X74851848Y-66509362D01*
X74696508Y-66540261D01*
X74696498Y-66540264D01*
X74550827Y-66600602D01*
X74550814Y-66600609D01*
X74419711Y-66688210D01*
X74419707Y-66688213D01*
X74308213Y-66799707D01*
X74308210Y-66799711D01*
X74220609Y-66930814D01*
X74220602Y-66930827D01*
X74160264Y-67076498D01*
X74160261Y-67076510D01*
X74129500Y-67231153D01*
X74129500Y-67388846D01*
X74160261Y-67543489D01*
X74160264Y-67543501D01*
X74220602Y-67689172D01*
X74220609Y-67689185D01*
X74308210Y-67820288D01*
X74308213Y-67820292D01*
X74419707Y-67931786D01*
X74419711Y-67931789D01*
X74550814Y-68019390D01*
X74550827Y-68019397D01*
X74636217Y-68054766D01*
X74696503Y-68079737D01*
X74851153Y-68110499D01*
X74851156Y-68110500D01*
X74851158Y-68110500D01*
X75008844Y-68110500D01*
X75008845Y-68110499D01*
X75163497Y-68079737D01*
X75292154Y-68026446D01*
X75309172Y-68019397D01*
X75309172Y-68019396D01*
X75309179Y-68019394D01*
X75440289Y-67931789D01*
X75551789Y-67820289D01*
X75639394Y-67689179D01*
X75699737Y-67543497D01*
X75725635Y-67413302D01*
X75730638Y-67388150D01*
X75763023Y-67326239D01*
X75764512Y-67324722D01*
X76031732Y-67057503D01*
X76093053Y-67024020D01*
X76162745Y-67029004D01*
X76218678Y-67070876D01*
X76229896Y-67088891D01*
X76266093Y-67159931D01*
X76310207Y-67246510D01*
X76314951Y-67255819D01*
X76439890Y-67427786D01*
X76590213Y-67578109D01*
X76762179Y-67703048D01*
X76762181Y-67703049D01*
X76762184Y-67703051D01*
X76951588Y-67799557D01*
X77153757Y-67865246D01*
X77363713Y-67898500D01*
X77363714Y-67898500D01*
X77576286Y-67898500D01*
X77576287Y-67898500D01*
X77786243Y-67865246D01*
X77988412Y-67799557D01*
X78177816Y-67703051D01*
X78236094Y-67660710D01*
X78349786Y-67578109D01*
X78349788Y-67578106D01*
X78349792Y-67578104D01*
X78500104Y-67427792D01*
X78500106Y-67427788D01*
X78500109Y-67427786D01*
X78575033Y-67324660D01*
X78625051Y-67255816D01*
X78629793Y-67246508D01*
X78677763Y-67195711D01*
X78745583Y-67178911D01*
X78811719Y-67201445D01*
X78850763Y-67246500D01*
X78855373Y-67255547D01*
X78894728Y-67309716D01*
X79527037Y-66677408D01*
X79544075Y-66740993D01*
X79609901Y-66855007D01*
X79702993Y-66948099D01*
X79817007Y-67013925D01*
X79880590Y-67030962D01*
X79248282Y-67663269D01*
X79248282Y-67663270D01*
X79302449Y-67702624D01*
X79491782Y-67799095D01*
X79693870Y-67864757D01*
X79903754Y-67898000D01*
X80116246Y-67898000D01*
X80326127Y-67864757D01*
X80326130Y-67864757D01*
X80528217Y-67799095D01*
X80717554Y-67702622D01*
X80771716Y-67663270D01*
X80771717Y-67663270D01*
X80139408Y-67030962D01*
X80202993Y-67013925D01*
X80317007Y-66948099D01*
X80410099Y-66855007D01*
X80475925Y-66740993D01*
X80492962Y-66677408D01*
X81125270Y-67309717D01*
X81125270Y-67309716D01*
X81164622Y-67255554D01*
X81261095Y-67066217D01*
X81326757Y-66864130D01*
X81326757Y-66864127D01*
X81360000Y-66654246D01*
X81360000Y-66441753D01*
X81326757Y-66231872D01*
X81326757Y-66231869D01*
X81261095Y-66029782D01*
X81164624Y-65840449D01*
X81125270Y-65786282D01*
X81125269Y-65786282D01*
X80492962Y-66418590D01*
X80475925Y-66355007D01*
X80410099Y-66240993D01*
X80317007Y-66147901D01*
X80202993Y-66082075D01*
X80139409Y-66065037D01*
X80771716Y-65432728D01*
X80717547Y-65393373D01*
X80717547Y-65393372D01*
X80708500Y-65388763D01*
X80657706Y-65340788D01*
X80640912Y-65272966D01*
X80663451Y-65206832D01*
X80708508Y-65167793D01*
X80717816Y-65163051D01*
X80825260Y-65084989D01*
X80889786Y-65038109D01*
X80889788Y-65038106D01*
X80889792Y-65038104D01*
X81040104Y-64887792D01*
X81040106Y-64887788D01*
X81040109Y-64887786D01*
X81165048Y-64715820D01*
X81165047Y-64715820D01*
X81165051Y-64715816D01*
X81261557Y-64526412D01*
X81327246Y-64324243D01*
X81360500Y-64114287D01*
X81360500Y-63901713D01*
X81327246Y-63691757D01*
X81261557Y-63489588D01*
X81165051Y-63300184D01*
X81165049Y-63300181D01*
X81165048Y-63300179D01*
X81040109Y-63128213D01*
X80889786Y-62977890D01*
X80717820Y-62852951D01*
X80717115Y-62852591D01*
X80709054Y-62848485D01*
X80658259Y-62800512D01*
X80641463Y-62732692D01*
X80663999Y-62666556D01*
X80709054Y-62627515D01*
X80717816Y-62623051D01*
X80777988Y-62579334D01*
X80889786Y-62498109D01*
X80889788Y-62498106D01*
X80889792Y-62498104D01*
X81040104Y-62347792D01*
X81040106Y-62347788D01*
X81040109Y-62347786D01*
X81165048Y-62175820D01*
X81165047Y-62175820D01*
X81165051Y-62175816D01*
X81261557Y-61986412D01*
X81327246Y-61784243D01*
X81360500Y-61574287D01*
X81360500Y-61361713D01*
X81327246Y-61151757D01*
X81261557Y-60949588D01*
X81165051Y-60760184D01*
X81165049Y-60760181D01*
X81165048Y-60760179D01*
X81040109Y-60588213D01*
X80889786Y-60437890D01*
X80717820Y-60312951D01*
X80528414Y-60216444D01*
X80528413Y-60216443D01*
X80528412Y-60216443D01*
X80326243Y-60150754D01*
X80326241Y-60150753D01*
X80326240Y-60150753D01*
X80164957Y-60125208D01*
X80116287Y-60117500D01*
X79903713Y-60117500D01*
X79855042Y-60125208D01*
X79693760Y-60150753D01*
X79601966Y-60180579D01*
X79493786Y-60215729D01*
X79491585Y-60216444D01*
X79302179Y-60312951D01*
X79130215Y-60437889D01*
X79016673Y-60551431D01*
X78955350Y-60584915D01*
X78885658Y-60579931D01*
X78829725Y-60538059D01*
X78812810Y-60507082D01*
X78763797Y-60375671D01*
X78763793Y-60375664D01*
X78677547Y-60260455D01*
X78677544Y-60260452D01*
X78562335Y-60174206D01*
X78562328Y-60174202D01*
X78427482Y-60123908D01*
X78427483Y-60123908D01*
X78367883Y-60117501D01*
X78367881Y-60117500D01*
X78367873Y-60117500D01*
X78367864Y-60117500D01*
X76572129Y-60117500D01*
X76572123Y-60117501D01*
X76512516Y-60123908D01*
X76377671Y-60174202D01*
X76377664Y-60174206D01*
X76262455Y-60260452D01*
X76262452Y-60260455D01*
X76176206Y-60375664D01*
X76176202Y-60375671D01*
X76125908Y-60510517D01*
X76119501Y-60570116D01*
X76119500Y-60570135D01*
X76119500Y-60781500D01*
X76099815Y-60848539D01*
X76047011Y-60894294D01*
X75995500Y-60905500D01*
X71676670Y-60905500D01*
X71676654Y-60905499D01*
X71669058Y-60905499D01*
X71510943Y-60905499D01*
X71434579Y-60925961D01*
X71358214Y-60946423D01*
X71358209Y-60946426D01*
X71221290Y-61025475D01*
X71221282Y-61025481D01*
X68816901Y-63429862D01*
X68755578Y-63463347D01*
X68685886Y-63458363D01*
X68629953Y-63416491D01*
X68607603Y-63366373D01*
X68587738Y-63266508D01*
X68587737Y-63266507D01*
X68587737Y-63266503D01*
X68553727Y-63184394D01*
X68527397Y-63120827D01*
X68527390Y-63120814D01*
X68439789Y-62989711D01*
X68439786Y-62989707D01*
X68328292Y-62878213D01*
X68328288Y-62878210D01*
X68197185Y-62790609D01*
X68197172Y-62790602D01*
X68051501Y-62730264D01*
X68051489Y-62730261D01*
X67896845Y-62699500D01*
X67896842Y-62699500D01*
X67739158Y-62699500D01*
X67739155Y-62699500D01*
X67584510Y-62730261D01*
X67584498Y-62730264D01*
X67438827Y-62790602D01*
X67438814Y-62790609D01*
X67307125Y-62878602D01*
X67240447Y-62899480D01*
X67238234Y-62899500D01*
X65774139Y-62899500D01*
X65707100Y-62879815D01*
X65705248Y-62878602D01*
X65623688Y-62824105D01*
X65623676Y-62824098D01*
X65478005Y-62763760D01*
X65477993Y-62763757D01*
X65323349Y-62732996D01*
X65323346Y-62732996D01*
X65165662Y-62732996D01*
X65165659Y-62732996D01*
X65011014Y-62763757D01*
X65011002Y-62763760D01*
X64865331Y-62824098D01*
X64865318Y-62824105D01*
X64734215Y-62911706D01*
X64734211Y-62911709D01*
X64622717Y-63023203D01*
X64622714Y-63023207D01*
X64606602Y-63047321D01*
X64552989Y-63092126D01*
X64483664Y-63100833D01*
X64420637Y-63070678D01*
X64383918Y-63011235D01*
X64379500Y-62978430D01*
X64379500Y-61651452D01*
X64399185Y-61584413D01*
X64415819Y-61563771D01*
X65627772Y-60351819D01*
X65689095Y-60318334D01*
X65715453Y-60315500D01*
X69079928Y-60315500D01*
X69146967Y-60335185D01*
X69167604Y-60351814D01*
X69217805Y-60402015D01*
X69244092Y-60428302D01*
X69399762Y-60532318D01*
X69399768Y-60532321D01*
X69399769Y-60532322D01*
X69572749Y-60603973D01*
X69756379Y-60640499D01*
X69756383Y-60640500D01*
X69756384Y-60640500D01*
X69943617Y-60640500D01*
X69943618Y-60640499D01*
X70127251Y-60603973D01*
X70300231Y-60532322D01*
X70455908Y-60428302D01*
X70588302Y-60295908D01*
X70692322Y-60140231D01*
X70763973Y-59967251D01*
X70800500Y-59783616D01*
X70800500Y-59596384D01*
X70763973Y-59412749D01*
X70692322Y-59239769D01*
X70692321Y-59239768D01*
X70692318Y-59239762D01*
X70588302Y-59084092D01*
X70588299Y-59084088D01*
X70455911Y-58951700D01*
X70455907Y-58951697D01*
X70300237Y-58847681D01*
X70300227Y-58847676D01*
X70127333Y-58776061D01*
X70072930Y-58732220D01*
X70050865Y-58665926D01*
X70068144Y-58598226D01*
X70119282Y-58550616D01*
X70174786Y-58537500D01*
X75254548Y-58537500D01*
X75283988Y-58546144D01*
X75313975Y-58552668D01*
X75318990Y-58556422D01*
X75321587Y-58557185D01*
X75342229Y-58573819D01*
X75365581Y-58597171D01*
X75399066Y-58658494D01*
X75401900Y-58684852D01*
X75401900Y-58793020D01*
X75438425Y-58976643D01*
X75438427Y-58976651D01*
X75510076Y-59149628D01*
X75510081Y-59149637D01*
X75614097Y-59305307D01*
X75614100Y-59305311D01*
X75746488Y-59437699D01*
X75746492Y-59437702D01*
X75902162Y-59541718D01*
X75902168Y-59541721D01*
X75902169Y-59541722D01*
X76075149Y-59613373D01*
X76258779Y-59649899D01*
X76258783Y-59649900D01*
X76258784Y-59649900D01*
X76446017Y-59649900D01*
X76446018Y-59649899D01*
X76629651Y-59613373D01*
X76802631Y-59541722D01*
X76958308Y-59437702D01*
X77090702Y-59305308D01*
X77194722Y-59149631D01*
X77266373Y-58976651D01*
X77302900Y-58793016D01*
X77302900Y-58605784D01*
X77266373Y-58422149D01*
X77210954Y-58288356D01*
X77194723Y-58249171D01*
X77194718Y-58249162D01*
X77090702Y-58093492D01*
X77090699Y-58093488D01*
X76958311Y-57961100D01*
X76958307Y-57961097D01*
X76802637Y-57857081D01*
X76802628Y-57857076D01*
X76629651Y-57785427D01*
X76629643Y-57785425D01*
X76446020Y-57748900D01*
X76446016Y-57748900D01*
X76337852Y-57748900D01*
X76308411Y-57740255D01*
X76278425Y-57733732D01*
X76273409Y-57729977D01*
X76270813Y-57729215D01*
X76250171Y-57712581D01*
X76153271Y-57615681D01*
X76119786Y-57554358D01*
X76124770Y-57484666D01*
X76166642Y-57428733D01*
X76232106Y-57404316D01*
X76240952Y-57404000D01*
X77682667Y-57404000D01*
X77749706Y-57423685D01*
G37*
%TD.AperFunction*%
%TA.AperFunction,Conductor*%
G36*
X64520008Y-63965986D02*
G01*
X64521147Y-63965823D01*
X64551957Y-63979893D01*
X64583018Y-63993414D01*
X64584029Y-63994540D01*
X64584703Y-63994848D01*
X64606601Y-64019668D01*
X64612783Y-64028920D01*
X64622716Y-64043787D01*
X64734211Y-64155282D01*
X64734215Y-64155285D01*
X64865318Y-64242886D01*
X64865331Y-64242893D01*
X64960972Y-64282508D01*
X65011007Y-64303233D01*
X65116611Y-64324239D01*
X65165657Y-64333995D01*
X65165660Y-64333996D01*
X65165662Y-64333996D01*
X65323348Y-64333996D01*
X65323349Y-64333995D01*
X65478001Y-64303233D01*
X65623683Y-64242890D01*
X65754793Y-64155285D01*
X65761868Y-64148210D01*
X65773260Y-64136819D01*
X65834583Y-64103334D01*
X65860941Y-64100500D01*
X67238234Y-64100500D01*
X67305273Y-64120185D01*
X67307125Y-64121398D01*
X67438814Y-64209390D01*
X67438827Y-64209397D01*
X67519695Y-64242893D01*
X67584503Y-64269737D01*
X67584507Y-64269737D01*
X67584508Y-64269738D01*
X67684373Y-64289603D01*
X67746284Y-64321988D01*
X67780858Y-64382704D01*
X67777118Y-64452473D01*
X67747862Y-64498901D01*
X65163286Y-67083478D01*
X65099181Y-67147583D01*
X65037858Y-67181068D01*
X64968166Y-67176084D01*
X64912233Y-67134212D01*
X64887816Y-67068748D01*
X64887500Y-67059902D01*
X64887500Y-66453834D01*
X64887500Y-66453831D01*
X64886633Y-66449475D01*
X64886634Y-66449459D01*
X64886631Y-66449460D01*
X64863464Y-66332992D01*
X64863463Y-66332985D01*
X64816311Y-66219151D01*
X64796260Y-66189143D01*
X64747858Y-66116704D01*
X64660733Y-66029579D01*
X64660732Y-66029578D01*
X64415819Y-65784665D01*
X64382334Y-65723342D01*
X64379500Y-65696984D01*
X64379500Y-64088561D01*
X64389039Y-64056074D01*
X64398005Y-64023393D01*
X64398861Y-64022623D01*
X64399185Y-64021522D01*
X64424752Y-63999367D01*
X64449985Y-63976703D01*
X64451121Y-63976518D01*
X64451989Y-63975767D01*
X64485502Y-63970948D01*
X64518955Y-63965528D01*
X64520008Y-63965986D01*
G37*
%TD.AperFunction*%
%TA.AperFunction,Conductor*%
G36*
X78811444Y-64661999D02*
G01*
X78850484Y-64707054D01*
X78854591Y-64715115D01*
X78854951Y-64715820D01*
X78979890Y-64887786D01*
X79130213Y-65038109D01*
X79302179Y-65163048D01*
X79302181Y-65163049D01*
X79302184Y-65163051D01*
X79311493Y-65167794D01*
X79362290Y-65215766D01*
X79379087Y-65283587D01*
X79356552Y-65349722D01*
X79311505Y-65388760D01*
X79302446Y-65393376D01*
X79302440Y-65393380D01*
X79248282Y-65432727D01*
X79248282Y-65432728D01*
X79880591Y-66065037D01*
X79817007Y-66082075D01*
X79702993Y-66147901D01*
X79609901Y-66240993D01*
X79544075Y-66355007D01*
X79527037Y-66418591D01*
X78894728Y-65786282D01*
X78894727Y-65786282D01*
X78855380Y-65840440D01*
X78855376Y-65840446D01*
X78850760Y-65849505D01*
X78802781Y-65900297D01*
X78734959Y-65917087D01*
X78668826Y-65894543D01*
X78629794Y-65849493D01*
X78625051Y-65840184D01*
X78625049Y-65840181D01*
X78625048Y-65840179D01*
X78500109Y-65668213D01*
X78349786Y-65517890D01*
X78177820Y-65392951D01*
X78169600Y-65388763D01*
X78169054Y-65388485D01*
X78118259Y-65340512D01*
X78101463Y-65272692D01*
X78123999Y-65206556D01*
X78169054Y-65167515D01*
X78177816Y-65163051D01*
X78222969Y-65130246D01*
X78349786Y-65038109D01*
X78349788Y-65038106D01*
X78349792Y-65038104D01*
X78500104Y-64887792D01*
X78500106Y-64887788D01*
X78500109Y-64887786D01*
X78625048Y-64715820D01*
X78625047Y-64715820D01*
X78625051Y-64715816D01*
X78629514Y-64707054D01*
X78677488Y-64656259D01*
X78745308Y-64639463D01*
X78811444Y-64661999D01*
G37*
%TD.AperFunction*%
%TA.AperFunction,Conductor*%
G36*
X69592253Y-58557185D02*
G01*
X69638008Y-58609989D01*
X69647952Y-58679147D01*
X69618927Y-58742703D01*
X69572667Y-58776061D01*
X69399772Y-58847676D01*
X69399762Y-58847681D01*
X69244093Y-58951696D01*
X69221114Y-58974676D01*
X69167607Y-59028182D01*
X69106287Y-59061666D01*
X69079928Y-59064500D01*
X65472741Y-59064500D01*
X65472721Y-59064499D01*
X65466607Y-59064499D01*
X65343394Y-59064499D01*
X65343392Y-59064499D01*
X65252597Y-59082559D01*
X65252589Y-59082561D01*
X65244895Y-59084092D01*
X65222548Y-59088537D01*
X65175397Y-59108067D01*
X65171399Y-59109722D01*
X65171390Y-59109726D01*
X65108719Y-59135685D01*
X65108717Y-59135686D01*
X65006266Y-59204141D01*
X65006263Y-59204144D01*
X63767910Y-60442499D01*
X63355269Y-60855140D01*
X63355267Y-60855142D01*
X63329843Y-60880566D01*
X63268142Y-60942266D01*
X63265365Y-60946423D01*
X63237931Y-60987481D01*
X63199690Y-61044710D01*
X63199687Y-61044716D01*
X63177084Y-61099283D01*
X63177085Y-61099284D01*
X63152536Y-61158549D01*
X63152535Y-61158555D01*
X63128500Y-61279389D01*
X63128500Y-61436548D01*
X63108815Y-61503587D01*
X63056011Y-61549342D01*
X62986853Y-61559286D01*
X62923297Y-61530261D01*
X62916819Y-61524229D01*
X62258361Y-60865771D01*
X62224876Y-60804448D01*
X62229860Y-60734756D01*
X62231953Y-60730126D01*
X62231791Y-60730059D01*
X62255455Y-60672929D01*
X62305773Y-60551451D01*
X62342300Y-60367816D01*
X62342300Y-60180584D01*
X62305773Y-59996949D01*
X62234122Y-59823969D01*
X62234121Y-59823968D01*
X62234118Y-59823962D01*
X62130102Y-59668292D01*
X62130099Y-59668288D01*
X61997711Y-59535900D01*
X61997707Y-59535897D01*
X61842037Y-59431881D01*
X61842028Y-59431876D01*
X61669051Y-59360227D01*
X61669043Y-59360225D01*
X61485420Y-59323700D01*
X61485416Y-59323700D01*
X61298184Y-59323700D01*
X61298179Y-59323700D01*
X61114556Y-59360225D01*
X61114548Y-59360227D01*
X60935941Y-59434209D01*
X60934908Y-59431715D01*
X60877879Y-59443551D01*
X60812652Y-59418508D01*
X60800228Y-59407638D01*
X60141771Y-58749181D01*
X60108286Y-58687858D01*
X60113270Y-58618166D01*
X60155142Y-58562233D01*
X60220606Y-58537816D01*
X60229452Y-58537500D01*
X69525214Y-58537500D01*
X69592253Y-58557185D01*
G37*
%TD.AperFunction*%
%TD*%
M02*
