%TF.GenerationSoftware,KiCad,Pcbnew,10.0.3*%
%TF.CreationDate,2026-09-21T13:20:34+03:00*%
%TF.ProjectId,MCU Datalogger,4d435520-4461-4746-916c-6f676765722e,1*%
%TF.SameCoordinates,Original*%
%TF.FileFunction,Legend,Top*%
%TF.FilePolarity,Positive*%
%FSLAX46Y46*%
G04 Gerber Fmt 4.6, Leading zero omitted, Abs format (unit mm)*
G04 Created by KiCad (PCBNEW 10.0.3) date 2026-09-21 13:20:34*
%MOMM*%
%LPD*%
G01*
G04 APERTURE LIST*
%ADD10C,0.100000*%
%ADD11C,0.080000*%
%ADD12C,0.120000*%
%ADD13C,0.127000*%
%ADD14C,0.200000*%
G04 APERTURE END LIST*
D10*
X38516742Y-65415468D02*
X38488171Y-65472611D01*
X38488171Y-65472611D02*
X38488171Y-65558325D01*
X38488171Y-65558325D02*
X38516742Y-65644039D01*
X38516742Y-65644039D02*
X38573885Y-65701182D01*
X38573885Y-65701182D02*
X38631028Y-65729753D01*
X38631028Y-65729753D02*
X38745314Y-65758325D01*
X38745314Y-65758325D02*
X38831028Y-65758325D01*
X38831028Y-65758325D02*
X38945314Y-65729753D01*
X38945314Y-65729753D02*
X39002457Y-65701182D01*
X39002457Y-65701182D02*
X39059600Y-65644039D01*
X39059600Y-65644039D02*
X39088171Y-65558325D01*
X39088171Y-65558325D02*
X39088171Y-65501182D01*
X39088171Y-65501182D02*
X39059600Y-65415468D01*
X39059600Y-65415468D02*
X39031028Y-65386896D01*
X39031028Y-65386896D02*
X38831028Y-65386896D01*
X38831028Y-65386896D02*
X38831028Y-65501182D01*
X39088171Y-65129753D02*
X38488171Y-65129753D01*
X38488171Y-65129753D02*
X39088171Y-64786896D01*
X39088171Y-64786896D02*
X38488171Y-64786896D01*
X39088171Y-64501182D02*
X38488171Y-64501182D01*
X38488171Y-64501182D02*
X38488171Y-64358325D01*
X38488171Y-64358325D02*
X38516742Y-64272611D01*
X38516742Y-64272611D02*
X38573885Y-64215468D01*
X38573885Y-64215468D02*
X38631028Y-64186897D01*
X38631028Y-64186897D02*
X38745314Y-64158325D01*
X38745314Y-64158325D02*
X38831028Y-64158325D01*
X38831028Y-64158325D02*
X38945314Y-64186897D01*
X38945314Y-64186897D02*
X39002457Y-64215468D01*
X39002457Y-64215468D02*
X39059600Y-64272611D01*
X39059600Y-64272611D02*
X39088171Y-64358325D01*
X39088171Y-64358325D02*
X39088171Y-64501182D01*
X38386571Y-63250068D02*
X38986571Y-63050068D01*
X38986571Y-63050068D02*
X38386571Y-62850068D01*
X38929428Y-62307210D02*
X38958000Y-62335782D01*
X38958000Y-62335782D02*
X38986571Y-62421496D01*
X38986571Y-62421496D02*
X38986571Y-62478639D01*
X38986571Y-62478639D02*
X38958000Y-62564353D01*
X38958000Y-62564353D02*
X38900857Y-62621496D01*
X38900857Y-62621496D02*
X38843714Y-62650067D01*
X38843714Y-62650067D02*
X38729428Y-62678639D01*
X38729428Y-62678639D02*
X38643714Y-62678639D01*
X38643714Y-62678639D02*
X38529428Y-62650067D01*
X38529428Y-62650067D02*
X38472285Y-62621496D01*
X38472285Y-62621496D02*
X38415142Y-62564353D01*
X38415142Y-62564353D02*
X38386571Y-62478639D01*
X38386571Y-62478639D02*
X38386571Y-62421496D01*
X38386571Y-62421496D02*
X38415142Y-62335782D01*
X38415142Y-62335782D02*
X38443714Y-62307210D01*
X38929428Y-61707210D02*
X38958000Y-61735782D01*
X38958000Y-61735782D02*
X38986571Y-61821496D01*
X38986571Y-61821496D02*
X38986571Y-61878639D01*
X38986571Y-61878639D02*
X38958000Y-61964353D01*
X38958000Y-61964353D02*
X38900857Y-62021496D01*
X38900857Y-62021496D02*
X38843714Y-62050067D01*
X38843714Y-62050067D02*
X38729428Y-62078639D01*
X38729428Y-62078639D02*
X38643714Y-62078639D01*
X38643714Y-62078639D02*
X38529428Y-62050067D01*
X38529428Y-62050067D02*
X38472285Y-62021496D01*
X38472285Y-62021496D02*
X38415142Y-61964353D01*
X38415142Y-61964353D02*
X38386571Y-61878639D01*
X38386571Y-61878639D02*
X38386571Y-61821496D01*
X38386571Y-61821496D02*
X38415142Y-61735782D01*
X38415142Y-61735782D02*
X38443714Y-61707210D01*
X70680186Y-68732400D02*
X75895200Y-68732400D01*
X75895200Y-72301360D01*
X70680186Y-72301360D01*
X70680186Y-68732400D01*
D11*
X72510686Y-69554133D02*
X72510686Y-69054133D01*
X73034495Y-69506514D02*
X73010686Y-69530324D01*
X73010686Y-69530324D02*
X72939257Y-69554133D01*
X72939257Y-69554133D02*
X72891638Y-69554133D01*
X72891638Y-69554133D02*
X72820210Y-69530324D01*
X72820210Y-69530324D02*
X72772591Y-69482704D01*
X72772591Y-69482704D02*
X72748781Y-69435085D01*
X72748781Y-69435085D02*
X72724972Y-69339847D01*
X72724972Y-69339847D02*
X72724972Y-69268419D01*
X72724972Y-69268419D02*
X72748781Y-69173181D01*
X72748781Y-69173181D02*
X72772591Y-69125562D01*
X72772591Y-69125562D02*
X72820210Y-69077943D01*
X72820210Y-69077943D02*
X72891638Y-69054133D01*
X72891638Y-69054133D02*
X72939257Y-69054133D01*
X72939257Y-69054133D02*
X73010686Y-69077943D01*
X73010686Y-69077943D02*
X73034495Y-69101752D01*
X73224972Y-69530324D02*
X73296400Y-69554133D01*
X73296400Y-69554133D02*
X73415448Y-69554133D01*
X73415448Y-69554133D02*
X73463067Y-69530324D01*
X73463067Y-69530324D02*
X73486876Y-69506514D01*
X73486876Y-69506514D02*
X73510686Y-69458895D01*
X73510686Y-69458895D02*
X73510686Y-69411276D01*
X73510686Y-69411276D02*
X73486876Y-69363657D01*
X73486876Y-69363657D02*
X73463067Y-69339847D01*
X73463067Y-69339847D02*
X73415448Y-69316038D01*
X73415448Y-69316038D02*
X73320210Y-69292228D01*
X73320210Y-69292228D02*
X73272591Y-69268419D01*
X73272591Y-69268419D02*
X73248781Y-69244609D01*
X73248781Y-69244609D02*
X73224972Y-69196990D01*
X73224972Y-69196990D02*
X73224972Y-69149371D01*
X73224972Y-69149371D02*
X73248781Y-69101752D01*
X73248781Y-69101752D02*
X73272591Y-69077943D01*
X73272591Y-69077943D02*
X73320210Y-69054133D01*
X73320210Y-69054133D02*
X73439257Y-69054133D01*
X73439257Y-69054133D02*
X73510686Y-69077943D01*
X73724971Y-69554133D02*
X73724971Y-69054133D01*
X73724971Y-69054133D02*
X73915447Y-69054133D01*
X73915447Y-69054133D02*
X73963066Y-69077943D01*
X73963066Y-69077943D02*
X73986876Y-69101752D01*
X73986876Y-69101752D02*
X74010685Y-69149371D01*
X74010685Y-69149371D02*
X74010685Y-69220800D01*
X74010685Y-69220800D02*
X73986876Y-69268419D01*
X73986876Y-69268419D02*
X73963066Y-69292228D01*
X73963066Y-69292228D02*
X73915447Y-69316038D01*
X73915447Y-69316038D02*
X73724971Y-69316038D01*
X70986878Y-70359105D02*
X70986878Y-69859105D01*
X70986878Y-69859105D02*
X71153545Y-70216248D01*
X71153545Y-70216248D02*
X71320211Y-69859105D01*
X71320211Y-69859105D02*
X71320211Y-70359105D01*
X71558307Y-70359105D02*
X71558307Y-69859105D01*
X71772593Y-70335296D02*
X71844021Y-70359105D01*
X71844021Y-70359105D02*
X71963069Y-70359105D01*
X71963069Y-70359105D02*
X72010688Y-70335296D01*
X72010688Y-70335296D02*
X72034497Y-70311486D01*
X72034497Y-70311486D02*
X72058307Y-70263867D01*
X72058307Y-70263867D02*
X72058307Y-70216248D01*
X72058307Y-70216248D02*
X72034497Y-70168629D01*
X72034497Y-70168629D02*
X72010688Y-70144819D01*
X72010688Y-70144819D02*
X71963069Y-70121010D01*
X71963069Y-70121010D02*
X71867831Y-70097200D01*
X71867831Y-70097200D02*
X71820212Y-70073391D01*
X71820212Y-70073391D02*
X71796402Y-70049581D01*
X71796402Y-70049581D02*
X71772593Y-70001962D01*
X71772593Y-70001962D02*
X71772593Y-69954343D01*
X71772593Y-69954343D02*
X71796402Y-69906724D01*
X71796402Y-69906724D02*
X71820212Y-69882915D01*
X71820212Y-69882915D02*
X71867831Y-69859105D01*
X71867831Y-69859105D02*
X71986878Y-69859105D01*
X71986878Y-69859105D02*
X72058307Y-69882915D01*
X72367830Y-69859105D02*
X72463068Y-69859105D01*
X72463068Y-69859105D02*
X72510687Y-69882915D01*
X72510687Y-69882915D02*
X72558306Y-69930534D01*
X72558306Y-69930534D02*
X72582116Y-70025772D01*
X72582116Y-70025772D02*
X72582116Y-70192438D01*
X72582116Y-70192438D02*
X72558306Y-70287676D01*
X72558306Y-70287676D02*
X72510687Y-70335296D01*
X72510687Y-70335296D02*
X72463068Y-70359105D01*
X72463068Y-70359105D02*
X72367830Y-70359105D01*
X72367830Y-70359105D02*
X72320211Y-70335296D01*
X72320211Y-70335296D02*
X72272592Y-70287676D01*
X72272592Y-70287676D02*
X72248783Y-70192438D01*
X72248783Y-70192438D02*
X72248783Y-70025772D01*
X72248783Y-70025772D02*
X72272592Y-69930534D01*
X72272592Y-69930534D02*
X72320211Y-69882915D01*
X72320211Y-69882915D02*
X72367830Y-69859105D01*
X73296402Y-70525772D02*
X73296402Y-69811486D01*
X73963068Y-69859105D02*
X74129734Y-70359105D01*
X74129734Y-70359105D02*
X74296401Y-69859105D01*
X74748781Y-70311486D02*
X74724972Y-70335296D01*
X74724972Y-70335296D02*
X74653543Y-70359105D01*
X74653543Y-70359105D02*
X74605924Y-70359105D01*
X74605924Y-70359105D02*
X74534496Y-70335296D01*
X74534496Y-70335296D02*
X74486877Y-70287676D01*
X74486877Y-70287676D02*
X74463067Y-70240057D01*
X74463067Y-70240057D02*
X74439258Y-70144819D01*
X74439258Y-70144819D02*
X74439258Y-70073391D01*
X74439258Y-70073391D02*
X74463067Y-69978153D01*
X74463067Y-69978153D02*
X74486877Y-69930534D01*
X74486877Y-69930534D02*
X74534496Y-69882915D01*
X74534496Y-69882915D02*
X74605924Y-69859105D01*
X74605924Y-69859105D02*
X74653543Y-69859105D01*
X74653543Y-69859105D02*
X74724972Y-69882915D01*
X74724972Y-69882915D02*
X74748781Y-69906724D01*
X75248781Y-70311486D02*
X75224972Y-70335296D01*
X75224972Y-70335296D02*
X75153543Y-70359105D01*
X75153543Y-70359105D02*
X75105924Y-70359105D01*
X75105924Y-70359105D02*
X75034496Y-70335296D01*
X75034496Y-70335296D02*
X74986877Y-70287676D01*
X74986877Y-70287676D02*
X74963067Y-70240057D01*
X74963067Y-70240057D02*
X74939258Y-70144819D01*
X74939258Y-70144819D02*
X74939258Y-70073391D01*
X74939258Y-70073391D02*
X74963067Y-69978153D01*
X74963067Y-69978153D02*
X74986877Y-69930534D01*
X74986877Y-69930534D02*
X75034496Y-69882915D01*
X75034496Y-69882915D02*
X75105924Y-69859105D01*
X75105924Y-69859105D02*
X75153543Y-69859105D01*
X75153543Y-69859105D02*
X75224972Y-69882915D01*
X75224972Y-69882915D02*
X75248781Y-69906724D01*
X70963069Y-71140268D02*
X71034497Y-71164077D01*
X71034497Y-71164077D02*
X71153545Y-71164077D01*
X71153545Y-71164077D02*
X71201164Y-71140268D01*
X71201164Y-71140268D02*
X71224973Y-71116458D01*
X71224973Y-71116458D02*
X71248783Y-71068839D01*
X71248783Y-71068839D02*
X71248783Y-71021220D01*
X71248783Y-71021220D02*
X71224973Y-70973601D01*
X71224973Y-70973601D02*
X71201164Y-70949791D01*
X71201164Y-70949791D02*
X71153545Y-70925982D01*
X71153545Y-70925982D02*
X71058307Y-70902172D01*
X71058307Y-70902172D02*
X71010688Y-70878363D01*
X71010688Y-70878363D02*
X70986878Y-70854553D01*
X70986878Y-70854553D02*
X70963069Y-70806934D01*
X70963069Y-70806934D02*
X70963069Y-70759315D01*
X70963069Y-70759315D02*
X70986878Y-70711696D01*
X70986878Y-70711696D02*
X71010688Y-70687887D01*
X71010688Y-70687887D02*
X71058307Y-70664077D01*
X71058307Y-70664077D02*
X71177354Y-70664077D01*
X71177354Y-70664077D02*
X71248783Y-70687887D01*
X71748782Y-71116458D02*
X71724973Y-71140268D01*
X71724973Y-71140268D02*
X71653544Y-71164077D01*
X71653544Y-71164077D02*
X71605925Y-71164077D01*
X71605925Y-71164077D02*
X71534497Y-71140268D01*
X71534497Y-71140268D02*
X71486878Y-71092648D01*
X71486878Y-71092648D02*
X71463068Y-71045029D01*
X71463068Y-71045029D02*
X71439259Y-70949791D01*
X71439259Y-70949791D02*
X71439259Y-70878363D01*
X71439259Y-70878363D02*
X71463068Y-70783125D01*
X71463068Y-70783125D02*
X71486878Y-70735506D01*
X71486878Y-70735506D02*
X71534497Y-70687887D01*
X71534497Y-70687887D02*
X71605925Y-70664077D01*
X71605925Y-70664077D02*
X71653544Y-70664077D01*
X71653544Y-70664077D02*
X71724973Y-70687887D01*
X71724973Y-70687887D02*
X71748782Y-70711696D01*
X71963068Y-71164077D02*
X71963068Y-70664077D01*
X72248782Y-71164077D02*
X72034497Y-70878363D01*
X72248782Y-70664077D02*
X71963068Y-70949791D01*
X73344020Y-71330744D02*
X73344020Y-70616458D01*
X74082114Y-71164077D02*
X74082114Y-70664077D01*
X74082114Y-70664077D02*
X74248781Y-71021220D01*
X74248781Y-71021220D02*
X74415447Y-70664077D01*
X74415447Y-70664077D02*
X74415447Y-71164077D01*
X74748781Y-70664077D02*
X74844019Y-70664077D01*
X74844019Y-70664077D02*
X74891638Y-70687887D01*
X74891638Y-70687887D02*
X74939257Y-70735506D01*
X74939257Y-70735506D02*
X74963067Y-70830744D01*
X74963067Y-70830744D02*
X74963067Y-70997410D01*
X74963067Y-70997410D02*
X74939257Y-71092648D01*
X74939257Y-71092648D02*
X74891638Y-71140268D01*
X74891638Y-71140268D02*
X74844019Y-71164077D01*
X74844019Y-71164077D02*
X74748781Y-71164077D01*
X74748781Y-71164077D02*
X74701162Y-71140268D01*
X74701162Y-71140268D02*
X74653543Y-71092648D01*
X74653543Y-71092648D02*
X74629734Y-70997410D01*
X74629734Y-70997410D02*
X74629734Y-70830744D01*
X74629734Y-70830744D02*
X74653543Y-70735506D01*
X74653543Y-70735506D02*
X74701162Y-70687887D01*
X74701162Y-70687887D02*
X74748781Y-70664077D01*
X75153544Y-71140268D02*
X75224972Y-71164077D01*
X75224972Y-71164077D02*
X75344020Y-71164077D01*
X75344020Y-71164077D02*
X75391639Y-71140268D01*
X75391639Y-71140268D02*
X75415448Y-71116458D01*
X75415448Y-71116458D02*
X75439258Y-71068839D01*
X75439258Y-71068839D02*
X75439258Y-71021220D01*
X75439258Y-71021220D02*
X75415448Y-70973601D01*
X75415448Y-70973601D02*
X75391639Y-70949791D01*
X75391639Y-70949791D02*
X75344020Y-70925982D01*
X75344020Y-70925982D02*
X75248782Y-70902172D01*
X75248782Y-70902172D02*
X75201163Y-70878363D01*
X75201163Y-70878363D02*
X75177353Y-70854553D01*
X75177353Y-70854553D02*
X75153544Y-70806934D01*
X75153544Y-70806934D02*
X75153544Y-70759315D01*
X75153544Y-70759315D02*
X75177353Y-70711696D01*
X75177353Y-70711696D02*
X75201163Y-70687887D01*
X75201163Y-70687887D02*
X75248782Y-70664077D01*
X75248782Y-70664077D02*
X75367829Y-70664077D01*
X75367829Y-70664077D02*
X75439258Y-70687887D01*
X75653543Y-71164077D02*
X75653543Y-70664077D01*
X71272592Y-71969049D02*
X71105926Y-71730954D01*
X70986878Y-71969049D02*
X70986878Y-71469049D01*
X70986878Y-71469049D02*
X71177354Y-71469049D01*
X71177354Y-71469049D02*
X71224973Y-71492859D01*
X71224973Y-71492859D02*
X71248783Y-71516668D01*
X71248783Y-71516668D02*
X71272592Y-71564287D01*
X71272592Y-71564287D02*
X71272592Y-71635716D01*
X71272592Y-71635716D02*
X71248783Y-71683335D01*
X71248783Y-71683335D02*
X71224973Y-71707144D01*
X71224973Y-71707144D02*
X71177354Y-71730954D01*
X71177354Y-71730954D02*
X70986878Y-71730954D01*
X71486878Y-71707144D02*
X71653545Y-71707144D01*
X71724973Y-71969049D02*
X71486878Y-71969049D01*
X71486878Y-71969049D02*
X71486878Y-71469049D01*
X71486878Y-71469049D02*
X71724973Y-71469049D01*
X71915450Y-71945240D02*
X71986878Y-71969049D01*
X71986878Y-71969049D02*
X72105926Y-71969049D01*
X72105926Y-71969049D02*
X72153545Y-71945240D01*
X72153545Y-71945240D02*
X72177354Y-71921430D01*
X72177354Y-71921430D02*
X72201164Y-71873811D01*
X72201164Y-71873811D02*
X72201164Y-71826192D01*
X72201164Y-71826192D02*
X72177354Y-71778573D01*
X72177354Y-71778573D02*
X72153545Y-71754763D01*
X72153545Y-71754763D02*
X72105926Y-71730954D01*
X72105926Y-71730954D02*
X72010688Y-71707144D01*
X72010688Y-71707144D02*
X71963069Y-71683335D01*
X71963069Y-71683335D02*
X71939259Y-71659525D01*
X71939259Y-71659525D02*
X71915450Y-71611906D01*
X71915450Y-71611906D02*
X71915450Y-71564287D01*
X71915450Y-71564287D02*
X71939259Y-71516668D01*
X71939259Y-71516668D02*
X71963069Y-71492859D01*
X71963069Y-71492859D02*
X72010688Y-71469049D01*
X72010688Y-71469049D02*
X72129735Y-71469049D01*
X72129735Y-71469049D02*
X72201164Y-71492859D01*
X72415449Y-71707144D02*
X72582116Y-71707144D01*
X72653544Y-71969049D02*
X72415449Y-71969049D01*
X72415449Y-71969049D02*
X72415449Y-71469049D01*
X72415449Y-71469049D02*
X72653544Y-71469049D01*
X72796402Y-71469049D02*
X73082116Y-71469049D01*
X72939259Y-71969049D02*
X72939259Y-71469049D01*
X73367830Y-72135716D02*
X73367830Y-71421430D01*
X74367829Y-71492859D02*
X74320210Y-71469049D01*
X74320210Y-71469049D02*
X74248781Y-71469049D01*
X74248781Y-71469049D02*
X74177353Y-71492859D01*
X74177353Y-71492859D02*
X74129734Y-71540478D01*
X74129734Y-71540478D02*
X74105924Y-71588097D01*
X74105924Y-71588097D02*
X74082115Y-71683335D01*
X74082115Y-71683335D02*
X74082115Y-71754763D01*
X74082115Y-71754763D02*
X74105924Y-71850001D01*
X74105924Y-71850001D02*
X74129734Y-71897620D01*
X74129734Y-71897620D02*
X74177353Y-71945240D01*
X74177353Y-71945240D02*
X74248781Y-71969049D01*
X74248781Y-71969049D02*
X74296400Y-71969049D01*
X74296400Y-71969049D02*
X74367829Y-71945240D01*
X74367829Y-71945240D02*
X74391638Y-71921430D01*
X74391638Y-71921430D02*
X74391638Y-71754763D01*
X74391638Y-71754763D02*
X74296400Y-71754763D01*
X74605924Y-71969049D02*
X74605924Y-71469049D01*
X74605924Y-71469049D02*
X74891638Y-71969049D01*
X74891638Y-71969049D02*
X74891638Y-71469049D01*
X75129734Y-71969049D02*
X75129734Y-71469049D01*
X75129734Y-71469049D02*
X75248782Y-71469049D01*
X75248782Y-71469049D02*
X75320210Y-71492859D01*
X75320210Y-71492859D02*
X75367829Y-71540478D01*
X75367829Y-71540478D02*
X75391639Y-71588097D01*
X75391639Y-71588097D02*
X75415448Y-71683335D01*
X75415448Y-71683335D02*
X75415448Y-71754763D01*
X75415448Y-71754763D02*
X75391639Y-71850001D01*
X75391639Y-71850001D02*
X75367829Y-71897620D01*
X75367829Y-71897620D02*
X75320210Y-71945240D01*
X75320210Y-71945240D02*
X75248782Y-71969049D01*
X75248782Y-71969049D02*
X75129734Y-71969049D01*
X39282916Y-79897554D02*
X39311488Y-79868982D01*
X39311488Y-79868982D02*
X39368631Y-79840411D01*
X39368631Y-79840411D02*
X39511488Y-79840411D01*
X39511488Y-79840411D02*
X39568631Y-79868982D01*
X39568631Y-79868982D02*
X39597202Y-79897554D01*
X39597202Y-79897554D02*
X39625773Y-79954697D01*
X39625773Y-79954697D02*
X39625773Y-80011840D01*
X39625773Y-80011840D02*
X39597202Y-80097554D01*
X39597202Y-80097554D02*
X39254345Y-80440411D01*
X39254345Y-80440411D02*
X39625773Y-80440411D01*
X41794345Y-79840411D02*
X42165773Y-79840411D01*
X42165773Y-79840411D02*
X41965773Y-80068982D01*
X41965773Y-80068982D02*
X42051488Y-80068982D01*
X42051488Y-80068982D02*
X42108631Y-80097554D01*
X42108631Y-80097554D02*
X42137202Y-80126125D01*
X42137202Y-80126125D02*
X42165773Y-80183268D01*
X42165773Y-80183268D02*
X42165773Y-80326125D01*
X42165773Y-80326125D02*
X42137202Y-80383268D01*
X42137202Y-80383268D02*
X42108631Y-80411840D01*
X42108631Y-80411840D02*
X42051488Y-80440411D01*
X42051488Y-80440411D02*
X41880059Y-80440411D01*
X41880059Y-80440411D02*
X41822916Y-80411840D01*
X41822916Y-80411840D02*
X41794345Y-80383268D01*
X44648631Y-80040411D02*
X44648631Y-80440411D01*
X44505773Y-79811840D02*
X44362916Y-80240411D01*
X44362916Y-80240411D02*
X44734345Y-80240411D01*
X47217202Y-79840411D02*
X46931488Y-79840411D01*
X46931488Y-79840411D02*
X46902916Y-80126125D01*
X46902916Y-80126125D02*
X46931488Y-80097554D01*
X46931488Y-80097554D02*
X46988631Y-80068982D01*
X46988631Y-80068982D02*
X47131488Y-80068982D01*
X47131488Y-80068982D02*
X47188631Y-80097554D01*
X47188631Y-80097554D02*
X47217202Y-80126125D01*
X47217202Y-80126125D02*
X47245773Y-80183268D01*
X47245773Y-80183268D02*
X47245773Y-80326125D01*
X47245773Y-80326125D02*
X47217202Y-80383268D01*
X47217202Y-80383268D02*
X47188631Y-80411840D01*
X47188631Y-80411840D02*
X47131488Y-80440411D01*
X47131488Y-80440411D02*
X46988631Y-80440411D01*
X46988631Y-80440411D02*
X46931488Y-80411840D01*
X46931488Y-80411840D02*
X46902916Y-80383268D01*
X49728631Y-79840411D02*
X49614345Y-79840411D01*
X49614345Y-79840411D02*
X49557202Y-79868982D01*
X49557202Y-79868982D02*
X49528631Y-79897554D01*
X49528631Y-79897554D02*
X49471488Y-79983268D01*
X49471488Y-79983268D02*
X49442916Y-80097554D01*
X49442916Y-80097554D02*
X49442916Y-80326125D01*
X49442916Y-80326125D02*
X49471488Y-80383268D01*
X49471488Y-80383268D02*
X49500059Y-80411840D01*
X49500059Y-80411840D02*
X49557202Y-80440411D01*
X49557202Y-80440411D02*
X49671488Y-80440411D01*
X49671488Y-80440411D02*
X49728631Y-80411840D01*
X49728631Y-80411840D02*
X49757202Y-80383268D01*
X49757202Y-80383268D02*
X49785773Y-80326125D01*
X49785773Y-80326125D02*
X49785773Y-80183268D01*
X49785773Y-80183268D02*
X49757202Y-80126125D01*
X49757202Y-80126125D02*
X49728631Y-80097554D01*
X49728631Y-80097554D02*
X49671488Y-80068982D01*
X49671488Y-80068982D02*
X49557202Y-80068982D01*
X49557202Y-80068982D02*
X49500059Y-80097554D01*
X49500059Y-80097554D02*
X49471488Y-80126125D01*
X49471488Y-80126125D02*
X49442916Y-80183268D01*
X51954345Y-79840411D02*
X52354345Y-79840411D01*
X52354345Y-79840411D02*
X52097202Y-80440411D01*
X54637202Y-80097554D02*
X54580059Y-80068982D01*
X54580059Y-80068982D02*
X54551488Y-80040411D01*
X54551488Y-80040411D02*
X54522916Y-79983268D01*
X54522916Y-79983268D02*
X54522916Y-79954697D01*
X54522916Y-79954697D02*
X54551488Y-79897554D01*
X54551488Y-79897554D02*
X54580059Y-79868982D01*
X54580059Y-79868982D02*
X54637202Y-79840411D01*
X54637202Y-79840411D02*
X54751488Y-79840411D01*
X54751488Y-79840411D02*
X54808631Y-79868982D01*
X54808631Y-79868982D02*
X54837202Y-79897554D01*
X54837202Y-79897554D02*
X54865773Y-79954697D01*
X54865773Y-79954697D02*
X54865773Y-79983268D01*
X54865773Y-79983268D02*
X54837202Y-80040411D01*
X54837202Y-80040411D02*
X54808631Y-80068982D01*
X54808631Y-80068982D02*
X54751488Y-80097554D01*
X54751488Y-80097554D02*
X54637202Y-80097554D01*
X54637202Y-80097554D02*
X54580059Y-80126125D01*
X54580059Y-80126125D02*
X54551488Y-80154697D01*
X54551488Y-80154697D02*
X54522916Y-80211840D01*
X54522916Y-80211840D02*
X54522916Y-80326125D01*
X54522916Y-80326125D02*
X54551488Y-80383268D01*
X54551488Y-80383268D02*
X54580059Y-80411840D01*
X54580059Y-80411840D02*
X54637202Y-80440411D01*
X54637202Y-80440411D02*
X54751488Y-80440411D01*
X54751488Y-80440411D02*
X54808631Y-80411840D01*
X54808631Y-80411840D02*
X54837202Y-80383268D01*
X54837202Y-80383268D02*
X54865773Y-80326125D01*
X54865773Y-80326125D02*
X54865773Y-80211840D01*
X54865773Y-80211840D02*
X54837202Y-80154697D01*
X54837202Y-80154697D02*
X54808631Y-80126125D01*
X54808631Y-80126125D02*
X54751488Y-80097554D01*
X56643773Y-79868982D02*
X56586631Y-79840411D01*
X56586631Y-79840411D02*
X56500916Y-79840411D01*
X56500916Y-79840411D02*
X56415202Y-79868982D01*
X56415202Y-79868982D02*
X56358059Y-79926125D01*
X56358059Y-79926125D02*
X56329488Y-79983268D01*
X56329488Y-79983268D02*
X56300916Y-80097554D01*
X56300916Y-80097554D02*
X56300916Y-80183268D01*
X56300916Y-80183268D02*
X56329488Y-80297554D01*
X56329488Y-80297554D02*
X56358059Y-80354697D01*
X56358059Y-80354697D02*
X56415202Y-80411840D01*
X56415202Y-80411840D02*
X56500916Y-80440411D01*
X56500916Y-80440411D02*
X56558059Y-80440411D01*
X56558059Y-80440411D02*
X56643773Y-80411840D01*
X56643773Y-80411840D02*
X56672345Y-80383268D01*
X56672345Y-80383268D02*
X56672345Y-80183268D01*
X56672345Y-80183268D02*
X56558059Y-80183268D01*
X56929488Y-80440411D02*
X56929488Y-79840411D01*
X56929488Y-79840411D02*
X57272345Y-80440411D01*
X57272345Y-80440411D02*
X57272345Y-79840411D01*
X57558059Y-80440411D02*
X57558059Y-79840411D01*
X57558059Y-79840411D02*
X57700916Y-79840411D01*
X57700916Y-79840411D02*
X57786630Y-79868982D01*
X57786630Y-79868982D02*
X57843773Y-79926125D01*
X57843773Y-79926125D02*
X57872344Y-79983268D01*
X57872344Y-79983268D02*
X57900916Y-80097554D01*
X57900916Y-80097554D02*
X57900916Y-80183268D01*
X57900916Y-80183268D02*
X57872344Y-80297554D01*
X57872344Y-80297554D02*
X57843773Y-80354697D01*
X57843773Y-80354697D02*
X57786630Y-80411840D01*
X57786630Y-80411840D02*
X57700916Y-80440411D01*
X57700916Y-80440411D02*
X57558059Y-80440411D01*
X59037773Y-79840411D02*
X59237773Y-80440411D01*
X59237773Y-80440411D02*
X59437773Y-79840411D01*
X59980631Y-80383268D02*
X59952059Y-80411840D01*
X59952059Y-80411840D02*
X59866345Y-80440411D01*
X59866345Y-80440411D02*
X59809202Y-80440411D01*
X59809202Y-80440411D02*
X59723488Y-80411840D01*
X59723488Y-80411840D02*
X59666345Y-80354697D01*
X59666345Y-80354697D02*
X59637774Y-80297554D01*
X59637774Y-80297554D02*
X59609202Y-80183268D01*
X59609202Y-80183268D02*
X59609202Y-80097554D01*
X59609202Y-80097554D02*
X59637774Y-79983268D01*
X59637774Y-79983268D02*
X59666345Y-79926125D01*
X59666345Y-79926125D02*
X59723488Y-79868982D01*
X59723488Y-79868982D02*
X59809202Y-79840411D01*
X59809202Y-79840411D02*
X59866345Y-79840411D01*
X59866345Y-79840411D02*
X59952059Y-79868982D01*
X59952059Y-79868982D02*
X59980631Y-79897554D01*
X60580631Y-80383268D02*
X60552059Y-80411840D01*
X60552059Y-80411840D02*
X60466345Y-80440411D01*
X60466345Y-80440411D02*
X60409202Y-80440411D01*
X60409202Y-80440411D02*
X60323488Y-80411840D01*
X60323488Y-80411840D02*
X60266345Y-80354697D01*
X60266345Y-80354697D02*
X60237774Y-80297554D01*
X60237774Y-80297554D02*
X60209202Y-80183268D01*
X60209202Y-80183268D02*
X60209202Y-80097554D01*
X60209202Y-80097554D02*
X60237774Y-79983268D01*
X60237774Y-79983268D02*
X60266345Y-79926125D01*
X60266345Y-79926125D02*
X60323488Y-79868982D01*
X60323488Y-79868982D02*
X60409202Y-79840411D01*
X60409202Y-79840411D02*
X60466345Y-79840411D01*
X60466345Y-79840411D02*
X60552059Y-79868982D01*
X60552059Y-79868982D02*
X60580631Y-79897554D01*
X65279773Y-79868982D02*
X65222631Y-79840411D01*
X65222631Y-79840411D02*
X65136916Y-79840411D01*
X65136916Y-79840411D02*
X65051202Y-79868982D01*
X65051202Y-79868982D02*
X64994059Y-79926125D01*
X64994059Y-79926125D02*
X64965488Y-79983268D01*
X64965488Y-79983268D02*
X64936916Y-80097554D01*
X64936916Y-80097554D02*
X64936916Y-80183268D01*
X64936916Y-80183268D02*
X64965488Y-80297554D01*
X64965488Y-80297554D02*
X64994059Y-80354697D01*
X64994059Y-80354697D02*
X65051202Y-80411840D01*
X65051202Y-80411840D02*
X65136916Y-80440411D01*
X65136916Y-80440411D02*
X65194059Y-80440411D01*
X65194059Y-80440411D02*
X65279773Y-80411840D01*
X65279773Y-80411840D02*
X65308345Y-80383268D01*
X65308345Y-80383268D02*
X65308345Y-80183268D01*
X65308345Y-80183268D02*
X65194059Y-80183268D01*
X65565488Y-80440411D02*
X65565488Y-79840411D01*
X65565488Y-79840411D02*
X65908345Y-80440411D01*
X65908345Y-80440411D02*
X65908345Y-79840411D01*
X66194059Y-80440411D02*
X66194059Y-79840411D01*
X66194059Y-79840411D02*
X66336916Y-79840411D01*
X66336916Y-79840411D02*
X66422630Y-79868982D01*
X66422630Y-79868982D02*
X66479773Y-79926125D01*
X66479773Y-79926125D02*
X66508344Y-79983268D01*
X66508344Y-79983268D02*
X66536916Y-80097554D01*
X66536916Y-80097554D02*
X66536916Y-80183268D01*
X66536916Y-80183268D02*
X66508344Y-80297554D01*
X66508344Y-80297554D02*
X66479773Y-80354697D01*
X66479773Y-80354697D02*
X66422630Y-80411840D01*
X66422630Y-80411840D02*
X66336916Y-80440411D01*
X66336916Y-80440411D02*
X66194059Y-80440411D01*
X67673773Y-79840411D02*
X67873773Y-80440411D01*
X67873773Y-80440411D02*
X68073773Y-79840411D01*
X68616631Y-80383268D02*
X68588059Y-80411840D01*
X68588059Y-80411840D02*
X68502345Y-80440411D01*
X68502345Y-80440411D02*
X68445202Y-80440411D01*
X68445202Y-80440411D02*
X68359488Y-80411840D01*
X68359488Y-80411840D02*
X68302345Y-80354697D01*
X68302345Y-80354697D02*
X68273774Y-80297554D01*
X68273774Y-80297554D02*
X68245202Y-80183268D01*
X68245202Y-80183268D02*
X68245202Y-80097554D01*
X68245202Y-80097554D02*
X68273774Y-79983268D01*
X68273774Y-79983268D02*
X68302345Y-79926125D01*
X68302345Y-79926125D02*
X68359488Y-79868982D01*
X68359488Y-79868982D02*
X68445202Y-79840411D01*
X68445202Y-79840411D02*
X68502345Y-79840411D01*
X68502345Y-79840411D02*
X68588059Y-79868982D01*
X68588059Y-79868982D02*
X68616631Y-79897554D01*
X69216631Y-80383268D02*
X69188059Y-80411840D01*
X69188059Y-80411840D02*
X69102345Y-80440411D01*
X69102345Y-80440411D02*
X69045202Y-80440411D01*
X69045202Y-80440411D02*
X68959488Y-80411840D01*
X68959488Y-80411840D02*
X68902345Y-80354697D01*
X68902345Y-80354697D02*
X68873774Y-80297554D01*
X68873774Y-80297554D02*
X68845202Y-80183268D01*
X68845202Y-80183268D02*
X68845202Y-80097554D01*
X68845202Y-80097554D02*
X68873774Y-79983268D01*
X68873774Y-79983268D02*
X68902345Y-79926125D01*
X68902345Y-79926125D02*
X68959488Y-79868982D01*
X68959488Y-79868982D02*
X69045202Y-79840411D01*
X69045202Y-79840411D02*
X69102345Y-79840411D01*
X69102345Y-79840411D02*
X69188059Y-79868982D01*
X69188059Y-79868982D02*
X69216631Y-79897554D01*
X70896345Y-80440411D02*
X70696345Y-80154697D01*
X70553488Y-80440411D02*
X70553488Y-79840411D01*
X70553488Y-79840411D02*
X70782059Y-79840411D01*
X70782059Y-79840411D02*
X70839202Y-79868982D01*
X70839202Y-79868982D02*
X70867773Y-79897554D01*
X70867773Y-79897554D02*
X70896345Y-79954697D01*
X70896345Y-79954697D02*
X70896345Y-80040411D01*
X70896345Y-80040411D02*
X70867773Y-80097554D01*
X70867773Y-80097554D02*
X70839202Y-80126125D01*
X70839202Y-80126125D02*
X70782059Y-80154697D01*
X70782059Y-80154697D02*
X70553488Y-80154697D01*
X71096345Y-79840411D02*
X71496345Y-80440411D01*
X71496345Y-79840411D02*
X71096345Y-80440411D01*
X73261773Y-79840411D02*
X73604631Y-79840411D01*
X73433202Y-80440411D02*
X73433202Y-79840411D01*
X73747488Y-79840411D02*
X74147488Y-80440411D01*
X74147488Y-79840411D02*
X73747488Y-80440411D01*
X76709773Y-70470982D02*
X76652631Y-70442411D01*
X76652631Y-70442411D02*
X76566916Y-70442411D01*
X76566916Y-70442411D02*
X76481202Y-70470982D01*
X76481202Y-70470982D02*
X76424059Y-70528125D01*
X76424059Y-70528125D02*
X76395488Y-70585268D01*
X76395488Y-70585268D02*
X76366916Y-70699554D01*
X76366916Y-70699554D02*
X76366916Y-70785268D01*
X76366916Y-70785268D02*
X76395488Y-70899554D01*
X76395488Y-70899554D02*
X76424059Y-70956697D01*
X76424059Y-70956697D02*
X76481202Y-71013840D01*
X76481202Y-71013840D02*
X76566916Y-71042411D01*
X76566916Y-71042411D02*
X76624059Y-71042411D01*
X76624059Y-71042411D02*
X76709773Y-71013840D01*
X76709773Y-71013840D02*
X76738345Y-70985268D01*
X76738345Y-70985268D02*
X76738345Y-70785268D01*
X76738345Y-70785268D02*
X76624059Y-70785268D01*
X76995488Y-71042411D02*
X76995488Y-70442411D01*
X76995488Y-70442411D02*
X77338345Y-71042411D01*
X77338345Y-71042411D02*
X77338345Y-70442411D01*
X77624059Y-71042411D02*
X77624059Y-70442411D01*
X77624059Y-70442411D02*
X77766916Y-70442411D01*
X77766916Y-70442411D02*
X77852630Y-70470982D01*
X77852630Y-70470982D02*
X77909773Y-70528125D01*
X77909773Y-70528125D02*
X77938344Y-70585268D01*
X77938344Y-70585268D02*
X77966916Y-70699554D01*
X77966916Y-70699554D02*
X77966916Y-70785268D01*
X77966916Y-70785268D02*
X77938344Y-70899554D01*
X77938344Y-70899554D02*
X77909773Y-70956697D01*
X77909773Y-70956697D02*
X77852630Y-71013840D01*
X77852630Y-71013840D02*
X77766916Y-71042411D01*
X77766916Y-71042411D02*
X77624059Y-71042411D01*
X76309773Y-72728411D02*
X76509773Y-73328411D01*
X76509773Y-73328411D02*
X76709773Y-72728411D01*
X77252631Y-73271268D02*
X77224059Y-73299840D01*
X77224059Y-73299840D02*
X77138345Y-73328411D01*
X77138345Y-73328411D02*
X77081202Y-73328411D01*
X77081202Y-73328411D02*
X76995488Y-73299840D01*
X76995488Y-73299840D02*
X76938345Y-73242697D01*
X76938345Y-73242697D02*
X76909774Y-73185554D01*
X76909774Y-73185554D02*
X76881202Y-73071268D01*
X76881202Y-73071268D02*
X76881202Y-72985554D01*
X76881202Y-72985554D02*
X76909774Y-72871268D01*
X76909774Y-72871268D02*
X76938345Y-72814125D01*
X76938345Y-72814125D02*
X76995488Y-72756982D01*
X76995488Y-72756982D02*
X77081202Y-72728411D01*
X77081202Y-72728411D02*
X77138345Y-72728411D01*
X77138345Y-72728411D02*
X77224059Y-72756982D01*
X77224059Y-72756982D02*
X77252631Y-72785554D01*
X77852631Y-73271268D02*
X77824059Y-73299840D01*
X77824059Y-73299840D02*
X77738345Y-73328411D01*
X77738345Y-73328411D02*
X77681202Y-73328411D01*
X77681202Y-73328411D02*
X77595488Y-73299840D01*
X77595488Y-73299840D02*
X77538345Y-73242697D01*
X77538345Y-73242697D02*
X77509774Y-73185554D01*
X77509774Y-73185554D02*
X77481202Y-73071268D01*
X77481202Y-73071268D02*
X77481202Y-72985554D01*
X77481202Y-72985554D02*
X77509774Y-72871268D01*
X77509774Y-72871268D02*
X77538345Y-72814125D01*
X77538345Y-72814125D02*
X77595488Y-72756982D01*
X77595488Y-72756982D02*
X77681202Y-72728411D01*
X77681202Y-72728411D02*
X77738345Y-72728411D01*
X77738345Y-72728411D02*
X77824059Y-72756982D01*
X77824059Y-72756982D02*
X77852631Y-72785554D01*
X76366916Y-75839840D02*
X76452631Y-75868411D01*
X76452631Y-75868411D02*
X76595488Y-75868411D01*
X76595488Y-75868411D02*
X76652631Y-75839840D01*
X76652631Y-75839840D02*
X76681202Y-75811268D01*
X76681202Y-75811268D02*
X76709773Y-75754125D01*
X76709773Y-75754125D02*
X76709773Y-75696982D01*
X76709773Y-75696982D02*
X76681202Y-75639840D01*
X76681202Y-75639840D02*
X76652631Y-75611268D01*
X76652631Y-75611268D02*
X76595488Y-75582697D01*
X76595488Y-75582697D02*
X76481202Y-75554125D01*
X76481202Y-75554125D02*
X76424059Y-75525554D01*
X76424059Y-75525554D02*
X76395488Y-75496982D01*
X76395488Y-75496982D02*
X76366916Y-75439840D01*
X76366916Y-75439840D02*
X76366916Y-75382697D01*
X76366916Y-75382697D02*
X76395488Y-75325554D01*
X76395488Y-75325554D02*
X76424059Y-75296982D01*
X76424059Y-75296982D02*
X76481202Y-75268411D01*
X76481202Y-75268411D02*
X76624059Y-75268411D01*
X76624059Y-75268411D02*
X76709773Y-75296982D01*
X76966917Y-75868411D02*
X76966917Y-75268411D01*
X76966917Y-75268411D02*
X77109774Y-75268411D01*
X77109774Y-75268411D02*
X77195488Y-75296982D01*
X77195488Y-75296982D02*
X77252631Y-75354125D01*
X77252631Y-75354125D02*
X77281202Y-75411268D01*
X77281202Y-75411268D02*
X77309774Y-75525554D01*
X77309774Y-75525554D02*
X77309774Y-75611268D01*
X77309774Y-75611268D02*
X77281202Y-75725554D01*
X77281202Y-75725554D02*
X77252631Y-75782697D01*
X77252631Y-75782697D02*
X77195488Y-75839840D01*
X77195488Y-75839840D02*
X77109774Y-75868411D01*
X77109774Y-75868411D02*
X76966917Y-75868411D01*
X77538345Y-75696982D02*
X77824060Y-75696982D01*
X77481202Y-75868411D02*
X77681202Y-75268411D01*
X77681202Y-75268411D02*
X77881202Y-75868411D01*
X76366916Y-78633840D02*
X76452631Y-78662411D01*
X76452631Y-78662411D02*
X76595488Y-78662411D01*
X76595488Y-78662411D02*
X76652631Y-78633840D01*
X76652631Y-78633840D02*
X76681202Y-78605268D01*
X76681202Y-78605268D02*
X76709773Y-78548125D01*
X76709773Y-78548125D02*
X76709773Y-78490982D01*
X76709773Y-78490982D02*
X76681202Y-78433840D01*
X76681202Y-78433840D02*
X76652631Y-78405268D01*
X76652631Y-78405268D02*
X76595488Y-78376697D01*
X76595488Y-78376697D02*
X76481202Y-78348125D01*
X76481202Y-78348125D02*
X76424059Y-78319554D01*
X76424059Y-78319554D02*
X76395488Y-78290982D01*
X76395488Y-78290982D02*
X76366916Y-78233840D01*
X76366916Y-78233840D02*
X76366916Y-78176697D01*
X76366916Y-78176697D02*
X76395488Y-78119554D01*
X76395488Y-78119554D02*
X76424059Y-78090982D01*
X76424059Y-78090982D02*
X76481202Y-78062411D01*
X76481202Y-78062411D02*
X76624059Y-78062411D01*
X76624059Y-78062411D02*
X76709773Y-78090982D01*
X77309774Y-78605268D02*
X77281202Y-78633840D01*
X77281202Y-78633840D02*
X77195488Y-78662411D01*
X77195488Y-78662411D02*
X77138345Y-78662411D01*
X77138345Y-78662411D02*
X77052631Y-78633840D01*
X77052631Y-78633840D02*
X76995488Y-78576697D01*
X76995488Y-78576697D02*
X76966917Y-78519554D01*
X76966917Y-78519554D02*
X76938345Y-78405268D01*
X76938345Y-78405268D02*
X76938345Y-78319554D01*
X76938345Y-78319554D02*
X76966917Y-78205268D01*
X76966917Y-78205268D02*
X76995488Y-78148125D01*
X76995488Y-78148125D02*
X77052631Y-78090982D01*
X77052631Y-78090982D02*
X77138345Y-78062411D01*
X77138345Y-78062411D02*
X77195488Y-78062411D01*
X77195488Y-78062411D02*
X77281202Y-78090982D01*
X77281202Y-78090982D02*
X77309774Y-78119554D01*
X77566917Y-78662411D02*
X77566917Y-78062411D01*
X77909774Y-78662411D02*
X77652631Y-78319554D01*
X77909774Y-78062411D02*
X77566917Y-78405268D01*
X77157488Y-59358411D02*
X77157488Y-58758411D01*
X77786059Y-59301268D02*
X77757487Y-59329840D01*
X77757487Y-59329840D02*
X77671773Y-59358411D01*
X77671773Y-59358411D02*
X77614630Y-59358411D01*
X77614630Y-59358411D02*
X77528916Y-59329840D01*
X77528916Y-59329840D02*
X77471773Y-59272697D01*
X77471773Y-59272697D02*
X77443202Y-59215554D01*
X77443202Y-59215554D02*
X77414630Y-59101268D01*
X77414630Y-59101268D02*
X77414630Y-59015554D01*
X77414630Y-59015554D02*
X77443202Y-58901268D01*
X77443202Y-58901268D02*
X77471773Y-58844125D01*
X77471773Y-58844125D02*
X77528916Y-58786982D01*
X77528916Y-58786982D02*
X77614630Y-58758411D01*
X77614630Y-58758411D02*
X77671773Y-58758411D01*
X77671773Y-58758411D02*
X77757487Y-58786982D01*
X77757487Y-58786982D02*
X77786059Y-58815554D01*
X78014630Y-59329840D02*
X78100345Y-59358411D01*
X78100345Y-59358411D02*
X78243202Y-59358411D01*
X78243202Y-59358411D02*
X78300345Y-59329840D01*
X78300345Y-59329840D02*
X78328916Y-59301268D01*
X78328916Y-59301268D02*
X78357487Y-59244125D01*
X78357487Y-59244125D02*
X78357487Y-59186982D01*
X78357487Y-59186982D02*
X78328916Y-59129840D01*
X78328916Y-59129840D02*
X78300345Y-59101268D01*
X78300345Y-59101268D02*
X78243202Y-59072697D01*
X78243202Y-59072697D02*
X78128916Y-59044125D01*
X78128916Y-59044125D02*
X78071773Y-59015554D01*
X78071773Y-59015554D02*
X78043202Y-58986982D01*
X78043202Y-58986982D02*
X78014630Y-58929840D01*
X78014630Y-58929840D02*
X78014630Y-58872697D01*
X78014630Y-58872697D02*
X78043202Y-58815554D01*
X78043202Y-58815554D02*
X78071773Y-58786982D01*
X78071773Y-58786982D02*
X78128916Y-58758411D01*
X78128916Y-58758411D02*
X78271773Y-58758411D01*
X78271773Y-58758411D02*
X78357487Y-58786982D01*
X78614631Y-59358411D02*
X78614631Y-58758411D01*
X78614631Y-58758411D02*
X78843202Y-58758411D01*
X78843202Y-58758411D02*
X78900345Y-58786982D01*
X78900345Y-58786982D02*
X78928916Y-58815554D01*
X78928916Y-58815554D02*
X78957488Y-58872697D01*
X78957488Y-58872697D02*
X78957488Y-58958411D01*
X78957488Y-58958411D02*
X78928916Y-59015554D01*
X78928916Y-59015554D02*
X78900345Y-59044125D01*
X78900345Y-59044125D02*
X78843202Y-59072697D01*
X78843202Y-59072697D02*
X78614631Y-59072697D01*
X79443488Y-80694411D02*
X79443488Y-80094411D01*
X79700630Y-80151554D02*
X79729202Y-80122982D01*
X79729202Y-80122982D02*
X79786345Y-80094411D01*
X79786345Y-80094411D02*
X79929202Y-80094411D01*
X79929202Y-80094411D02*
X79986345Y-80122982D01*
X79986345Y-80122982D02*
X80014916Y-80151554D01*
X80014916Y-80151554D02*
X80043487Y-80208697D01*
X80043487Y-80208697D02*
X80043487Y-80265840D01*
X80043487Y-80265840D02*
X80014916Y-80351554D01*
X80014916Y-80351554D02*
X79672059Y-80694411D01*
X79672059Y-80694411D02*
X80043487Y-80694411D01*
X80643488Y-80637268D02*
X80614916Y-80665840D01*
X80614916Y-80665840D02*
X80529202Y-80694411D01*
X80529202Y-80694411D02*
X80472059Y-80694411D01*
X80472059Y-80694411D02*
X80386345Y-80665840D01*
X80386345Y-80665840D02*
X80329202Y-80608697D01*
X80329202Y-80608697D02*
X80300631Y-80551554D01*
X80300631Y-80551554D02*
X80272059Y-80437268D01*
X80272059Y-80437268D02*
X80272059Y-80351554D01*
X80272059Y-80351554D02*
X80300631Y-80237268D01*
X80300631Y-80237268D02*
X80329202Y-80180125D01*
X80329202Y-80180125D02*
X80386345Y-80122982D01*
X80386345Y-80122982D02*
X80472059Y-80094411D01*
X80472059Y-80094411D02*
X80529202Y-80094411D01*
X80529202Y-80094411D02*
X80614916Y-80122982D01*
X80614916Y-80122982D02*
X80643488Y-80151554D01*
X77004961Y-83372905D02*
X77085773Y-83332499D01*
X77085773Y-83332499D02*
X77186788Y-83231484D01*
X77186788Y-83231484D02*
X77206991Y-83170875D01*
X77206991Y-83170875D02*
X77206991Y-83130468D01*
X77206991Y-83130468D02*
X77186788Y-83069859D01*
X77186788Y-83069859D02*
X77146382Y-83029453D01*
X77146382Y-83029453D02*
X77085773Y-83009250D01*
X77085773Y-83009250D02*
X77045367Y-83009250D01*
X77045367Y-83009250D02*
X76984758Y-83029453D01*
X76984758Y-83029453D02*
X76883743Y-83090062D01*
X76883743Y-83090062D02*
X76823134Y-83110265D01*
X76823134Y-83110265D02*
X76782727Y-83110265D01*
X76782727Y-83110265D02*
X76722118Y-83090062D01*
X76722118Y-83090062D02*
X76681712Y-83049656D01*
X76681712Y-83049656D02*
X76661509Y-82989047D01*
X76661509Y-82989047D02*
X76661509Y-82948641D01*
X76661509Y-82948641D02*
X76681712Y-82888032D01*
X76681712Y-82888032D02*
X76782727Y-82787017D01*
X76782727Y-82787017D02*
X76863540Y-82746611D01*
X77227195Y-82746610D02*
X77368616Y-82605189D01*
X77651459Y-82766813D02*
X77449428Y-82968844D01*
X77449428Y-82968844D02*
X77025164Y-82544580D01*
X77025164Y-82544580D02*
X77227195Y-82342549D01*
X78075723Y-82342549D02*
X77732271Y-82281940D01*
X77833286Y-82584986D02*
X77409022Y-82160722D01*
X77409022Y-82160722D02*
X77570647Y-81999097D01*
X77570647Y-81999097D02*
X77631256Y-81978894D01*
X77631256Y-81978894D02*
X77671662Y-81978894D01*
X77671662Y-81978894D02*
X77732271Y-81999097D01*
X77732271Y-81999097D02*
X77792880Y-82059707D01*
X77792880Y-82059707D02*
X77813083Y-82120316D01*
X77813083Y-82120316D02*
X77813083Y-82160722D01*
X77813083Y-82160722D02*
X77792880Y-82221331D01*
X77792880Y-82221331D02*
X77631256Y-82382955D01*
X78257550Y-82160722D02*
X77833286Y-81736458D01*
X78318159Y-81857676D02*
X78520190Y-81655646D01*
X78398971Y-82019301D02*
X78116129Y-81453615D01*
X78116129Y-81453615D02*
X78681814Y-81736458D01*
X79025266Y-81393006D02*
X78823236Y-81595036D01*
X78823236Y-81595036D02*
X78398972Y-81170772D01*
X61834982Y-82802226D02*
X61806411Y-82859369D01*
X61806411Y-82859369D02*
X61806411Y-82945083D01*
X61806411Y-82945083D02*
X61834982Y-83030797D01*
X61834982Y-83030797D02*
X61892125Y-83087940D01*
X61892125Y-83087940D02*
X61949268Y-83116511D01*
X61949268Y-83116511D02*
X62063554Y-83145083D01*
X62063554Y-83145083D02*
X62149268Y-83145083D01*
X62149268Y-83145083D02*
X62263554Y-83116511D01*
X62263554Y-83116511D02*
X62320697Y-83087940D01*
X62320697Y-83087940D02*
X62377840Y-83030797D01*
X62377840Y-83030797D02*
X62406411Y-82945083D01*
X62406411Y-82945083D02*
X62406411Y-82887940D01*
X62406411Y-82887940D02*
X62377840Y-82802226D01*
X62377840Y-82802226D02*
X62349268Y-82773654D01*
X62349268Y-82773654D02*
X62149268Y-82773654D01*
X62149268Y-82773654D02*
X62149268Y-82887940D01*
X62406411Y-82516511D02*
X61806411Y-82516511D01*
X61806411Y-82516511D02*
X61806411Y-82287940D01*
X61806411Y-82287940D02*
X61834982Y-82230797D01*
X61834982Y-82230797D02*
X61863554Y-82202226D01*
X61863554Y-82202226D02*
X61920697Y-82173654D01*
X61920697Y-82173654D02*
X62006411Y-82173654D01*
X62006411Y-82173654D02*
X62063554Y-82202226D01*
X62063554Y-82202226D02*
X62092125Y-82230797D01*
X62092125Y-82230797D02*
X62120697Y-82287940D01*
X62120697Y-82287940D02*
X62120697Y-82516511D01*
X62406411Y-81916511D02*
X61806411Y-81916511D01*
X61806411Y-81516512D02*
X61806411Y-81402226D01*
X61806411Y-81402226D02*
X61834982Y-81345083D01*
X61834982Y-81345083D02*
X61892125Y-81287940D01*
X61892125Y-81287940D02*
X62006411Y-81259369D01*
X62006411Y-81259369D02*
X62206411Y-81259369D01*
X62206411Y-81259369D02*
X62320697Y-81287940D01*
X62320697Y-81287940D02*
X62377840Y-81345083D01*
X62377840Y-81345083D02*
X62406411Y-81402226D01*
X62406411Y-81402226D02*
X62406411Y-81516512D01*
X62406411Y-81516512D02*
X62377840Y-81573655D01*
X62377840Y-81573655D02*
X62320697Y-81630797D01*
X62320697Y-81630797D02*
X62206411Y-81659369D01*
X62206411Y-81659369D02*
X62006411Y-81659369D01*
X62006411Y-81659369D02*
X61892125Y-81630797D01*
X61892125Y-81630797D02*
X61834982Y-81573655D01*
X61834982Y-81573655D02*
X61806411Y-81516512D01*
X39928857Y-64443411D02*
X39928857Y-64929125D01*
X39928857Y-64929125D02*
X39957428Y-64986268D01*
X39957428Y-64986268D02*
X39986000Y-65014840D01*
X39986000Y-65014840D02*
X40043142Y-65043411D01*
X40043142Y-65043411D02*
X40157428Y-65043411D01*
X40157428Y-65043411D02*
X40214571Y-65014840D01*
X40214571Y-65014840D02*
X40243142Y-64986268D01*
X40243142Y-64986268D02*
X40271714Y-64929125D01*
X40271714Y-64929125D02*
X40271714Y-64443411D01*
X40871713Y-65043411D02*
X40528856Y-65043411D01*
X40700285Y-65043411D02*
X40700285Y-64443411D01*
X40700285Y-64443411D02*
X40643142Y-64529125D01*
X40643142Y-64529125D02*
X40585999Y-64586268D01*
X40585999Y-64586268D02*
X40528856Y-64614840D01*
X43831141Y-70088554D02*
X43859713Y-70059982D01*
X43859713Y-70059982D02*
X43916856Y-70031411D01*
X43916856Y-70031411D02*
X44059713Y-70031411D01*
X44059713Y-70031411D02*
X44116856Y-70059982D01*
X44116856Y-70059982D02*
X44145427Y-70088554D01*
X44145427Y-70088554D02*
X44173998Y-70145697D01*
X44173998Y-70145697D02*
X44173998Y-70202840D01*
X44173998Y-70202840D02*
X44145427Y-70288554D01*
X44145427Y-70288554D02*
X43802570Y-70631411D01*
X43802570Y-70631411D02*
X44173998Y-70631411D01*
X44688285Y-70231411D02*
X44688285Y-70631411D01*
X44545427Y-70002840D02*
X44402570Y-70431411D01*
X44402570Y-70431411D02*
X44773999Y-70431411D01*
X45288285Y-70631411D02*
X45002571Y-70631411D01*
X45002571Y-70631411D02*
X45002571Y-70031411D01*
X45831142Y-70574268D02*
X45802570Y-70602840D01*
X45802570Y-70602840D02*
X45716856Y-70631411D01*
X45716856Y-70631411D02*
X45659713Y-70631411D01*
X45659713Y-70631411D02*
X45573999Y-70602840D01*
X45573999Y-70602840D02*
X45516856Y-70545697D01*
X45516856Y-70545697D02*
X45488285Y-70488554D01*
X45488285Y-70488554D02*
X45459713Y-70374268D01*
X45459713Y-70374268D02*
X45459713Y-70288554D01*
X45459713Y-70288554D02*
X45488285Y-70174268D01*
X45488285Y-70174268D02*
X45516856Y-70117125D01*
X45516856Y-70117125D02*
X45573999Y-70059982D01*
X45573999Y-70059982D02*
X45659713Y-70031411D01*
X45659713Y-70031411D02*
X45716856Y-70031411D01*
X45716856Y-70031411D02*
X45802570Y-70059982D01*
X45802570Y-70059982D02*
X45831142Y-70088554D01*
X46402570Y-70631411D02*
X46059713Y-70631411D01*
X46231142Y-70631411D02*
X46231142Y-70031411D01*
X46231142Y-70031411D02*
X46173999Y-70117125D01*
X46173999Y-70117125D02*
X46116856Y-70174268D01*
X46116856Y-70174268D02*
X46059713Y-70202840D01*
X46773999Y-70031411D02*
X46831142Y-70031411D01*
X46831142Y-70031411D02*
X46888285Y-70059982D01*
X46888285Y-70059982D02*
X46916857Y-70088554D01*
X46916857Y-70088554D02*
X46945428Y-70145697D01*
X46945428Y-70145697D02*
X46973999Y-70259982D01*
X46973999Y-70259982D02*
X46973999Y-70402840D01*
X46973999Y-70402840D02*
X46945428Y-70517125D01*
X46945428Y-70517125D02*
X46916857Y-70574268D01*
X46916857Y-70574268D02*
X46888285Y-70602840D01*
X46888285Y-70602840D02*
X46831142Y-70631411D01*
X46831142Y-70631411D02*
X46773999Y-70631411D01*
X46773999Y-70631411D02*
X46716857Y-70602840D01*
X46716857Y-70602840D02*
X46688285Y-70574268D01*
X46688285Y-70574268D02*
X46659714Y-70517125D01*
X46659714Y-70517125D02*
X46631142Y-70402840D01*
X46631142Y-70402840D02*
X46631142Y-70259982D01*
X46631142Y-70259982D02*
X46659714Y-70145697D01*
X46659714Y-70145697D02*
X46688285Y-70088554D01*
X46688285Y-70088554D02*
X46716857Y-70059982D01*
X46716857Y-70059982D02*
X46773999Y-70031411D01*
X47202571Y-70088554D02*
X47231143Y-70059982D01*
X47231143Y-70059982D02*
X47288286Y-70031411D01*
X47288286Y-70031411D02*
X47431143Y-70031411D01*
X47431143Y-70031411D02*
X47488286Y-70059982D01*
X47488286Y-70059982D02*
X47516857Y-70088554D01*
X47516857Y-70088554D02*
X47545428Y-70145697D01*
X47545428Y-70145697D02*
X47545428Y-70202840D01*
X47545428Y-70202840D02*
X47516857Y-70288554D01*
X47516857Y-70288554D02*
X47174000Y-70631411D01*
X47174000Y-70631411D02*
X47545428Y-70631411D01*
X48088286Y-70031411D02*
X47802572Y-70031411D01*
X47802572Y-70031411D02*
X47774000Y-70317125D01*
X47774000Y-70317125D02*
X47802572Y-70288554D01*
X47802572Y-70288554D02*
X47859715Y-70259982D01*
X47859715Y-70259982D02*
X48002572Y-70259982D01*
X48002572Y-70259982D02*
X48059715Y-70288554D01*
X48059715Y-70288554D02*
X48088286Y-70317125D01*
X48088286Y-70317125D02*
X48116857Y-70374268D01*
X48116857Y-70374268D02*
X48116857Y-70517125D01*
X48116857Y-70517125D02*
X48088286Y-70574268D01*
X48088286Y-70574268D02*
X48059715Y-70602840D01*
X48059715Y-70602840D02*
X48002572Y-70631411D01*
X48002572Y-70631411D02*
X47859715Y-70631411D01*
X47859715Y-70631411D02*
X47802572Y-70602840D01*
X47802572Y-70602840D02*
X47774000Y-70574268D01*
X66702000Y-75400268D02*
X66673428Y-75428840D01*
X66673428Y-75428840D02*
X66587714Y-75457411D01*
X66587714Y-75457411D02*
X66530571Y-75457411D01*
X66530571Y-75457411D02*
X66444857Y-75428840D01*
X66444857Y-75428840D02*
X66387714Y-75371697D01*
X66387714Y-75371697D02*
X66359143Y-75314554D01*
X66359143Y-75314554D02*
X66330571Y-75200268D01*
X66330571Y-75200268D02*
X66330571Y-75114554D01*
X66330571Y-75114554D02*
X66359143Y-75000268D01*
X66359143Y-75000268D02*
X66387714Y-74943125D01*
X66387714Y-74943125D02*
X66444857Y-74885982D01*
X66444857Y-74885982D02*
X66530571Y-74857411D01*
X66530571Y-74857411D02*
X66587714Y-74857411D01*
X66587714Y-74857411D02*
X66673428Y-74885982D01*
X66673428Y-74885982D02*
X66702000Y-74914554D01*
X66930571Y-74914554D02*
X66959143Y-74885982D01*
X66959143Y-74885982D02*
X67016286Y-74857411D01*
X67016286Y-74857411D02*
X67159143Y-74857411D01*
X67159143Y-74857411D02*
X67216286Y-74885982D01*
X67216286Y-74885982D02*
X67244857Y-74914554D01*
X67244857Y-74914554D02*
X67273428Y-74971697D01*
X67273428Y-74971697D02*
X67273428Y-75028840D01*
X67273428Y-75028840D02*
X67244857Y-75114554D01*
X67244857Y-75114554D02*
X66902000Y-75457411D01*
X66902000Y-75457411D02*
X67273428Y-75457411D01*
X68102285Y-74914554D02*
X68130857Y-74885982D01*
X68130857Y-74885982D02*
X68188000Y-74857411D01*
X68188000Y-74857411D02*
X68330857Y-74857411D01*
X68330857Y-74857411D02*
X68388000Y-74885982D01*
X68388000Y-74885982D02*
X68416571Y-74914554D01*
X68416571Y-74914554D02*
X68445142Y-74971697D01*
X68445142Y-74971697D02*
X68445142Y-75028840D01*
X68445142Y-75028840D02*
X68416571Y-75114554D01*
X68416571Y-75114554D02*
X68073714Y-75457411D01*
X68073714Y-75457411D02*
X68445142Y-75457411D01*
X68673714Y-74914554D02*
X68702286Y-74885982D01*
X68702286Y-74885982D02*
X68759429Y-74857411D01*
X68759429Y-74857411D02*
X68902286Y-74857411D01*
X68902286Y-74857411D02*
X68959429Y-74885982D01*
X68959429Y-74885982D02*
X68988000Y-74914554D01*
X68988000Y-74914554D02*
X69016571Y-74971697D01*
X69016571Y-74971697D02*
X69016571Y-75028840D01*
X69016571Y-75028840D02*
X68988000Y-75114554D01*
X68988000Y-75114554D02*
X68645143Y-75457411D01*
X68645143Y-75457411D02*
X69016571Y-75457411D01*
X69273715Y-75057411D02*
X69273715Y-75657411D01*
X69273715Y-75085982D02*
X69330858Y-75057411D01*
X69330858Y-75057411D02*
X69445143Y-75057411D01*
X69445143Y-75057411D02*
X69502286Y-75085982D01*
X69502286Y-75085982D02*
X69530858Y-75114554D01*
X69530858Y-75114554D02*
X69559429Y-75171697D01*
X69559429Y-75171697D02*
X69559429Y-75343125D01*
X69559429Y-75343125D02*
X69530858Y-75400268D01*
X69530858Y-75400268D02*
X69502286Y-75428840D01*
X69502286Y-75428840D02*
X69445143Y-75457411D01*
X69445143Y-75457411D02*
X69330858Y-75457411D01*
X69330858Y-75457411D02*
X69273715Y-75428840D01*
X70016572Y-75143125D02*
X69816572Y-75143125D01*
X69816572Y-75457411D02*
X69816572Y-74857411D01*
X69816572Y-74857411D02*
X70102286Y-74857411D01*
X37645999Y-79683411D02*
X37645999Y-80111982D01*
X37645999Y-80111982D02*
X37617428Y-80197697D01*
X37617428Y-80197697D02*
X37560285Y-80254840D01*
X37560285Y-80254840D02*
X37474571Y-80283411D01*
X37474571Y-80283411D02*
X37417428Y-80283411D01*
X37903142Y-79740554D02*
X37931714Y-79711982D01*
X37931714Y-79711982D02*
X37988857Y-79683411D01*
X37988857Y-79683411D02*
X38131714Y-79683411D01*
X38131714Y-79683411D02*
X38188857Y-79711982D01*
X38188857Y-79711982D02*
X38217428Y-79740554D01*
X38217428Y-79740554D02*
X38245999Y-79797697D01*
X38245999Y-79797697D02*
X38245999Y-79854840D01*
X38245999Y-79854840D02*
X38217428Y-79940554D01*
X38217428Y-79940554D02*
X37874571Y-80283411D01*
X37874571Y-80283411D02*
X38245999Y-80283411D01*
X66359143Y-60217411D02*
X66359143Y-59617411D01*
X66359143Y-59617411D02*
X66502000Y-59617411D01*
X66502000Y-59617411D02*
X66587714Y-59645982D01*
X66587714Y-59645982D02*
X66644857Y-59703125D01*
X66644857Y-59703125D02*
X66673428Y-59760268D01*
X66673428Y-59760268D02*
X66702000Y-59874554D01*
X66702000Y-59874554D02*
X66702000Y-59960268D01*
X66702000Y-59960268D02*
X66673428Y-60074554D01*
X66673428Y-60074554D02*
X66644857Y-60131697D01*
X66644857Y-60131697D02*
X66587714Y-60188840D01*
X66587714Y-60188840D02*
X66502000Y-60217411D01*
X66502000Y-60217411D02*
X66359143Y-60217411D01*
X66930571Y-59674554D02*
X66959143Y-59645982D01*
X66959143Y-59645982D02*
X67016286Y-59617411D01*
X67016286Y-59617411D02*
X67159143Y-59617411D01*
X67159143Y-59617411D02*
X67216286Y-59645982D01*
X67216286Y-59645982D02*
X67244857Y-59674554D01*
X67244857Y-59674554D02*
X67273428Y-59731697D01*
X67273428Y-59731697D02*
X67273428Y-59788840D01*
X67273428Y-59788840D02*
X67244857Y-59874554D01*
X67244857Y-59874554D02*
X66902000Y-60217411D01*
X66902000Y-60217411D02*
X67273428Y-60217411D01*
X68753086Y-60217411D02*
X68467372Y-60217411D01*
X68467372Y-60217411D02*
X68467372Y-59617411D01*
X68953086Y-59903125D02*
X69153086Y-59903125D01*
X69238800Y-60217411D02*
X68953086Y-60217411D01*
X68953086Y-60217411D02*
X68953086Y-59617411D01*
X68953086Y-59617411D02*
X69238800Y-59617411D01*
X69495943Y-60217411D02*
X69495943Y-59617411D01*
X69495943Y-59617411D02*
X69638800Y-59617411D01*
X69638800Y-59617411D02*
X69724514Y-59645982D01*
X69724514Y-59645982D02*
X69781657Y-59703125D01*
X69781657Y-59703125D02*
X69810228Y-59760268D01*
X69810228Y-59760268D02*
X69838800Y-59874554D01*
X69838800Y-59874554D02*
X69838800Y-59960268D01*
X69838800Y-59960268D02*
X69810228Y-60074554D01*
X69810228Y-60074554D02*
X69781657Y-60131697D01*
X69781657Y-60131697D02*
X69724514Y-60188840D01*
X69724514Y-60188840D02*
X69638800Y-60217411D01*
X69638800Y-60217411D02*
X69495943Y-60217411D01*
X66702000Y-64027411D02*
X66502000Y-63741697D01*
X66359143Y-64027411D02*
X66359143Y-63427411D01*
X66359143Y-63427411D02*
X66587714Y-63427411D01*
X66587714Y-63427411D02*
X66644857Y-63455982D01*
X66644857Y-63455982D02*
X66673428Y-63484554D01*
X66673428Y-63484554D02*
X66702000Y-63541697D01*
X66702000Y-63541697D02*
X66702000Y-63627411D01*
X66702000Y-63627411D02*
X66673428Y-63684554D01*
X66673428Y-63684554D02*
X66644857Y-63713125D01*
X66644857Y-63713125D02*
X66587714Y-63741697D01*
X66587714Y-63741697D02*
X66359143Y-63741697D01*
X66902000Y-63427411D02*
X67302000Y-63427411D01*
X67302000Y-63427411D02*
X67044857Y-64027411D01*
X68316571Y-63427411D02*
X68687999Y-63427411D01*
X68687999Y-63427411D02*
X68487999Y-63655982D01*
X68487999Y-63655982D02*
X68573714Y-63655982D01*
X68573714Y-63655982D02*
X68630857Y-63684554D01*
X68630857Y-63684554D02*
X68659428Y-63713125D01*
X68659428Y-63713125D02*
X68687999Y-63770268D01*
X68687999Y-63770268D02*
X68687999Y-63913125D01*
X68687999Y-63913125D02*
X68659428Y-63970268D01*
X68659428Y-63970268D02*
X68630857Y-63998840D01*
X68630857Y-63998840D02*
X68573714Y-64027411D01*
X68573714Y-64027411D02*
X68402285Y-64027411D01*
X68402285Y-64027411D02*
X68345142Y-63998840D01*
X68345142Y-63998840D02*
X68316571Y-63970268D01*
X68888000Y-63427411D02*
X69259428Y-63427411D01*
X69259428Y-63427411D02*
X69059428Y-63655982D01*
X69059428Y-63655982D02*
X69145143Y-63655982D01*
X69145143Y-63655982D02*
X69202286Y-63684554D01*
X69202286Y-63684554D02*
X69230857Y-63713125D01*
X69230857Y-63713125D02*
X69259428Y-63770268D01*
X69259428Y-63770268D02*
X69259428Y-63913125D01*
X69259428Y-63913125D02*
X69230857Y-63970268D01*
X69230857Y-63970268D02*
X69202286Y-63998840D01*
X69202286Y-63998840D02*
X69145143Y-64027411D01*
X69145143Y-64027411D02*
X68973714Y-64027411D01*
X68973714Y-64027411D02*
X68916571Y-63998840D01*
X68916571Y-63998840D02*
X68888000Y-63970268D01*
X69630857Y-63427411D02*
X69688000Y-63427411D01*
X69688000Y-63427411D02*
X69745143Y-63455982D01*
X69745143Y-63455982D02*
X69773715Y-63484554D01*
X69773715Y-63484554D02*
X69802286Y-63541697D01*
X69802286Y-63541697D02*
X69830857Y-63655982D01*
X69830857Y-63655982D02*
X69830857Y-63798840D01*
X69830857Y-63798840D02*
X69802286Y-63913125D01*
X69802286Y-63913125D02*
X69773715Y-63970268D01*
X69773715Y-63970268D02*
X69745143Y-63998840D01*
X69745143Y-63998840D02*
X69688000Y-64027411D01*
X69688000Y-64027411D02*
X69630857Y-64027411D01*
X69630857Y-64027411D02*
X69573715Y-63998840D01*
X69573715Y-63998840D02*
X69545143Y-63970268D01*
X69545143Y-63970268D02*
X69516572Y-63913125D01*
X69516572Y-63913125D02*
X69488000Y-63798840D01*
X69488000Y-63798840D02*
X69488000Y-63655982D01*
X69488000Y-63655982D02*
X69516572Y-63541697D01*
X69516572Y-63541697D02*
X69545143Y-63484554D01*
X69545143Y-63484554D02*
X69573715Y-63455982D01*
X69573715Y-63455982D02*
X69630857Y-63427411D01*
X56796000Y-60388868D02*
X56767428Y-60417440D01*
X56767428Y-60417440D02*
X56681714Y-60446011D01*
X56681714Y-60446011D02*
X56624571Y-60446011D01*
X56624571Y-60446011D02*
X56538857Y-60417440D01*
X56538857Y-60417440D02*
X56481714Y-60360297D01*
X56481714Y-60360297D02*
X56453143Y-60303154D01*
X56453143Y-60303154D02*
X56424571Y-60188868D01*
X56424571Y-60188868D02*
X56424571Y-60103154D01*
X56424571Y-60103154D02*
X56453143Y-59988868D01*
X56453143Y-59988868D02*
X56481714Y-59931725D01*
X56481714Y-59931725D02*
X56538857Y-59874582D01*
X56538857Y-59874582D02*
X56624571Y-59846011D01*
X56624571Y-59846011D02*
X56681714Y-59846011D01*
X56681714Y-59846011D02*
X56767428Y-59874582D01*
X56767428Y-59874582D02*
X56796000Y-59903154D01*
X56996000Y-59846011D02*
X57367428Y-59846011D01*
X57367428Y-59846011D02*
X57167428Y-60074582D01*
X57167428Y-60074582D02*
X57253143Y-60074582D01*
X57253143Y-60074582D02*
X57310286Y-60103154D01*
X57310286Y-60103154D02*
X57338857Y-60131725D01*
X57338857Y-60131725D02*
X57367428Y-60188868D01*
X57367428Y-60188868D02*
X57367428Y-60331725D01*
X57367428Y-60331725D02*
X57338857Y-60388868D01*
X57338857Y-60388868D02*
X57310286Y-60417440D01*
X57310286Y-60417440D02*
X57253143Y-60446011D01*
X57253143Y-60446011D02*
X57081714Y-60446011D01*
X57081714Y-60446011D02*
X57024571Y-60417440D01*
X57024571Y-60417440D02*
X56996000Y-60388868D01*
X57815285Y-59903154D02*
X57843857Y-59874582D01*
X57843857Y-59874582D02*
X57901000Y-59846011D01*
X57901000Y-59846011D02*
X58043857Y-59846011D01*
X58043857Y-59846011D02*
X58101000Y-59874582D01*
X58101000Y-59874582D02*
X58129571Y-59903154D01*
X58129571Y-59903154D02*
X58158142Y-59960297D01*
X58158142Y-59960297D02*
X58158142Y-60017440D01*
X58158142Y-60017440D02*
X58129571Y-60103154D01*
X58129571Y-60103154D02*
X57786714Y-60446011D01*
X57786714Y-60446011D02*
X58158142Y-60446011D01*
X58386714Y-59903154D02*
X58415286Y-59874582D01*
X58415286Y-59874582D02*
X58472429Y-59846011D01*
X58472429Y-59846011D02*
X58615286Y-59846011D01*
X58615286Y-59846011D02*
X58672429Y-59874582D01*
X58672429Y-59874582D02*
X58701000Y-59903154D01*
X58701000Y-59903154D02*
X58729571Y-59960297D01*
X58729571Y-59960297D02*
X58729571Y-60017440D01*
X58729571Y-60017440D02*
X58701000Y-60103154D01*
X58701000Y-60103154D02*
X58358143Y-60446011D01*
X58358143Y-60446011D02*
X58729571Y-60446011D01*
X58986715Y-60046011D02*
X58986715Y-60646011D01*
X58986715Y-60074582D02*
X59043858Y-60046011D01*
X59043858Y-60046011D02*
X59158143Y-60046011D01*
X59158143Y-60046011D02*
X59215286Y-60074582D01*
X59215286Y-60074582D02*
X59243858Y-60103154D01*
X59243858Y-60103154D02*
X59272429Y-60160297D01*
X59272429Y-60160297D02*
X59272429Y-60331725D01*
X59272429Y-60331725D02*
X59243858Y-60388868D01*
X59243858Y-60388868D02*
X59215286Y-60417440D01*
X59215286Y-60417440D02*
X59158143Y-60446011D01*
X59158143Y-60446011D02*
X59043858Y-60446011D01*
X59043858Y-60446011D02*
X58986715Y-60417440D01*
X59729572Y-60131725D02*
X59529572Y-60131725D01*
X59529572Y-60446011D02*
X59529572Y-59846011D01*
X59529572Y-59846011D02*
X59815286Y-59846011D01*
X70766000Y-67837411D02*
X70566000Y-67551697D01*
X70423143Y-67837411D02*
X70423143Y-67237411D01*
X70423143Y-67237411D02*
X70651714Y-67237411D01*
X70651714Y-67237411D02*
X70708857Y-67265982D01*
X70708857Y-67265982D02*
X70737428Y-67294554D01*
X70737428Y-67294554D02*
X70766000Y-67351697D01*
X70766000Y-67351697D02*
X70766000Y-67437411D01*
X70766000Y-67437411D02*
X70737428Y-67494554D01*
X70737428Y-67494554D02*
X70708857Y-67523125D01*
X70708857Y-67523125D02*
X70651714Y-67551697D01*
X70651714Y-67551697D02*
X70423143Y-67551697D01*
X71280286Y-67237411D02*
X71166000Y-67237411D01*
X71166000Y-67237411D02*
X71108857Y-67265982D01*
X71108857Y-67265982D02*
X71080286Y-67294554D01*
X71080286Y-67294554D02*
X71023143Y-67380268D01*
X71023143Y-67380268D02*
X70994571Y-67494554D01*
X70994571Y-67494554D02*
X70994571Y-67723125D01*
X70994571Y-67723125D02*
X71023143Y-67780268D01*
X71023143Y-67780268D02*
X71051714Y-67808840D01*
X71051714Y-67808840D02*
X71108857Y-67837411D01*
X71108857Y-67837411D02*
X71223143Y-67837411D01*
X71223143Y-67837411D02*
X71280286Y-67808840D01*
X71280286Y-67808840D02*
X71308857Y-67780268D01*
X71308857Y-67780268D02*
X71337428Y-67723125D01*
X71337428Y-67723125D02*
X71337428Y-67580268D01*
X71337428Y-67580268D02*
X71308857Y-67523125D01*
X71308857Y-67523125D02*
X71280286Y-67494554D01*
X71280286Y-67494554D02*
X71223143Y-67465982D01*
X71223143Y-67465982D02*
X71108857Y-67465982D01*
X71108857Y-67465982D02*
X71051714Y-67494554D01*
X71051714Y-67494554D02*
X71023143Y-67523125D01*
X71023143Y-67523125D02*
X70994571Y-67580268D01*
X72737713Y-67837411D02*
X72394856Y-67837411D01*
X72566285Y-67837411D02*
X72566285Y-67237411D01*
X72566285Y-67237411D02*
X72509142Y-67323125D01*
X72509142Y-67323125D02*
X72451999Y-67380268D01*
X72451999Y-67380268D02*
X72394856Y-67408840D01*
X73109142Y-67237411D02*
X73166285Y-67237411D01*
X73166285Y-67237411D02*
X73223428Y-67265982D01*
X73223428Y-67265982D02*
X73252000Y-67294554D01*
X73252000Y-67294554D02*
X73280571Y-67351697D01*
X73280571Y-67351697D02*
X73309142Y-67465982D01*
X73309142Y-67465982D02*
X73309142Y-67608840D01*
X73309142Y-67608840D02*
X73280571Y-67723125D01*
X73280571Y-67723125D02*
X73252000Y-67780268D01*
X73252000Y-67780268D02*
X73223428Y-67808840D01*
X73223428Y-67808840D02*
X73166285Y-67837411D01*
X73166285Y-67837411D02*
X73109142Y-67837411D01*
X73109142Y-67837411D02*
X73052000Y-67808840D01*
X73052000Y-67808840D02*
X73023428Y-67780268D01*
X73023428Y-67780268D02*
X72994857Y-67723125D01*
X72994857Y-67723125D02*
X72966285Y-67608840D01*
X72966285Y-67608840D02*
X72966285Y-67465982D01*
X72966285Y-67465982D02*
X72994857Y-67351697D01*
X72994857Y-67351697D02*
X73023428Y-67294554D01*
X73023428Y-67294554D02*
X73052000Y-67265982D01*
X73052000Y-67265982D02*
X73109142Y-67237411D01*
X73566286Y-67837411D02*
X73566286Y-67237411D01*
X73909143Y-67837411D02*
X73652000Y-67494554D01*
X73909143Y-67237411D02*
X73566286Y-67580268D01*
X66448000Y-67837411D02*
X66248000Y-67551697D01*
X66105143Y-67837411D02*
X66105143Y-67237411D01*
X66105143Y-67237411D02*
X66333714Y-67237411D01*
X66333714Y-67237411D02*
X66390857Y-67265982D01*
X66390857Y-67265982D02*
X66419428Y-67294554D01*
X66419428Y-67294554D02*
X66448000Y-67351697D01*
X66448000Y-67351697D02*
X66448000Y-67437411D01*
X66448000Y-67437411D02*
X66419428Y-67494554D01*
X66419428Y-67494554D02*
X66390857Y-67523125D01*
X66390857Y-67523125D02*
X66333714Y-67551697D01*
X66333714Y-67551697D02*
X66105143Y-67551697D01*
X66962286Y-67437411D02*
X66962286Y-67837411D01*
X66819428Y-67208840D02*
X66676571Y-67637411D01*
X66676571Y-67637411D02*
X67048000Y-67637411D01*
X68219714Y-67437411D02*
X68219714Y-67837411D01*
X68076856Y-67208840D02*
X67933999Y-67637411D01*
X67933999Y-67637411D02*
X68305428Y-67637411D01*
X68534000Y-67780268D02*
X68562571Y-67808840D01*
X68562571Y-67808840D02*
X68534000Y-67837411D01*
X68534000Y-67837411D02*
X68505428Y-67808840D01*
X68505428Y-67808840D02*
X68534000Y-67780268D01*
X68534000Y-67780268D02*
X68534000Y-67837411D01*
X68762571Y-67237411D02*
X69162571Y-67237411D01*
X69162571Y-67237411D02*
X68905428Y-67837411D01*
X69391143Y-67837411D02*
X69391143Y-67237411D01*
X69734000Y-67837411D02*
X69476857Y-67494554D01*
X69734000Y-67237411D02*
X69391143Y-67580268D01*
X66956000Y-71647411D02*
X66756000Y-71361697D01*
X66613143Y-71647411D02*
X66613143Y-71047411D01*
X66613143Y-71047411D02*
X66841714Y-71047411D01*
X66841714Y-71047411D02*
X66898857Y-71075982D01*
X66898857Y-71075982D02*
X66927428Y-71104554D01*
X66927428Y-71104554D02*
X66956000Y-71161697D01*
X66956000Y-71161697D02*
X66956000Y-71247411D01*
X66956000Y-71247411D02*
X66927428Y-71304554D01*
X66927428Y-71304554D02*
X66898857Y-71333125D01*
X66898857Y-71333125D02*
X66841714Y-71361697D01*
X66841714Y-71361697D02*
X66613143Y-71361697D01*
X67156000Y-71047411D02*
X67527428Y-71047411D01*
X67527428Y-71047411D02*
X67327428Y-71275982D01*
X67327428Y-71275982D02*
X67413143Y-71275982D01*
X67413143Y-71275982D02*
X67470286Y-71304554D01*
X67470286Y-71304554D02*
X67498857Y-71333125D01*
X67498857Y-71333125D02*
X67527428Y-71390268D01*
X67527428Y-71390268D02*
X67527428Y-71533125D01*
X67527428Y-71533125D02*
X67498857Y-71590268D01*
X67498857Y-71590268D02*
X67470286Y-71618840D01*
X67470286Y-71618840D02*
X67413143Y-71647411D01*
X67413143Y-71647411D02*
X67241714Y-71647411D01*
X67241714Y-71647411D02*
X67184571Y-71618840D01*
X67184571Y-71618840D02*
X67156000Y-71590268D01*
X68473714Y-71247411D02*
X68473714Y-71647411D01*
X68330856Y-71018840D02*
X68187999Y-71447411D01*
X68187999Y-71447411D02*
X68559428Y-71447411D01*
X68788000Y-71590268D02*
X68816571Y-71618840D01*
X68816571Y-71618840D02*
X68788000Y-71647411D01*
X68788000Y-71647411D02*
X68759428Y-71618840D01*
X68759428Y-71618840D02*
X68788000Y-71590268D01*
X68788000Y-71590268D02*
X68788000Y-71647411D01*
X69016571Y-71047411D02*
X69416571Y-71047411D01*
X69416571Y-71047411D02*
X69159428Y-71647411D01*
X69645143Y-71647411D02*
X69645143Y-71047411D01*
X69988000Y-71647411D02*
X69730857Y-71304554D01*
X69988000Y-71047411D02*
X69645143Y-71390268D01*
X66956000Y-79210268D02*
X66927428Y-79238840D01*
X66927428Y-79238840D02*
X66841714Y-79267411D01*
X66841714Y-79267411D02*
X66784571Y-79267411D01*
X66784571Y-79267411D02*
X66698857Y-79238840D01*
X66698857Y-79238840D02*
X66641714Y-79181697D01*
X66641714Y-79181697D02*
X66613143Y-79124554D01*
X66613143Y-79124554D02*
X66584571Y-79010268D01*
X66584571Y-79010268D02*
X66584571Y-78924554D01*
X66584571Y-78924554D02*
X66613143Y-78810268D01*
X66613143Y-78810268D02*
X66641714Y-78753125D01*
X66641714Y-78753125D02*
X66698857Y-78695982D01*
X66698857Y-78695982D02*
X66784571Y-78667411D01*
X66784571Y-78667411D02*
X66841714Y-78667411D01*
X66841714Y-78667411D02*
X66927428Y-78695982D01*
X66927428Y-78695982D02*
X66956000Y-78724554D01*
X67470286Y-78867411D02*
X67470286Y-79267411D01*
X67327428Y-78638840D02*
X67184571Y-79067411D01*
X67184571Y-79067411D02*
X67556000Y-79067411D01*
X68229285Y-78642011D02*
X68286428Y-78642011D01*
X68286428Y-78642011D02*
X68343571Y-78670582D01*
X68343571Y-78670582D02*
X68372143Y-78699154D01*
X68372143Y-78699154D02*
X68400714Y-78756297D01*
X68400714Y-78756297D02*
X68429285Y-78870582D01*
X68429285Y-78870582D02*
X68429285Y-79013440D01*
X68429285Y-79013440D02*
X68400714Y-79127725D01*
X68400714Y-79127725D02*
X68372143Y-79184868D01*
X68372143Y-79184868D02*
X68343571Y-79213440D01*
X68343571Y-79213440D02*
X68286428Y-79242011D01*
X68286428Y-79242011D02*
X68229285Y-79242011D01*
X68229285Y-79242011D02*
X68172143Y-79213440D01*
X68172143Y-79213440D02*
X68143571Y-79184868D01*
X68143571Y-79184868D02*
X68115000Y-79127725D01*
X68115000Y-79127725D02*
X68086428Y-79013440D01*
X68086428Y-79013440D02*
X68086428Y-78870582D01*
X68086428Y-78870582D02*
X68115000Y-78756297D01*
X68115000Y-78756297D02*
X68143571Y-78699154D01*
X68143571Y-78699154D02*
X68172143Y-78670582D01*
X68172143Y-78670582D02*
X68229285Y-78642011D01*
X68686429Y-79184868D02*
X68715000Y-79213440D01*
X68715000Y-79213440D02*
X68686429Y-79242011D01*
X68686429Y-79242011D02*
X68657857Y-79213440D01*
X68657857Y-79213440D02*
X68686429Y-79184868D01*
X68686429Y-79184868D02*
X68686429Y-79242011D01*
X69286428Y-79242011D02*
X68943571Y-79242011D01*
X69115000Y-79242011D02*
X69115000Y-78642011D01*
X69115000Y-78642011D02*
X69057857Y-78727725D01*
X69057857Y-78727725D02*
X69000714Y-78784868D01*
X69000714Y-78784868D02*
X68943571Y-78813440D01*
X69800715Y-78842011D02*
X69800715Y-79242011D01*
X69543572Y-78842011D02*
X69543572Y-79156297D01*
X69543572Y-79156297D02*
X69572143Y-79213440D01*
X69572143Y-79213440D02*
X69629286Y-79242011D01*
X69629286Y-79242011D02*
X69715000Y-79242011D01*
X69715000Y-79242011D02*
X69772143Y-79213440D01*
X69772143Y-79213440D02*
X69800715Y-79184868D01*
X70286429Y-78927725D02*
X70086429Y-78927725D01*
X70086429Y-79242011D02*
X70086429Y-78642011D01*
X70086429Y-78642011D02*
X70372143Y-78642011D01*
X51612857Y-62919411D02*
X51612857Y-63405125D01*
X51612857Y-63405125D02*
X51641428Y-63462268D01*
X51641428Y-63462268D02*
X51670000Y-63490840D01*
X51670000Y-63490840D02*
X51727142Y-63519411D01*
X51727142Y-63519411D02*
X51841428Y-63519411D01*
X51841428Y-63519411D02*
X51898571Y-63490840D01*
X51898571Y-63490840D02*
X51927142Y-63462268D01*
X51927142Y-63462268D02*
X51955714Y-63405125D01*
X51955714Y-63405125D02*
X51955714Y-62919411D01*
X52498571Y-63119411D02*
X52498571Y-63519411D01*
X52355713Y-62890840D02*
X52212856Y-63319411D01*
X52212856Y-63319411D02*
X52584285Y-63319411D01*
X54523142Y-73253982D02*
X54808857Y-73253982D01*
X54465999Y-73425411D02*
X54665999Y-72825411D01*
X54665999Y-72825411D02*
X54865999Y-73425411D01*
X54980285Y-72825411D02*
X55323143Y-72825411D01*
X55151714Y-73425411D02*
X55151714Y-72825411D01*
X55523143Y-73425411D02*
X55523143Y-72825411D01*
X55523143Y-72825411D02*
X55723143Y-73253982D01*
X55723143Y-73253982D02*
X55923143Y-72825411D01*
X55923143Y-72825411D02*
X55923143Y-73425411D01*
X56208857Y-73111125D02*
X56408857Y-73111125D01*
X56494571Y-73425411D02*
X56208857Y-73425411D01*
X56208857Y-73425411D02*
X56208857Y-72825411D01*
X56208857Y-72825411D02*
X56494571Y-72825411D01*
X57065999Y-72853982D02*
X57008857Y-72825411D01*
X57008857Y-72825411D02*
X56923142Y-72825411D01*
X56923142Y-72825411D02*
X56837428Y-72853982D01*
X56837428Y-72853982D02*
X56780285Y-72911125D01*
X56780285Y-72911125D02*
X56751714Y-72968268D01*
X56751714Y-72968268D02*
X56723142Y-73082554D01*
X56723142Y-73082554D02*
X56723142Y-73168268D01*
X56723142Y-73168268D02*
X56751714Y-73282554D01*
X56751714Y-73282554D02*
X56780285Y-73339697D01*
X56780285Y-73339697D02*
X56837428Y-73396840D01*
X56837428Y-73396840D02*
X56923142Y-73425411D01*
X56923142Y-73425411D02*
X56980285Y-73425411D01*
X56980285Y-73425411D02*
X57065999Y-73396840D01*
X57065999Y-73396840D02*
X57094571Y-73368268D01*
X57094571Y-73368268D02*
X57094571Y-73168268D01*
X57094571Y-73168268D02*
X56980285Y-73168268D01*
X57323142Y-73253982D02*
X57608857Y-73253982D01*
X57265999Y-73425411D02*
X57465999Y-72825411D01*
X57465999Y-72825411D02*
X57665999Y-73425411D01*
X57808857Y-72825411D02*
X58180285Y-72825411D01*
X58180285Y-72825411D02*
X57980285Y-73053982D01*
X57980285Y-73053982D02*
X58066000Y-73053982D01*
X58066000Y-73053982D02*
X58123143Y-73082554D01*
X58123143Y-73082554D02*
X58151714Y-73111125D01*
X58151714Y-73111125D02*
X58180285Y-73168268D01*
X58180285Y-73168268D02*
X58180285Y-73311125D01*
X58180285Y-73311125D02*
X58151714Y-73368268D01*
X58151714Y-73368268D02*
X58123143Y-73396840D01*
X58123143Y-73396840D02*
X58066000Y-73425411D01*
X58066000Y-73425411D02*
X57894571Y-73425411D01*
X57894571Y-73425411D02*
X57837428Y-73396840D01*
X57837428Y-73396840D02*
X57808857Y-73368268D01*
X58408857Y-72882554D02*
X58437429Y-72853982D01*
X58437429Y-72853982D02*
X58494572Y-72825411D01*
X58494572Y-72825411D02*
X58637429Y-72825411D01*
X58637429Y-72825411D02*
X58694572Y-72853982D01*
X58694572Y-72853982D02*
X58723143Y-72882554D01*
X58723143Y-72882554D02*
X58751714Y-72939697D01*
X58751714Y-72939697D02*
X58751714Y-72996840D01*
X58751714Y-72996840D02*
X58723143Y-73082554D01*
X58723143Y-73082554D02*
X58380286Y-73425411D01*
X58380286Y-73425411D02*
X58751714Y-73425411D01*
X59094572Y-73082554D02*
X59037429Y-73053982D01*
X59037429Y-73053982D02*
X59008858Y-73025411D01*
X59008858Y-73025411D02*
X58980286Y-72968268D01*
X58980286Y-72968268D02*
X58980286Y-72939697D01*
X58980286Y-72939697D02*
X59008858Y-72882554D01*
X59008858Y-72882554D02*
X59037429Y-72853982D01*
X59037429Y-72853982D02*
X59094572Y-72825411D01*
X59094572Y-72825411D02*
X59208858Y-72825411D01*
X59208858Y-72825411D02*
X59266001Y-72853982D01*
X59266001Y-72853982D02*
X59294572Y-72882554D01*
X59294572Y-72882554D02*
X59323143Y-72939697D01*
X59323143Y-72939697D02*
X59323143Y-72968268D01*
X59323143Y-72968268D02*
X59294572Y-73025411D01*
X59294572Y-73025411D02*
X59266001Y-73053982D01*
X59266001Y-73053982D02*
X59208858Y-73082554D01*
X59208858Y-73082554D02*
X59094572Y-73082554D01*
X59094572Y-73082554D02*
X59037429Y-73111125D01*
X59037429Y-73111125D02*
X59008858Y-73139697D01*
X59008858Y-73139697D02*
X58980286Y-73196840D01*
X58980286Y-73196840D02*
X58980286Y-73311125D01*
X58980286Y-73311125D02*
X59008858Y-73368268D01*
X59008858Y-73368268D02*
X59037429Y-73396840D01*
X59037429Y-73396840D02*
X59094572Y-73425411D01*
X59094572Y-73425411D02*
X59208858Y-73425411D01*
X59208858Y-73425411D02*
X59266001Y-73396840D01*
X59266001Y-73396840D02*
X59294572Y-73368268D01*
X59294572Y-73368268D02*
X59323143Y-73311125D01*
X59323143Y-73311125D02*
X59323143Y-73196840D01*
X59323143Y-73196840D02*
X59294572Y-73139697D01*
X59294572Y-73139697D02*
X59266001Y-73111125D01*
X59266001Y-73111125D02*
X59208858Y-73082554D01*
X59580287Y-73425411D02*
X59580287Y-72825411D01*
X59580287Y-72825411D02*
X59808858Y-72825411D01*
X59808858Y-72825411D02*
X59866001Y-72853982D01*
X59866001Y-72853982D02*
X59894572Y-72882554D01*
X59894572Y-72882554D02*
X59923144Y-72939697D01*
X59923144Y-72939697D02*
X59923144Y-73025411D01*
X59923144Y-73025411D02*
X59894572Y-73082554D01*
X59894572Y-73082554D02*
X59866001Y-73111125D01*
X59866001Y-73111125D02*
X59808858Y-73139697D01*
X59808858Y-73139697D02*
X59580287Y-73139697D01*
X60180287Y-73196840D02*
X60637430Y-73196840D01*
X60894572Y-73253982D02*
X61180287Y-73253982D01*
X60837429Y-73425411D02*
X61037429Y-72825411D01*
X61037429Y-72825411D02*
X61237429Y-73425411D01*
X61437430Y-72825411D02*
X61437430Y-73311125D01*
X61437430Y-73311125D02*
X61466001Y-73368268D01*
X61466001Y-73368268D02*
X61494573Y-73396840D01*
X61494573Y-73396840D02*
X61551715Y-73425411D01*
X61551715Y-73425411D02*
X61666001Y-73425411D01*
X61666001Y-73425411D02*
X61723144Y-73396840D01*
X61723144Y-73396840D02*
X61751715Y-73368268D01*
X61751715Y-73368268D02*
X61780287Y-73311125D01*
X61780287Y-73311125D02*
X61780287Y-72825411D01*
X63299999Y-79937411D02*
X63299999Y-80365982D01*
X63299999Y-80365982D02*
X63271428Y-80451697D01*
X63271428Y-80451697D02*
X63214285Y-80508840D01*
X63214285Y-80508840D02*
X63128571Y-80537411D01*
X63128571Y-80537411D02*
X63071428Y-80537411D01*
X63528571Y-79937411D02*
X63899999Y-79937411D01*
X63899999Y-79937411D02*
X63699999Y-80165982D01*
X63699999Y-80165982D02*
X63785714Y-80165982D01*
X63785714Y-80165982D02*
X63842857Y-80194554D01*
X63842857Y-80194554D02*
X63871428Y-80223125D01*
X63871428Y-80223125D02*
X63899999Y-80280268D01*
X63899999Y-80280268D02*
X63899999Y-80423125D01*
X63899999Y-80423125D02*
X63871428Y-80480268D01*
X63871428Y-80480268D02*
X63842857Y-80508840D01*
X63842857Y-80508840D02*
X63785714Y-80537411D01*
X63785714Y-80537411D02*
X63614285Y-80537411D01*
X63614285Y-80537411D02*
X63557142Y-80508840D01*
X63557142Y-80508840D02*
X63528571Y-80480268D01*
X35274285Y-68821697D02*
X35274285Y-69107411D01*
X35074285Y-68507411D02*
X35274285Y-68821697D01*
X35274285Y-68821697D02*
X35474285Y-68507411D01*
X35988571Y-69107411D02*
X35645714Y-69107411D01*
X35817143Y-69107411D02*
X35817143Y-68507411D01*
X35817143Y-68507411D02*
X35760000Y-68593125D01*
X35760000Y-68593125D02*
X35702857Y-68650268D01*
X35702857Y-68650268D02*
X35645714Y-68678840D01*
X39303411Y-76485428D02*
X39303411Y-76114000D01*
X39303411Y-76114000D02*
X39531982Y-76314000D01*
X39531982Y-76314000D02*
X39531982Y-76228285D01*
X39531982Y-76228285D02*
X39560554Y-76171143D01*
X39560554Y-76171143D02*
X39589125Y-76142571D01*
X39589125Y-76142571D02*
X39646268Y-76114000D01*
X39646268Y-76114000D02*
X39789125Y-76114000D01*
X39789125Y-76114000D02*
X39846268Y-76142571D01*
X39846268Y-76142571D02*
X39874840Y-76171143D01*
X39874840Y-76171143D02*
X39903411Y-76228285D01*
X39903411Y-76228285D02*
X39903411Y-76399714D01*
X39903411Y-76399714D02*
X39874840Y-76456857D01*
X39874840Y-76456857D02*
X39846268Y-76485428D01*
X39360554Y-75885428D02*
X39331982Y-75856856D01*
X39331982Y-75856856D02*
X39303411Y-75799714D01*
X39303411Y-75799714D02*
X39303411Y-75656856D01*
X39303411Y-75656856D02*
X39331982Y-75599714D01*
X39331982Y-75599714D02*
X39360554Y-75571142D01*
X39360554Y-75571142D02*
X39417697Y-75542571D01*
X39417697Y-75542571D02*
X39474840Y-75542571D01*
X39474840Y-75542571D02*
X39560554Y-75571142D01*
X39560554Y-75571142D02*
X39903411Y-75913999D01*
X39903411Y-75913999D02*
X39903411Y-75542571D01*
X39846268Y-75285427D02*
X39874840Y-75256856D01*
X39874840Y-75256856D02*
X39903411Y-75285427D01*
X39903411Y-75285427D02*
X39874840Y-75313999D01*
X39874840Y-75313999D02*
X39846268Y-75285427D01*
X39846268Y-75285427D02*
X39903411Y-75285427D01*
X39303411Y-75056856D02*
X39303411Y-74656856D01*
X39303411Y-74656856D02*
X39903411Y-74913999D01*
X39303411Y-74171142D02*
X39303411Y-74285427D01*
X39303411Y-74285427D02*
X39331982Y-74342570D01*
X39331982Y-74342570D02*
X39360554Y-74371142D01*
X39360554Y-74371142D02*
X39446268Y-74428284D01*
X39446268Y-74428284D02*
X39560554Y-74456856D01*
X39560554Y-74456856D02*
X39789125Y-74456856D01*
X39789125Y-74456856D02*
X39846268Y-74428284D01*
X39846268Y-74428284D02*
X39874840Y-74399713D01*
X39874840Y-74399713D02*
X39903411Y-74342570D01*
X39903411Y-74342570D02*
X39903411Y-74228284D01*
X39903411Y-74228284D02*
X39874840Y-74171142D01*
X39874840Y-74171142D02*
X39846268Y-74142570D01*
X39846268Y-74142570D02*
X39789125Y-74113999D01*
X39789125Y-74113999D02*
X39646268Y-74113999D01*
X39646268Y-74113999D02*
X39589125Y-74142570D01*
X39589125Y-74142570D02*
X39560554Y-74171142D01*
X39560554Y-74171142D02*
X39531982Y-74228284D01*
X39531982Y-74228284D02*
X39531982Y-74342570D01*
X39531982Y-74342570D02*
X39560554Y-74399713D01*
X39560554Y-74399713D02*
X39589125Y-74428284D01*
X39589125Y-74428284D02*
X39646268Y-74456856D01*
X39560554Y-73771141D02*
X39531982Y-73828284D01*
X39531982Y-73828284D02*
X39503411Y-73856855D01*
X39503411Y-73856855D02*
X39446268Y-73885427D01*
X39446268Y-73885427D02*
X39417697Y-73885427D01*
X39417697Y-73885427D02*
X39360554Y-73856855D01*
X39360554Y-73856855D02*
X39331982Y-73828284D01*
X39331982Y-73828284D02*
X39303411Y-73771141D01*
X39303411Y-73771141D02*
X39303411Y-73656855D01*
X39303411Y-73656855D02*
X39331982Y-73599713D01*
X39331982Y-73599713D02*
X39360554Y-73571141D01*
X39360554Y-73571141D02*
X39417697Y-73542570D01*
X39417697Y-73542570D02*
X39446268Y-73542570D01*
X39446268Y-73542570D02*
X39503411Y-73571141D01*
X39503411Y-73571141D02*
X39531982Y-73599713D01*
X39531982Y-73599713D02*
X39560554Y-73656855D01*
X39560554Y-73656855D02*
X39560554Y-73771141D01*
X39560554Y-73771141D02*
X39589125Y-73828284D01*
X39589125Y-73828284D02*
X39617697Y-73856855D01*
X39617697Y-73856855D02*
X39674840Y-73885427D01*
X39674840Y-73885427D02*
X39789125Y-73885427D01*
X39789125Y-73885427D02*
X39846268Y-73856855D01*
X39846268Y-73856855D02*
X39874840Y-73828284D01*
X39874840Y-73828284D02*
X39903411Y-73771141D01*
X39903411Y-73771141D02*
X39903411Y-73656855D01*
X39903411Y-73656855D02*
X39874840Y-73599713D01*
X39874840Y-73599713D02*
X39846268Y-73571141D01*
X39846268Y-73571141D02*
X39789125Y-73542570D01*
X39789125Y-73542570D02*
X39674840Y-73542570D01*
X39674840Y-73542570D02*
X39617697Y-73571141D01*
X39617697Y-73571141D02*
X39589125Y-73599713D01*
X39589125Y-73599713D02*
X39560554Y-73656855D01*
X39903411Y-72828283D02*
X39303411Y-72828283D01*
X39903411Y-72485426D02*
X39560554Y-72742569D01*
X39303411Y-72485426D02*
X39646268Y-72828283D01*
X39903411Y-72228283D02*
X39303411Y-72228283D01*
X39589125Y-72228283D02*
X39589125Y-71885426D01*
X39903411Y-71885426D02*
X39303411Y-71885426D01*
X39503411Y-71656855D02*
X39503411Y-71342570D01*
X39503411Y-71342570D02*
X39903411Y-71656855D01*
X39903411Y-71656855D02*
X39903411Y-71342570D01*
X40794000Y-79521411D02*
X40594000Y-79235697D01*
X40451143Y-79521411D02*
X40451143Y-78921411D01*
X40451143Y-78921411D02*
X40679714Y-78921411D01*
X40679714Y-78921411D02*
X40736857Y-78949982D01*
X40736857Y-78949982D02*
X40765428Y-78978554D01*
X40765428Y-78978554D02*
X40794000Y-79035697D01*
X40794000Y-79035697D02*
X40794000Y-79121411D01*
X40794000Y-79121411D02*
X40765428Y-79178554D01*
X40765428Y-79178554D02*
X40736857Y-79207125D01*
X40736857Y-79207125D02*
X40679714Y-79235697D01*
X40679714Y-79235697D02*
X40451143Y-79235697D01*
X41365428Y-79521411D02*
X41022571Y-79521411D01*
X41194000Y-79521411D02*
X41194000Y-78921411D01*
X41194000Y-78921411D02*
X41136857Y-79007125D01*
X41136857Y-79007125D02*
X41079714Y-79064268D01*
X41079714Y-79064268D02*
X41022571Y-79092840D01*
X41167411Y-78392286D02*
X41167411Y-78735143D01*
X41167411Y-78563714D02*
X40567411Y-78563714D01*
X40567411Y-78563714D02*
X40653125Y-78620857D01*
X40653125Y-78620857D02*
X40710268Y-78678000D01*
X40710268Y-78678000D02*
X40738840Y-78735143D01*
X40567411Y-78020857D02*
X40567411Y-77963714D01*
X40567411Y-77963714D02*
X40595982Y-77906571D01*
X40595982Y-77906571D02*
X40624554Y-77878000D01*
X40624554Y-77878000D02*
X40681697Y-77849428D01*
X40681697Y-77849428D02*
X40795982Y-77820857D01*
X40795982Y-77820857D02*
X40938840Y-77820857D01*
X40938840Y-77820857D02*
X41053125Y-77849428D01*
X41053125Y-77849428D02*
X41110268Y-77878000D01*
X41110268Y-77878000D02*
X41138840Y-77906571D01*
X41138840Y-77906571D02*
X41167411Y-77963714D01*
X41167411Y-77963714D02*
X41167411Y-78020857D01*
X41167411Y-78020857D02*
X41138840Y-78078000D01*
X41138840Y-78078000D02*
X41110268Y-78106571D01*
X41110268Y-78106571D02*
X41053125Y-78135142D01*
X41053125Y-78135142D02*
X40938840Y-78163714D01*
X40938840Y-78163714D02*
X40795982Y-78163714D01*
X40795982Y-78163714D02*
X40681697Y-78135142D01*
X40681697Y-78135142D02*
X40624554Y-78106571D01*
X40624554Y-78106571D02*
X40595982Y-78078000D01*
X40595982Y-78078000D02*
X40567411Y-78020857D01*
X41167411Y-77563713D02*
X40567411Y-77563713D01*
X41167411Y-77220856D02*
X40824554Y-77477999D01*
X40567411Y-77220856D02*
X40910268Y-77563713D01*
X40690857Y-72063411D02*
X40690857Y-72549125D01*
X40690857Y-72549125D02*
X40719428Y-72606268D01*
X40719428Y-72606268D02*
X40748000Y-72634840D01*
X40748000Y-72634840D02*
X40805142Y-72663411D01*
X40805142Y-72663411D02*
X40919428Y-72663411D01*
X40919428Y-72663411D02*
X40976571Y-72634840D01*
X40976571Y-72634840D02*
X41005142Y-72606268D01*
X41005142Y-72606268D02*
X41033714Y-72549125D01*
X41033714Y-72549125D02*
X41033714Y-72063411D01*
X41290856Y-72120554D02*
X41319428Y-72091982D01*
X41319428Y-72091982D02*
X41376571Y-72063411D01*
X41376571Y-72063411D02*
X41519428Y-72063411D01*
X41519428Y-72063411D02*
X41576571Y-72091982D01*
X41576571Y-72091982D02*
X41605142Y-72120554D01*
X41605142Y-72120554D02*
X41633713Y-72177697D01*
X41633713Y-72177697D02*
X41633713Y-72234840D01*
X41633713Y-72234840D02*
X41605142Y-72320554D01*
X41605142Y-72320554D02*
X41262285Y-72663411D01*
X41262285Y-72663411D02*
X41633713Y-72663411D01*
X45874000Y-80029411D02*
X45674000Y-79743697D01*
X45531143Y-80029411D02*
X45531143Y-79429411D01*
X45531143Y-79429411D02*
X45759714Y-79429411D01*
X45759714Y-79429411D02*
X45816857Y-79457982D01*
X45816857Y-79457982D02*
X45845428Y-79486554D01*
X45845428Y-79486554D02*
X45874000Y-79543697D01*
X45874000Y-79543697D02*
X45874000Y-79629411D01*
X45874000Y-79629411D02*
X45845428Y-79686554D01*
X45845428Y-79686554D02*
X45816857Y-79715125D01*
X45816857Y-79715125D02*
X45759714Y-79743697D01*
X45759714Y-79743697D02*
X45531143Y-79743697D01*
X46102571Y-79486554D02*
X46131143Y-79457982D01*
X46131143Y-79457982D02*
X46188286Y-79429411D01*
X46188286Y-79429411D02*
X46331143Y-79429411D01*
X46331143Y-79429411D02*
X46388286Y-79457982D01*
X46388286Y-79457982D02*
X46416857Y-79486554D01*
X46416857Y-79486554D02*
X46445428Y-79543697D01*
X46445428Y-79543697D02*
X46445428Y-79600840D01*
X46445428Y-79600840D02*
X46416857Y-79686554D01*
X46416857Y-79686554D02*
X46074000Y-80029411D01*
X46074000Y-80029411D02*
X46445428Y-80029411D01*
X50311411Y-78646286D02*
X50311411Y-78989143D01*
X50311411Y-78817714D02*
X49711411Y-78817714D01*
X49711411Y-78817714D02*
X49797125Y-78874857D01*
X49797125Y-78874857D02*
X49854268Y-78932000D01*
X49854268Y-78932000D02*
X49882840Y-78989143D01*
X49711411Y-78274857D02*
X49711411Y-78217714D01*
X49711411Y-78217714D02*
X49739982Y-78160571D01*
X49739982Y-78160571D02*
X49768554Y-78132000D01*
X49768554Y-78132000D02*
X49825697Y-78103428D01*
X49825697Y-78103428D02*
X49939982Y-78074857D01*
X49939982Y-78074857D02*
X50082840Y-78074857D01*
X50082840Y-78074857D02*
X50197125Y-78103428D01*
X50197125Y-78103428D02*
X50254268Y-78132000D01*
X50254268Y-78132000D02*
X50282840Y-78160571D01*
X50282840Y-78160571D02*
X50311411Y-78217714D01*
X50311411Y-78217714D02*
X50311411Y-78274857D01*
X50311411Y-78274857D02*
X50282840Y-78332000D01*
X50282840Y-78332000D02*
X50254268Y-78360571D01*
X50254268Y-78360571D02*
X50197125Y-78389142D01*
X50197125Y-78389142D02*
X50082840Y-78417714D01*
X50082840Y-78417714D02*
X49939982Y-78417714D01*
X49939982Y-78417714D02*
X49825697Y-78389142D01*
X49825697Y-78389142D02*
X49768554Y-78360571D01*
X49768554Y-78360571D02*
X49739982Y-78332000D01*
X49739982Y-78332000D02*
X49711411Y-78274857D01*
X50311411Y-77817713D02*
X49711411Y-77817713D01*
X50311411Y-77474856D02*
X49968554Y-77731999D01*
X49711411Y-77474856D02*
X50054268Y-77817713D01*
X40182857Y-57585411D02*
X40182857Y-58071125D01*
X40182857Y-58071125D02*
X40211428Y-58128268D01*
X40211428Y-58128268D02*
X40240000Y-58156840D01*
X40240000Y-58156840D02*
X40297142Y-58185411D01*
X40297142Y-58185411D02*
X40411428Y-58185411D01*
X40411428Y-58185411D02*
X40468571Y-58156840D01*
X40468571Y-58156840D02*
X40497142Y-58128268D01*
X40497142Y-58128268D02*
X40525714Y-58071125D01*
X40525714Y-58071125D02*
X40525714Y-57585411D01*
X40754285Y-57585411D02*
X41125713Y-57585411D01*
X41125713Y-57585411D02*
X40925713Y-57813982D01*
X40925713Y-57813982D02*
X41011428Y-57813982D01*
X41011428Y-57813982D02*
X41068571Y-57842554D01*
X41068571Y-57842554D02*
X41097142Y-57871125D01*
X41097142Y-57871125D02*
X41125713Y-57928268D01*
X41125713Y-57928268D02*
X41125713Y-58071125D01*
X41125713Y-58071125D02*
X41097142Y-58128268D01*
X41097142Y-58128268D02*
X41068571Y-58156840D01*
X41068571Y-58156840D02*
X41011428Y-58185411D01*
X41011428Y-58185411D02*
X40839999Y-58185411D01*
X40839999Y-58185411D02*
X40782856Y-58156840D01*
X40782856Y-58156840D02*
X40754285Y-58128268D01*
X40370554Y-63356858D02*
X40341982Y-63328286D01*
X40341982Y-63328286D02*
X40313411Y-63271144D01*
X40313411Y-63271144D02*
X40313411Y-63128286D01*
X40313411Y-63128286D02*
X40341982Y-63071144D01*
X40341982Y-63071144D02*
X40370554Y-63042572D01*
X40370554Y-63042572D02*
X40427697Y-63014001D01*
X40427697Y-63014001D02*
X40484840Y-63014001D01*
X40484840Y-63014001D02*
X40570554Y-63042572D01*
X40570554Y-63042572D02*
X40913411Y-63385429D01*
X40913411Y-63385429D02*
X40913411Y-63014001D01*
X40513411Y-62499715D02*
X40913411Y-62499715D01*
X40284840Y-62642572D02*
X40713411Y-62785429D01*
X40713411Y-62785429D02*
X40713411Y-62414000D01*
X40913411Y-61899714D02*
X40913411Y-62185428D01*
X40913411Y-62185428D02*
X40313411Y-62185428D01*
X40856268Y-61356857D02*
X40884840Y-61385429D01*
X40884840Y-61385429D02*
X40913411Y-61471143D01*
X40913411Y-61471143D02*
X40913411Y-61528286D01*
X40913411Y-61528286D02*
X40884840Y-61614000D01*
X40884840Y-61614000D02*
X40827697Y-61671143D01*
X40827697Y-61671143D02*
X40770554Y-61699714D01*
X40770554Y-61699714D02*
X40656268Y-61728286D01*
X40656268Y-61728286D02*
X40570554Y-61728286D01*
X40570554Y-61728286D02*
X40456268Y-61699714D01*
X40456268Y-61699714D02*
X40399125Y-61671143D01*
X40399125Y-61671143D02*
X40341982Y-61614000D01*
X40341982Y-61614000D02*
X40313411Y-61528286D01*
X40313411Y-61528286D02*
X40313411Y-61471143D01*
X40313411Y-61471143D02*
X40341982Y-61385429D01*
X40341982Y-61385429D02*
X40370554Y-61356857D01*
X40913411Y-60785429D02*
X40913411Y-61128286D01*
X40913411Y-60956857D02*
X40313411Y-60956857D01*
X40313411Y-60956857D02*
X40399125Y-61014000D01*
X40399125Y-61014000D02*
X40456268Y-61071143D01*
X40456268Y-61071143D02*
X40484840Y-61128286D01*
X40313411Y-60414000D02*
X40313411Y-60356857D01*
X40313411Y-60356857D02*
X40341982Y-60299714D01*
X40341982Y-60299714D02*
X40370554Y-60271143D01*
X40370554Y-60271143D02*
X40427697Y-60242571D01*
X40427697Y-60242571D02*
X40541982Y-60214000D01*
X40541982Y-60214000D02*
X40684840Y-60214000D01*
X40684840Y-60214000D02*
X40799125Y-60242571D01*
X40799125Y-60242571D02*
X40856268Y-60271143D01*
X40856268Y-60271143D02*
X40884840Y-60299714D01*
X40884840Y-60299714D02*
X40913411Y-60356857D01*
X40913411Y-60356857D02*
X40913411Y-60414000D01*
X40913411Y-60414000D02*
X40884840Y-60471143D01*
X40884840Y-60471143D02*
X40856268Y-60499714D01*
X40856268Y-60499714D02*
X40799125Y-60528285D01*
X40799125Y-60528285D02*
X40684840Y-60556857D01*
X40684840Y-60556857D02*
X40541982Y-60556857D01*
X40541982Y-60556857D02*
X40427697Y-60528285D01*
X40427697Y-60528285D02*
X40370554Y-60499714D01*
X40370554Y-60499714D02*
X40341982Y-60471143D01*
X40341982Y-60471143D02*
X40313411Y-60414000D01*
X40370554Y-59985428D02*
X40341982Y-59956856D01*
X40341982Y-59956856D02*
X40313411Y-59899714D01*
X40313411Y-59899714D02*
X40313411Y-59756856D01*
X40313411Y-59756856D02*
X40341982Y-59699714D01*
X40341982Y-59699714D02*
X40370554Y-59671142D01*
X40370554Y-59671142D02*
X40427697Y-59642571D01*
X40427697Y-59642571D02*
X40484840Y-59642571D01*
X40484840Y-59642571D02*
X40570554Y-59671142D01*
X40570554Y-59671142D02*
X40913411Y-60013999D01*
X40913411Y-60013999D02*
X40913411Y-59642571D01*
X40313411Y-59099713D02*
X40313411Y-59385427D01*
X40313411Y-59385427D02*
X40599125Y-59413999D01*
X40599125Y-59413999D02*
X40570554Y-59385427D01*
X40570554Y-59385427D02*
X40541982Y-59328285D01*
X40541982Y-59328285D02*
X40541982Y-59185427D01*
X40541982Y-59185427D02*
X40570554Y-59128285D01*
X40570554Y-59128285D02*
X40599125Y-59099713D01*
X40599125Y-59099713D02*
X40656268Y-59071142D01*
X40656268Y-59071142D02*
X40799125Y-59071142D01*
X40799125Y-59071142D02*
X40856268Y-59099713D01*
X40856268Y-59099713D02*
X40884840Y-59128285D01*
X40884840Y-59128285D02*
X40913411Y-59185427D01*
X40913411Y-59185427D02*
X40913411Y-59328285D01*
X40913411Y-59328285D02*
X40884840Y-59385427D01*
X40884840Y-59385427D02*
X40856268Y-59413999D01*
X70423143Y-60217411D02*
X70423143Y-59617411D01*
X70423143Y-59617411D02*
X70566000Y-59617411D01*
X70566000Y-59617411D02*
X70651714Y-59645982D01*
X70651714Y-59645982D02*
X70708857Y-59703125D01*
X70708857Y-59703125D02*
X70737428Y-59760268D01*
X70737428Y-59760268D02*
X70766000Y-59874554D01*
X70766000Y-59874554D02*
X70766000Y-59960268D01*
X70766000Y-59960268D02*
X70737428Y-60074554D01*
X70737428Y-60074554D02*
X70708857Y-60131697D01*
X70708857Y-60131697D02*
X70651714Y-60188840D01*
X70651714Y-60188840D02*
X70566000Y-60217411D01*
X70566000Y-60217411D02*
X70423143Y-60217411D01*
X71337428Y-60217411D02*
X70994571Y-60217411D01*
X71166000Y-60217411D02*
X71166000Y-59617411D01*
X71166000Y-59617411D02*
X71108857Y-59703125D01*
X71108857Y-59703125D02*
X71051714Y-59760268D01*
X71051714Y-59760268D02*
X70994571Y-59788840D01*
X72537686Y-60166611D02*
X72251972Y-60166611D01*
X72251972Y-60166611D02*
X72251972Y-59566611D01*
X72737686Y-59852325D02*
X72937686Y-59852325D01*
X73023400Y-60166611D02*
X72737686Y-60166611D01*
X72737686Y-60166611D02*
X72737686Y-59566611D01*
X72737686Y-59566611D02*
X73023400Y-59566611D01*
X73280543Y-60166611D02*
X73280543Y-59566611D01*
X73280543Y-59566611D02*
X73423400Y-59566611D01*
X73423400Y-59566611D02*
X73509114Y-59595182D01*
X73509114Y-59595182D02*
X73566257Y-59652325D01*
X73566257Y-59652325D02*
X73594828Y-59709468D01*
X73594828Y-59709468D02*
X73623400Y-59823754D01*
X73623400Y-59823754D02*
X73623400Y-59909468D01*
X73623400Y-59909468D02*
X73594828Y-60023754D01*
X73594828Y-60023754D02*
X73566257Y-60080897D01*
X73566257Y-60080897D02*
X73509114Y-60138040D01*
X73509114Y-60138040D02*
X73423400Y-60166611D01*
X73423400Y-60166611D02*
X73280543Y-60166611D01*
X35587143Y-67363125D02*
X35672857Y-67391697D01*
X35672857Y-67391697D02*
X35701428Y-67420268D01*
X35701428Y-67420268D02*
X35730000Y-67477411D01*
X35730000Y-67477411D02*
X35730000Y-67563125D01*
X35730000Y-67563125D02*
X35701428Y-67620268D01*
X35701428Y-67620268D02*
X35672857Y-67648840D01*
X35672857Y-67648840D02*
X35615714Y-67677411D01*
X35615714Y-67677411D02*
X35387143Y-67677411D01*
X35387143Y-67677411D02*
X35387143Y-67077411D01*
X35387143Y-67077411D02*
X35587143Y-67077411D01*
X35587143Y-67077411D02*
X35644286Y-67105982D01*
X35644286Y-67105982D02*
X35672857Y-67134554D01*
X35672857Y-67134554D02*
X35701428Y-67191697D01*
X35701428Y-67191697D02*
X35701428Y-67248840D01*
X35701428Y-67248840D02*
X35672857Y-67305982D01*
X35672857Y-67305982D02*
X35644286Y-67334554D01*
X35644286Y-67334554D02*
X35587143Y-67363125D01*
X35587143Y-67363125D02*
X35387143Y-67363125D01*
X36244286Y-67677411D02*
X36244286Y-67363125D01*
X36244286Y-67363125D02*
X36215714Y-67305982D01*
X36215714Y-67305982D02*
X36158571Y-67277411D01*
X36158571Y-67277411D02*
X36044286Y-67277411D01*
X36044286Y-67277411D02*
X35987143Y-67305982D01*
X36244286Y-67648840D02*
X36187143Y-67677411D01*
X36187143Y-67677411D02*
X36044286Y-67677411D01*
X36044286Y-67677411D02*
X35987143Y-67648840D01*
X35987143Y-67648840D02*
X35958571Y-67591697D01*
X35958571Y-67591697D02*
X35958571Y-67534554D01*
X35958571Y-67534554D02*
X35987143Y-67477411D01*
X35987143Y-67477411D02*
X36044286Y-67448840D01*
X36044286Y-67448840D02*
X36187143Y-67448840D01*
X36187143Y-67448840D02*
X36244286Y-67420268D01*
X36444285Y-67277411D02*
X36672857Y-67277411D01*
X36530000Y-67077411D02*
X36530000Y-67591697D01*
X36530000Y-67591697D02*
X36558571Y-67648840D01*
X36558571Y-67648840D02*
X36615714Y-67677411D01*
X36615714Y-67677411D02*
X36672857Y-67677411D01*
X36787142Y-67277411D02*
X37015714Y-67277411D01*
X36872857Y-67077411D02*
X36872857Y-67591697D01*
X36872857Y-67591697D02*
X36901428Y-67648840D01*
X36901428Y-67648840D02*
X36958571Y-67677411D01*
X36958571Y-67677411D02*
X37015714Y-67677411D01*
X37444285Y-67648840D02*
X37387142Y-67677411D01*
X37387142Y-67677411D02*
X37272857Y-67677411D01*
X37272857Y-67677411D02*
X37215714Y-67648840D01*
X37215714Y-67648840D02*
X37187142Y-67591697D01*
X37187142Y-67591697D02*
X37187142Y-67363125D01*
X37187142Y-67363125D02*
X37215714Y-67305982D01*
X37215714Y-67305982D02*
X37272857Y-67277411D01*
X37272857Y-67277411D02*
X37387142Y-67277411D01*
X37387142Y-67277411D02*
X37444285Y-67305982D01*
X37444285Y-67305982D02*
X37472857Y-67363125D01*
X37472857Y-67363125D02*
X37472857Y-67420268D01*
X37472857Y-67420268D02*
X37187142Y-67477411D01*
X37730000Y-67677411D02*
X37730000Y-67277411D01*
X37730000Y-67391697D02*
X37758571Y-67334554D01*
X37758571Y-67334554D02*
X37787143Y-67305982D01*
X37787143Y-67305982D02*
X37844285Y-67277411D01*
X37844285Y-67277411D02*
X37901428Y-67277411D01*
X38044286Y-67277411D02*
X38187143Y-67677411D01*
X38330000Y-67277411D02*
X38187143Y-67677411D01*
X38187143Y-67677411D02*
X38130000Y-67820268D01*
X38130000Y-67820268D02*
X38101429Y-67848840D01*
X38101429Y-67848840D02*
X38044286Y-67877411D01*
X77269999Y-68507411D02*
X77269999Y-68935982D01*
X77269999Y-68935982D02*
X77241428Y-69021697D01*
X77241428Y-69021697D02*
X77184285Y-69078840D01*
X77184285Y-69078840D02*
X77098571Y-69107411D01*
X77098571Y-69107411D02*
X77041428Y-69107411D01*
X77869999Y-69107411D02*
X77527142Y-69107411D01*
X77698571Y-69107411D02*
X77698571Y-68507411D01*
X77698571Y-68507411D02*
X77641428Y-68593125D01*
X77641428Y-68593125D02*
X77584285Y-68650268D01*
X77584285Y-68650268D02*
X77527142Y-68678840D01*
X53816285Y-78981697D02*
X53816285Y-79267411D01*
X53616285Y-78667411D02*
X53816285Y-78981697D01*
X53816285Y-78981697D02*
X54016285Y-78667411D01*
X54187714Y-78724554D02*
X54216286Y-78695982D01*
X54216286Y-78695982D02*
X54273429Y-78667411D01*
X54273429Y-78667411D02*
X54416286Y-78667411D01*
X54416286Y-78667411D02*
X54473429Y-78695982D01*
X54473429Y-78695982D02*
X54502000Y-78724554D01*
X54502000Y-78724554D02*
X54530571Y-78781697D01*
X54530571Y-78781697D02*
X54530571Y-78838840D01*
X54530571Y-78838840D02*
X54502000Y-78924554D01*
X54502000Y-78924554D02*
X54159143Y-79267411D01*
X54159143Y-79267411D02*
X54530571Y-79267411D01*
X59209142Y-79267411D02*
X58866285Y-79267411D01*
X59037714Y-79267411D02*
X59037714Y-78667411D01*
X59037714Y-78667411D02*
X58980571Y-78753125D01*
X58980571Y-78753125D02*
X58923428Y-78810268D01*
X58923428Y-78810268D02*
X58866285Y-78838840D01*
X59723429Y-78667411D02*
X59609143Y-78667411D01*
X59609143Y-78667411D02*
X59552000Y-78695982D01*
X59552000Y-78695982D02*
X59523429Y-78724554D01*
X59523429Y-78724554D02*
X59466286Y-78810268D01*
X59466286Y-78810268D02*
X59437714Y-78924554D01*
X59437714Y-78924554D02*
X59437714Y-79153125D01*
X59437714Y-79153125D02*
X59466286Y-79210268D01*
X59466286Y-79210268D02*
X59494857Y-79238840D01*
X59494857Y-79238840D02*
X59552000Y-79267411D01*
X59552000Y-79267411D02*
X59666286Y-79267411D01*
X59666286Y-79267411D02*
X59723429Y-79238840D01*
X59723429Y-79238840D02*
X59752000Y-79210268D01*
X59752000Y-79210268D02*
X59780571Y-79153125D01*
X59780571Y-79153125D02*
X59780571Y-79010268D01*
X59780571Y-79010268D02*
X59752000Y-78953125D01*
X59752000Y-78953125D02*
X59723429Y-78924554D01*
X59723429Y-78924554D02*
X59666286Y-78895982D01*
X59666286Y-78895982D02*
X59552000Y-78895982D01*
X59552000Y-78895982D02*
X59494857Y-78924554D01*
X59494857Y-78924554D02*
X59466286Y-78953125D01*
X59466286Y-78953125D02*
X59437714Y-79010268D01*
X60494858Y-79267411D02*
X60494858Y-78667411D01*
X60494858Y-78667411D02*
X60694858Y-79095982D01*
X60694858Y-79095982D02*
X60894858Y-78667411D01*
X60894858Y-78667411D02*
X60894858Y-79267411D01*
X61180572Y-79267411D02*
X61180572Y-78667411D01*
X61180572Y-78953125D02*
X61523429Y-78953125D01*
X61523429Y-79267411D02*
X61523429Y-78667411D01*
X61752000Y-78867411D02*
X62066286Y-78867411D01*
X62066286Y-78867411D02*
X61752000Y-79267411D01*
X61752000Y-79267411D02*
X62066286Y-79267411D01*
X60707600Y-60338068D02*
X60679028Y-60366640D01*
X60679028Y-60366640D02*
X60593314Y-60395211D01*
X60593314Y-60395211D02*
X60536171Y-60395211D01*
X60536171Y-60395211D02*
X60450457Y-60366640D01*
X60450457Y-60366640D02*
X60393314Y-60309497D01*
X60393314Y-60309497D02*
X60364743Y-60252354D01*
X60364743Y-60252354D02*
X60336171Y-60138068D01*
X60336171Y-60138068D02*
X60336171Y-60052354D01*
X60336171Y-60052354D02*
X60364743Y-59938068D01*
X60364743Y-59938068D02*
X60393314Y-59880925D01*
X60393314Y-59880925D02*
X60450457Y-59823782D01*
X60450457Y-59823782D02*
X60536171Y-59795211D01*
X60536171Y-59795211D02*
X60593314Y-59795211D01*
X60593314Y-59795211D02*
X60679028Y-59823782D01*
X60679028Y-59823782D02*
X60707600Y-59852354D01*
X61250457Y-59795211D02*
X60964743Y-59795211D01*
X60964743Y-59795211D02*
X60936171Y-60080925D01*
X60936171Y-60080925D02*
X60964743Y-60052354D01*
X60964743Y-60052354D02*
X61021886Y-60023782D01*
X61021886Y-60023782D02*
X61164743Y-60023782D01*
X61164743Y-60023782D02*
X61221886Y-60052354D01*
X61221886Y-60052354D02*
X61250457Y-60080925D01*
X61250457Y-60080925D02*
X61279028Y-60138068D01*
X61279028Y-60138068D02*
X61279028Y-60280925D01*
X61279028Y-60280925D02*
X61250457Y-60338068D01*
X61250457Y-60338068D02*
X61221886Y-60366640D01*
X61221886Y-60366640D02*
X61164743Y-60395211D01*
X61164743Y-60395211D02*
X61021886Y-60395211D01*
X61021886Y-60395211D02*
X60964743Y-60366640D01*
X60964743Y-60366640D02*
X60936171Y-60338068D01*
X62088827Y-60395211D02*
X61745970Y-60395211D01*
X61917399Y-60395211D02*
X61917399Y-59795211D01*
X61917399Y-59795211D02*
X61860256Y-59880925D01*
X61860256Y-59880925D02*
X61803113Y-59938068D01*
X61803113Y-59938068D02*
X61745970Y-59966640D01*
X62460256Y-59795211D02*
X62517399Y-59795211D01*
X62517399Y-59795211D02*
X62574542Y-59823782D01*
X62574542Y-59823782D02*
X62603114Y-59852354D01*
X62603114Y-59852354D02*
X62631685Y-59909497D01*
X62631685Y-59909497D02*
X62660256Y-60023782D01*
X62660256Y-60023782D02*
X62660256Y-60166640D01*
X62660256Y-60166640D02*
X62631685Y-60280925D01*
X62631685Y-60280925D02*
X62603114Y-60338068D01*
X62603114Y-60338068D02*
X62574542Y-60366640D01*
X62574542Y-60366640D02*
X62517399Y-60395211D01*
X62517399Y-60395211D02*
X62460256Y-60395211D01*
X62460256Y-60395211D02*
X62403114Y-60366640D01*
X62403114Y-60366640D02*
X62374542Y-60338068D01*
X62374542Y-60338068D02*
X62345971Y-60280925D01*
X62345971Y-60280925D02*
X62317399Y-60166640D01*
X62317399Y-60166640D02*
X62317399Y-60023782D01*
X62317399Y-60023782D02*
X62345971Y-59909497D01*
X62345971Y-59909497D02*
X62374542Y-59852354D01*
X62374542Y-59852354D02*
X62403114Y-59823782D01*
X62403114Y-59823782D02*
X62460256Y-59795211D01*
X63031685Y-59795211D02*
X63088828Y-59795211D01*
X63088828Y-59795211D02*
X63145971Y-59823782D01*
X63145971Y-59823782D02*
X63174543Y-59852354D01*
X63174543Y-59852354D02*
X63203114Y-59909497D01*
X63203114Y-59909497D02*
X63231685Y-60023782D01*
X63231685Y-60023782D02*
X63231685Y-60166640D01*
X63231685Y-60166640D02*
X63203114Y-60280925D01*
X63203114Y-60280925D02*
X63174543Y-60338068D01*
X63174543Y-60338068D02*
X63145971Y-60366640D01*
X63145971Y-60366640D02*
X63088828Y-60395211D01*
X63088828Y-60395211D02*
X63031685Y-60395211D01*
X63031685Y-60395211D02*
X62974543Y-60366640D01*
X62974543Y-60366640D02*
X62945971Y-60338068D01*
X62945971Y-60338068D02*
X62917400Y-60280925D01*
X62917400Y-60280925D02*
X62888828Y-60166640D01*
X62888828Y-60166640D02*
X62888828Y-60023782D01*
X62888828Y-60023782D02*
X62917400Y-59909497D01*
X62917400Y-59909497D02*
X62945971Y-59852354D01*
X62945971Y-59852354D02*
X62974543Y-59823782D01*
X62974543Y-59823782D02*
X63031685Y-59795211D01*
X63488829Y-59995211D02*
X63488829Y-60395211D01*
X63488829Y-60052354D02*
X63517400Y-60023782D01*
X63517400Y-60023782D02*
X63574543Y-59995211D01*
X63574543Y-59995211D02*
X63660257Y-59995211D01*
X63660257Y-59995211D02*
X63717400Y-60023782D01*
X63717400Y-60023782D02*
X63745972Y-60080925D01*
X63745972Y-60080925D02*
X63745972Y-60395211D01*
X64231686Y-60080925D02*
X64031686Y-60080925D01*
X64031686Y-60395211D02*
X64031686Y-59795211D01*
X64031686Y-59795211D02*
X64317400Y-59795211D01*
X70766000Y-64027411D02*
X70566000Y-63741697D01*
X70423143Y-64027411D02*
X70423143Y-63427411D01*
X70423143Y-63427411D02*
X70651714Y-63427411D01*
X70651714Y-63427411D02*
X70708857Y-63455982D01*
X70708857Y-63455982D02*
X70737428Y-63484554D01*
X70737428Y-63484554D02*
X70766000Y-63541697D01*
X70766000Y-63541697D02*
X70766000Y-63627411D01*
X70766000Y-63627411D02*
X70737428Y-63684554D01*
X70737428Y-63684554D02*
X70708857Y-63713125D01*
X70708857Y-63713125D02*
X70651714Y-63741697D01*
X70651714Y-63741697D02*
X70423143Y-63741697D01*
X71308857Y-63427411D02*
X71023143Y-63427411D01*
X71023143Y-63427411D02*
X70994571Y-63713125D01*
X70994571Y-63713125D02*
X71023143Y-63684554D01*
X71023143Y-63684554D02*
X71080286Y-63655982D01*
X71080286Y-63655982D02*
X71223143Y-63655982D01*
X71223143Y-63655982D02*
X71280286Y-63684554D01*
X71280286Y-63684554D02*
X71308857Y-63713125D01*
X71308857Y-63713125D02*
X71337428Y-63770268D01*
X71337428Y-63770268D02*
X71337428Y-63913125D01*
X71337428Y-63913125D02*
X71308857Y-63970268D01*
X71308857Y-63970268D02*
X71280286Y-63998840D01*
X71280286Y-63998840D02*
X71223143Y-64027411D01*
X71223143Y-64027411D02*
X71080286Y-64027411D01*
X71080286Y-64027411D02*
X71023143Y-63998840D01*
X71023143Y-63998840D02*
X70994571Y-63970268D01*
X72126571Y-63427411D02*
X72497999Y-63427411D01*
X72497999Y-63427411D02*
X72297999Y-63655982D01*
X72297999Y-63655982D02*
X72383714Y-63655982D01*
X72383714Y-63655982D02*
X72440857Y-63684554D01*
X72440857Y-63684554D02*
X72469428Y-63713125D01*
X72469428Y-63713125D02*
X72497999Y-63770268D01*
X72497999Y-63770268D02*
X72497999Y-63913125D01*
X72497999Y-63913125D02*
X72469428Y-63970268D01*
X72469428Y-63970268D02*
X72440857Y-63998840D01*
X72440857Y-63998840D02*
X72383714Y-64027411D01*
X72383714Y-64027411D02*
X72212285Y-64027411D01*
X72212285Y-64027411D02*
X72155142Y-63998840D01*
X72155142Y-63998840D02*
X72126571Y-63970268D01*
X72698000Y-63427411D02*
X73069428Y-63427411D01*
X73069428Y-63427411D02*
X72869428Y-63655982D01*
X72869428Y-63655982D02*
X72955143Y-63655982D01*
X72955143Y-63655982D02*
X73012286Y-63684554D01*
X73012286Y-63684554D02*
X73040857Y-63713125D01*
X73040857Y-63713125D02*
X73069428Y-63770268D01*
X73069428Y-63770268D02*
X73069428Y-63913125D01*
X73069428Y-63913125D02*
X73040857Y-63970268D01*
X73040857Y-63970268D02*
X73012286Y-63998840D01*
X73012286Y-63998840D02*
X72955143Y-64027411D01*
X72955143Y-64027411D02*
X72783714Y-64027411D01*
X72783714Y-64027411D02*
X72726571Y-63998840D01*
X72726571Y-63998840D02*
X72698000Y-63970268D01*
X73440857Y-63427411D02*
X73498000Y-63427411D01*
X73498000Y-63427411D02*
X73555143Y-63455982D01*
X73555143Y-63455982D02*
X73583715Y-63484554D01*
X73583715Y-63484554D02*
X73612286Y-63541697D01*
X73612286Y-63541697D02*
X73640857Y-63655982D01*
X73640857Y-63655982D02*
X73640857Y-63798840D01*
X73640857Y-63798840D02*
X73612286Y-63913125D01*
X73612286Y-63913125D02*
X73583715Y-63970268D01*
X73583715Y-63970268D02*
X73555143Y-63998840D01*
X73555143Y-63998840D02*
X73498000Y-64027411D01*
X73498000Y-64027411D02*
X73440857Y-64027411D01*
X73440857Y-64027411D02*
X73383715Y-63998840D01*
X73383715Y-63998840D02*
X73355143Y-63970268D01*
X73355143Y-63970268D02*
X73326572Y-63913125D01*
X73326572Y-63913125D02*
X73298000Y-63798840D01*
X73298000Y-63798840D02*
X73298000Y-63655982D01*
X73298000Y-63655982D02*
X73326572Y-63541697D01*
X73326572Y-63541697D02*
X73355143Y-63484554D01*
X73355143Y-63484554D02*
X73383715Y-63455982D01*
X73383715Y-63455982D02*
X73440857Y-63427411D01*
X52859000Y-60363468D02*
X52830428Y-60392040D01*
X52830428Y-60392040D02*
X52744714Y-60420611D01*
X52744714Y-60420611D02*
X52687571Y-60420611D01*
X52687571Y-60420611D02*
X52601857Y-60392040D01*
X52601857Y-60392040D02*
X52544714Y-60334897D01*
X52544714Y-60334897D02*
X52516143Y-60277754D01*
X52516143Y-60277754D02*
X52487571Y-60163468D01*
X52487571Y-60163468D02*
X52487571Y-60077754D01*
X52487571Y-60077754D02*
X52516143Y-59963468D01*
X52516143Y-59963468D02*
X52544714Y-59906325D01*
X52544714Y-59906325D02*
X52601857Y-59849182D01*
X52601857Y-59849182D02*
X52687571Y-59820611D01*
X52687571Y-59820611D02*
X52744714Y-59820611D01*
X52744714Y-59820611D02*
X52830428Y-59849182D01*
X52830428Y-59849182D02*
X52859000Y-59877754D01*
X53430428Y-60420611D02*
X53087571Y-60420611D01*
X53259000Y-60420611D02*
X53259000Y-59820611D01*
X53259000Y-59820611D02*
X53201857Y-59906325D01*
X53201857Y-59906325D02*
X53144714Y-59963468D01*
X53144714Y-59963468D02*
X53087571Y-59992040D01*
X53852885Y-59820611D02*
X53910028Y-59820611D01*
X53910028Y-59820611D02*
X53967171Y-59849182D01*
X53967171Y-59849182D02*
X53995743Y-59877754D01*
X53995743Y-59877754D02*
X54024314Y-59934897D01*
X54024314Y-59934897D02*
X54052885Y-60049182D01*
X54052885Y-60049182D02*
X54052885Y-60192040D01*
X54052885Y-60192040D02*
X54024314Y-60306325D01*
X54024314Y-60306325D02*
X53995743Y-60363468D01*
X53995743Y-60363468D02*
X53967171Y-60392040D01*
X53967171Y-60392040D02*
X53910028Y-60420611D01*
X53910028Y-60420611D02*
X53852885Y-60420611D01*
X53852885Y-60420611D02*
X53795743Y-60392040D01*
X53795743Y-60392040D02*
X53767171Y-60363468D01*
X53767171Y-60363468D02*
X53738600Y-60306325D01*
X53738600Y-60306325D02*
X53710028Y-60192040D01*
X53710028Y-60192040D02*
X53710028Y-60049182D01*
X53710028Y-60049182D02*
X53738600Y-59934897D01*
X53738600Y-59934897D02*
X53767171Y-59877754D01*
X53767171Y-59877754D02*
X53795743Y-59849182D01*
X53795743Y-59849182D02*
X53852885Y-59820611D01*
X54310029Y-60363468D02*
X54338600Y-60392040D01*
X54338600Y-60392040D02*
X54310029Y-60420611D01*
X54310029Y-60420611D02*
X54281457Y-60392040D01*
X54281457Y-60392040D02*
X54310029Y-60363468D01*
X54310029Y-60363468D02*
X54310029Y-60420611D01*
X54910028Y-60420611D02*
X54567171Y-60420611D01*
X54738600Y-60420611D02*
X54738600Y-59820611D01*
X54738600Y-59820611D02*
X54681457Y-59906325D01*
X54681457Y-59906325D02*
X54624314Y-59963468D01*
X54624314Y-59963468D02*
X54567171Y-59992040D01*
X55424315Y-60020611D02*
X55424315Y-60420611D01*
X55167172Y-60020611D02*
X55167172Y-60334897D01*
X55167172Y-60334897D02*
X55195743Y-60392040D01*
X55195743Y-60392040D02*
X55252886Y-60420611D01*
X55252886Y-60420611D02*
X55338600Y-60420611D01*
X55338600Y-60420611D02*
X55395743Y-60392040D01*
X55395743Y-60392040D02*
X55424315Y-60363468D01*
X55910029Y-60106325D02*
X55710029Y-60106325D01*
X55710029Y-60420611D02*
X55710029Y-59820611D01*
X55710029Y-59820611D02*
X55995743Y-59820611D01*
X74729999Y-59871411D02*
X74729999Y-60299982D01*
X74729999Y-60299982D02*
X74701428Y-60385697D01*
X74701428Y-60385697D02*
X74644285Y-60442840D01*
X74644285Y-60442840D02*
X74558571Y-60471411D01*
X74558571Y-60471411D02*
X74501428Y-60471411D01*
X75272857Y-60071411D02*
X75272857Y-60471411D01*
X75129999Y-59842840D02*
X74987142Y-60271411D01*
X74987142Y-60271411D02*
X75358571Y-60271411D01*
%TO.C,U1*%
D12*
X42960000Y-64042000D02*
X48480000Y-64042000D01*
X42960000Y-64312000D02*
X42960000Y-64042000D01*
X42960000Y-69562000D02*
X42960000Y-69292000D01*
X48480000Y-64042000D02*
X48480000Y-64312000D01*
X48480000Y-69292000D02*
X48480000Y-69562000D01*
X48480000Y-69562000D02*
X42960000Y-69562000D01*
X42130000Y-64302000D02*
X41790000Y-63832000D01*
X42470000Y-63832000D01*
X42130000Y-64302000D01*
G36*
X42130000Y-64302000D02*
G01*
X41790000Y-63832000D01*
X42470000Y-63832000D01*
X42130000Y-64302000D01*
G37*
%TO.C,C2*%
X67876748Y-72925000D02*
X68399252Y-72925000D01*
X67876748Y-74395000D02*
X68399252Y-74395000D01*
%TO.C,J2*%
X37990000Y-83930000D02*
X37990000Y-82550000D01*
X39370000Y-83930000D02*
X37990000Y-83930000D01*
X40640000Y-81170000D02*
X61070000Y-81170000D01*
X40640000Y-83930000D02*
X40640000Y-81170000D01*
X40640000Y-83930000D02*
X61070000Y-83930000D01*
X61070000Y-83930000D02*
X61070000Y-81170000D01*
%TO.C,D2*%
X66465500Y-57460000D02*
X66465500Y-59380000D01*
X66465500Y-59380000D02*
X69150500Y-59380000D01*
X69150500Y-57460000D02*
X66465500Y-57460000D01*
%TO.C,R7*%
X67948436Y-61495000D02*
X68402564Y-61495000D01*
X67948436Y-62965000D02*
X68402564Y-62965000D01*
%TO.C,C3*%
X57716748Y-57939000D02*
X58239252Y-57939000D01*
X57716748Y-59409000D02*
X58239252Y-59409000D01*
%TO.C,R6*%
X71758436Y-65305000D02*
X72212564Y-65305000D01*
X71758436Y-66775000D02*
X72212564Y-66775000D01*
%TO.C,R4*%
X67948436Y-65305000D02*
X68402564Y-65305000D01*
X67948436Y-66775000D02*
X68402564Y-66775000D01*
%TO.C,R3*%
X68402564Y-69115000D02*
X67948436Y-69115000D01*
X68402564Y-70585000D02*
X67948436Y-70585000D01*
%TO.C,C4*%
X68399252Y-76735000D02*
X67876748Y-76735000D01*
X68399252Y-78205000D02*
X67876748Y-78205000D01*
%TO.C,U4*%
D13*
X54666000Y-63810000D02*
X54666000Y-63915000D01*
X54666000Y-63810000D02*
X54771000Y-63810000D01*
X54666000Y-70810000D02*
X54666000Y-70705000D01*
X54666000Y-70810000D02*
X54771000Y-70810000D01*
X61666000Y-63810000D02*
X61561000Y-63810000D01*
X61666000Y-63810000D02*
X61666000Y-63915000D01*
X61666000Y-70810000D02*
X61561000Y-70810000D01*
X61666000Y-70810000D02*
X61666000Y-70705000D01*
D14*
X52426000Y-64510000D02*
G75*
G02*
X52226000Y-64510000I-100000J0D01*
G01*
X52226000Y-64510000D02*
G75*
G02*
X52426000Y-64510000I100000J0D01*
G01*
%TO.C,J3*%
D12*
X64660000Y-83930000D02*
X64660000Y-82550000D01*
X66040000Y-83930000D02*
X64660000Y-83930000D01*
X67310000Y-81170000D02*
X75040000Y-81170000D01*
X67310000Y-83930000D02*
X67310000Y-81170000D01*
X67310000Y-83930000D02*
X75040000Y-83930000D01*
X75040000Y-83930000D02*
X75040000Y-81170000D01*
%TO.C,Y1*%
X34970000Y-71154000D02*
X34970000Y-78524000D01*
X34970000Y-78524000D02*
X38690000Y-78524000D01*
X38690000Y-78524000D02*
X38690000Y-71154000D01*
%TO.C,R1*%
X42952936Y-77497000D02*
X43407064Y-77497000D01*
X42952936Y-78967000D02*
X43407064Y-78967000D01*
%TO.C,U2*%
D13*
X43720000Y-71394000D02*
X47720000Y-71394000D01*
X43720000Y-76434000D02*
X47720000Y-76434000D01*
D14*
X41375000Y-71419000D02*
G75*
G02*
X41175000Y-71419000I-100000J0D01*
G01*
X41175000Y-71419000D02*
G75*
G02*
X41375000Y-71419000I100000J0D01*
G01*
%TO.C,R2*%
D12*
X47979064Y-77497000D02*
X47524936Y-77497000D01*
X47979064Y-78967000D02*
X47524936Y-78967000D01*
%TO.C,U3*%
X43214000Y-57692000D02*
X48734000Y-57692000D01*
X43214000Y-57962000D02*
X43214000Y-57692000D01*
X43214000Y-63212000D02*
X43214000Y-62942000D01*
X48734000Y-57692000D02*
X48734000Y-57962000D01*
X48734000Y-62942000D02*
X48734000Y-63212000D01*
X48734000Y-63212000D02*
X43214000Y-63212000D01*
X42384000Y-57952000D02*
X42044000Y-57482000D01*
X42724000Y-57482000D01*
X42384000Y-57952000D01*
G36*
X42384000Y-57952000D02*
G01*
X42044000Y-57482000D01*
X42724000Y-57482000D01*
X42384000Y-57952000D01*
G37*
%TO.C,D1*%
X70275500Y-57460000D02*
X70275500Y-59380000D01*
X70275500Y-59380000D02*
X72960500Y-59380000D01*
X72960500Y-57460000D02*
X70275500Y-57460000D01*
%TO.C,BT1*%
X35450000Y-61104000D02*
X36830000Y-61104000D01*
X35450000Y-62484000D02*
X35450000Y-61104000D01*
X35450000Y-63754000D02*
X35450000Y-66404000D01*
X35450000Y-63754000D02*
X38210000Y-63754000D01*
X35450000Y-66404000D02*
X38210000Y-66404000D01*
X38210000Y-63754000D02*
X38210000Y-66404000D01*
%TO.C,J1*%
X78630000Y-69232000D02*
X80010000Y-69232000D01*
X78630000Y-70612000D02*
X78630000Y-69232000D01*
X78630000Y-71882000D02*
X78630000Y-79612000D01*
X78630000Y-71882000D02*
X81390000Y-71882000D01*
X78630000Y-79612000D02*
X81390000Y-79612000D01*
X81390000Y-71882000D02*
X81390000Y-79612000D01*
%TO.C,Y2*%
X54898000Y-78060000D02*
X62268000Y-78060000D01*
X62268000Y-74340000D02*
X54898000Y-74340000D01*
X62268000Y-78060000D02*
X62268000Y-74340000D01*
%TO.C,C5*%
X61526748Y-57939000D02*
X62049252Y-57939000D01*
X61526748Y-59409000D02*
X62049252Y-59409000D01*
%TO.C,R5*%
X72212564Y-61495000D02*
X71758436Y-61495000D01*
X72212564Y-62965000D02*
X71758436Y-62965000D01*
%TO.C,C1*%
X54429252Y-57939000D02*
X53906748Y-57939000D01*
X54429252Y-59409000D02*
X53906748Y-59409000D01*
%TO.C,J4*%
X76090000Y-60088000D02*
X77470000Y-60088000D01*
X76090000Y-61468000D02*
X76090000Y-60088000D01*
X76090000Y-62738000D02*
X76090000Y-67928000D01*
X76090000Y-62738000D02*
X78740000Y-62738000D01*
X76090000Y-67928000D02*
X81390000Y-67928000D01*
X78740000Y-60088000D02*
X81390000Y-60088000D01*
X78740000Y-62738000D02*
X78740000Y-60088000D01*
X81390000Y-60088000D02*
X81390000Y-67928000D01*
%TD*%
M02*
