%TF.GenerationSoftware,KiCad,Pcbnew,10.0.3*%
%TF.CreationDate,2026-09-21T13:21:07+03:00*%
%TF.ProjectId,MCU Datalogger,4d435520-4461-4746-916c-6f676765722e,1*%
%TF.SameCoordinates,Original*%
%TF.FileFunction,Plated,1,2,PTH,Drill*%
%TF.FilePolarity,Positive*%
%FSLAX46Y46*%
G04 Gerber Fmt 4.6, Leading zero omitted, Abs format (unit mm)*
G04 Created by KiCad (PCBNEW 10.0.3) date 2026-09-21 13:21:07*
%MOMM*%
%LPD*%
G01*
G04 APERTURE LIST*
%TA.AperFunction,ViaDrill*%
%ADD10C,0.300000*%
%TD*%
%TA.AperFunction,ComponentDrill*%
%ADD11C,1.000000*%
%TD*%
G04 APERTURE END LIST*
D10*
X37617400Y-59817000D03*
X45720000Y-75692000D03*
X46952000Y-66764000D03*
X47844000Y-68536735D03*
X47868765Y-62367235D03*
X52508000Y-66248630D03*
X53432000Y-71628000D03*
X55278500Y-69562500D03*
X55372000Y-64516000D03*
X55537200Y-66675000D03*
X56134000Y-73314000D03*
X56934003Y-73314000D03*
X56997600Y-67894200D03*
X57023000Y-60776000D03*
X57734006Y-73314000D03*
X57766000Y-64770000D03*
X57785000Y-68656200D03*
X58928000Y-61122000D03*
X59334400Y-68757800D03*
X59944000Y-60922000D03*
X60458886Y-68637686D03*
X61391800Y-60274200D03*
X62230000Y-63500000D03*
X63500000Y-60198000D03*
X64262000Y-68757800D03*
X64516000Y-71628000D03*
X65244504Y-63533496D03*
X65278000Y-66548000D03*
X65278000Y-77470000D03*
X65335686Y-61664314D03*
X67564000Y-68072000D03*
X67818000Y-63500000D03*
X69088000Y-60706000D03*
X69850000Y-59690000D03*
X70866000Y-77470000D03*
X72205314Y-68903314D03*
X72644000Y-71915000D03*
X72898000Y-60706000D03*
X74676000Y-73914000D03*
X74930000Y-67310000D03*
X76352400Y-58699400D03*
X76708000Y-74676000D03*
D11*
%TO.C,BT1*%
X36830000Y-62484000D03*
X36830000Y-65024000D03*
%TO.C,J2*%
X39370000Y-82550000D03*
X41910000Y-82550000D03*
X44450000Y-82550000D03*
X46990000Y-82550000D03*
X49530000Y-82550000D03*
X52070000Y-82550000D03*
X54610000Y-82550000D03*
X57150000Y-82550000D03*
X59690000Y-82550000D03*
%TO.C,J3*%
X66040000Y-82550000D03*
X68580000Y-82550000D03*
X71120000Y-82550000D03*
X73660000Y-82550000D03*
%TO.C,J4*%
X77470000Y-61468000D03*
X77470000Y-64008000D03*
X77470000Y-66548000D03*
X80010000Y-61468000D03*
X80010000Y-64008000D03*
X80010000Y-66548000D03*
%TO.C,J1*%
X80010000Y-70612000D03*
X80010000Y-73152000D03*
X80010000Y-75692000D03*
X80010000Y-78232000D03*
M02*
