%TF.GenerationSoftware,KiCad,Pcbnew,10.0.3*%
%TF.CreationDate,2026-09-21T13:21:07+03:00*%
%TF.ProjectId,MCU Datalogger,4d435520-4461-4746-916c-6f676765722e,1*%
%TF.SameCoordinates,Original*%
%TF.FileFunction,Drillmap*%
%TF.FilePolarity,Positive*%
%FSLAX45Y45*%
G04 Gerber Fmt 4.5, Leading zero omitted, Abs format (unit mm)*
G04 Created by KiCad (PCBNEW 10.0.3) date 2026-09-21 13:21:07*
%MOMM*%
%LPD*%
G01*
G04 APERTURE LIST*
%ADD10C,0.200000*%
%ADD11C,0.210000*%
G04 APERTURE END LIST*
D10*
X3429000Y-6019800D02*
X3428739Y-8124863D01*
X3429000Y-6019800D02*
G75*
G02*
X3759200Y-5689600I0J330200D01*
G01*
X3759200Y-5689600D02*
X7772400Y-5689600D01*
X3759200Y-8483600D02*
G75*
G02*
X3428739Y-8124863I-304800J50800D01*
G01*
X3759200Y-8483600D02*
X7765293Y-8486671D01*
X7772400Y-5689600D02*
G75*
G02*
X8234018Y-5950964I304800J0D01*
G01*
X8229600Y-8229600D02*
G75*
G02*
X7765290Y-8486671I-160990J-257070D01*
G01*
X8234018Y-5950964D02*
X8229600Y-8229600D01*
D11*
X3324000Y-5584600D02*
X3534000Y-5794600D01*
X3534000Y-5584600D02*
X3324000Y-5794600D01*
X3349400Y-8327800D02*
X3559400Y-8537800D01*
X3559400Y-8327800D02*
X3349400Y-8537800D01*
X7972200Y-5584600D02*
X8182200Y-5794600D01*
X8182200Y-5584600D02*
X7972200Y-5794600D01*
X7972200Y-8378600D02*
X8182200Y-8588600D01*
X8182200Y-8378600D02*
X7972200Y-8588600D01*
D10*
X3349577Y-9111473D02*
X3349577Y-8911473D01*
X3349577Y-8911473D02*
X3397196Y-8911473D01*
X3397196Y-8911473D02*
X3425767Y-8920997D01*
X3425767Y-8920997D02*
X3444815Y-8940045D01*
X3444815Y-8940045D02*
X3454339Y-8959092D01*
X3454339Y-8959092D02*
X3463862Y-8997188D01*
X3463862Y-8997188D02*
X3463862Y-9025759D01*
X3463862Y-9025759D02*
X3454339Y-9063854D01*
X3454339Y-9063854D02*
X3444815Y-9082902D01*
X3444815Y-9082902D02*
X3425767Y-9101950D01*
X3425767Y-9101950D02*
X3397196Y-9111473D01*
X3397196Y-9111473D02*
X3349577Y-9111473D01*
X3549577Y-9111473D02*
X3549577Y-8978140D01*
X3549577Y-9016235D02*
X3559101Y-8997188D01*
X3559101Y-8997188D02*
X3568624Y-8987664D01*
X3568624Y-8987664D02*
X3587672Y-8978140D01*
X3587672Y-8978140D02*
X3606720Y-8978140D01*
X3673386Y-9111473D02*
X3673386Y-8978140D01*
X3673386Y-8911473D02*
X3663862Y-8920997D01*
X3663862Y-8920997D02*
X3673386Y-8930521D01*
X3673386Y-8930521D02*
X3682910Y-8920997D01*
X3682910Y-8920997D02*
X3673386Y-8911473D01*
X3673386Y-8911473D02*
X3673386Y-8930521D01*
X3797196Y-9111473D02*
X3778148Y-9101950D01*
X3778148Y-9101950D02*
X3768624Y-9082902D01*
X3768624Y-9082902D02*
X3768624Y-8911473D01*
X3901958Y-9111473D02*
X3882910Y-9101950D01*
X3882910Y-9101950D02*
X3873386Y-9082902D01*
X3873386Y-9082902D02*
X3873386Y-8911473D01*
X4130529Y-9111473D02*
X4130529Y-8911473D01*
X4130529Y-8911473D02*
X4197196Y-9054331D01*
X4197196Y-9054331D02*
X4263863Y-8911473D01*
X4263863Y-8911473D02*
X4263863Y-9111473D01*
X4444815Y-9111473D02*
X4444815Y-9006712D01*
X4444815Y-9006712D02*
X4435291Y-8987664D01*
X4435291Y-8987664D02*
X4416244Y-8978140D01*
X4416244Y-8978140D02*
X4378148Y-8978140D01*
X4378148Y-8978140D02*
X4359101Y-8987664D01*
X4444815Y-9101950D02*
X4425767Y-9111473D01*
X4425767Y-9111473D02*
X4378148Y-9111473D01*
X4378148Y-9111473D02*
X4359101Y-9101950D01*
X4359101Y-9101950D02*
X4349577Y-9082902D01*
X4349577Y-9082902D02*
X4349577Y-9063854D01*
X4349577Y-9063854D02*
X4359101Y-9044807D01*
X4359101Y-9044807D02*
X4378148Y-9035283D01*
X4378148Y-9035283D02*
X4425767Y-9035283D01*
X4425767Y-9035283D02*
X4444815Y-9025759D01*
X4540053Y-8978140D02*
X4540053Y-9178140D01*
X4540053Y-8987664D02*
X4559101Y-8978140D01*
X4559101Y-8978140D02*
X4597196Y-8978140D01*
X4597196Y-8978140D02*
X4616244Y-8987664D01*
X4616244Y-8987664D02*
X4625767Y-8997188D01*
X4625767Y-8997188D02*
X4635291Y-9016235D01*
X4635291Y-9016235D02*
X4635291Y-9073378D01*
X4635291Y-9073378D02*
X4625767Y-9092426D01*
X4625767Y-9092426D02*
X4616244Y-9101950D01*
X4616244Y-9101950D02*
X4597196Y-9111473D01*
X4597196Y-9111473D02*
X4559101Y-9111473D01*
X4559101Y-9111473D02*
X4540053Y-9101950D01*
X4721005Y-9092426D02*
X4730529Y-9101950D01*
X4730529Y-9101950D02*
X4721005Y-9111473D01*
X4721005Y-9111473D02*
X4711482Y-9101950D01*
X4711482Y-9101950D02*
X4721005Y-9092426D01*
X4721005Y-9092426D02*
X4721005Y-9111473D01*
X4721005Y-8987664D02*
X4730529Y-8997188D01*
X4730529Y-8997188D02*
X4721005Y-9006712D01*
X4721005Y-9006712D02*
X4711482Y-8997188D01*
X4711482Y-8997188D02*
X4721005Y-8987664D01*
X4721005Y-8987664D02*
X4721005Y-9006712D01*
X2888800Y-9339990D02*
X3088800Y-9539990D01*
X3088800Y-9339990D02*
X2888800Y-9539990D01*
X3340053Y-9350521D02*
X3349577Y-9340997D01*
X3349577Y-9340997D02*
X3368624Y-9331473D01*
X3368624Y-9331473D02*
X3416243Y-9331473D01*
X3416243Y-9331473D02*
X3435291Y-9340997D01*
X3435291Y-9340997D02*
X3444815Y-9350521D01*
X3444815Y-9350521D02*
X3454339Y-9369569D01*
X3454339Y-9369569D02*
X3454339Y-9388616D01*
X3454339Y-9388616D02*
X3444815Y-9417188D01*
X3444815Y-9417188D02*
X3330529Y-9531473D01*
X3330529Y-9531473D02*
X3454339Y-9531473D01*
X3549577Y-9521950D02*
X3549577Y-9531473D01*
X3549577Y-9531473D02*
X3540053Y-9550521D01*
X3540053Y-9550521D02*
X3530529Y-9560045D01*
X3740053Y-9531473D02*
X3625767Y-9531473D01*
X3682910Y-9531473D02*
X3682910Y-9331473D01*
X3682910Y-9331473D02*
X3663862Y-9360045D01*
X3663862Y-9360045D02*
X3644815Y-9379092D01*
X3644815Y-9379092D02*
X3625767Y-9388616D01*
X3863862Y-9331473D02*
X3882910Y-9331473D01*
X3882910Y-9331473D02*
X3901958Y-9340997D01*
X3901958Y-9340997D02*
X3911482Y-9350521D01*
X3911482Y-9350521D02*
X3921005Y-9369569D01*
X3921005Y-9369569D02*
X3930529Y-9407664D01*
X3930529Y-9407664D02*
X3930529Y-9455283D01*
X3930529Y-9455283D02*
X3921005Y-9493378D01*
X3921005Y-9493378D02*
X3911482Y-9512426D01*
X3911482Y-9512426D02*
X3901958Y-9521950D01*
X3901958Y-9521950D02*
X3882910Y-9531473D01*
X3882910Y-9531473D02*
X3863862Y-9531473D01*
X3863862Y-9531473D02*
X3844815Y-9521950D01*
X3844815Y-9521950D02*
X3835291Y-9512426D01*
X3835291Y-9512426D02*
X3825767Y-9493378D01*
X3825767Y-9493378D02*
X3816243Y-9455283D01*
X3816243Y-9455283D02*
X3816243Y-9407664D01*
X3816243Y-9407664D02*
X3825767Y-9369569D01*
X3825767Y-9369569D02*
X3835291Y-9350521D01*
X3835291Y-9350521D02*
X3844815Y-9340997D01*
X3844815Y-9340997D02*
X3863862Y-9331473D01*
X4054339Y-9331473D02*
X4073386Y-9331473D01*
X4073386Y-9331473D02*
X4092434Y-9340997D01*
X4092434Y-9340997D02*
X4101958Y-9350521D01*
X4101958Y-9350521D02*
X4111482Y-9369569D01*
X4111482Y-9369569D02*
X4121005Y-9407664D01*
X4121005Y-9407664D02*
X4121005Y-9455283D01*
X4121005Y-9455283D02*
X4111482Y-9493378D01*
X4111482Y-9493378D02*
X4101958Y-9512426D01*
X4101958Y-9512426D02*
X4092434Y-9521950D01*
X4092434Y-9521950D02*
X4073386Y-9531473D01*
X4073386Y-9531473D02*
X4054339Y-9531473D01*
X4054339Y-9531473D02*
X4035291Y-9521950D01*
X4035291Y-9521950D02*
X4025767Y-9512426D01*
X4025767Y-9512426D02*
X4016243Y-9493378D01*
X4016243Y-9493378D02*
X4006720Y-9455283D01*
X4006720Y-9455283D02*
X4006720Y-9407664D01*
X4006720Y-9407664D02*
X4016243Y-9369569D01*
X4016243Y-9369569D02*
X4025767Y-9350521D01*
X4025767Y-9350521D02*
X4035291Y-9340997D01*
X4035291Y-9340997D02*
X4054339Y-9331473D01*
X4206720Y-9531473D02*
X4206720Y-9398140D01*
X4206720Y-9417188D02*
X4216244Y-9407664D01*
X4216244Y-9407664D02*
X4235291Y-9398140D01*
X4235291Y-9398140D02*
X4263863Y-9398140D01*
X4263863Y-9398140D02*
X4282910Y-9407664D01*
X4282910Y-9407664D02*
X4292434Y-9426712D01*
X4292434Y-9426712D02*
X4292434Y-9531473D01*
X4292434Y-9426712D02*
X4301958Y-9407664D01*
X4301958Y-9407664D02*
X4321005Y-9398140D01*
X4321005Y-9398140D02*
X4349577Y-9398140D01*
X4349577Y-9398140D02*
X4368625Y-9407664D01*
X4368625Y-9407664D02*
X4378148Y-9426712D01*
X4378148Y-9426712D02*
X4378148Y-9531473D01*
X4473386Y-9531473D02*
X4473386Y-9398140D01*
X4473386Y-9417188D02*
X4482910Y-9407664D01*
X4482910Y-9407664D02*
X4501958Y-9398140D01*
X4501958Y-9398140D02*
X4530529Y-9398140D01*
X4530529Y-9398140D02*
X4549577Y-9407664D01*
X4549577Y-9407664D02*
X4559101Y-9426712D01*
X4559101Y-9426712D02*
X4559101Y-9531473D01*
X4559101Y-9426712D02*
X4568625Y-9407664D01*
X4568625Y-9407664D02*
X4587672Y-9398140D01*
X4587672Y-9398140D02*
X4616244Y-9398140D01*
X4616244Y-9398140D02*
X4635291Y-9407664D01*
X4635291Y-9407664D02*
X4644815Y-9426712D01*
X4644815Y-9426712D02*
X4644815Y-9531473D01*
X5035291Y-9321950D02*
X4863863Y-9579092D01*
X5292434Y-9331473D02*
X5311482Y-9331473D01*
X5311482Y-9331473D02*
X5330529Y-9340997D01*
X5330529Y-9340997D02*
X5340053Y-9350521D01*
X5340053Y-9350521D02*
X5349577Y-9369569D01*
X5349577Y-9369569D02*
X5359101Y-9407664D01*
X5359101Y-9407664D02*
X5359101Y-9455283D01*
X5359101Y-9455283D02*
X5349577Y-9493378D01*
X5349577Y-9493378D02*
X5340053Y-9512426D01*
X5340053Y-9512426D02*
X5330529Y-9521950D01*
X5330529Y-9521950D02*
X5311482Y-9531473D01*
X5311482Y-9531473D02*
X5292434Y-9531473D01*
X5292434Y-9531473D02*
X5273387Y-9521950D01*
X5273387Y-9521950D02*
X5263863Y-9512426D01*
X5263863Y-9512426D02*
X5254339Y-9493378D01*
X5254339Y-9493378D02*
X5244815Y-9455283D01*
X5244815Y-9455283D02*
X5244815Y-9407664D01*
X5244815Y-9407664D02*
X5254339Y-9369569D01*
X5254339Y-9369569D02*
X5263863Y-9350521D01*
X5263863Y-9350521D02*
X5273387Y-9340997D01*
X5273387Y-9340997D02*
X5292434Y-9331473D01*
X5454339Y-9521950D02*
X5454339Y-9531473D01*
X5454339Y-9531473D02*
X5444815Y-9550521D01*
X5444815Y-9550521D02*
X5435291Y-9560045D01*
X5578148Y-9331473D02*
X5597196Y-9331473D01*
X5597196Y-9331473D02*
X5616244Y-9340997D01*
X5616244Y-9340997D02*
X5625767Y-9350521D01*
X5625767Y-9350521D02*
X5635291Y-9369569D01*
X5635291Y-9369569D02*
X5644815Y-9407664D01*
X5644815Y-9407664D02*
X5644815Y-9455283D01*
X5644815Y-9455283D02*
X5635291Y-9493378D01*
X5635291Y-9493378D02*
X5625767Y-9512426D01*
X5625767Y-9512426D02*
X5616244Y-9521950D01*
X5616244Y-9521950D02*
X5597196Y-9531473D01*
X5597196Y-9531473D02*
X5578148Y-9531473D01*
X5578148Y-9531473D02*
X5559101Y-9521950D01*
X5559101Y-9521950D02*
X5549577Y-9512426D01*
X5549577Y-9512426D02*
X5540053Y-9493378D01*
X5540053Y-9493378D02*
X5530529Y-9455283D01*
X5530529Y-9455283D02*
X5530529Y-9407664D01*
X5530529Y-9407664D02*
X5540053Y-9369569D01*
X5540053Y-9369569D02*
X5549577Y-9350521D01*
X5549577Y-9350521D02*
X5559101Y-9340997D01*
X5559101Y-9340997D02*
X5578148Y-9331473D01*
X5759101Y-9417188D02*
X5740053Y-9407664D01*
X5740053Y-9407664D02*
X5730529Y-9398140D01*
X5730529Y-9398140D02*
X5721006Y-9379092D01*
X5721006Y-9379092D02*
X5721006Y-9369569D01*
X5721006Y-9369569D02*
X5730529Y-9350521D01*
X5730529Y-9350521D02*
X5740053Y-9340997D01*
X5740053Y-9340997D02*
X5759101Y-9331473D01*
X5759101Y-9331473D02*
X5797196Y-9331473D01*
X5797196Y-9331473D02*
X5816244Y-9340997D01*
X5816244Y-9340997D02*
X5825767Y-9350521D01*
X5825767Y-9350521D02*
X5835291Y-9369569D01*
X5835291Y-9369569D02*
X5835291Y-9379092D01*
X5835291Y-9379092D02*
X5825767Y-9398140D01*
X5825767Y-9398140D02*
X5816244Y-9407664D01*
X5816244Y-9407664D02*
X5797196Y-9417188D01*
X5797196Y-9417188D02*
X5759101Y-9417188D01*
X5759101Y-9417188D02*
X5740053Y-9426712D01*
X5740053Y-9426712D02*
X5730529Y-9436235D01*
X5730529Y-9436235D02*
X5721006Y-9455283D01*
X5721006Y-9455283D02*
X5721006Y-9493378D01*
X5721006Y-9493378D02*
X5730529Y-9512426D01*
X5730529Y-9512426D02*
X5740053Y-9521950D01*
X5740053Y-9521950D02*
X5759101Y-9531473D01*
X5759101Y-9531473D02*
X5797196Y-9531473D01*
X5797196Y-9531473D02*
X5816244Y-9521950D01*
X5816244Y-9521950D02*
X5825767Y-9512426D01*
X5825767Y-9512426D02*
X5835291Y-9493378D01*
X5835291Y-9493378D02*
X5835291Y-9455283D01*
X5835291Y-9455283D02*
X5825767Y-9436235D01*
X5825767Y-9436235D02*
X5816244Y-9426712D01*
X5816244Y-9426712D02*
X5797196Y-9417188D01*
X5911482Y-9350521D02*
X5921006Y-9340997D01*
X5921006Y-9340997D02*
X5940053Y-9331473D01*
X5940053Y-9331473D02*
X5987672Y-9331473D01*
X5987672Y-9331473D02*
X6006720Y-9340997D01*
X6006720Y-9340997D02*
X6016244Y-9350521D01*
X6016244Y-9350521D02*
X6025767Y-9369569D01*
X6025767Y-9369569D02*
X6025767Y-9388616D01*
X6025767Y-9388616D02*
X6016244Y-9417188D01*
X6016244Y-9417188D02*
X5901958Y-9531473D01*
X5901958Y-9531473D02*
X6025767Y-9531473D01*
X6092434Y-9331473D02*
X6225767Y-9331473D01*
X6225767Y-9331473D02*
X6140053Y-9531473D01*
X6292434Y-9331473D02*
X6292434Y-9369569D01*
X6368625Y-9331473D02*
X6368625Y-9369569D01*
X6663863Y-9607664D02*
X6654339Y-9598140D01*
X6654339Y-9598140D02*
X6635291Y-9569569D01*
X6635291Y-9569569D02*
X6625768Y-9550521D01*
X6625768Y-9550521D02*
X6616244Y-9521950D01*
X6616244Y-9521950D02*
X6606720Y-9474331D01*
X6606720Y-9474331D02*
X6606720Y-9436235D01*
X6606720Y-9436235D02*
X6616244Y-9388616D01*
X6616244Y-9388616D02*
X6625768Y-9360045D01*
X6625768Y-9360045D02*
X6635291Y-9340997D01*
X6635291Y-9340997D02*
X6654339Y-9312426D01*
X6654339Y-9312426D02*
X6663863Y-9302902D01*
X6825768Y-9398140D02*
X6825768Y-9531473D01*
X6778148Y-9321950D02*
X6730529Y-9464807D01*
X6730529Y-9464807D02*
X6854339Y-9464807D01*
X7082910Y-9531473D02*
X7082910Y-9331473D01*
X7168625Y-9531473D02*
X7168625Y-9426712D01*
X7168625Y-9426712D02*
X7159101Y-9407664D01*
X7159101Y-9407664D02*
X7140053Y-9398140D01*
X7140053Y-9398140D02*
X7111482Y-9398140D01*
X7111482Y-9398140D02*
X7092434Y-9407664D01*
X7092434Y-9407664D02*
X7082910Y-9417188D01*
X7292434Y-9531473D02*
X7273387Y-9521950D01*
X7273387Y-9521950D02*
X7263863Y-9512426D01*
X7263863Y-9512426D02*
X7254339Y-9493378D01*
X7254339Y-9493378D02*
X7254339Y-9436235D01*
X7254339Y-9436235D02*
X7263863Y-9417188D01*
X7263863Y-9417188D02*
X7273387Y-9407664D01*
X7273387Y-9407664D02*
X7292434Y-9398140D01*
X7292434Y-9398140D02*
X7321006Y-9398140D01*
X7321006Y-9398140D02*
X7340053Y-9407664D01*
X7340053Y-9407664D02*
X7349577Y-9417188D01*
X7349577Y-9417188D02*
X7359101Y-9436235D01*
X7359101Y-9436235D02*
X7359101Y-9493378D01*
X7359101Y-9493378D02*
X7349577Y-9512426D01*
X7349577Y-9512426D02*
X7340053Y-9521950D01*
X7340053Y-9521950D02*
X7321006Y-9531473D01*
X7321006Y-9531473D02*
X7292434Y-9531473D01*
X7473387Y-9531473D02*
X7454339Y-9521950D01*
X7454339Y-9521950D02*
X7444815Y-9502902D01*
X7444815Y-9502902D02*
X7444815Y-9331473D01*
X7625768Y-9521950D02*
X7606720Y-9531473D01*
X7606720Y-9531473D02*
X7568625Y-9531473D01*
X7568625Y-9531473D02*
X7549577Y-9521950D01*
X7549577Y-9521950D02*
X7540053Y-9502902D01*
X7540053Y-9502902D02*
X7540053Y-9426712D01*
X7540053Y-9426712D02*
X7549577Y-9407664D01*
X7549577Y-9407664D02*
X7568625Y-9398140D01*
X7568625Y-9398140D02*
X7606720Y-9398140D01*
X7606720Y-9398140D02*
X7625768Y-9407664D01*
X7625768Y-9407664D02*
X7635291Y-9426712D01*
X7635291Y-9426712D02*
X7635291Y-9445759D01*
X7635291Y-9445759D02*
X7540053Y-9464807D01*
X7711482Y-9521950D02*
X7730530Y-9531473D01*
X7730530Y-9531473D02*
X7768625Y-9531473D01*
X7768625Y-9531473D02*
X7787672Y-9521950D01*
X7787672Y-9521950D02*
X7797196Y-9502902D01*
X7797196Y-9502902D02*
X7797196Y-9493378D01*
X7797196Y-9493378D02*
X7787672Y-9474331D01*
X7787672Y-9474331D02*
X7768625Y-9464807D01*
X7768625Y-9464807D02*
X7740053Y-9464807D01*
X7740053Y-9464807D02*
X7721006Y-9455283D01*
X7721006Y-9455283D02*
X7711482Y-9436235D01*
X7711482Y-9436235D02*
X7711482Y-9426712D01*
X7711482Y-9426712D02*
X7721006Y-9407664D01*
X7721006Y-9407664D02*
X7740053Y-9398140D01*
X7740053Y-9398140D02*
X7768625Y-9398140D01*
X7768625Y-9398140D02*
X7787672Y-9407664D01*
X7863863Y-9607664D02*
X7873387Y-9598140D01*
X7873387Y-9598140D02*
X7892434Y-9569569D01*
X7892434Y-9569569D02*
X7901958Y-9550521D01*
X7901958Y-9550521D02*
X7911482Y-9521950D01*
X7911482Y-9521950D02*
X7921006Y-9474331D01*
X7921006Y-9474331D02*
X7921006Y-9436235D01*
X7921006Y-9436235D02*
X7911482Y-9388616D01*
X7911482Y-9388616D02*
X7901958Y-9360045D01*
X7901958Y-9360045D02*
X7892434Y-9340997D01*
X7892434Y-9340997D02*
X7873387Y-9312426D01*
X7873387Y-9312426D02*
X7863863Y-9302902D01*
X8225768Y-9607664D02*
X8216244Y-9598140D01*
X8216244Y-9598140D02*
X8197196Y-9569569D01*
X8197196Y-9569569D02*
X8187672Y-9550521D01*
X8187672Y-9550521D02*
X8178149Y-9521950D01*
X8178149Y-9521950D02*
X8168625Y-9474331D01*
X8168625Y-9474331D02*
X8168625Y-9436235D01*
X8168625Y-9436235D02*
X8178149Y-9388616D01*
X8178149Y-9388616D02*
X8187672Y-9360045D01*
X8187672Y-9360045D02*
X8197196Y-9340997D01*
X8197196Y-9340997D02*
X8216244Y-9312426D01*
X8216244Y-9312426D02*
X8225768Y-9302902D01*
X8301958Y-9398140D02*
X8301958Y-9531473D01*
X8301958Y-9417188D02*
X8311482Y-9407664D01*
X8311482Y-9407664D02*
X8330530Y-9398140D01*
X8330530Y-9398140D02*
X8359101Y-9398140D01*
X8359101Y-9398140D02*
X8378149Y-9407664D01*
X8378149Y-9407664D02*
X8387672Y-9426712D01*
X8387672Y-9426712D02*
X8387672Y-9531473D01*
X8511482Y-9531473D02*
X8492434Y-9521950D01*
X8492434Y-9521950D02*
X8482911Y-9512426D01*
X8482911Y-9512426D02*
X8473387Y-9493378D01*
X8473387Y-9493378D02*
X8473387Y-9436235D01*
X8473387Y-9436235D02*
X8482911Y-9417188D01*
X8482911Y-9417188D02*
X8492434Y-9407664D01*
X8492434Y-9407664D02*
X8511482Y-9398140D01*
X8511482Y-9398140D02*
X8540054Y-9398140D01*
X8540054Y-9398140D02*
X8559101Y-9407664D01*
X8559101Y-9407664D02*
X8568625Y-9417188D01*
X8568625Y-9417188D02*
X8578149Y-9436235D01*
X8578149Y-9436235D02*
X8578149Y-9493378D01*
X8578149Y-9493378D02*
X8568625Y-9512426D01*
X8568625Y-9512426D02*
X8559101Y-9521950D01*
X8559101Y-9521950D02*
X8540054Y-9531473D01*
X8540054Y-9531473D02*
X8511482Y-9531473D01*
X8635292Y-9398140D02*
X8711482Y-9398140D01*
X8663863Y-9331473D02*
X8663863Y-9502902D01*
X8663863Y-9502902D02*
X8673387Y-9521950D01*
X8673387Y-9521950D02*
X8692434Y-9531473D01*
X8692434Y-9531473D02*
X8711482Y-9531473D01*
X8930530Y-9398140D02*
X8930530Y-9598140D01*
X8930530Y-9407664D02*
X8949577Y-9398140D01*
X8949577Y-9398140D02*
X8987673Y-9398140D01*
X8987673Y-9398140D02*
X9006720Y-9407664D01*
X9006720Y-9407664D02*
X9016244Y-9417188D01*
X9016244Y-9417188D02*
X9025768Y-9436235D01*
X9025768Y-9436235D02*
X9025768Y-9493378D01*
X9025768Y-9493378D02*
X9016244Y-9512426D01*
X9016244Y-9512426D02*
X9006720Y-9521950D01*
X9006720Y-9521950D02*
X8987673Y-9531473D01*
X8987673Y-9531473D02*
X8949577Y-9531473D01*
X8949577Y-9531473D02*
X8930530Y-9521950D01*
X9140054Y-9531473D02*
X9121006Y-9521950D01*
X9121006Y-9521950D02*
X9111482Y-9502902D01*
X9111482Y-9502902D02*
X9111482Y-9331473D01*
X9301958Y-9531473D02*
X9301958Y-9426712D01*
X9301958Y-9426712D02*
X9292435Y-9407664D01*
X9292435Y-9407664D02*
X9273387Y-9398140D01*
X9273387Y-9398140D02*
X9235292Y-9398140D01*
X9235292Y-9398140D02*
X9216244Y-9407664D01*
X9301958Y-9521950D02*
X9282911Y-9531473D01*
X9282911Y-9531473D02*
X9235292Y-9531473D01*
X9235292Y-9531473D02*
X9216244Y-9521950D01*
X9216244Y-9521950D02*
X9206720Y-9502902D01*
X9206720Y-9502902D02*
X9206720Y-9483854D01*
X9206720Y-9483854D02*
X9216244Y-9464807D01*
X9216244Y-9464807D02*
X9235292Y-9455283D01*
X9235292Y-9455283D02*
X9282911Y-9455283D01*
X9282911Y-9455283D02*
X9301958Y-9445759D01*
X9368625Y-9398140D02*
X9444815Y-9398140D01*
X9397196Y-9331473D02*
X9397196Y-9502902D01*
X9397196Y-9502902D02*
X9406720Y-9521950D01*
X9406720Y-9521950D02*
X9425768Y-9531473D01*
X9425768Y-9531473D02*
X9444815Y-9531473D01*
X9587673Y-9521950D02*
X9568625Y-9531473D01*
X9568625Y-9531473D02*
X9530530Y-9531473D01*
X9530530Y-9531473D02*
X9511482Y-9521950D01*
X9511482Y-9521950D02*
X9501958Y-9502902D01*
X9501958Y-9502902D02*
X9501958Y-9426712D01*
X9501958Y-9426712D02*
X9511482Y-9407664D01*
X9511482Y-9407664D02*
X9530530Y-9398140D01*
X9530530Y-9398140D02*
X9568625Y-9398140D01*
X9568625Y-9398140D02*
X9587673Y-9407664D01*
X9587673Y-9407664D02*
X9597196Y-9426712D01*
X9597196Y-9426712D02*
X9597196Y-9445759D01*
X9597196Y-9445759D02*
X9501958Y-9464807D01*
X9768625Y-9531473D02*
X9768625Y-9331473D01*
X9768625Y-9521950D02*
X9749577Y-9531473D01*
X9749577Y-9531473D02*
X9711482Y-9531473D01*
X9711482Y-9531473D02*
X9692435Y-9521950D01*
X9692435Y-9521950D02*
X9682911Y-9512426D01*
X9682911Y-9512426D02*
X9673387Y-9493378D01*
X9673387Y-9493378D02*
X9673387Y-9436235D01*
X9673387Y-9436235D02*
X9682911Y-9417188D01*
X9682911Y-9417188D02*
X9692435Y-9407664D01*
X9692435Y-9407664D02*
X9711482Y-9398140D01*
X9711482Y-9398140D02*
X9749577Y-9398140D01*
X9749577Y-9398140D02*
X9768625Y-9407664D01*
X9844816Y-9607664D02*
X9854339Y-9598140D01*
X9854339Y-9598140D02*
X9873387Y-9569569D01*
X9873387Y-9569569D02*
X9882911Y-9550521D01*
X9882911Y-9550521D02*
X9892435Y-9521950D01*
X9892435Y-9521950D02*
X9901958Y-9474331D01*
X9901958Y-9474331D02*
X9901958Y-9436235D01*
X9901958Y-9436235D02*
X9892435Y-9388616D01*
X9892435Y-9388616D02*
X9882911Y-9360045D01*
X9882911Y-9360045D02*
X9873387Y-9340997D01*
X9873387Y-9340997D02*
X9854339Y-9312426D01*
X9854339Y-9312426D02*
X9844816Y-9302902D01*
M02*
